<?xml version="1.0" encoding="UTF-8"?>
<svg id="Layer_2" data-name="Layer 2" xmlns="http://www.w3.org/2000/svg" viewBox="0 0 232.26 133.35">
  <defs>
    <style>
      .cls-1 {
        fill: #5c0000;
      }

      .cls-2 {
        fill: #fff;
      }

      .cls-3 {
        fill: #fb8f00;
      }

      .cls-4 {
        fill: #fee6c7;
      }

      .cls-5 {
        fill: #ff7a00;
      }

      .cls-6 {
        fill: #fec98f;
      }

      .cls-7 {
        fill: #900;
      }

      .cls-8 {
        fill: #ff3b00;
      }

      .cls-9 {
        fill: #a60000;
      }

      .cls-10 {
        fill: #b00000;
      }

      .cls-11 {
        fill: #fa7500;
      }

      .cls-12 {
        fill: #ff5700;
      }

      .cls-13 {
        fill: #a80000;
      }

      .cls-14 {
        fill: #610000;
      }

      .cls-15 {
        fill: #ff2600;
      }

      .cls-16 {
        fill: #850000;
      }

      .cls-17 {
        fill: #ff6900;
      }

      .cls-18 {
        fill: #300000;
      }

      .cls-19 {
        fill: #fa4000;
      }

      .cls-20 {
        fill: #ff7000;
      }

      .cls-21 {
        fill: #fcbb55;
      }

      .cls-22 {
        fill: #fa9100;
      }

      .cls-23 {
        fill: #ff4d00;
      }

      .cls-24 {
        fill: #fbb03b;
      }

      .cls-25 {
        fill: #6b0000;
      }

      .cls-26 {
        fill: #c20000;
      }

      .cls-27 {
        fill: red;
      }

      .cls-28 {
        fill: #ff8200;
      }
    </style>
  </defs>
  <g id="Layer_1-2" data-name="Layer 1">
    <g>
      <path d="M232.26,17.71h0c0-.11,0-.21,0-.32-.02-.52-.14-1.03-.33-1.5-.01-.05-.02-.09-.04-.14-.07-.21-.14-.39-.24-.62-.14-.27-.33-.48-.49-.64-.3-.29-.61-.53-.89-.73-1.1-.78-2.25-1.41-3.53-2.09-2.21-1.16-4.57-2.3-7.22-3.48-4.44-1.96-8.65-3.66-12.81-5.2,0-.09-.01-.18-.02-.28-.05-.38-.16-.74-.31-1.08l.35-.02-.53-.34s0-.01,0-.02c-.34-.59-.87-1.02-1.45-1.18-.22-.06-.44-.09-.68-.09-.35,0-.71,.07-1.09,.2-.43,.15-.84,.38-1.31,.71-.77,.56-1.43,1.27-1.9,2.06-.19,.32-.36,.65-.51,1-.58,1.24-.89,2.65-.87,4.08,0,.17,.01,.33,.02,.5-1.26-2-2.53-4-3.81-6.03l-.47-.74-5.34,3.37-.29-.43v.02s-.02-.02-.02-.02l-.15,.39-.19,.44-.64,.4,.28,.44-1.64,3.88,.2,.35c.24,.41,.49,.82,.73,1.23l-1.28,.91-.67,.47c-.1-.16-.22-.32-.37-.48-.15-.16-.3-.3-.46-.41-.08-.06-.2-.13-.37-.19-.07-.03-.17-.06-.3-.07h-.03s-.05,0-.05,0c-.08,0-.35,.01-.57,.19-.02,.01-.03,.02-.05,.03-.05-.1-.11-.19-.18-.27l-.03-.03-.02-.02c-.08-.08-.28-.3-.66-.33h-.1s-.09,0-.09,0c-.14,.03-.24,.07-.31,.11l-.14,.07-.21,.12c-.3,.17-.59,.35-.86,.54-.26,.18-.53,.38-.8,.6l-.19,.16s-.03,.03-.1,.09l-.03,.03-.02,.03c-.11,.14-.18,.31-.19,.49,0,.18,.03,.32,.06,.41v.03c.07,.13,.14,.26,.22,.37h-.02s-.08,.08-.08,.08c-.04,.03-.07,.06-.13,.13-.11,.13-.18,.29-.22,.46h0s0,.01,0,.01c0,.03-.01,.05-.01,.08-.03,.35,.08,.61,.15,.76l.03,.07c.14,.28,.33,.55,.56,.8l-.25,.17c-.77,.53-1.54,1.05-2.31,1.58-1.38,.94-2.8,1.92-4.21,2.86l-6.55,4.4c-3.81,2.56-7.83,5.33-13,8.97l-3.24,2.27-2.19,1.55c-.57-.33-1.21-.58-1.91-.71-.47-.09-.96-.14-1.45-.14-1.65,0-3.38,.55-4.86,1.53-.29,.19-.58,.38-.87,.58-.52,.35-1.05,.69-1.58,1.03l-1.01,.64-1.52-2.38s-.05-.07-.07-.11l-.02-.04c-.05-.09-.14-.24-.3-.39-.56-.49-1.32-.75-2.13-.75-.16,0-.32,.01-.48,.03-.5,.06-1.01,.22-1.54,.47l-.3-.49c.27-.17,.55-.34,.83-.51,.53-.32,1.06-.66,1.58-1,.26-.16,.51-.33,.77-.49l.04,.08,.1-.17,.72-.45-.22-.35,.28-.46c.27-.45,.52-.93,.73-1.42,.25-.57,.42-1.06,.55-1.53v-.04s.47-.86,.47-.86l-.98,.03h-.01c-.61-.15-1.21-.18-1.66-.19h-.2c-.19,0-.41,0-.64,.04-.17,.02-.34,.05-.5,.08-.09,.02-.18,.03-.27,.05l-.52,.08-.23-.35-.89,.59c-.7,.47-1.42,.95-2.15,1.4-.77,.48-1.58,.96-2.43,1.42l-.65,.36c-.61,.34-1.23,.69-1.84,1.06-.73,.44-1.5,.93-2.42,1.53l-.75,.49,.27,.42-.22,.3c-.05,.07-.11,.15-.16,.22-.1,.14-.2,.27-.29,.4-.17,.25-.3,.51-.42,.75-.19,.41-.43,.95-.57,1.57h0s-.46,.87-.46,.87l.97-.03h.04c.48,.11,.99,.17,1.61,.2,.23,.01,.46,.02,.68,.02,.31,0,.62-.01,.92-.04l.78-.07,.03,.04,.09-.05,.78-.07-.18-.26c.89-.46,1.73-.94,2.38-1.3,.34-.19,.68-.38,1.01-.57l.32,.51c-.48,.34-.94,.72-1.32,1.21-.04,.05-.07,.1-.1,.16-.6,.65-1.05,1.38-1.35,2.19-.35,.94-.41,1.96-.16,2.85,.12,.45,.31,.9,.58,1.31l.39,.62c-.78,.45-1.56,.91-2.34,1.37-.64,.37-1.27,.75-1.9,1.13-.34,.2-.67,.41-1.02,.62l-.59,.37c-.76,.47-1.53,.95-2.28,1.43l-2.68,1.7c-.29-.2-.62-.4-.98-.6l-.12-.06h-.17c-.86-.07-1.75-.15-2.6-.22-.42-.04-.85-.07-1.27-.11-.94-.07-1.91-.17-2.84-.26l-1.03-.1-3.88-.38-5.84-.54,.19,.31-5.95,3.7-5.46,3.44c-1.35,.85-2.69,1.7-4.04,2.55-2.25,1.43-4.58,2.9-6.89,4.33l-5.48,3.41-5.5,3.38c-2.3,1.42-4.65,2.84-6.92,4.21-1.37,.83-2.74,1.66-4.11,2.49l-.76,.46,.11,.18c-.16,.23-.28,.5-.36,.81-.13,.49-.14,.96-.13,1.32,.03,.87,.19,1.68,.34,2.31,.36,1.52,.91,2.99,1.4,4.23,.26,.64,.53,1.28,.81,1.91l-.97,.62-4.25,2.66c-1.58,.97-2.98,1.82-4.28,2.6l-4.64,2.75v.03c-.42,.3-1.1,.91-1.54,1.9-.65,1.44-1.46,2.24-3.81,2.38-.26-.03-.53-.06-.79-.08l-.71-.07-3.5,2.2-.07-.12-.52,.49-1.08,.68,.13,.21c-1.27,1.18-2.7,2.53-4.14,3.9-1.47,1.4-2.93,2.85-4.35,4.25,0,0-1.17,1.16-1.61,1.59-1.08,1.07-2.2,2.18-3.31,3.26-1.29,1.25-2.62,2.5-3.91,3.71l-.73,.68-4.27,2.54-2.18,1.29-1.4,.84h-.02c-.1,.07-.22,.14-.39,.31-.44,.45-.55,1.16-.26,1.7,.25,.5,.77,.82,1.33,.82,.07,0,.13,0,.2-.01,.32-.04,.59-.21,.67-.26l1.36-.82,6.38-3.88c1.87-.67,3.98-1.42,6.02-2.18,2.04-.74,4.05-1.5,6.1-2.27,2.26-.84,4.25-1.6,6.09-2.32,1.77-.68,3.63-1.41,5.52-2.16l.04,.07,.51-.29h0s.76-.31,.76-.31l-.06-.1c1.94-1.12,4.07-2.37,6.62-3.88,1.57-.92,3.15-1.87,4.68-2.8,.84-.51,1.69-1.02,2.53-1.52,2.43-1.46,4.84-2.93,7.17-4.38,1.25-.77,2.51-1.55,3.75-2.33,.41,.49,.83,.97,1.27,1.43,1.19,1.28,2.23,2.25,3.27,3.05,.55,.42,1.21,.9,1.95,1.26,.34,.16,.75,.34,1.19,.42,.17,.03,.33,.05,.49,.05,0,0,0,0,0,0l.21,.34,11.93-7.31c2.8-1.71,5.64-3.47,8.39-5.17l8.11-5.02,5.48-3.42c2.66-1.66,5.36-3.36,7.96-5,.99-.63,3.01-1.9,3.01-1.9l.56-.38-.06-.1s.06-.08,.09-.12l.04,.06,.09-.22c.31-.43,.55-.95,.7-1.55,.27-.59,.54-1.18,.79-1.76,.18-.4,.36-.81,.55-1.22l1.55-3.57c.34-.78,.67-1.57,1-2.36,.17-.41,.35-.82,.52-1.24l1.57-3.8v-.21c-.02-.35-.05-.71-.11-1.1,.72-.44,1.5-.91,2.29-1.36l3.04-1.75c1.16-.69,2.11-1.27,2.99-1.84,.72-.45,1.47-.94,2.39-1.54,.15,.25,.3,.49,.45,.74,.87,1.4,1.87,2.83,3.35,3.81,.73,.5,1.62,.83,2.54,.97l.26,.04c.28,.04,.55,.09,.78,.16,.26,.08,.52,.22,.81,.43,.5,.36,.98,.84,1.5,1.5,.4,.51,.8,1.09,1.28,1.88,.25,.41,.49,.82,.73,1.24,.15,.27,.31,.53,.47,.81l1.25,2.04c1.17,1.9,2.34,3.8,3.51,5.7,2.12,3.45,4.31,7.02,6.49,10.51,1.07,1.72,2.18,3.45,3.25,5.13,.62,.97,1.24,1.94,1.86,2.92,.54,.83,1.06,1.68,1.59,2.52,.31,.5,.63,1.01,.94,1.51l1.26,2.02,.63,1.01,.58,.95c.05,.1,.13,.18,.21,.24l.03,.24,.26-.09c.09,.03,.18,.05,.28,.05,.02,0,.03,0,.05,0v.02s.02-.02,.02-.02c.03,0,.05,0,.05,0h.05s.05-.01,.05-.01c.08-.02,.16-.05,.24-.08,.09-.04,.18-.09,.26-.14,.24-.15,.45-.31,.64-.47l.04-.03c.11-.09,.24-.18,.38-.27l.47-.31c.31-.21,.61-.41,.92-.59,.25-.15,.6-.41,.81-.81,.14-.25,.26-.52,.36-.73,.14-.32,.27-.65,.38-.96,.06-.15,.11-.31,.18-.47,.03-.07,.06-.15,.09-.22,.13-.32,.29-.74,.3-1.23l.24-.13h0s0-.01,0-.01l-.28-.44c-.01-.08-.03-.15-.05-.22-.07-.25-.17-.45-.27-.63-.13-.25-.27-.48-.41-.7-.05-.09-.11-.17-.16-.26l-1.98-3.28c1.12-.66,2.25-1.33,3.38-2l.21,.35c.07,.12,.14,.24,.22,.36,.45,.66,1.08,1.21,1.85,1.58,.67,.33,1.43,.52,2.25,.58,.13,0,.26,.01,.4,.01,1.31,0,2.65-.36,3.86-1.04,.23-.13,.43-.25,.63-.38l2.66-1.68c2-1.26,4.11-2.62,6.45-4.16,2.52-1.64,4.57-2.94,6.46-4.09,1.12-.68,2.24-1.33,3.29-1.93l1.65-.96c.74-.41,1.29-.8,1.74-1.21,1.17-1.05,1.96-2.4,2.24-3.78,.16-.81,.14-1.62-.07-2.36-.11-.39-.27-.77-.49-1.14l-.22-.35c1.26-.79,2.51-1.57,3.73-2.34l.26-.16,2.39,3.87c1.52,2.47,3.07,2.83,3.86,2.83,.24,0,.41-.04,.46-.05l.1-.03,.95-.59,.09,.04-.05-.06,5.71-3.52-.1,.28,1.29-.89,.25,.42,.48-.92,.09-.06c.16-.11,.32-.22,.48-.34,.29-.21,.57-.41,.86-.59,.41-.26,.86-.52,1.38-.81,.53-.29,1.01-.55,1.47-.82l.44-.26c.33-.19,.67-.39,.99-.59l.27-.17,.1-.3c.19-.57,.36-1.13,.55-1.79,.06-.21,.12-.42,.18-.63l.08-.28c.05-.17,.08-.34,.12-.51l.61-.36-.35-.58,.4-1.18-.81,.5c-.59-.99-1.17-1.96-1.74-2.91v-.11c.14-.21,.24-.45,.3-.7,.06-.28,.07-.57,.01-.84-.05-.27-.17-.5-.27-.69-.33-.64-.69-1.26-1.07-1.89-.33-.54-.67-1.07-1-1.58l-.14-.21c-.1-.17-.26-.42-.49-.6-.22-.19-.49-.33-.77-.41-.18-.05-.36-.08-.55-.08-.1,0-.2,0-.29,.02-.88-1.45-1.73-2.86-2.58-4.24-2.69-4.45-5.46-8.94-8.14-13.29l-.42-.68c.1-.18,.18-.37,.22-.57,.06-.28,.07-.57,0-.84-.05-.27-.17-.5-.27-.69-.33-.64-.68-1.23-1.07-1.89-.33-.54-.67-1.08-1.01-1.6l-.13-.2c-.1-.17-.26-.42-.49-.6-.22-.19-.49-.34-.77-.41-.18-.05-.36-.08-.55-.08-.06,0-.12,0-.18,.01-.74-1.18-1.47-2.36-2.19-3.52-.9-1.45-1.81-2.9-2.71-4.35-.4-1.23-.6-2.36-.61-3.41,0-1.41,.3-2.91,.85-4.47,.23-.65,.51-1.35,.89-2.18,.11-.23,.22-.48,.33-.73,.78,.6,1.57,1.2,2.34,1.78,1.22,.92,2.49,1.88,3.72,2.85,1.21,.93,2.46,1.92,3.45,2.72l.03,.03c1.12,.9,2.27,1.84,3.43,2.74l.11,.08c.54,.42,1.11,.86,1.71,1.28,.3,.21,.61,.43,.95,.63l.96,.57c.66,.39,1.34,.75,2.02,1.08,.84,.4,1.56,.66,2.25,.83,.54,.13,1.02,.2,1.48,.2,.42,0,.83-.06,1.2-.17,.48-.14,.93-.39,1.29-.7,.32-.27,.61-.62,.88-1.05,.44-.7,.69-1.48,.72-2.25h0Zm-17.23,46.81c-.06,.32-.28,.59-.67,.83-.29,.18-.55,.27-.78,.27-.29,0-.53-.15-.71-.33l2.08-1.31s.03-.02,.04-.03c.05,.18,.08,.38,.04,.56Zm-12.13-26.58s.04-.03,.07-.04c.43,.69,.87,1.39,1.3,2.07,1.01,1.61,2.03,3.21,3.05,4.82,.64,1,1.28,2.02,1.93,3.04l-2.45,1.52c.02-.19,.03-.39,.02-.63-.02-.42-.07-.85-.18-1.37-.15-.77-.37-1.57-.69-2.53-.52-1.55-1.18-3.16-1.96-4.77-.35-.71-.71-1.41-1.08-2.1Zm-21.16-16.71c.22,.16,.48,.26,.75,.26,.23,0,.46-.07,.64-.2,.46-.31,.94-.59,1.45-.89l.21-.12c.59-.33,1.15-.71,1.73-1.09,.49-.33,.97-.67,1.44-1.01l.51-.36c.07-.05,.18-.14,.26-.24,.28-.35,.36-.82,.21-1.25-.01-.04-.03-.07-.05-.11,.19-.13,.37-.26,.56-.4,.22,.36,.43,.72,.65,1.08l.66,1.1c1.57,2.63,3.14,5.19,4.47,7.35l4.03,6.58-.07,.04c-.17-.24-.34-.48-.52-.72-1.12-1.5-2.19-2.8-3.29-3.98-.67-.71-1.28-1.31-1.88-1.84-.4-.34-.74-.61-1.09-.86l-.05-.03c-.38-.25-.8-.53-1.44-.68-.08-.02-.21-.04-.37-.04-.13,0-.26,.02-.36,.04-.19,.04-.36,.13-.42,.17l-.08,.04-.62,.38-1.08,.66-6.45,4-8.56,5.4-4.27,2.7-4.29,2.67c-5.82,3.63-11.72,7.2-17.26,10.54l-.76,.46,.2,.33c-.04,.11-.08,.22-.1,.35-.04,.26-.03,.5-.02,.69,.04,.41,.13,.79,.2,1.08,.18,.67,.41,1.3,.63,1.89,.47,1.2,1.01,2.36,1.57,3.54,.55,1.15,1.07,2.2,1.58,3.18-.4,.28-.78,.54-1.13,.8-.81-1.31-1.61-2.6-2.4-3.87-1.31-2.13-2.67-4.28-3.98-6.35l-.24-.38c.72-.44,1.54-.93,2.38-1.39,.15-.09,.3-.17,.46-.25,.28-.15,.56-.31,.85-.48,.48-.29,.92-.6,1.31-.94,.9-.76,1.59-1.63,2.06-2.59,.54-1.08,.78-2.24,.71-3.39-.01-.14-.03-.29-.05-.43l4.92-3.3c1.13-.77,2.26-1.53,3.38-2.3,2.95-2,6.01-4.07,8.99-6.14l6.17-4.25,6.14-4.28c.55-.39,1.12-.79,1.7-1.19Zm-16.95,66.73c-4.21-6.92-8.09-13.27-11.74-19.19,.15-.08,.29-.15,.43-.23,.2-.11,.41-.23,.62-.35,.9,1.34,1.82,2.58,2.78,3.75,.97,1.18,1.79,2.1,2.59,2.91l.09,.09c.43,.42,.87,.86,1.36,1.25,.26,.21,.54,.43,.87,.62,.14,.08,.32,.17,.53,.24l.36,.58,11.6-7.11c3.72-2.28,7.48-4.61,10.67-6.6,4.15-2.58,7.54-4.69,10.64-6.64,1.76-1.1,3.53-2.22,5.29-3.33-.04,.11-.07,.22-.1,.33-.27,1.26,.39,2.46,.59,2.79,.02,.04,.04,.06,.05,.08l4.51,7.29-.26,.16c-1.25,.77-2.51,1.53-3.77,2.3-.6-.72-1.43-1.27-2.37-1.55-.57-.17-1.18-.26-1.81-.26-.46,0-.93,.05-1.4,.14-1,.2-1.96,.59-2.86,1.17-3.67,2.35-6.64,4.22-9.37,5.89-1.87,1.14-3.8,2.27-5.66,3.37-1.29,.76-2.58,1.52-3.87,2.3l-2.38,1.44c-.93,.58-1.71,1.29-2.31,2.12-.68,.92-1.11,1.96-1.24,2.97-.13,.92,0,1.86,.37,2.66l-1.78,1.13-1.61,1.04-.83-1.37Z"/>
      <g>
        <path class="cls-21" d="M34.12,118.57l-3.07-4.97-3.07-4.97-10.32,9.81-8.49,8.07-7.95,4.91c-.24,.15-.31,.46-.17,.7s.46,.31,.7,.17l7.89-4.87,11.09-4.01,13.39-4.84Z"/>
        <g>
          <path class="cls-4" d="M21.98,122.28s9.87-3.64,10.85-3.92c.98-.28-.79-2.16-2.16-2.87-.98-.51-3.01,.6-6.35,2.89-3.34,2.28-5.31,3.77,.28,1.25,5.59-2.53,7.82-2.1,3.73-.34-4.1,1.77-6.34,2.99-6.34,2.99Z"/>
          <path class="cls-22" d="M1.3,132.28l8.18-4.73,7.72-2.87c-.93-.15,.1-.61,1.92-1.57,2.31-1.21,11.81-5.4,10.01-4.66-1.8,.75-12.53,5.41-11.25,4.18,1.28-1.23,9.73-7.47,7.73-6.23-2,1.24-12.07,8.4-11.18,7.13s11.95-9.77,13.38-10.81c1.43-1.05,6.14,5.6,6.14,5.6v-.04s-5.97-9.65-5.97-9.65l-10.32,9.81-8.56,8.14-7.92,5.09s.09,.58,.12,.61Z"/>
        </g>
        <path d="M34.06,118.55l-1.59-2.39c-.54-.81-1.07-1.63-1.6-2.45l-1.58-2.46-1.57-2.47,.46,.06c-1.55,1.51-3.11,3.01-4.68,4.49-1.57,1.49-3.17,2.95-4.77,4.4-1.6,1.46-3.2,2.91-4.78,4.39-1.58,1.48-3.13,2.98-4.69,4.48h0s-.01,.02-.01,.02l-4.26,2.73-2.12,1.37-1.06,.68-.27,.17c-.08,.05-.21,.13-.2,.14-.06,.07-.07,.17-.03,.24,.04,.08,.13,.12,.21,.1,.03,.01,.27-.16,.43-.26l1.07-.68,2.14-1.34,4.28-2.69,.03-.02h.04c2.04-.76,4.07-1.5,6.12-2.23,2.04-.73,4.09-1.44,6.14-2.15,2.05-.72,4.1-1.42,6.16-2.11,2.04-.69,4.08-1.37,6.13-2.03Zm.07,.05c-2.01,.81-4.03,1.6-6.06,2.38-2.02,.79-4.05,1.55-6.08,2.31-2.03,.77-4.06,1.53-6.1,2.27-2.03,.75-4.08,1.48-6.12,2.21l.07-.03-4.32,2.63-2.16,1.31-1.08,.65-.27,.16c-.06,.04-.24,.15-.41,.17-.34,.05-.69-.13-.84-.43-.16-.3-.1-.69,.13-.93,.16-.15,.22-.16,.32-.23l.27-.16,1.09-.65,2.18-1.29,4.34-2.59-.02,.02c1.58-1.48,3.16-2.96,4.71-4.46,1.55-1.5,3.08-3.03,4.62-4.55,1.54-1.52,3.07-3.05,4.64-4.54,1.56-1.49,3.14-2.97,4.72-4.45l.27-.26,.19,.32,1.5,2.51,1.49,2.51c.5,.84,.99,1.68,1.47,2.52l1.47,2.58-.04,.02Z"/>
      </g>
      <g>
        <g>
          <path class="cls-24" d="M230.79,15.59s1.6,1.83-.21,4.21c-1.81,2.37-5.18,.63-8.58-1.42-3.4-2.05-18.16-13.74-18.16-13.74l26.94,10.96Z"/>
          <path class="cls-11" d="M229.58,20.63c-5.17,.17-11.66-5.79-11.66-5.79,11.23,8.28,12.74,3.53,12.74,3.53,0,0-3.12-.62-4.91-1.59-1.15-.62-5.36-3.99-9.06-6.93l-11.54-4.69c-.08,.1-.16,.2-.23,.31,3.43,2.71,14.25,11.19,17.1,12.91,2.85,1.72,5.68,3.22,7.59,2.26,0,0-.01,0-.02,0Z"/>
          <path d="M230.82,15.33c.46,.59,.73,1.33,.76,2.09,.04,.77-.2,1.54-.61,2.18-.2,.32-.44,.64-.75,.9-.3,.26-.67,.46-1.05,.57-.78,.23-1.59,.14-2.32-.04-.74-.18-1.45-.47-2.12-.79-.68-.32-1.33-.67-1.97-1.05l-.95-.57c-.32-.2-.63-.41-.93-.62-.61-.42-1.19-.88-1.77-1.33-1.16-.9-2.31-1.83-3.45-2.76-1.15-.92-2.3-1.84-3.47-2.73-2.31-1.82-4.69-3.55-7.01-5.36l-1.45-1.13,1.74,.63c2.14,.77,4.26,1.57,6.39,2.36,2.13,.79,4.25,1.6,6.36,2.43,2.11,.83,4.22,1.69,6.32,2.54,2.1,.87,4.2,1.74,6.28,2.65h.01s0,.01,0,.01Zm-.05,.05c-2.16-.71-4.29-1.46-6.43-2.21-2.13-.77-4.27-1.54-6.4-2.33-2.13-.79-4.25-1.6-6.36-2.44-2.11-.83-4.23-1.66-6.33-2.51l.29-.5c2.26,1.88,4.48,3.81,6.79,5.63,1.14,.92,2.31,1.81,3.5,2.69,1.19,.87,2.38,1.72,3.59,2.56,.6,.42,1.21,.83,1.82,1.23,.6,.41,1.22,.77,1.86,1.14,1.26,.73,2.55,1.44,3.91,1.83,.68,.19,1.38,.27,2.04,.12,.66-.15,1.2-.6,1.59-1.19,.4-.58,.66-1.25,.69-1.96,.03-.7-.17-1.43-.55-2.04Z"/>
        </g>
        <g>
          <path class="cls-24" d="M204.45,2.95s-.86,.2-.6,1.68c0,0,18.52,13.37,22,14.31,3.87,1.05,6.16-.84,4.93-3.36-1.23-2.52-26.34-12.64-26.34-12.64Z"/>
          <path class="cls-4" d="M229.65,15.66c-.18-.19-.74-.52-.89-.61-1.94-1.15-4.05-1.91-6.05-2.81-2.39-1.08-4.53-1.87-7.2-3.12-.62-.29-1.34-.64-2-.83-.85-.25-1.39,.28-.65,.87,.91,.72,1.98,1.26,3.14,1.94,3.53,2.07,6.89,4.22,10.53,6,.83,.41,1.91,.96,2.86,.73,1.48-.37,1.05-1.39,.27-2.16Z"/>
          <path class="cls-11" d="M230.42,18.45c-.06,0-.12,.01-.2,.04-1.48,.53-2.82,.65-8.28-2.53-5.46-3.18-15.68-10.08-15.16-10.84,.59-.87,21.15,8.51,21.15,8.51,0,0-.18-.15-.49-.4-7.13-3.89-22.98-10.28-22.98-10.28,0,0-.86,.2-.6,1.68,0,0,18.52,13.37,22,14.31,2.08,.56,3.69,.28,4.56-.5Z"/>
          <path d="M204.45,2.99c-.14,.05-.26,.16-.34,.28-.09,.12-.14,.27-.17,.42-.06,.3-.03,.62,.04,.92l-.05-.08c4.44,2.9,8.86,5.82,13.2,8.85,2.18,1.51,4.34,3.04,6.63,4.37,.57,.33,1.16,.64,1.75,.91,.59,.26,1.24,.42,1.88,.5,.64,.07,1.3,.03,1.89-.18,.59-.2,1.12-.59,1.38-1.13,.27-.53,.26-1.17,.06-1.74-.05-.14-.12-.29-.17-.41-.06-.11-.15-.2-.26-.31-.22-.2-.49-.39-.75-.57-1.09-.71-2.26-1.32-3.43-1.92-1.18-.59-2.37-1.16-3.57-1.72l-3.6-1.66-14.47-6.55Zm.01-.08c5,1.78,9.92,3.77,14.78,5.91,2.43,1.08,4.82,2.22,7.18,3.46,1.18,.63,2.35,1.26,3.46,2.04,.28,.2,.55,.4,.81,.66,.12,.12,.26,.28,.36,.46,.09,.18,.15,.33,.2,.51,.21,.68,.19,1.48-.18,2.12-.36,.65-1.01,1.06-1.67,1.26-.67,.2-1.37,.2-2.04,.11-.67-.1-1.32-.27-1.94-.55-.61-.28-1.18-.62-1.76-.94-2.3-1.33-4.57-2.7-6.82-4.11-2.26-1.4-4.44-2.9-6.61-4.42-1.08-.76-2.16-1.53-3.23-2.32-1.07-.78-2.14-1.56-3.19-2.37l-.04-.03v-.05c-.05-.33-.06-.68,.04-1.01,.09-.33,.33-.64,.67-.73h.01s.01,0,.01,0Z"/>
        </g>
      </g>
      <g>
        <path class="cls-27" d="M204.07,21.16c-.04-.06-.07-.12-.11-.18,.15,.3,.3,.6,.45,.89-.06-.19-.17-.43-.35-.71Zm.55-20.07c-1.13-.49-2.56,.64-3.35,1.52-1.39,1.55-1.95,3.82-1.94,5.86,.01,1.59,.35,3.04,.85,4.43,.54,1.5,1.27,2.93,2.01,4.41-1.17-3.07-1.85-6.87-1.02-10.86,.99-4.79,2.79-5.33,3.45-5.37Z"/>
        <g>
          <g>
            <path class="cls-27" d="M200.18,12.91c-.5-1.4-.83-2.85-.85-4.43-.02-2.05,.55-4.31,1.94-5.86,1-1.12,3.2-2.73,4.26-.71,1,1.92-.27,4.29-1.08,6.06-.91,1.98-1.68,4.07-1.78,6.26-.11,2.56,.85,4.95,1.87,7.24,.32,.73,.71,1.47,.92,2.24-1.13-1.81-1.99-3.8-2.93-5.7-.85-1.72-1.73-3.37-2.35-5.1Z"/>
            <path class="cls-7" d="M202.53,18.01c.2,.41,.4,.82,.6,1.24,.19-.03,.31-.17,.33-.44-.18-.52-.34-1.04-.47-1.57-.08-.18-.18-.36-.29-.56-2.94-5.35-.32-13.6,1.32-13.96,1.37-.3,1.18,2.81,1.08,3.84,.65-1.5,1.18-3.2,.43-4.64-1.05-2.02-3.25-.42-4.26,.71-1.39,1.55-1.95,3.82-1.94,5.86,.01,1.59,.35,3.04,.85,4.43,.62,1.73,1.5,3.38,2.35,5.1Z"/>
            <path d="M200.14,12.92c-.55-1.53-.94-3.13-.98-4.78-.03-1.64,.27-3.35,1.16-4.81,.44-.73,1.04-1.37,1.72-1.87,.35-.25,.72-.47,1.14-.62,.41-.15,.89-.23,1.36-.1,.47,.13,.83,.49,1.05,.87,.22,.38,.35,.79,.41,1.22,.11,.85-.06,1.68-.31,2.46-.26,.78-.59,1.53-.93,2.26-.34,.74-.65,1.48-.91,2.24-.54,1.52-.88,3.1-.89,4.68,.01,1.57,.41,3.12,.99,4.61,.29,.75,.62,1.48,.94,2.22,.32,.73,.71,1.46,.94,2.3l.7,2.61-1.41-2.3c-.53-.87-1-1.77-1.43-2.69-.43-.91-.81-1.84-1.2-2.77l-1.22-2.75c-.4-.92-.8-1.84-1.14-2.79Zm.07-.02c.35,.94,.77,1.85,1.24,2.73l1.45,2.64c.48,.88,.95,1.77,1.41,2.66,.47,.88,.94,1.75,1.47,2.58l-.7,.31c-.22-.73-.58-1.44-.91-2.19-.33-.74-.64-1.5-.92-2.28-.55-1.55-.97-3.2-.9-4.89,.06-1.67,.56-3.28,1.18-4.78,.32-.76,.66-1.49,1.02-2.22,.35-.73,.69-1.46,.92-2.23,.23-.76,.36-1.57,.2-2.33-.15-.73-.59-1.52-1.25-1.65-.33-.07-.69,0-1.02,.15-.34,.15-.66,.35-.97,.59-.61,.48-1.14,1.05-1.55,1.7-.82,1.31-1.27,2.88-1.39,4.47-.05,.8-.02,1.61,.1,2.41,.12,.8,.34,1.58,.61,2.35Z"/>
          </g>
          <path class="cls-27" d="M204.61,1.09c-1.13-.49-2.56,.64-3.35,1.52-1.39,1.55-1.95,3.82-1.94,5.86,.01,1.59,.35,3.04,.85,4.43,.54,1.5,1.27,2.93,2.01,4.41-1.17-3.07-1.85-6.87-1.02-10.86,.99-4.79,2.79-5.33,3.45-5.37Z"/>
          <path class="cls-7" d="M199.36,9.31c.03,.34,.07,.67,.13,1,.14,.78,.29,1.69,.63,2.4-.02-.1-.04-.21-.06-.31-1.32-6.03,1.24-8.96,1.24-8.96-2.08,6.13-.19,10.31-.19,10.31,.01-.01,.03-.03,.04-.05-.43-2.24-.52-4.7,0-7.24,.99-4.79,2.79-5.33,3.45-5.37-.37-.24-.87-.14-1.33,.03-.67,.26-1.33,.79-1.81,1.27,0,0,0,0-.01,.01-.07,.07-.13,.14-.2,.21-1.59,1.78-2.1,4.35-1.91,6.7Z"/>
          <path d="M204.42,1.06c-.32-.08-.65,0-.95,.13-.36,.15-.69,.38-1,.62-.62,.49-1.15,1.08-1.56,1.75-.81,1.34-1.16,2.93-1.29,4.5-.12,1.59,.09,3.22,.64,4.75,.53,1.54,1.34,2.96,2.13,4.39l-.44,.19c-.59-1.38-1.02-2.84-1.28-4.33-.26-1.49-.36-3.02-.21-4.53,.07-.76,.19-1.51,.37-2.24,.17-.73,.39-1.46,.67-2.17,.29-.7,.65-1.39,1.14-1.98,.24-.3,.54-.56,.87-.76,.28-.17,.59-.28,.9-.32Zm.19,.06c-.73,.12-1.28,.66-1.68,1.24-.4,.59-.68,1.27-.9,1.96-.43,1.39-.69,2.84-.8,4.28-.1,1.45-.06,2.91,.14,4.35,.21,1.45,.56,2.87,1.02,4.27l-.44,.19c-.67-1.49-1.35-2.99-1.92-4.53-.56-1.54-1-3.16-1.01-4.85-.02-1.67,.43-3.38,1.38-4.8,.47-.71,1.11-1.31,1.81-1.76,.35-.23,.74-.42,1.15-.54,.4-.11,.89-.14,1.25,.11l.08,.06-.09,.02Z"/>
        </g>
        <path class="cls-17" d="M204.4,6.25c-.02-.4-.4-.82-.8-.74-1.08,.21-1.39,2.11-1.53,2.97-.14,.91-.16,1.98-.1,2.96,.03,.52,.07,1.08,.13,1.59,.06,.45,.11,.9,.16,1.36,.3-2.22,.47-4.56,1.53-6.58,.26-.49,.63-.98,.6-1.56Z"/>
      </g>
      <g>
        <path class="cls-27" d="M223.19,68.82l-8.43,5.21s-1.63,.42-3.38-2.4c-1.81-2.94-9.22-14.93-9.22-14.93,0,0-1.23-1.87,.83-3.14,2.37-1.47,8.95,14.97,8.95,14.97l10.74-.55,.51,.84Z"/>
        <path d="M201.96,56.73c-.16-.27-.72-1.27-.51-2.3,.13-.6,.5-1.09,1.1-1.46,.21-.13,.46-.15,.73-.07,2.7,.87,8.16,13.91,8.79,15.42l10.61-.72,.78,1.27-8.64,5.33c-.07,.02-1.78,.43-3.58-2.48l-9.22-14.93s-.02-.03-.04-.07Zm3.82-.46c-1.01-1.64-1.94-2.8-2.62-3.02-.16-.05-.3-.04-.42,.03-.51,.32-.82,.73-.93,1.22-.22,1.01,.49,2.08,.5,2.09l9.23,14.93c1.53,2.47,2.95,2.35,3.15,2.32l8.25-5.09-.47-.77-10.65,.72-.05-.12c-1.39-3.39-3.87-8.9-5.99-12.32Z"/>
      </g>
      <path class="cls-18" d="M215.2,62.9s1.44,1.84-.49,3.03c-1.91,1.18-2.83-.87-2.83-.87,0,0,.27,3.62,3.02,2.29,2.75-1.33,3.16-2.31,3.16-2.31l-.88-1.53-.71-1.74-1.26,1.14Z"/>
      <path class="cls-27" d="M202.98,53.56c-.77,.47-1.08,1.03-1.16,1.54,.07,.24,.17,.39,.17,.39,0,0,7.41,11.99,9.22,14.93,1.75,2.83,3.38,2.4,3.38,2.4l7.92-4.89-11.85-19.16-.03-.04s-5.27,3.37-7.65,4.83Zm13.33,9.35c.71,1.16,.36,2.67-.8,3.39s-2.67,.36-3.39-.8c-.71-1.16-.36-2.67,.8-3.39s2.67-.36,3.39,.8Z"/>
      <path class="cls-27" d="M202.98,53.56c-.77,.47-1.08,1.03-1.16,1.54,.07,.24,.17,.39,.17,.39,0,0,7.41,11.99,9.22,14.93,1.75,2.83,3.38,2.4,3.38,2.4l7.92-4.89-11.85-19.16-.03-.04s-5.27,3.37-7.65,4.83Zm13.33,9.35c.71,1.16,.36,2.67-.8,3.39s-2.67,.36-3.39-.8c-.71-1.16-.36-2.67,.8-3.39s2.67-.36,3.39,.8Z"/>
      <path class="cls-7" d="M213.74,72.57c-.76-.46-1.28-1.17-1.86-2.06-3.15-4.81-9.76-15.68-8.92-15.59,1.01,.1,10.52,14.55,9.05,12.18-1.47-2.37-6.93-11.45-6.01-11.73,.71-.21,4.95,5.5,6.32,7.26,.02-.03,.05-.06,.07-.08-1.45-2.28-5.87-8.91-4.27-7.98,.8,.46,3.44,3.94,5.83,7.19,.22-.02,.43-.02,.64,.01-2.66-4.25-5.57-9.19-4.72-9.67,1.3-.73,12.24,15.45,12.24,15.45l-.29-.73-11.52-18.63s-4.9,3.03-7.27,4.49c-2.06,1.27-1.04,2.8-1.04,2.8,.24,.39,.48,.78,.72,1.16,.6,.97,1.2,1.94,1.8,2.91,.78,1.27,1.57,2.53,2.35,3.8,.78,1.27,1.58,2.53,2.36,3.8,.76,1.24,1.51,2.47,2.33,3.68,.26,.38,.49,.74,.82,1.06,.53,.5,1.06,.64,1.71,.89-.08-.1-.23-.15-.34-.22Zm2.73-7.36c1.42,1.96,2.24,3.08,1.55,1.96-.34-.55-.84-1.34-1.44-2.27-.03,.11-.07,.21-.11,.31Z"/>
      <g>
        <g>
          <rect class="cls-24" x="127.74" y="37.03" width="1.86" height="5.48" transform="translate(-1.7 73.56) rotate(-31.71)"/>
          <path class="cls-11" d="M126.56,38.12l1.71,2.78s0-.07-.02-.12c-.29-.97-.61-1.9-.2-2.12,.41-.22,1.47,1.21,1.47,1.21,0,0,.03-.18,.06-.39l-1.45-2.35c-.43,.1-1.12,.37-1.57,1Z"/>
          <path d="M129.26,42.84l-3.08-4.98,1.9-1.17,3.08,4.98-1.9,1.17Zm-2.57-4.86l2.69,4.35,1.27-.78-2.69-4.35-1.26,.78Z"/>
        </g>
        <g>
          <rect class="cls-24" x="119.34" y="36.3" width="14.51" height=".47" transform="translate(-.31 71.99) rotate(-31.71)"/>
          <path d="M120.48,40.8l-.44-.72,12.66-7.82,.44,.72-12.66,7.82Zm.07-.6l.05,.09,12.03-7.43-.05-.09-12.03,7.43Z"/>
        </g>
        <g>
          <rect class="cls-24" x="120.94" y="34.54" width="11.37" height="4.09" transform="translate(-.33 72.01) rotate(-31.71)"/>
          <path class="cls-4" d="M131.48,35.99c.11-.2,.64-.55,.64-.55,0,0-.69-1.55-2.22-1.43-1.53,.13-6.51,3.48-4.2,2.35,2.31-1.13,4.55-2.32,3.39-1.49-1.16,.82-6,3.82-2.85,2.36,3.14-1.45,1.48-.39,.37,.43-1.11,.82,3.47-1.85,4.16-2.24s-.03,.4-1.46,1.39c-.87,.6-1.22,1.05-.96,1.11l3.13-1.93Z"/>
          <path class="cls-11" d="M127.07,38.71s-.14-.03-.28,.02c-1.48,.55,4.54-3.5,3.49-2.84s-6.76,4.14-6.21,3.51c.55-.63,3.56-2.67,2.15-1.88-1.4,.79-3.46,1.59-2.98,1.01s5.36-3.46,5.36-3.46c0,0-5.52,3.15-6.03,3.03s3.94-2.76,6.15-4.13c2.21-1.37,3.62,1.33,3.62,1.33,0,0-.03-.14-.07-.35l-1.9-3.08-9.67,5.98,2.15,3.48,4.21-2.6Z"/>
          <path d="M122.83,41.33c-.4-.55-.8-1.11-1.18-1.67-.38-.57-.77-1.13-1.13-1.7l-.12-.18,.19-.12c.79-.52,1.59-1.02,2.4-1.52,.81-.49,1.64-.94,2.47-1.41,.83-.46,1.65-.94,2.45-1.44,.81-.5,1.59-1.03,2.38-1.55l.12-.08,.09,.13c.76,1.13,1.52,2.27,2.24,3.42l.14,.22-.23,.14c-.8,.51-1.59,1.03-2.4,1.52-.8,.5-1.62,.99-2.43,1.47-.82,.47-1.63,.96-2.46,1.42-.83,.47-1.66,.93-2.5,1.36h-.02s-.02,0-.02,0Zm.03-.06c.76-.55,1.54-1.08,2.31-1.61,.78-.54,1.58-1.04,2.37-1.57,.79-.52,1.59-1.03,2.4-1.52,.8-.5,1.62-.98,2.43-1.47l-.09,.37c-.7-1.17-1.38-2.35-2.05-3.54l.21,.05c-.82,.47-1.65,.94-2.45,1.44-.81,.49-1.6,1.01-2.38,1.55-.79,.53-1.57,1.07-2.37,1.58-.8,.5-1.61,.99-2.43,1.47l.07-.3c.35,.58,.68,1.18,1.01,1.77,.33,.58,.65,1.18,.96,1.78Z"/>
        </g>
        <g>
          <polygon class="cls-24" points="118.76 41.4 119.47 40.07 120.18 38.75 120.98 40.03 121.77 41.31 120.27 41.35 118.76 41.4"/>
          <path class="cls-11" d="M121.41,41.09c.08,0,.12-.05,.14-.13l-1.37-2.21-.71,1.32-.71,1.33h.07c.21-.21,.75-.73,1.2-1.18,.58-.56,1.38,.87,1.38,.87Z"/>
          <path d="M118.73,41.38c.12-.51,.31-.97,.53-1.43,.11-.23,.22-.45,.36-.66,.14-.21,.3-.41,.45-.61l.14-.19,.08,.19c.2,.46,.49,.88,.81,1.27,.16,.2,.32,.39,.47,.59l.43,.62,.27,.39-.5,.04c-.5,.04-1,.05-1.5,.02-.5-.03-1.01-.08-1.51-.18h-.03s0-.04,0-.04Zm.1-.03c.47-.12,.95-.2,1.42-.26,.5-.06,1-.09,1.5-.07l-.23,.43-.36-.66c-.12-.22-.22-.46-.32-.69-.2-.46-.44-.91-.77-1.29h.22c-.09,.23-.17,.47-.26,.71-.09,.23-.22,.45-.35,.67-.25,.41-.52,.81-.85,1.17Z"/>
        </g>
        <g>
          <polygon class="cls-24" points="134.49 31.68 132.98 31.73 131.48 31.77 132.27 33.05 133.06 34.33 133.77 33.01 134.49 31.68"/>
          <path class="cls-11" d="M132.98,31.73l-1.5,.04,1.02,1.66c.3,.3,.53,.51,.53,.51,0,0-.74-1.02-.61-1.41,.13-.39,2.07-.84,2.07-.84l-1.51,.05Z"/>
          <path d="M134.41,31.73c-.47,.14-.95,.2-1.43,.24-.25,.02-.5,.03-.75,.01-.25-.02-.5-.06-.75-.08l.1-.19c.2,.46,.49,.88,.81,1.27,.16,.2,.32,.39,.47,.59l.43,.62h-.49c.21-.44,.46-.88,.74-1.3,.26-.4,.54-.79,.87-1.16Zm.1-.03c-.13,.5-.31,.97-.51,1.43-.2,.46-.43,.91-.69,1.34l-.26,.43-.23-.42-.36-.66c-.12-.22-.22-.46-.32-.69-.2-.46-.44-.91-.77-1.29l-.13-.16,.23-.04c.25-.04,.5-.1,.75-.13,.25-.04,.5-.03,.75-.03,.5,0,1,.04,1.51,.17h.03s0,.04,0,.04Z"/>
        </g>
      </g>
      <g>
        <path class="cls-24" d="M212.33,32.74c-.58,.36-1.35,.18-1.71-.4l-2.41-3.9c-.36-.58-.18-1.35,.4-1.71h0c.58-.36,1.35-.18,1.7,.4l2.41,3.9c.36,.58,.18,1.35-.4,1.7h0Z"/>
        <path class="cls-4" d="M212.61,31.2s-1.12-1.59-1.23-1.63c-.11-.04,1.25,2.04,1,2.32,0,0-.16,.03-.92-1.23-.75-1.26-1.78-2.76-.45-.48,1.33,2.28,1.33,2.48,1.5,2.36,.17-.12,.46-.85,.09-1.33Z"/>
        <path class="cls-12" d="M212,32.88c.12-.03,.23-.07,.34-.14,0,0,.16-.09,.08-.04-.08-.17-.21-.4-.37-.66-2.36-4-2.83-5.09-2.19-4.15,.62,.91,2.61,4.23,2.46,3.75-.15-.47-2.61-4.6-2.37-4.32,.8,.98,2.58,3.67,2.58,3.67l-.02-.36-2.17-3.51c-.36-.58-1.12-.76-1.7-.4-.07,.05-.14,.1-.2,.16,.04,1.55,2.48,4.88,3.58,5.99Z"/>
        <path d="M212.34,32.76c-.3,.19-.69,.25-1.04,.16-.18-.04-.35-.13-.5-.24-.15-.11-.27-.28-.36-.42-.42-.57-.79-1.17-1.15-1.78-.35-.61-.67-1.24-1.03-1.85-.2-.29-.34-.67-.27-1.04,.06-.37,.26-.72,.58-.93,.31-.22,.74-.29,1.12-.18,.19,.05,.37,.15,.52,.28,.15,.12,.27,.31,.36,.45,.38,.59,.77,1.19,1.13,1.79,.36,.61,.73,1.21,1.05,1.84,.08,.15,.17,.33,.21,.52,.04,.19,.04,.38,0,.56-.08,.36-.3,.68-.61,.86Zm-.02-.03c.3-.18,.5-.51,.53-.85,.02-.17,0-.34-.06-.49-.05-.16-.15-.28-.25-.43-.42-.57-.8-1.17-1.18-1.76-.38-.6-.73-1.21-1.09-1.81-.09-.16-.17-.28-.28-.39-.11-.11-.25-.19-.39-.24-.29-.1-.64-.09-.92,.07-.28,.16-.5,.45-.56,.78-.03,.16-.03,.34,.02,.5,.04,.16,.13,.31,.23,.46,.38,.59,.8,1.17,1.19,1.75,.39,.59,.75,1.19,1.08,1.82,.08,.16,.16,.3,.27,.42,.11,.12,.26,.21,.42,.27,.32,.12,.7,.09,1-.1Z"/>
      </g>
      <g>
        <path class="cls-24" d="M227.82,57.8c-.58,.36-1.35,.18-1.7-.4l-2.41-3.9c-.36-.58-.18-1.35,.4-1.71h0c.58-.36,1.35-.18,1.71,.4l2.41,3.9c.36,.58,.18,1.35-.4,1.7h0Z"/>
        <path class="cls-4" d="M228.1,56.26s-1.12-1.59-1.23-1.63c-.11-.04,1.25,2.04,1,2.32,0,0-.16,.03-.92-1.23-.75-1.26-1.78-2.76-.45-.48,1.33,2.28,1.33,2.48,1.5,2.36,.17-.12,.46-.85,.09-1.33Z"/>
        <path class="cls-12" d="M227.48,57.94c.12-.03,.23-.07,.34-.14,0,0,.16-.09,.08-.04-.08-.17-.21-.4-.37-.66-2.36-4-2.83-5.09-2.19-4.15,.62,.91,2.61,4.23,2.46,3.75-.15-.47-2.61-4.6-2.37-4.32,.8,.98,2.58,3.67,2.58,3.67l-.02-.36-2.17-3.51c-.36-.58-1.12-.76-1.71-.4-.07,.05-.14,.1-.2,.16,.04,1.55,2.48,4.88,3.58,5.99Z"/>
        <path d="M227.82,57.82c-.3,.19-.69,.25-1.04,.16-.18-.04-.35-.13-.5-.24-.15-.11-.27-.28-.36-.42-.41-.57-.79-1.17-1.15-1.78-.35-.61-.67-1.24-1.03-1.85-.2-.29-.34-.67-.27-1.04,.06-.37,.26-.72,.58-.93,.31-.22,.74-.29,1.12-.18,.19,.05,.37,.15,.52,.28,.15,.12,.27,.31,.36,.45,.38,.59,.77,1.19,1.13,1.79,.36,.61,.73,1.21,1.05,1.84,.08,.15,.17,.33,.21,.52,.04,.19,.04,.38,0,.56-.08,.36-.3,.68-.61,.86Zm-.02-.03c.3-.18,.5-.51,.53-.85,.02-.17,0-.34-.06-.49-.05-.16-.15-.28-.25-.43-.42-.57-.8-1.17-1.18-1.76-.38-.6-.73-1.21-1.09-1.82-.09-.16-.17-.28-.28-.39-.11-.11-.24-.19-.39-.24-.29-.1-.64-.09-.92,.07-.28,.16-.5,.45-.56,.78-.03,.16-.03,.34,.02,.5,.04,.16,.13,.31,.23,.46,.38,.59,.8,1.17,1.19,1.75,.39,.59,.75,1.19,1.08,1.82,.08,.16,.16,.3,.27,.42,.11,.12,.26,.21,.42,.27,.32,.12,.7,.09,1-.1Z"/>
      </g>
      <g>
        <polygon class="cls-27" points="224.96 65.03 223.32 68.85 228.93 65.38 230.11 61.88 224.96 65.03"/>
        <path class="cls-7" d="M228.77,65.24l.23-.08,1.11-3.28-5.16,3.15-1.64,3.82,.28-.17c.04-.08,.08-.16,.12-.26,1.27-2.78,2.66-3.7,4.13-4.61,1.46-.9,.92,1.43,.92,1.43Z"/>
        <path d="M224.77,65.51c-.09,.29-.18,.58-.28,.87-.11,.28-.2,.57-.32,.85-.22,.56-.45,1.13-.72,1.67l-.21-.18c.48-.27,.98-.51,1.45-.79,.47-.28,.93-.59,1.38-.9,.45-.32,.9-.63,1.37-.93,.46-.3,.92-.6,1.39-.89l-.08,.11c.2-.58,.42-1.16,.64-1.74,.11-.29,.23-.57,.35-.86,.12-.29,.24-.57,.37-.85h.04c-.07,.31-.14,.61-.22,.91-.08,.3-.16,.6-.25,.89-.17,.59-.35,1.18-.55,1.77l-.02,.07-.06,.04c-.47,.29-.94,.56-1.42,.84-.47,.28-.96,.55-1.44,.81-.48,.26-.96,.54-1.42,.83-.46,.3-.9,.63-1.36,.94l-.37,.26,.16-.44c.21-.57,.46-1.12,.72-1.67,.13-.28,.27-.54,.4-.82,.14-.27,.28-.54,.43-.8h.03Z"/>
      </g>
      <g>
        <polygon class="cls-9" points="188.62 6.21 187.06 10.34 223.2 68.84 225.55 63.97 188.62 6.21"/>
        <path class="cls-27" d="M220.6,64.13c-.06-.08-2.01-3.11-2.07-3.18l4.67,7.89,2.31-4.8c-.05-.15-.09-.25-.11-.29l-.11-.16c-.86-1.2-7.14-9.36-7.14-9.36,0,0,3.99,6.55,4.12,7.29,.13,.74-8.51-13.83-10.59-16.61-1.68-2.25,9,13.94,9.05,15.71,.06,2.12-9.39-14.13-12.84-19.54-3.45-5.41,.95,2.89,6.52,11.79,5.73,9.16,9.54,15.67,6.18,11.27Z"/>
        <path class="cls-1" d="M194.17,19.02c2.02,2.05,28.98,46.21,16.02,24.29-12.58-21.28-17.03-28.04-13.58-22.63s24.07,37.56,24.07,37.56c0,0-2.01-3.9-4.97-9.63L188.62,6.21l-1.56,4.13,23.44,37.94c-6.2-10.5-18.27-31.23-16.33-29.26Z"/>
        <path d="M188.63,6.3l-1.5,3.96v-.11c1.54,2.41,3.07,4.83,4.61,7.25,1.54,2.42,3.06,4.85,4.57,7.28l4.55,7.3c1.49,2.45,3,4.88,4.48,7.33,2.96,4.9,5.89,9.83,8.89,14.71,2.99,4.89,6.04,9.74,9.1,14.59h-.35s2.34-4.76,2.34-4.76v.25c-3.11-4.78-6.22-9.58-9.31-14.38l-4.64-7.2-4.6-7.23c-3.08-4.81-6.1-9.66-9.15-14.49l-4.53-7.27-4.46-7.23Zm-.02-.16l4.78,7.2,4.7,7.17c3.11,4.79,6.24,9.57,9.31,14.39l4.63,7.21,4.59,7.23c3.06,4.82,6.11,9.65,9.14,14.5l.08,.13-.07,.13-2.44,4.72-.17,.32-.18-.3c-2.96-4.91-5.94-9.8-8.97-14.66-3.02-4.87-6.12-9.69-9.18-14.54-1.53-2.42-3.03-4.86-4.55-7.29l-4.49-7.33c-1.5-2.44-2.99-4.89-4.46-7.35-1.48-2.45-2.96-4.91-4.42-7.37l-.03-.05,.02-.05,1.71-4.04Z"/>
      </g>
      <g>
        <path class="cls-17" d="M220.9,68.29c.51-.32,.26-.91,.03-1.31-.14-.25-.34-.5-.52-.75-.23-.32-.45-.65-.67-.98-.64-.96-1.31-1.91-1.97-2.85-1.39-1.97-2.76-3.95-4.28-5.83-.18-.22-.87-1.27-1.23-1.21-.42,.07,1.68,3.72,3.64,7.04,.16,.15,.3,.31,.42,.5,.13,.22,.23,.45,.29,.69,1.24,2.09,2.29,3.82,2.39,4.08,.3,.81,.18,1.55-1.49-.37-.38-.43-.85-1.01-1.34-1.6-.18,.23-.39,.43-.65,.59-.16,.1-.32,.17-.48,.23,.11,.44-.08,.39-.4,.1-.85,.14-1.74-.18-2.31-.87,.2,.6,.57,1.43,1.14,2.51,2.26,4.28-1.57-.34-3.64-2.89-2.06-2.55-4.09-4.68,.31,1.83,1.05,1.55,2.37,3.83,3.84,4.54,.89,.43,1.92-.35,2.65-.8,1.3-.82,2.67-1.68,4.28-2.67Z"/>
        <path d="M201.82,55.57c-.06-.1-.39-.67-.23-1.4,.14-.63,.59-1.18,1.33-1.64l7.43-4.59,12.4,20.05-8.13,5.01c-.07,.02-1.78,.43-3.58-2.48l-9.22-14.93s0,0,0-.01Zm8.42-7.12l-7.12,4.4c-.66,.41-1.05,.88-1.17,1.4-.14,.63,.18,1.14,.19,1.14l9.22,14.93c1.54,2.5,2.95,2.36,3.15,2.32l7.73-4.78-12.01-19.41Z"/>
      </g>
      <g>
        <polygon class="cls-27" points="165.56 93.38 164.2 91.17 218.89 57.52 220.3 58.27 220.34 59.27 165.56 93.38"/>
        <path class="cls-5" d="M215.9,61.27c-3.85,2.55-7.73,5.06-11.63,7.52-3.9,2.48-7.81,4.92-11.74,7.35-3.93,2.42-7.86,4.83-11.82,7.21-3.95,2.38-7.93,4.73-11.93,7.03,3.85-2.55,7.73-5.06,11.63-7.52,3.9-2.48,7.81-4.92,11.74-7.35,3.93-2.42,7.87-4.83,11.82-7.21,3.95-2.38,7.93-4.73,11.93-7.03Z"/>
        <path class="cls-7" d="M165.76,93.26l1.02-.63c-.69-1.72,2.21-3.44,2.21-3.44,0,0,40.64-25,45.35-27.9,4.7-2.91,5.5-1.59,5.5-1.59,.07-.04,.49-.39,.55-.44l-.1-.85-.83-.62-.69-.25-54.57,33.64,1,1.62c.19,.19,.38,.35,.57,.48Z"/>
        <path d="M165.55,93.43l-1.44-2.21-.05-.08,.08-.05,3.45-2.22,3.46-2.2,3.46-2.2,3.48-2.18,6.96-4.34c2.34-1.42,4.66-2.87,7.01-4.27,4.69-2.82,9.39-5.62,14.05-8.48l7-4.28c1.16-.72,2.31-1.46,3.49-2.17,.59-.35,1.18-.7,1.78-1.04,.16-.08,.29-.17,.47-.25,.22-.09,.43-.09,.64-.04,.4,.1,.71,.36,.94,.67,.11,.16,.2,.33,.26,.53,.05,.2,.07,.42-.02,.65-.05,.11-.11,.21-.2,.29-.1,.08-.16,.12-.23,.18l-.42,.3c-.56,.4-1.12,.8-1.68,1.18-1.13,.79-2.32,1.48-3.47,2.21l-6.94,4.37c-4.63,2.92-9.28,5.8-13.95,8.66-9.32,5.74-18.68,11.4-28.11,16.96l-.03,.02Zm.02-.1c9.18-5.94,18.42-11.77,27.71-17.53l6.98-4.32,7-4.29c2.33-1.44,4.65-2.88,7-4.29,1.17-.71,2.36-1.38,3.49-2.13,.57-.37,1.14-.75,1.7-1.14l.42-.29c.16-.11,.23-.16,.27-.26,.09-.2,0-.51-.17-.75-.17-.24-.42-.45-.68-.52-.13-.04-.27-.02-.37,0-.13,.06-.3,.15-.44,.23-.6,.32-1.2,.65-1.79,.99-1.18,.68-2.35,1.39-3.53,2.09-2.34,1.42-4.7,2.81-7.02,4.25-4.65,2.88-9.26,5.84-13.88,8.77-2.31,1.47-4.64,2.9-6.96,4.35l-7,4.28-3.5,2.14-3.52,2.11-3.52,2.11-3.53,2.09,.03-.13,1.3,2.21Z"/>
      </g>
      <g>
        <path class="cls-24" d="M113.61,80.62l5.88-14.41s-.04-3.25-1.93-6.31l.13,.21c-1.89-3.06-4.78-4.55-4.78-4.55l-15.52-1.19,16.21,26.25Z"/>
        <path class="cls-4" d="M118.71,68.13c.05-.22,.07-.35,.07-.35,0,0-1.76-6.56-6.39-8.4-4.56-1.81,3.21,6.9,2.88,17.17l3.44-8.42Z"/>
        <path class="cls-22" d="M117.56,59.91s.04,.07,.06,.11c.02,.03,.05,.07,.07,.1l-.13-.21Zm-3.66,19.66c1.38-4.49-.59-11.8-5.06-17.63-4.47-5.83-2.24-5,2.57-4.57,5.05,.45,7.9,9.25,7.9,9.25,0,0,.14-3.58-1.68-6.61-1.89-2.99-4.71-4.45-4.71-4.45l-15.52-1.19,15.86,25.68c.32,0,.54-.15,.65-.48Z"/>
        <path d="M113.6,80.53c.42-1.2,.88-2.39,1.31-3.58l1.39-3.63c.46-1.21,.95-2.41,1.42-3.62l1.45-3.61-.02,.13c-.02-.52-.09-1.07-.18-1.6-.09-.54-.21-1.07-.36-1.59-.3-1.04-.71-2.06-1.26-3l.41-.25,.13,.21-.4,.24c-.55-.94-1.24-1.8-2.02-2.58-.39-.39-.81-.75-1.24-1.08-.43-.34-.9-.65-1.37-.91h.04c-1.29-.1-2.59-.18-3.88-.27-1.29-.1-2.59-.16-3.88-.24l-3.89-.22-3.88-.24,.3-.5,4.11,6.53,2.03,3.28,2.01,3.29,3.95,6.62,1.95,3.33c.63,1.09,1.26,2.18,1.88,3.28Zm-.02,.11c-.72-1.06-1.42-2.14-2.14-3.21l-2.1-3.23-4.15-6.5-2.05-3.27-2.02-3.28-4-6.6-.34-.55,.64,.06,3.87,.36,3.87,.38c1.29,.12,2.58,.25,3.87,.35,1.29,.1,2.58,.23,3.88,.31h.02s.02,.01,.02,.01c.5,.27,.96,.58,1.42,.91,.45,.33,.89,.69,1.3,1.06,.83,.75,1.58,1.61,2.2,2.56l-.4,.24-.14-.21,.41-.25c.62,.95,1.1,1.99,1.45,3.07,.17,.54,.31,1.09,.42,1.65,.1,.56,.18,1.11,.2,1.71v.07s-.02,.07-.02,.07l-1.49,3.6c-.51,1.19-1,2.39-1.52,3.58l-1.55,3.57c-.53,1.18-1.05,2.37-1.6,3.55l-.03,.06-.04-.06Z"/>
      </g>
      <g>
        <polygon class="cls-27" points="166.73 59.24 205.37 35.37 204.99 33.86 203.63 31.76 202.63 30.94 164 54.81 166.73 59.24"/>
        <path class="cls-7" d="M205.34,35.25s-1.09-2.5-2.4-3.13c-1.01-.49-3.02,1.06-2.44,2.33,.51,1.11,1.33,3,1.33,3l-2.84-4.28,3.63-2.21s2.6,1.86,2.71,4.3Z"/>
        <path d="M166.76,59c.49,.03,.96-.2,1.41-.41,.44-.23,.87-.49,1.29-.76,.83-.56,1.62-1.17,2.41-1.79,.2-.15,.4-.31,.6-.46,.21-.15,.42-.28,.63-.42l1.26-.82,2.52-1.64c3.36-2.2,6.75-4.33,10.18-6.4,3.42-2.09,6.89-4.1,10.32-6.17,1.72-1.04,3.49-1.98,5.18-3.05,.85-.53,1.68-1.08,2.49-1.67,.05-.04,.11-.08,.16-.11,.02-.01,.07-.05,.07-.04,0,0,.02-.01,.01-.01,0,0-.02,.02-.02,.02,0,0,0,0,0,0,0-.07-.02-.2-.05-.31-.06-.23-.16-.46-.25-.69-.18-.47-.39-.9-.66-1.31-.26-.41-.57-.8-.91-1.15-.16-.17-.35-.34-.54-.49-.09-.07-.21-.16-.25-.17,0,0,0,0,.06,0,.06-.01,.08-.03,.06-.02h-.02s-.08,.06-.08,.06l-.16,.1-2.53,1.62-5.08,3.22-10.2,6.37-5.12,3.15-2.56,1.57-2.58,1.54c-1.72,1.04-3.45,2.05-5.18,3.06l-5.18,3.05,.03-.11,1.31,2.2c.11,.18,.22,.36,.33,.55l.29,.57c.1,.19,.2,.38,.31,.55,.06,.09,.12,.18,.19,.25,.07,.07,.17,.09,.27,.11Zm0,.07c-.11-.01-.23-.04-.31-.13-.08-.08-.14-.17-.2-.26-.12-.18-.22-.37-.32-.56l-.29-.57-.33-.54-1.36-2.17-.04-.07,.07-.04,5.05-3.27c1.68-1.09,3.36-2.19,5.05-3.26l2.54-1.62,2.55-1.59,5.11-3.17,10.26-6.26,5.15-3.1,2.58-1.54,.16-.1,.08-.05h.02s.03-.03,.1-.05c.08,0,.12,.01,.15,.02,.19,.09,.26,.16,.37,.25,.2,.17,.38,.34,.56,.54,.35,.38,.65,.79,.92,1.23,.26,.43,.49,.92,.65,1.38,.09,.24,.18,.48,.24,.73,.03,.13,.07,.25,.05,.43,0,.02-.01,.05-.03,.08,0,.01-.02,.04-.04,.06-.02,.02-.01,.01-.02,.02-.06,.04-.06,.04-.1,.06-.06,.04-.1,.06-.15,.1-.82,.58-1.66,1.13-2.52,1.65-1.72,1.04-3.45,2.05-5.16,3.09-3.39,2.14-6.74,4.34-10.14,6.46-3.39,2.14-6.81,4.22-10.28,6.24l-2.59,1.52-1.3,.76c-.22,.13-.44,.25-.64,.39-.21,.14-.41,.28-.61,.43-.82,.58-1.62,1.18-2.47,1.72-.42,.27-.85,.53-1.3,.76-.23,.11-.46,.22-.7,.29-.24,.08-.49,.14-.75,.11Z"/>
      </g>
      <g>
        <path class="cls-24" d="M112.69,82.05c2.61-1.98,1.11-9.38-3.46-16.77-4.57-7.4-10.51-12.05-13.45-10.61h0s-.19,.1-.19,.1h0s0,0,0,0l-43.75,27.03,16.93,27.41,43.94-27.15h0Z"/>
        <path class="cls-4" d="M95.98,64.82s-20.76,12.72-21.58,13.33c-.82,.62,12.17-5.23,18.5-8.59,6.33-3.37-12.74,9.62-17.41,12.83-4.68,3.22,11.11-4.46,19.23-8.82,8.12-4.36,10.09-3.29,.81,2.01-9.29,5.3-24.83,16.21-17.21,12.27,7.62-3.94,26.92-13.31,20.64-8.49-22.26,17.07-1.66,5.62,2.88,3.25,4.54-2.37-.97,4.09,4.16,1.25,5.13-2.84,5.42-7.5,2.51-12.03-2.91-4.54-7.23-10.28-12.52-7.01Z"/>
        <path class="cls-22" d="M77.14,89.41c.29-.15,.47-.24,.47-.24,0,0-.17,.09-.47,.24Zm1.95,10.65c8.88-6.14,30.06-19.23,11.55-8.88-18.51,10.34-21.66,5.95-20.86,3.71,.67-1.89,5.78-4.65,7.36-5.47-1.96,.99-9.43,4.67-8.44,2.79,1.14-2.16,31.44-20.3,31.44-20.3,0,0-21.34,11.43-28.46,14.52-7.12,3.09,.25-3.36,4.15-5.77,3.9-2.41,12.5-7.58,8.98-5.98-3.53,1.6-23.03,11.75-18.22,7.76,4.81-3.99,27.53-17.44,25.33-16.52s-31.07,17.59-31.58,16.3c-.51-1.29,18.06-13.2,27.34-18.93s14.09-2.88,19.01,2.24c4.34,4.53,6.76,11.83,7.26,13.47,.18-3.32-1.51-8.52-4.73-13.72-4.57-7.4-10.51-12.05-13.45-10.61h0s-.19,.1-.19,.1h0s0,0,0,0l-43.75,27.03,16.93,27.41,3.49-2.16c.98-2,2.94-4.29,6.84-6.99Z"/>
        <path d="M112.66,82.02c.59-.47,.9-1.19,1.05-1.91,.15-.73,.17-1.48,.11-2.23-.11-1.49-.48-2.96-.94-4.38-.93-2.85-2.3-5.55-3.89-8.09-1.61-2.53-3.43-4.94-5.58-7.01-1.08-1.03-2.24-1.98-3.51-2.71-.64-.36-1.31-.67-2-.83-.68-.17-1.4-.18-1.99,.1l-.27,.13-.16-.25h0s.45,.09,.45,.09l-5.5,3.38-5.52,3.34c-3.68,2.23-7.38,4.44-11.05,6.69l-5.51,3.37-5.48,3.41c-3.66,2.27-7.29,4.58-10.94,6.86l.07-.3,8.48,13.54,8.43,13.57-.54-.13,11.04-6.72c3.67-2.25,7.37-4.46,11.06-6.68l5.54-3.33,5.55-3.31c3.69-2.22,7.41-4.39,11.12-6.59v.05s-.04-.04-.04-.04l.03-.02Zm.07,.04v.02s-.02,.02-.02,.02c-3.64,2.3-7.28,4.61-10.94,6.88l-5.48,3.42-5.49,3.4c-3.66,2.27-7.32,4.54-11,6.79l-11.02,6.75-.34,.21-.21-.34-8.33-13.63-8.28-13.66-.11-.19,.19-.11c3.68-2.24,7.37-4.45,11.03-6.71l5.5-3.38,5.48-3.42c3.66-2.27,7.28-4.59,10.93-6.88l5.46-3.44,5.48-3.41,.28-.17,.17,.28h0s-.42-.11-.42-.11c.78-.39,1.67-.35,2.44-.16,.78,.19,1.49,.53,2.16,.92,1.34,.78,2.52,1.77,3.61,2.84,2.18,2.14,4.03,4.58,5.61,7.17,1.57,2.6,2.89,5.36,3.78,8.26,.43,1.45,.76,2.95,.83,4.48,.03,.76,0,1.53-.18,2.28-.18,.73-.53,1.45-1.14,1.91Z"/>
      </g>
      <g>
        <path class="cls-24" d="M205.81,49.95c1.02-.79-1.05-7.2-5.29-14.05-4.23-6.85-9.04-11.57-10.2-11.02l-.03-.04-42.69,26.37,15.53,25.14,42.69-26.37-.02-.03Z"/>
        <path class="cls-4" d="M202.19,45.58c.27,2.06-1.82,3.51-3.36,4.49-.44,.28-.88,.57-1.32,.86-7.13,4.73-29.18,18.36-32.05,16.19-2.86-2.16-3.67-5.59-3.67-5.59,0,0,4.53,6.09,4.84,4.36,.23-1.23-3.66-6.27-4.07-9.18-.43-3.12,4.02,2.13,6.09,6.21,2.37,4.66,2.46,1.72,2.06,.32-.48-1.67-4.89-8.59-4.63-10.68,.32-2.66,5.16,5.34,6.81,8.25,1.65,2.91-.72-2.94-1.98-7.22-1.47-4.97,3.21,3.25,4.81,5.5,1.89,2.66,4.14,3.5,2.15-.84-6.12-13.34-.32-6.47,2.71-1.59,1.94,3.12,2.67,2.64,1.73,.3-.93-2.34-5.98-13.46-1.12-6.3,3.98,5.86,4.82,6.89,4.53,5.25-.29-1.64-3.92-9.56-3.23-10.56,.69-1.01,4.03,7.12,5.6,8.48,1.57,1.36,1.09-1.18-.74-4.86-1.83-3.67-3.22-5.74-2.53-6.23,1.01-.71,4.41,6.08,5.77,9.1,.71,1.58,1.6,1.95,1.38-.09-.26-2.32-1.19-4.09-2.28-6.27-.58-1.16-2.67-3.91-1.55-4.68,.56-.39,1.72,.97,1.79,1.06,.61,.72,1.5,2.05,1.95,2.87,1.1,2.02,1.79,3.36,2.73,5.54,.07,.16,.37,.64,.61,.69,.43,.09,.5-.61,.5-.8,.04-1.23-.61-2.6-1.06-3.73-.75-1.88-1.75-3.48-2.68-5.26-.26-.49-.57-1.38-.35-1.72,.41-.66,1.52,.99,1.71,1.25,.69,.95,1.22,1.99,1.75,3.04,.55,1.08,1.13,2.14,1.64,3.24,.28,.6,1.22,2.08,2.07,1.4,.71-.57,.23-1.65-.04-2.31-.44-1.07-.97-2.11-1.46-3.16-.53-1.12-1.07-2.12-1.77-3.28-.3-.5-3.31-4.38-1.83-4.66,.7-.14,1.55,.34,2.11,.71,1.29,.85,2.18,2.14,3.01,3.4,.83,1.26,1.66,2.51,2.38,3.84,.4,.74,.73,1.52,.94,2.34,.03,.11,.05,.22,.06,.32Z"/>
        <path class="cls-11" d="M186.29,30c1.4,1.31,2.64,2.7,3.84,4.15,1.19,1.45,2.31,2.95,3.35,4.51,2.07,3.12,3.81,6.45,5.07,9.96-1.43-3.44-3.33-6.66-5.52-9.64-1.1-1.49-2.28-2.92-3.52-4.28-1.24-1.36-2.56-2.68-3.94-3.85l.73-.84Z"/>
        <path class="cls-11" d="M183.09,31.53c1.4,1.31,2.64,2.7,3.84,4.15,1.19,1.45,2.31,2.95,3.35,4.51,2.07,3.12,3.81,6.45,5.07,9.96-1.43-3.44-3.33-6.66-5.52-9.64-1.1-1.49-2.28-2.92-3.52-4.28-1.24-1.36-2.56-2.68-3.94-3.85l.73-.84Z"/>
        <path class="cls-11" d="M179.32,33.21c1.4,1.31,2.64,2.7,3.84,4.15,1.19,1.45,2.31,2.95,3.35,4.51,2.07,3.12,3.81,6.45,5.07,9.96-1.43-3.44-3.33-6.66-5.52-9.64-1.1-1.49-2.28-2.92-3.52-4.28-1.24-1.36-2.56-2.68-3.94-3.85l.73-.84Z"/>
        <path class="cls-11" d="M176.84,35.39c1.15,1.08,2.18,2.22,3.18,3.4,1,1.18,1.94,2.4,2.84,3.65,1.78,2.51,3.36,5.17,4.64,7.95-1.45-2.7-3.17-5.24-5.08-7.61-.96-1.19-1.96-2.33-3.01-3.43-1.05-1.09-2.15-2.16-3.29-3.11l.73-.84Z"/>
        <path class="cls-11" d="M172.96,37.24c1.4,1.31,2.64,2.7,3.84,4.15,1.19,1.45,2.31,2.95,3.35,4.51,2.07,3.12,3.81,6.45,5.07,9.96-1.43-3.44-3.33-6.66-5.52-9.64-1.1-1.49-2.28-2.92-3.52-4.28-1.24-1.36-2.56-2.68-3.94-3.85l.73-.84Z"/>
        <path class="cls-11" d="M169.98,39.85c1.4,1.31,2.64,2.7,3.84,4.15,1.19,1.45,2.31,2.95,3.35,4.51,2.07,3.12,3.81,6.45,5.07,9.96-1.43-3.44-3.33-6.66-5.52-9.64-1.1-1.49-2.28-2.92-3.52-4.28-1.24-1.36-2.56-2.68-3.94-3.85l.73-.84Z"/>
        <path class="cls-11" d="M165.6,42.12c1.4,1.31,2.64,2.7,3.84,4.15,1.19,1.45,2.31,2.95,3.35,4.51,2.07,3.12,3.81,6.45,5.07,9.96-1.43-3.44-3.33-6.66-5.52-9.64-1.1-1.49-2.28-2.92-3.52-4.28-1.24-1.36-2.56-2.68-3.94-3.85l.73-.84Z"/>
        <path class="cls-11" d="M162.35,44.12c.79,.76,1.5,1.54,2.2,2.34,.7,.8,1.37,1.62,2.02,2.46,1.29,1.68,2.49,3.43,3.57,5.24-1.24-1.71-2.58-3.34-4-4.88-.71-.77-1.44-1.52-2.2-2.25-.75-.72-1.53-1.43-2.32-2.07l.73-.84Z"/>
        <path class="cls-11" d="M158.26,46.33c1.4,1.31,2.64,2.7,3.84,4.15,1.19,1.45,2.31,2.95,3.35,4.51,2.07,3.12,3.81,6.45,5.07,9.96-1.43-3.44-3.33-6.66-5.52-9.64-1.1-1.49-2.28-2.92-3.52-4.28-1.24-1.36-2.56-2.68-3.94-3.85l.73-.84Z"/>
        <path class="cls-11" d="M154.32,48.98c1.21,1.14,2.29,2.33,3.34,3.58,1.05,1.24,2.03,2.53,2.96,3.86,1.86,2.65,3.48,5.47,4.77,8.42-1.46-2.87-3.23-5.57-5.22-8.09-.99-1.26-2.04-2.47-3.14-3.63-1.1-1.15-2.25-2.29-3.45-3.29l.73-.84Z"/>
        <path class="cls-11" d="M171.4,68.66c3.78-2.44,7.79-4.47,11.62-6.9,4.78-3.03,8.1-5.14,12.21-7.89,1.32-.88,2.57-1.77,3.99-3.12-3.85,2.97-8.55,5.68-12.73,8.15-3.56,2.1-8.16,4.59-11.84,6.48-6.3,3.23-10.19,4.7-13.69-1.16-1.35-2.26-2.06-4.78-3.02-7.21-1.3-3.29-3.57-7.14,.43-9.63,2.35-1.46,4.64-3.02,7.01-4.43,5.83-3.47,11.67-6.94,17.58-10.27,2.05-1.15,4.11-2.3,6.16-3.45,4.94-2.78,15.75,15.77,16.9,20.27,.02-.1,.03-.2,.03-.32l-.19-1.53c-.58-2.62-2.46-7.08-5.35-11.76-4.23-6.85-9.04-11.57-10.2-11.02l-.03-.04c-3.44,2.13-6.88,4.25-10.33,6.38-6.53,4.03-13.05,8.06-19.58,12.1-4.26,2.63-8.52,5.26-12.78,7.9,1.88,3.03,3.75,6.07,5.62,9.1,2.59,4.19,5.18,8.38,7.77,12.57,.71,1.15,1.42,2.31,2.14,3.46,2.89-1.8,5.77-3.61,8.68-5.36-3.13,.99-2.71-.85-.56-2.24,.04-.03,.09-.06,.13-.09Z"/>
        <path d="M205.78,49.92c.15-.13,.2-.34,.23-.54,.02-.2,.02-.41,0-.62-.03-.42-.12-.83-.21-1.23-.19-.82-.45-1.62-.74-2.4-.58-1.58-1.28-3.1-2.04-4.6-1.52-2.99-3.34-5.83-5.36-8.51-1.01-1.34-2.08-2.63-3.23-3.84-.58-.6-1.17-1.19-1.8-1.73-.31-.27-.64-.53-.97-.75-.33-.22-.69-.44-1.01-.5-.07-.02-.14-.01-.17,0,.02-.02-.13,.07-.19,.11l-.54,.33-1.08,.66-2.16,1.32-4.31,2.64-8.66,5.22-4.33,2.61-4.32,2.64c-5.76,3.51-11.47,7.09-17.18,10.69l.07-.29,7.82,12.42,7.76,12.46-.53-.13,10.7-6.54c3.56-2.19,7.14-4.35,10.73-6.5,3.58-2.16,7.16-4.32,10.75-6.46,3.59-2.15,7.19-4.27,10.79-6.4v.05s-.05-.06-.05-.06l.02-.02Zm.07,.03h0s.02,.04,.02,.04l-.03,.02c-3.53,2.24-7.06,4.49-10.6,6.7-3.54,2.23-7.09,4.44-10.64,6.64-3.55,2.21-7.1,4.42-10.67,6.6l-10.69,6.56-.33,.2-.2-.33-7.66-12.52-7.61-12.55-.11-.18,.18-.11c5.77-3.48,11.54-6.98,17.26-10.55l4.29-2.67,4.28-2.7,8.56-5.4,4.3-2.67,2.15-1.33,1.08-.66,.54-.33,.08-.05,.07-.04s.13-.08,.22-.09c.18-.04,.33-.03,.46,0,.51,.12,.88,.37,1.24,.62,.36,.25,.7,.52,1.02,.8,.65,.56,1.25,1.17,1.83,1.79,1.16,1.24,2.23,2.56,3.25,3.92,2.02,2.72,3.77,5.64,5.25,8.68,.74,1.52,1.39,3.09,1.93,4.69,.27,.8,.5,1.62,.67,2.45,.08,.42,.15,.84,.16,1.26,0,.21,0,.43-.03,.64-.03,.2-.09,.42-.25,.56Z"/>
      </g>
      <g>
        <path class="cls-3" d="M163.05,76.37c-1.11,.68-5.47-4.37-9.74-11.28-4.27-6.91-6.84-13.07-5.73-13.75,1.11-.68,5.46,4.37,9.74,11.28,4.27,6.91,6.84,13.07,5.73,13.75Z"/>
        <path class="cls-6" d="M162.28,73.69c-.15-.33-.32-.61-.39-.73-.32-.5-.62-1.13-.92-1.64-.63-1.07-1.22-2.05-1.93-3.08-.09-.14-.4-.7-.62-.69-.24,.02,.35,1.76,.39,1.85,.39,1.13,.84,2.27,1.33,3.36,.28,.63,1.14,2.6,2.07,2.43,.59-.11,.34-.9,.07-1.5Z"/>
        <path class="cls-19" d="M162.41,76.33c-.08-.07-.18-.15-.31-.25-2.55-1.95-4.79-6.76-4.88-9.73-.06-1.94-1.17-4.39-2.72-5.71-2.12-1.79-3.2-.53-4.44-3.95s.63-1.45,4.63,3.55c4,4.99,8.43,14.42,8.43,14.42,0,0,.02,0,.05,0-.55-2.42-2.75-7.03-5.85-12.05-4.27-6.91-8.63-11.96-9.74-11.28-1.11,.68,1.46,6.84,5.73,13.75,3.68,5.96,7.43,10.53,9.1,11.24Z"/>
        <path d="M163.06,76.4c-.15,.09-.34,.07-.49,.03-.16-.04-.3-.12-.44-.2-.28-.16-.53-.36-.78-.56-.5-.4-.95-.85-1.4-1.3-.9-.91-1.73-1.87-2.54-2.86-1.62-1.97-3.06-4.08-4.36-6.27-1.29-2.2-2.45-4.46-3.55-6.76-.55-1.15-1.09-2.3-1.55-3.49-.23-.6-.44-1.2-.61-1.82-.08-.31-.15-.63-.18-.96-.01-.17-.02-.34,.01-.52,.03-.18,.1-.4,.31-.54,.21-.13,.45-.11,.63-.06,.18,.05,.34,.12,.49,.2,.3,.16,.56,.36,.82,.56,.51,.41,.97,.86,1.41,1.32,.89,.93,1.71,1.91,2.49,2.92,1.56,2.02,3.01,4.12,4.34,6.3,1.32,2.18,2.56,4.41,3.59,6.75,.51,1.17,1,2.35,1.41,3.55,.2,.61,.4,1.21,.54,1.84,.07,.31,.13,.63,.15,.95,0,.16,0,.32-.03,.48-.03,.16-.1,.33-.25,.42h0Zm-.04-.06c.12-.08,.18-.23,.21-.38,.03-.15,.03-.31,.02-.46-.02-.31-.08-.62-.16-.93-.16-.61-.38-1.21-.62-1.79-.49-1.17-1.06-2.3-1.66-3.41-1.22-2.22-2.49-4.4-3.83-6.55-1.34-2.14-2.72-4.26-4.23-6.29-.76-1.01-1.53-2.01-2.36-2.94-.42-.47-.85-.92-1.31-1.34-.23-.2-.47-.4-.72-.56-.24-.15-.55-.27-.67-.19-.14,.07-.19,.4-.18,.69,.01,.3,.06,.61,.13,.91,.13,.61,.33,1.21,.55,1.8,.44,1.18,.95,2.34,1.52,3.47,.57,1.13,1.2,2.23,1.85,3.32,.65,1.09,1.33,2.16,2.02,3.22,1.37,2.13,2.76,4.24,4.21,6.31,.73,1.03,1.49,2.05,2.31,3.01,.41,.48,.85,.94,1.32,1.36,.24,.21,.49,.4,.76,.56,.13,.08,.28,.15,.42,.19,.15,.04,.3,.06,.43-.02h0Z"/>
      </g>
      <g>
        <rect class="cls-27" x="206.33" y="-.56" width="6.13" height="69.13" transform="translate(13.38 115.13) rotate(-31.71)"/>
        <path class="cls-7" d="M211.48,41.14c-3.36-5.68-12.41-20.45-16.37-28.44-.03-.07-.18-.34-.22-.41-2.88-5.9,5.39,7.67,8.76,13.01,3.37,5.34,22.73,36.2,5.68,8.36-16.22-26.49-10.74-20.47-9.44-18.44,8.02,11.38,20.13,30.32,25.77,39.29L193.84,2.99l-5.22,3.22,34.42,55.72c.76,1.12,1.56,2.11,1.56,2.11,0,0-8.21-14.59-13.13-22.91Z"/>
        <path class="cls-17" d="M216.37,39.86s11.77,19.16,11.33,19.87c-.44,.71-21.97-33.32-22.07-33.48-.1-.16,16.9,27.35,17.92,29.49,1.03,2.13-9.17-12.83-11.25-16.21s8.73,15.07,9.79,17.62c1.06,2.55-4.43-6.37-4.75-6.9-.33-.53,6.7,12.17,6.85,13.24,.01,.1,.03,.24,.05,.38l.71,1.15,5.22-3.22-12.76-20.65-1.05-1.3Z"/>
        <path d="M224.92,65.05c-1.57-2.42-3.12-4.84-4.67-7.27l-4.62-7.3-4.57-7.33-2.29-3.67-2.26-3.68c-1.51-2.45-3-4.92-4.48-7.39l-4.46-7.4-4.51-7.37-4.57-7.33-.08-.12,.12-.08,5.19-3.27,.17-.11,.11,.17c3.08,4.87,6.15,9.74,9.2,14.63,3.04,4.89,6.11,9.77,9.12,14.68,3.02,4.91,6.05,9.81,9.03,14.74,3,4.92,5.97,9.85,8.93,14.8l.07,.12-.12,.07-5.3,3.15-.02-.03Zm.04-.07l5.13-3.29-.05,.19c-3.1-4.86-6.18-9.72-9.24-14.61-3.07-4.87-6.1-9.77-9.14-14.67-3.05-4.89-6.03-9.82-9.05-14.73-3.01-4.91-5.99-9.84-8.96-14.78l.28,.07-5.25,3.17,.05-.2,4.51,7.37,4.57,7.33,4.63,7.3c1.54,2.43,3.08,4.87,4.6,7.32l2.28,3.67,2.26,3.69,4.51,7.37,4.46,7.4c1.47,2.46,2.94,4.92,4.39,7.4Z"/>
      </g>
      <g>
        <polygon class="cls-27" points="142.5 47.12 140.82 44.88 190.26 10.74 190.82 11.07 191.61 12.28 191.71 13.09 142.5 47.12"/>
        <path class="cls-7" d="M191.6,12.46l-.55-1.19-.79-.53s-43.43,29.99-43.48,30.03c.08-.04,1.59,1.47,1.84,1.54,1.24,.37,1.27-1.02,1.8-1.88,.88-1.42,2.78-2.9,4.24-3.8,1.05-.65,18.5-12.28,27.85-19.08,6.15-4.47,8.4-5.38,9.09-5.08Z"/>
        <path d="M142.49,47.17l-1.75-2.23-.06-.08,.09-.06c2.13-1.55,4.27-3.08,6.42-4.6l3.22-2.29,3.23-2.26c4.31-3.02,8.63-6.03,12.99-8.96l6.55-4.4c2.18-1.47,4.35-2.97,6.52-4.45l6.47-4.52,3.22-2.28,.4-.29,.2-.14,.1-.07,.05-.04s-.02,0,.04-.02h.02s.05-.03,.08-.03h.05c.19,.03,.24,.1,.33,.15,.08,.06,.14,.11,.21,.17,.13,.12,.25,.24,.36,.37,.23,.26,.43,.55,.58,.88,.15,.33,.21,.71,.2,1.06v.12s-.1,.07-.1,.07c-4.07,2.89-8.15,5.75-12.25,8.61l-6.14,4.28-6.16,4.24c-4.1,2.84-8.24,5.63-12.37,8.43l-6.21,4.17-6.27,4.16Zm.02-.1l6.04-4.35,6.1-4.34c4.08-2.87,8.15-5.76,12.26-8.59l6.15-4.27,6.18-4.23c4.12-2.82,8.24-5.63,12.38-8.41l-.1,.19c.06-.6-.22-1.16-.62-1.64-.1-.12-.21-.24-.32-.35-.06-.05-.11-.1-.17-.15-.05-.04-.14-.08-.11-.07,0,0,0,0,.01,0,.02,0,.04,0,.05-.01,.01,0,0,0,0,0,.05-.03,0,0,.01,0l-.05,.03-.1,.07-.2,.14-.41,.28-3.27,2.21-6.51,4.46c-2.15,1.51-4.32,3.01-6.46,4.54l-6.43,4.58c-4.29,3.05-8.62,6.04-12.96,9l-3.26,2.23-3.27,2.21c-2.18,1.47-4.36,2.94-6.56,4.39l.02-.15,1.6,2.25Z"/>
      </g>
      <g>
        <path class="cls-27" d="M182.74,20.73c-.22,.15-.53,.07-.7-.18h0c-.17-.25-.13-.57,.09-.72l5.24-3.59c.22-.15,.53-.07,.7,.18h0c.17,.25,.13,.57-.09,.72l-5.24,3.59Z"/>
        <path class="cls-13" d="M182.74,20.73l.71-.48s-.09,.03-.14,.06c-.78,.46-1.07,.3-.91-.06,.15-.37,3.24-2.41,4.5-3.27s1.03,.07,1.03,.07l.23-.13c.05-.15,.02-.33-.08-.49-.17-.25-.49-.33-.7-.18l-5.24,3.59c-.22,.15-.26,.47-.09,.72,.17,.25,.49,.33,.7,.18Z"/>
        <path d="M182.75,20.74c-.3,.21-.73-.01-.84-.35-.06-.17-.05-.38,.07-.54,.03-.04,.07-.08,.1-.11l.1-.08,.2-.16c.52-.42,1.06-.8,1.62-1.16,.56-.35,1.14-.68,1.7-1.05,.56-.37,1.09-.75,1.62-1.16,.16-.12,.4-.13,.58-.05,.19,.09,.33,.23,.4,.44,.06,.19,.05,.44-.1,.62-.03,.04-.08,.09-.12,.12l-.1,.07-.2,.14c-.54,.39-1.08,.77-1.63,1.14-.55,.37-1.11,.73-1.69,1.06-.57,.33-1.16,.66-1.7,1.04Zm-.02-.03c.55-.37,1.06-.79,1.58-1.21,.52-.42,1.06-.81,1.6-1.19,.54-.38,1.1-.74,1.66-1.1l.21-.14,.1-.07s.04-.03,.06-.05c.07-.07,.1-.2,.07-.32-.05-.24-.35-.45-.59-.3-.56,.34-1.12,.7-1.66,1.09-.54,.39-1.06,.81-1.59,1.2-.53,.39-1.09,.76-1.66,1.09l-.22,.13c-.07,.05-.15,.08-.19,.12-.1,.1-.13,.26-.1,.4,.03,.15,.14,.29,.28,.36,.14,.08,.32,.08,.45-.01Z"/>
      </g>
      <g>
        <path class="cls-27" d="M142.21,51.65c-3.25,2.01-7.15,1.59-8.71-.94h0c-1.56-2.52-.19-6.2,3.06-8.21l3.51-2.17c3.25-2.01,7.15-1.59,8.71,.94h0c1.56,2.52,.19,6.2-3.06,8.21l-3.51,2.17Z"/>
        <path class="cls-10" d="M145.73,49.48c.62-.38,1.16-.82,1.64-1.3,.03-.19-.18-.16-.7,.27-1.79,1.47-5.21,3.11-5.14,1.58,.07-1.54,7.2-5.43,5.16-4.32-2.04,1.12-6.31,2.99-6.24,2.33s4.99-3.95,3.69-3.16c-1.29,.8-5.05,2.32-4.67,1.17,.38-1.15,7.01-4.55,4.03-3.08-2.94,1.45-5.34,1.84-5.18,.98,.16-.86,3.61-4.18,7.55-2.68s2.04,5.78,2.04,5.78c.17-.09,.37-.2,.58-.33,1.09-1.8,1.28-3.86,.29-5.45-1.56-2.52-5.46-2.94-8.71-.94l-3.51,2.17c-.51,.31-.96,.67-1.37,1.05,.33,.64,.67,1.23,.86,1.68,.67,1.55,3.46,6.13,4.52,7.15,.01,.01,.03,.02,.04,.03,.54-.2,1.08-.45,1.59-.77l3.51-2.17Z"/>
        <path d="M142.23,51.68c-.83,.52-1.75,.91-2.71,1.16-.96,.25-1.98,.33-2.99,.16-1-.16-2-.61-2.74-1.38-.74-.75-1.18-1.8-1.23-2.84-.05-1.05,.23-2.07,.69-2.96,.46-.9,1.11-1.68,1.84-2.35,.36-.34,.76-.64,1.17-.91l1.24-.79c.83-.52,1.64-1.07,2.46-1.61,1.65-1.1,3.76-1.7,5.81-1.3,1.01,.2,2.01,.68,2.76,1.45,.75,.76,1.2,1.81,1.28,2.87,.07,1.06-.18,2.11-.64,3.03-.45,.93-1.12,1.73-1.89,2.38-.38,.33-.8,.62-1.23,.87-.43,.25-.86,.48-1.29,.72-.86,.48-1.7,.98-2.54,1.49Zm-.04-.06c.83-.52,1.66-1.05,2.47-1.6,.4-.28,.82-.55,1.21-.83,.39-.28,.75-.6,1.08-.94,.66-.69,1.2-1.48,1.58-2.32,.37-.85,.58-1.77,.49-2.67-.07-.9-.44-1.75-1.05-2.4-.6-.66-1.44-1.1-2.34-1.3-1.81-.4-3.79,.02-5.45,.96-.84,.49-1.7,.97-2.54,1.48-.42,.25-.84,.51-1.25,.76-.41,.26-.78,.57-1.13,.9-.7,.67-1.26,1.47-1.63,2.35-.37,.87-.55,1.83-.45,2.74,.09,.91,.47,1.77,1.09,2.44,.62,.66,1.45,1.13,2.36,1.37,1.83,.48,3.91,.11,5.56-.93Z"/>
      </g>
      <g>
        <path class="cls-27" d="M180.84,17.1c-.16,.11-.54-.18-.85-.64h0c-.31-.46-.44-.92-.29-1.03l3.75-2.56c.16-.11,.54,.18,.85,.64h0c.32,.46,.44,.92,.29,1.03l-3.75,2.56Z"/>
        <path class="cls-13" d="M179.98,16.46c.32,.46,.7,.75,.85,.64l1.24-.85c-.05-.04-.16,0-.35,.14-1.08,.86-1.55-.08-1.56-.43-.02-.49,1.99-1.55,2.8-2.12,.82-.57,1.51,.52,1.51,.52h.17c0-.2-.12-.53-.35-.86-.31-.46-.7-.75-.85-.64l-3.75,2.56c-.16,.11-.03,.57,.29,1.03Z"/>
        <path d="M180.85,17.12h0c-.15,.07-.3-.04-.41-.12-.12-.08-.22-.18-.32-.29-.2-.21-.38-.44-.51-.71-.06-.14-.13-.27-.11-.48,0-.05,.02-.12,.07-.18,.01-.01,.03-.03,.04-.04l.02-.02,.04-.03,.17-.12c.23-.17,.47-.32,.71-.47,.48-.3,.98-.57,1.46-.88,.47-.31,.93-.65,1.38-.99,.03-.03,.12-.05,.17-.04,.05,0,.1,.02,.14,.03,.08,.03,.15,.07,.21,.12,.13,.09,.24,.19,.34,.3,.2,.22,.37,.47,.49,.75,.05,.15,.12,.29,.1,.51,0,.05-.03,.13-.09,.19-.02,.02-.03,.03-.05,.05l-.02,.02-.04,.03-.17,.12c-.23,.17-.46,.32-.7,.48-.47,.31-.95,.62-1.45,.9-.49,.28-.99,.55-1.46,.87h0Zm-.02-.03c.47-.32,.9-.68,1.34-1.04,.44-.37,.9-.7,1.36-1.02,.23-.16,.47-.32,.7-.48,.11-.07,.29-.18,.23-.15,.01-.06-.02-.2-.06-.32-.09-.24-.23-.48-.39-.69-.08-.11-.17-.21-.27-.29-.09-.09-.23-.15-.25-.14-.49,.29-.96,.6-1.43,.93-.46,.33-.9,.7-1.35,1.04-.23,.17-.46,.33-.7,.49l-.18,.12-.05,.03h-.02s0,.01,0,0c0,0,0,0,0,.02-.02,.08,0,.22,.04,.35,.08,.26,.21,.51,.37,.73,.08,.12,.18,.22,.28,.31,.1,.08,.24,.18,.36,.12Z"/>
      </g>
      <g>
        <path class="cls-27" d="M180.49,14.87c-.09,.06-.31-.11-.5-.38h0c-.19-.27-.26-.54-.17-.6l2.14-1.47c.09-.06,.31,.11,.5,.38h0c.19,.27,.26,.54,.17,.6l-2.14,1.47Z"/>
        <path class="cls-16" d="M180.49,14.87l.02-.02s-.04-.04-.08-.07c-.45-.29-.38-.69-.22-.77,.17-.08,1.02-.63,1.55-1.04,.52-.41,.81,.34,.81,.34l.06-.16c-.03-.1-.1-.23-.18-.35-.19-.27-.41-.44-.5-.38l-2.14,1.47c-.09,.06-.01,.33,.17,.6,.19,.27,.41,.44,.5,.38Z"/>
        <path d="M179.99,14.49c-.12-.11-.22-.24-.29-.4-.01-.04-.03-.09-.02-.15,0-.03,.01-.07,.04-.11,.05-.05,.04-.04,.06-.06l.18-.15c.24-.2,.5-.39,.75-.57,.26-.17,.52-.35,.8-.5l.21-.11,.11-.05s.05-.04,.15-.06c.15,.01,.19,.09,.25,.15,.05,.06,.1,.13,.13,.21-.07-.05-.13-.09-.2-.13-.06-.04-.15-.07-.16-.05,.02,0-.02,.03-.05,.06l-.09,.08-.18,.15c-.24,.2-.5,.39-.75,.57-.26,.17-.52,.34-.8,.5l-.21,.11c-.06,.04-.02-.01-.03,0,0,.01,0,.05,0,.08,0,.14,.06,.29,.11,.44Z"/>
        <path d="M182.51,12.88c.11,.12,.22,.24,.25,.44,0,.03,0,.06-.01,.1-.01,.04-.07,.08-.07,.09l-.09,.08-.18,.15c-.24,.2-.5,.38-.75,.56-.26,.17-.52,.34-.8,.5l-.21,.11-.12,.06h-.02s-.03,.01-.04,.01c-.03,0-.04,0-.06,0-.03,0-.06-.02-.08-.03-.16-.11-.24-.25-.3-.4,.12,.1,.26,.2,.38,.23,.03,0,.04,0,.03,0,0-.01,.05-.05,.08-.07l.18-.15c.24-.2,.5-.38,.75-.56,.26-.17,.52-.34,.8-.5l.21-.11,.11-.05s0,0,.01,0c0,0,0,0,.01-.02,.02-.11-.03-.28-.07-.43Z"/>
      </g>
      <g>
        <path class="cls-27" d="M154.09,60.93l-5.85,3.61,2.74,4.43,5.85-3.61s-.55-2-.91-2.58c-.34-.55-1.83-1.85-1.83-1.85Z"/>
        <path class="cls-25" d="M156.73,65.25s-1.23-2.79-2.38-2.93c-1.15-.14-3.65,1.81-3.7,2.5-.04,.68,1.2,3.41,1.2,3.41l-2.9-4.21,5.14-3.09s2.83,2.37,2.64,4.32Z"/>
        <path d="M150.96,68.94c.6-.54,1.25-1.01,1.9-1.47,.66-.45,1.32-.89,2.02-1.27,.35-.19,.71-.36,1.07-.54l.54-.27,.26-.14s-.05,.07-.04,.06c0,0,0,0,0-.01,0-.02,0-.04,0-.06,0-.04,0-.09-.02-.14-.08-.38-.2-.76-.36-1.12-.16-.36-.37-.69-.6-1-.23-.31-.49-.6-.76-.86-.28-.26-.57-.55-.85-.77-.03-.03-.07-.05-.09-.07-.01,0-.02-.01-.02-.01,0,0,0,0,.04,.01,0,0,.04,0,.08,0,.01,0,.16-.04,.16-.05l-.25,.17-.5,.33c-.33,.22-.67,.43-1.01,.64-1.37,.81-2.78,1.57-4.26,2.21l-.04-.06c1.23-1.04,2.54-1.95,3.88-2.82,.34-.21,.68-.42,1.02-.62l.52-.3,.26-.15s.17-.07,.19-.06c.05,0,.1,0,.12,.01,.06,.02,.08,.03,.11,.04,.05,.02,.08,.05,.11,.07,.06,.04,.1,.08,.14,.11,.33,.29,.59,.59,.85,.91,.27,.33,.48,.69,.67,1.05,.38,.73,.62,1.51,.84,2.29l.04,.16s0,.06,.01,.09c0,.02,0,.04,0,.06,0,.01-.04,.11-.08,.12l-.24,.17-.48,.36c-.32,.24-.64,.49-.96,.72-.65,.46-1.35,.85-2.05,1.24-.7,.38-1.41,.74-2.17,1.04l-.04-.06Z"/>
      </g>
      <g>
        <path class="cls-24" d="M179.77,91.6c-2.79,1.73-6.13,1.39-7.46-.76l-1.5-2.43c-1.33-2.15-.13-5.28,2.66-7.01l21.19-13.09c2.79-1.73,6.13-1.39,7.46,.76l1.5,2.43c1.33,2.15,.13,5.28-2.66,7.01l-21.19,13.09Z"/>
        <path d="M197.06,67.31c.62-.16,1.27-.23,1.93-.19,.65,.05,1.31,.2,1.9,.52,.59,.31,1.11,.79,1.47,1.36l1.04,1.61,.52,.81c.18,.3,.32,.62,.41,.95,.18,.67,.19,1.38,.05,2.05-.27,1.34-1.04,2.52-2.03,3.41-.49,.45-1.07,.81-1.62,1.12l-1.66,.96c-1.11,.64-2.21,1.28-3.3,1.94-2.18,1.32-4.34,2.7-6.47,4.1-2.14,1.4-4.28,2.79-6.44,4.15l-1.62,1.02-.81,.51c-.27,.17-.53,.34-.83,.51-1.17,.65-2.52,1.02-3.89,.94-.68-.04-1.36-.2-1.99-.51-.63-.3-1.19-.76-1.58-1.35-.1-.15-.18-.29-.26-.43l-.24-.41-.49-.82-.49-.82c-.17-.27-.34-.59-.44-.92-.22-.65-.25-1.36-.14-2.02,.11-.66,.36-1.29,.69-1.86,.66-1.14,1.67-2.04,2.8-2.64l.04,.06c-1.06,.71-1.95,1.65-2.51,2.76-.56,1.1-.75,2.4-.33,3.51,.1,.28,.24,.52,.42,.79l.52,.81,.52,.81,.26,.4c.09,.14,.17,.27,.25,.38,.68,.94,1.85,1.43,3.03,1.48,1.19,.07,2.4-.26,3.47-.83,.26-.14,.54-.31,.81-.48l.82-.5,1.64-.99c2.18-1.32,4.39-2.62,6.6-3.9,2.21-1.29,4.4-2.6,6.56-3.96,1.08-.68,2.15-1.38,3.21-2.09l1.6-1.05c.55-.34,1.03-.7,1.47-1.13,.88-.85,1.55-1.92,1.8-3.09,.12-.58,.13-1.19-.02-1.75-.07-.28-.18-.56-.32-.81l-.49-.82-.97-1.65c-.29-.53-.72-.96-1.25-1.28-.52-.31-1.12-.52-1.73-.61-.62-.09-1.25-.08-1.88,.01v-.07Z"/>
      </g>
      <g>
        <path class="cls-24" d="M179.05,90.44c-2.79,1.73-6.13,1.39-7.46-.76l-1.5-2.43c-1.33-2.15-.13-5.28,2.66-7.01l21.19-13.09c2.79-1.73,6.13-1.39,7.46,.76l1.5,2.43c1.33,2.15,.13,5.28-2.66,7.01l-21.19,13.09Z"/>
        <path class="cls-4" d="M201.51,74.42c-.7,1.93-3.5,3.32-4.93,4.24-5.42,3.49-13.23,7.23-2.85-.13,10.38-7.36,4.84-4.3,.41-1.93-4.43,2.37-22.36,12.52-14.58,7.4,7.71-5.08,18.03-11.9,8.69-6.5-9.33,5.4-6.26,2.43,2.57-2.73,8.83-5.16,2.22-2.3-5.13,1.95-7.35,4.25-9.07,3.71,2.21-2.9,2.9-1.7,6.67-4.24,10.18-3.92,1.39,.12,3.14,1.53,3.51,3,.13,.54,.09,1.04-.08,1.52Z"/>
        <path class="cls-11" d="M196.46,79.65s-14.54,8.11-13.61,6.44c.93-1.67,14.18-10.29,14.18-10.29,0,0-22.93,14.16-22.63,12.34,.19-1.15,4.98-4.79,9.06-7.15-4.4,2.55-9.99,6.06-9.49,4.69,.54-1.49,8.82-6.76,13.87-9.65-4.24,2.43-10.65,6.49-13.98,7.53-5.1,1.59,7.11-6.36,14.54-10.95,7.43-4.59,9.98-5.59,12.75-2.52,1.91,2.12,1.06,5.25,1.06,5.25,.08,0,.15-.03,.22-.04,1.12-1.61,1.37-3.51,.48-4.96l-1.5-2.43c-1.33-2.15-4.67-2.49-7.46-.76l-21.19,13.09c-2.79,1.73-3.99,4.86-2.66,7.01l1.5,2.43c1.33,2.15,4.67,2.49,7.46,.76l17.31-10.69c.06-.06,.09-.09,.09-.09Z"/>
        <path d="M179.07,90.47c-.79,.49-1.66,.84-2.58,1.02-.91,.18-1.87,.17-2.78-.09-.9-.26-1.75-.82-2.27-1.64l-1.52-2.32c-.55-.81-.76-1.86-.62-2.83,.13-.98,.54-1.89,1.12-2.67,.57-.79,1.3-1.44,2.12-1.95l2.37-1.44c3.17-1.9,6.37-3.75,9.53-5.67,3.16-1.92,6.28-3.9,9.39-5.9,.8-.51,1.69-.89,2.63-1.07,.94-.19,1.93-.18,2.88,.11,.94,.28,1.82,.89,2.35,1.75l1.47,2.35c.56,.84,.74,1.92,.59,2.9-.14,.99-.57,1.91-1.14,2.7-.57,.79-1.31,1.45-2.13,1.97l-2.36,1.46c-3.15,1.93-6.31,3.85-9.51,5.7-3.19,1.86-6.4,3.71-9.54,5.65Zm-.04-.06c3.15-1.94,6.23-3.98,9.32-6,3.08-2.04,6.22-4,9.35-5.96l2.36-1.46c.74-.46,1.41-1.06,1.93-1.76,.52-.7,.9-1.5,1.03-2.34,.13-.84,0-1.71-.46-2.42l-1.44-2.37c-.43-.73-1.15-1.26-1.97-1.53-1.66-.54-3.58-.16-5.11,.75-3.18,1.89-6.34,3.79-9.48,5.76-3.13,1.97-6.22,4-9.33,5.99l-2.34,1.47c-.75,.47-1.41,1.07-1.94,1.77-.52,.7-.91,1.51-1.06,2.37-.14,.85-.03,1.75,.43,2.49l1.4,2.39c.44,.77,1.19,1.34,2.05,1.63,.86,.3,1.8,.33,2.7,.18,.91-.15,1.77-.5,2.56-.98Z"/>
      </g>
      <g>
        <path class="cls-21" d="M68.7,109.24c-1.96,1.21-7.35-3.94-12.02-11.51-4.68-7.57-6.87-14.69-4.91-15.9,1.97-1.21,7.35,3.94,12.02,11.51,4.68,7.57,6.87,14.69,4.91,15.9Z"/>
        <path class="cls-4" d="M62.8,94.68s5.97,8.79,5.72,12.56c-.25,3.72-4.79-2.8-4.79-2.8,0,0,4.72,1.16-.93-9.76Z"/>
        <path class="cls-22" d="M67.73,109.39s-.06-.04-.1-.07c-3.42-1.89-5.32-5.58-5.51-6.12-.22-.62,1.57-1.28,1.71-2.01,.06-.95-.48-2.35-1.01-3.43-.93-1.9-2.21-4.15-3.6-5.75-.37-.43-2.06-2.26-2.85-1.88-1.07,.51-1.73-.59-2.25-2.23-.84-2.63,1.89-1.28,1.89-1.28,6.3,3.92,12.01,15.46,12.67,16.8-.91-2.84-2.59-6.41-4.87-10.09-4.68-7.57-10.06-12.72-12.02-11.51-1.96,1.21,.23,8.33,4.91,15.9,4.04,6.55,8.62,11.28,11.05,11.66Z"/>
        <path d="M68.72,109.27c-.32,.2-.72,.22-1.08,.15-.36-.07-.7-.21-1.03-.37-.66-.32-1.25-.75-1.83-1.19-1.15-.89-2.19-1.91-3.19-2.98-1.99-2.13-3.69-4.51-5.18-7-1.48-2.5-2.75-5.12-3.83-7.81-.53-1.35-1.03-2.71-1.37-4.13-.16-.71-.29-1.43-.32-2.17,0-.37,.01-.75,.11-1.12,.1-.37,.29-.76,.67-1,.07-.04,.18-.1,.28-.13,.1-.04,.2-.06,.31-.07,.21-.03,.41-.01,.6,.02,.39,.07,.75,.21,1.09,.37,.68,.33,1.29,.76,1.86,1.21,1.15,.92,2.18,1.96,3.15,3.05,1.93,2.19,3.64,4.55,5.17,7.03,1.51,2.48,2.87,5.07,3.87,7.81,.5,1.37,.95,2.76,1.23,4.18,.13,.71,.25,1.44,.24,2.17,0,.36-.03,.73-.14,1.09-.1,.35-.3,.7-.62,.9Zm-.04-.06c.3-.19,.48-.52,.57-.86,.09-.34,.12-.7,.11-1.06-.02-.72-.15-1.43-.33-2.12-.37-1.39-.89-2.73-1.48-4.04-1.2-2.61-2.58-5.14-4.1-7.58-1.52-2.44-3.16-4.8-5.02-6.99-.94-1.08-1.91-2.13-3-3.06-.54-.46-1.11-.88-1.72-1.22-.3-.16-.62-.3-.94-.37-.32-.07-.64-.07-.91,.09-.24,.14-.43,.43-.52,.75-.1,.32-.13,.67-.14,1.02-.01,.71,.1,1.42,.25,2.12,.31,1.4,.78,2.77,1.34,4.1,.56,1.33,1.21,2.62,1.91,3.88,.7,1.26,1.45,2.49,2.23,3.7,1.55,2.42,3.2,4.78,5.01,7.02,.91,1.11,1.88,2.18,2.96,3.13,.54,.47,1.12,.9,1.75,1.25,.32,.17,.65,.3,1,.37,.35,.07,.72,.06,1.02-.13Z"/>
      </g>
      <g>
        <path d="M39.27,101.26s-1.02,.55-1.58,1.81c-.86,1.91-2.09,2.9-5.72,2.79,0,0,3.67,2.03,5.98-.16,2.31-2.19,1.33-4.43,1.33-4.43Z"/>
        <g>
          <path class="cls-21" d="M34.11,118.57l-6.18-10.01,4.08-2.52s2.24,.17,2.6,.18c3.16,.15,4.1-1.85,4.81-4.76,0,0,17.07-10.55,17.07-10.55,0,0,2.03,2.44,3.44,4.72,1.24,2,2.2,4.03,2.74,5.29l-28.57,17.65Z"/>
          <path class="cls-4" d="M53.16,106.8c.48-.37,.75-.59,.75-.59,0,0,7.76-5.59-.01-1.08-7.77,4.51-2.25-.58-.72-1.52,1.53-.94,3.8-4.1-7.99,2.97-11.46,6.87-12.89,11.18-8.71,10.53l16.69-10.31Z"/>
          <path class="cls-22" d="M54.63,100.12c1.37-.5,2.77-.99,4.2-1.28,2.45-.5-.39,2-.96,2.43-1.48,1.1-2.99,2.15-4.51,3.19-.64,.44-1.29,.86-1.91,1.32-1.9,1.4,6.77-3.89,7.96-4.56,1.08-.6,2.59-.18,2.86-.09,0,.02,0,.03,0,.03,.01,0,.03,0,.04-.01l.35-.22c-.54-1.26-1.27-3.38-2.51-5.38-1.41-2.28-3.68-4.62-3.68-4.62,0,0-17.07,10.55-17.07,10.55-.7,2.91-1.64,4.91-4.81,4.76-.37-.02-2.6-.18-2.6-.18l-4.08,2.52,6.18,10.01s-.36-2.09-2.08-5.39c-1.72-3.31-.68-4.28,2.91-4.31,3.59-.03,5.16-2.43,6.32-4.45,1.15-2.02,10.57-7.29,14.32-9.17,.49-.24,1.07-.35,1.61-.29,1.47,.19-1.06,2.63-1.35,2.92-1.72,1.74-4,3.01-6.07,4.28-2.62,1.61-5.24,3.22-7.86,4.85-.48,.3-.97,.59-1.46,.9,1.6-.94,3.21-1.87,4.81-2.8,2.53-1.47,5.06-2.92,7.65-4.28,.18-.09,.85-.37,1.72-.69Z"/>
          <path d="M34.07,118.59c-1.09-1.63-2.17-3.27-3.23-4.92-1.06-1.65-2.13-3.3-3.17-4.96l-.15-.24,.25-.16,4.06-2.55,.09-.06h.12c.83,.1,1.7,.2,2.5,.26,.81,.03,1.61-.09,2.28-.48,.67-.38,1.17-1.02,1.53-1.75,.36-.73,.61-1.53,.83-2.34l.03-.1,.08-.05,4.32-2.56c1.44-.86,2.86-1.73,4.29-2.6l4.25-2.66,4.23-2.7,.14-.09,.12,.12c.73,.69,1.41,1.42,2.05,2.19,.65,.76,1.25,1.57,1.79,2.41,1.09,1.7,1.91,3.54,2.53,5.46l.08,.26-.24,.15c-2.37,1.48-4.74,2.98-7.12,4.45-2.38,1.47-4.77,2.93-7.17,4.37-2.4,1.44-4.79,2.9-7.2,4.31-2.41,1.43-4.82,2.85-7.25,4.24l-.03,.02-.02-.03Zm.04-.07c2.32-1.54,4.66-3.06,7-4.56,2.35-1.53,4.72-3,7.08-4.51,2.36-1.5,4.74-2.98,7.12-4.45,2.38-1.47,4.77-2.92,7.16-4.38l-.15,.41c-.57-1.86-1.36-3.68-2.36-5.34-.51-.83-1.08-1.63-1.69-2.4-.61-.77-1.26-1.52-1.94-2.21l.26,.03-4.31,2.57-4.28,2.61c-1.42,.88-2.84,1.77-4.25,2.67l-4.22,2.72,.11-.15c-.19,.83-.41,1.67-.78,2.48-.36,.8-.92,1.57-1.73,2.05-.8,.49-1.75,.61-2.62,.58-.46-.02-.86-.08-1.29-.12l-1.26-.15,.21-.05-4.1,2.49,.09-.4c1.02,1.68,2.01,3.37,3.01,5.05,.99,1.68,1.97,3.36,2.94,5.06Z"/>
        </g>
      </g>
      <g>
        <path class="cls-26" d="M165.29,104.17s-.03-.05-.04-.07c-.82-1.35-1.66-2.69-2.49-4.03-1.78-2.86-3.61-5.85-5.39-8.72-2.12-3.43-4.07-6.72-6.17-10.17-2.32-3.8-4.55-7.42-6.91-11.19-1.12-1.79-2.64-4.8-4.67-6.09-.99-.63-1.59-.5-2.66-.75-2.19-.52-3.62-2.46-4.74-4.27-2.28-3.69-4.56-7.39-6.85-11.08-1.76-2.85,.77-5.37,.77-5.37,0,0,6.38,7.09,7.77,8.64,1.39,1.54,9.75,8.89,16.05,19.09,6.3,10.2,15.28,24.2,15.28,24.2l1.76,5.5s-.36,3.54-1.71,4.31Z"/>
        <path class="cls-8" d="M165.5,99.65s-5.83-9.61-8.57-14.04c-2.73-4.43-7.89-12.06-3.85-5.43,4.04,6.63,9.35,15.14,8.72,15.09-.63-.05-8.18-12.97-9.15-14.55-.98-1.58,5.65,10.65,8.9,15.91,3.25,5.26,3.41,7.02,3.94,3.03Z"/>
        <path class="cls-14" d="M149.44,76.62c-8.1-13.29-8.67-13.5-10.33-13.86-1.93-.42-4.13-.54-5.94-3.43-.79-1.26-1.36-2.55-.85-2.55,.5,0,1.57,1.5,1.99,2.12,1.16,1.74,1.87,2.12,2.6,2.27,1.43,.29,3.1-.17,4.57,.7,.76,.45,1.46,1.39,2.17,2.58,1.86,3.11,18.49,28.43,18.49,28.43,0,0-3.38-7.24-6-12.84-2.09-3.31-4.26-6.78-6.18-9.89-6.3-10.2-14.66-17.54-16.05-19.09-1.39-1.54-7.73-8.65-7.73-8.65,0,0-2.56,2.53-.8,5.38,2.28,3.69,4.56,7.39,6.85,11.08,1.12,1.81,2.55,3.75,4.74,4.27,1.07,.26,1.66,.12,2.66,.75,2.04,1.29,3.55,4.3,4.67,6.09,2.37,3.77,4.6,7.39,6.91,11.19,2.1,3.45,4.05,6.74,6.17,10.17,1.77,2.87,3.61,5.85,5.39,8.72,.08,.13,.16,.25,.24,.38,.43,.66,.59,.93,.59,.93,0,0-5.86-11.15-14.14-24.75Z"/>
        <path d="M165.29,104.19s0,0-.02,0c-.02,0-.04-.02-.04-.03l-.02-.03-.04-.06-.08-.13-.16-.25-.31-.51-.63-1.01-1.26-2.02c-.85-1.34-1.68-2.7-2.54-4.03-1.7-2.68-3.42-5.35-5.11-8.04-3.36-5.39-6.66-10.81-10-16.21l-1.24-2.03c-.41-.69-.79-1.38-1.21-2.05-.41-.67-.84-1.33-1.32-1.94-.48-.61-1.01-1.19-1.63-1.63-.31-.22-.64-.41-1-.52-.35-.12-.74-.16-1.14-.23-.8-.12-1.6-.4-2.27-.86-1.37-.9-2.32-2.26-3.15-3.6-1.65-2.71-3.33-5.41-5.01-8.1l-1.26-2.02-.64-1.01c-.22-.34-.39-.73-.49-1.13-.22-.8-.14-1.67,.14-2.44,.29-.78,.73-1.47,1.31-2.07l.15-.15,.15,.17,5.4,6.1,1.35,1.52c.46,.5,.89,1.02,1.37,1.48,.97,.94,1.95,1.88,2.91,2.85,3.84,3.85,7.46,7.96,10.59,12.44,.78,1.12,1.53,2.26,2.24,3.42l2.14,3.46c1.44,2.3,2.87,4.61,4.3,6.92l8.55,13.86h0s0,.03,0,.03l.85,2.76,.86,2.76h0s0,.03,0,.03c-.1,.79-.26,1.57-.5,2.33-.12,.38-.27,.75-.46,1.1-.19,.35-.44,.69-.79,.89h-.02Zm-.02-.06c.33-.2,.57-.53,.75-.87,.19-.34,.32-.71,.44-1.09,.23-.75,.38-1.53,.47-2.31v.03s-.89-2.75-.89-2.75l-.92-2.74v.03c-2.97-4.54-5.99-9.05-8.91-13.63-1.48-2.28-2.93-4.57-4.37-6.88-1.46-2.3-2.83-4.64-4.38-6.84-3.1-4.43-6.63-8.55-10.43-12.41l-2.88-2.88c-.49-.49-.93-1.02-1.37-1.53l-1.33-1.54-5.27-6.21h.3c-.53,.54-.97,1.21-1.25,1.92-.28,.71-.36,1.5-.18,2.23,.16,.74,.66,1.38,1.05,2.07l1.24,2.03c1.66,2.71,3.31,5.42,5,8.1,.84,1.33,1.78,2.64,3.1,3.48,.66,.42,1.39,.66,2.16,.76,.39,.06,.79,.09,1.2,.21,.4,.12,.78,.32,1.12,.55,.68,.47,1.25,1.06,1.76,1.68,.51,.63,.97,1.29,1.4,1.96,.43,.67,.84,1.36,1.25,2.03l1.28,2c1.68,2.69,3.38,5.38,5.02,8.1,1.64,2.72,3.26,5.45,4.86,8.19,1.6,2.74,3.25,5.45,4.87,8.18,.81,1.37,1.65,2.71,2.47,4.07l1.24,2.03,1.21,2h-.02Z"/>
      </g>
      <g>
        <path class="cls-27" d="M126.19,44.12l9.38,15.18s.77,1.53,4.48,1.06c0,0,1.86-.29,3.04,1.62,1.3,2.11,23.56,38.01,23.56,38.01l3.33-1.79-36.24-58.66s-1.32-1.4-3.81,.06c-2.41,1.41-4.92,2.62-3.74,4.53Z"/>
        <path class="cls-20" d="M169.79,98.08s-20.57-31.68-21.32-32.2c-.76-.52,15.51,24.66,17.1,27.5,1.59,2.84-9.23-13.52-10.93-15.75-1.7-2.23,11.53,18.76,12.06,19.97,.53,1.2-6.16-9.74-7.86-11.58-1.24-1.34,3.88,6.46,5.92,10.68,1.35,2.18,2.01,3.3,2.01,3.3l3.22-1.81-.07-.12c-.06,0-.11,0-.11,0Z"/>
        <path class="cls-10" d="M145.79,60.93c4.65,6.91,18.41,28.17,21.92,33.6l-33.97-55s-1.32-1.4-3.81,.06c-2.41,1.41-4.92,2.62-3.74,4.53l9.38,15.18s.77,1.53,4.48,1.06c0,0,1.97-.11,3.04,1.62l18.03,29.19c-6.13-10.61-17.06-30.18-18.83-32.01-1.3-1.35-4.6,.33-5.91-1.49-1.25-1.74-10.27-14.42-6.35-11.81,2.66,1.78,4.2,.69,4.05-2.17-.13-2.39,6.36,9.29,11.7,17.24Z"/>
        <path d="M126.22,44.1l4.73,7.56,4.79,7.52-.02-.03,.03,.04c.06,.09,.18,.23,.3,.32,.13,.1,.26,.18,.41,.26,.29,.15,.62,.24,.95,.31,.67,.12,1.36,.12,2.05,.05,.17-.02,.34-.04,.52-.06,.2-.03,.4-.03,.59-.01,.39,.03,.77,.13,1.12,.28,.72,.31,1.3,.89,1.68,1.53l2.26,3.61,2.23,3.63,2.23,3.63,2.2,3.65,4.4,7.3,4.44,7.28,4.5,7.24,.56,.9,.28,.45c.12,.19,.12,.22,.28,.22,.29-.02,.62-.19,.91-.36,.3-.17,.58-.38,.89-.57,.31-.18,.6-.38,.9-.56,.06-.04,.12-.09,.13-.12,.02-.04,.02-.04,0-.12-.04-.14-.12-.3-.2-.45-.17-.3-.36-.59-.55-.9l-.57-.9-4.55-7.21c-6.04-9.63-12.05-19.28-18-28.97-1.5-2.42-2.96-4.85-4.44-7.28-1.48-2.43-2.93-4.87-4.38-7.31l-2.19-3.66-1.08-1.8c-.49-.45-1.22-.63-1.9-.56-.69,.07-1.34,.37-1.95,.73-.62,.35-1.24,.7-1.84,1.07-.59,.38-1.19,.78-1.62,1.34-.21,.27-.37,.6-.38,.95-.02,.35,.11,.69,.29,.98Zm-.06,.04c-.19-.3-.32-.66-.31-1.03,.01-.37,.17-.72,.39-1,.44-.58,1.04-.99,1.64-1.38,.6-.39,1.22-.74,1.83-1.1,.61-.37,1.28-.69,2-.77,.72-.09,1.5,.06,2.08,.56,.09,.08,.13,.17,.17,.25,.04,.07,.09,.15,.14,.22l.29,.45,.57,.9,2.29,3.59c1.53,2.4,3.07,4.79,4.58,7.19,1.52,2.4,3.04,4.81,4.53,7.23,6,9.65,11.94,19.35,17.85,29.06l4.41,7.3,.55,.91c.18,.3,.38,.6,.55,.93,.09,.16,.17,.33,.22,.53,.03,.08,.05,.28-.03,.39-.07,.12-.17,.19-.25,.25-.31,.18-.61,.38-.92,.55-.3,.17-.59,.39-.91,.56-.32,.17-.64,.36-1.07,.38-.11,0-.24-.02-.35-.11-.11-.11-.13-.18-.18-.25l-.28-.46-.56-.91-4.47-7.26-4.52-7.23-4.56-7.2-2.28-3.6-2.25-3.62-2.25-3.62-2.22-3.64c-.34-.58-.81-1.05-1.4-1.32-.29-.13-.61-.22-.93-.25-.16-.01-.32-.02-.47,0-.18,.02-.36,.04-.54,.05-.73,.05-1.47,.04-2.19-.12-.36-.08-.72-.2-1.06-.38-.34-.19-.65-.4-.89-.79v.02s-4.57-7.65-4.57-7.65l-4.65-7.62Z"/>
      </g>
      <g>
        <path class="cls-24" d="M132.35,45.36c-.79,.49-1.95,.03-2.6-1.02-.65-1.05-.53-2.29,.25-2.78,.79-.49,1.95-.03,2.6,1.02s.53,2.29-.25,2.78Z"/>
        <path d="M132.63,42.64c.29,.41,.46,.91,.47,1.43,0,.51-.19,1.08-.66,1.4-.46,.33-1.09,.3-1.58,.1-.5-.21-.91-.58-1.21-1.01-.29-.44-.48-.95-.51-1.49-.02-.52,.13-1.11,.57-1.47,.43-.37,1.05-.4,1.53-.22,.49,.19,.89,.54,1.16,.95-.34-.36-.75-.66-1.22-.78-.45-.13-.96-.06-1.28,.26-.32,.31-.45,.78-.41,1.24,.03,.46,.2,.91,.46,1.3,.26,.39,.62,.71,1.04,.9,.41,.19,.9,.21,1.28-.01,.39-.22,.6-.69,.63-1.16,.05-.48-.08-.97-.29-1.42Z"/>
      </g>
      <path class="cls-23" d="M166.78,100.28s-.04,.05-.06,.07c-.31,.41-.44,.96-.63,1.43-.28,.71-.53,1.43-.8,2.14-.19,.51,1.1-.46,1.25-.55,.45-.28,.9-.56,1.36-.82,.36-.21,.61-.35,.79-.74,.19-.4,.34-.9,.49-1.32,.15-.42,.34-.84,.5-1.25,.1-.27,.31-.68,.24-.98-.12-.1-.9,.5-1,.57-.38,.25-.75,.51-1.14,.75-.35,.21-.73,.4-1,.71Z"/>
      <path class="cls-28" d="M166.36,103.49c.09-.06,.16-.11,.19-.13,.4-.25,.79-.49,1.19-.72,.35-.33,.62-.61,.62-.61,0,0,.36-2.01-.28-1.45-.6,.53-1.64,2.32-1.73,2.91Z"/>
      <path class="cls-15" d="M168.6,101.66h.15c.16-.38,.3-.81,.43-1.19,.15-.42,.34-.84,.5-1.25,.1-.27,.31-.68,.24-.98-.12-.1-.9,.5-1,.57-.38,.25-.75,.51-1.14,.75-.35,.21-.73,.4-1,.71-.02,.02-.04,.05-.06,.07-.31,.41-.44,.96-.63,1.43-.24,.61-.46,1.22-.69,1.83,0,.2,.02,.35,.03,.43,.02,0,.04-.02,.07-.03,.3-.6,1.82-3.57,2.73-4.04,1.02-.52,.36,1.69,.36,1.69Z"/>
      <path d="M166.8,100.29c-.31,.39-.45,.87-.59,1.35-.16,.48-.25,.94-.37,1.43-.06,.24-.13,.48-.22,.72l-.07,.18-.03,.08s0,.02-.02-.03c-.06-.06-.08-.03-.06-.04,.02,0,.04,0,.06-.01,.05-.02,.1-.04,.16-.07,.42-.21,.85-.51,1.27-.76,.42-.27,.82-.56,1.22-.85,.2-.14,.35-.31,.44-.52,.09-.23,.18-.45,.26-.68l.48-1.41c.07-.23,.17-.48,.24-.69,.06-.22,.09-.45,.05-.64v-.02s0,0,0,0c0,.05,.04,.1,.09,.13,.03,.02,.05,.02,.05,.02,.01,0,.02,0,.03,0,.02,0,.03,0,.02,0,0,0-.01,0-.03,0-.03,.01-.06,.03-.09,.04-.06,.03-.12,.07-.19,.11l-.38,.24c-.26,.17-.52,.31-.79,.46-.27,.15-.53,.29-.81,.43-.27,.14-.53,.29-.73,.52Zm-.03-.02c.2-.24,.46-.41,.71-.58,.25-.17,.49-.35,.73-.53,.24-.19,.48-.37,.72-.55,.12-.09,.24-.19,.37-.27,.06-.04,.13-.09,.2-.13,.04-.02,.07-.04,.11-.06,.02-.01,.04-.02,.08-.03,.02,0,.04-.01,.08-.01,.02,0,.03,0,.05,0,.01,0,.03,0,.07,.02,.06,.03,.09,.09,.1,.15v-.02c.12,.6-.15,1.1-.31,1.54-.18,.46-.34,.93-.54,1.39-.1,.23-.21,.46-.33,.68-.13,.24-.34,.43-.56,.56-.43,.25-.84,.53-1.25,.8-.21,.14-.42,.27-.61,.43-.2,.15-.39,.31-.61,.45-.06,.03-.11,.07-.18,.1-.03,.02-.07,.03-.11,.04-.04,0-.13,.04-.23-.08-.06-.11-.03-.16-.02-.22l.03-.1,.05-.17,.2-.71c.13-.47,.31-.96,.54-1.4,.21-.45,.41-.92,.72-1.31Z"/>
      <g>
        <path class="cls-24" d="M129.98,52.49c1.63,2.64,1.17,4.96,1.17,4.96l-11.85,7.32s-.13-2.18-1.62-4.59l-.03-.05c-1.49-2.41-3.14-3.63-3.14-3.63l11.61-7.19s2.28,.63,3.91,3.26l-.05-.08Z"/>
        <path class="cls-4" d="M126.71,51.9s-.03,0-.05,0c-.97-.06-1.92,.41-2.78,.8-1.49,.66-2.96,1.44-4.13,2.59-1.95,1.89,1.78-.15,4.67-1.46,2.94-1.34,2.53-.44-1.71,2.36-3.95,2.61,1.48-.53,3.3-1.38,1.82-.85,2.94-.72-.89,1.92-3.83,2.64-7.73,4.99-2.22,2.24,5.51-2.75,7.75-2.44,2.2,1.21-.53,.35-1.55,1.09-1.59,1.24,.16,.11,1.36-.69,1.96-1.04,1.15-.66,2.3-1.33,3.42-2.04,1.01-.64,2.05-1.04,1.63-2.48-.31-1.06-1.14-2.32-1.97-3.04-.54-.47-1.1-.86-1.82-.92Z"/>
        <path class="cls-22" d="M129.98,52.49s.01,.03,.02,.04c0,.01,.02,.03,.03,.04l-.05-.08Zm-9.86,10.64c1.02-1.18,8-5.27,3.5-2.82-4.49,2.45-5.87,.18-5.73-1.32,.09-1.04,6.48-4.36,7.48-5.17,.95-.76-8.09,4.45-8.75,3.66-.58-.7,1.63-2.05,5.47-4.41,3.83-2.37,4.58-1.96,4.58-1.96,2.82,.5,4.53,5.39,4.53,5.39h0c-.02-.91-.23-2.38-1.2-3.97-1.63-2.6-3.88-3.23-3.88-3.23l-11.61,7.19s1.65,1.22,3.14,3.63l.03,.05c1.49,2.41,1.62,4.59,1.62,4.59l.11-.07c.09-.52,.29-1.09,.7-1.56Zm5.45-8.95s.04-.02,.04-.02c0,0-.02,0-.04,.02Z"/>
        <path d="M130.01,52.47c.51,.71,.9,1.51,1.15,2.36,.12,.43,.21,.86,.26,1.31,.04,.45,.06,.88,0,1.36v.11s-.12,.07-.12,.07c-.97,.64-1.95,1.27-2.93,1.9-.98,.63-1.97,1.24-2.97,1.83l-3.03,1.74c-1.01,.57-2.01,1.18-3,1.79l-.15,.1-.02-.18c-.07-.8-.27-1.6-.55-2.36-.28-.76-.65-1.49-1.09-2.16-.45-.67-.96-1.31-1.48-1.93-.52-.61-1.09-1.22-1.67-1.72l-.35-.3,.39-.25,2.86-1.82c.95-.61,1.91-1.2,2.87-1.79,.97-.58,1.93-1.17,2.9-1.74,.97-.58,1.94-1.14,2.92-1.71l.11-.07,.1,.04c.46,.16,.84,.37,1.22,.61,.38,.24,.73,.51,1.05,.81,.33,.3,.62,.63,.89,.98,.27,.35,.51,.72,.71,1.1l-.07,.05-.04-.08,.06-.04Zm0,0l.05,.08-.07,.05c-.5-.7-1.09-1.34-1.76-1.86-.33-.26-.69-.5-1.05-.7-.36-.2-.76-.37-1.13-.47l.22-.03c-.94,.62-1.89,1.24-2.84,1.85-.95,.62-1.9,1.21-2.86,1.82-.96,.59-1.92,1.19-2.89,1.76l-2.9,1.74,.04-.54c.64,.59,1.17,1.22,1.68,1.88,.51,.66,.96,1.35,1.39,2.07,.42,.73,.75,1.5,1,2.29,.25,.79,.45,1.6,.52,2.44l-.17-.09c.98-.62,1.96-1.25,2.93-1.91l2.9-1.95c.97-.64,1.96-1.26,2.95-1.87,.99-.61,1.99-1.21,2.99-1.8l-.12,.18c.07-.38,.09-.81,.08-1.23-.01-.42-.06-.84-.15-1.25-.16-.83-.47-1.64-.86-2.41l.06-.04Z"/>
      </g>
      <path class="cls-2" d="M132.32,43.34c-.14,.09-.4-.07-.57-.34s-.19-.57-.05-.66,.4,.07,.57,.34,.19,.57,.05,.66Z"/>
      <g>
        <path class="cls-24" d="M147.12,71.57c-.41,.25-1.42-.64-2.25-1.99-.84-1.35-1.18-2.66-.78-2.91,.41-.25,1.42,.64,2.25,1.99,.84,1.35,1.18,2.65,.78,2.91Z"/>
        <path d="M146.39,68.74c.3,.41,.55,.86,.76,1.34,.1,.24,.18,.49,.23,.75,.02,.13,.04,.27,.03,.41-.01,.14-.04,.32-.2,.44-.07,.05-.18,.09-.26,.08-.09,0-.16-.02-.24-.04-.14-.05-.26-.12-.38-.19-.22-.15-.42-.33-.6-.52-.37-.38-.67-.8-.96-1.23-.27-.44-.52-.9-.71-1.38-.09-.24-.18-.49-.23-.75-.05-.26-.1-.53,0-.84,.03-.08,.07-.16,.15-.22,.02-.02,.03-.03,.07-.04,.02,0,.02-.01,.05-.02,.05-.02,.1-.03,.14-.03,.17,0,.3,.06,.42,.13,.24,.14,.43,.32,.61,.5,.35,.38,.65,.8,.9,1.25-.32-.4-.64-.79-1.02-1.12-.19-.16-.38-.32-.59-.43-.1-.05-.22-.09-.3-.08-.02,0-.04,0-.05,.01,0,0-.02,.01-.03,.02,0,0,0,0-.01,.01-.02,.02-.04,.06-.05,.1-.05,.19,0,.44,.05,.67,.06,.23,.15,.47,.24,.69,.19,.46,.43,.9,.7,1.32,.27,.42,.56,.83,.9,1.19,.17,.18,.34,.35,.54,.49,.18,.14,.43,.25,.53,.18,.05-.03,.09-.12,.11-.23,.01-.11,0-.23,0-.35-.03-.24-.1-.48-.17-.72-.15-.48-.36-.94-.59-1.4Z"/>
        <path class="cls-2" d="M146.41,69.81c-.1,.06-.41-.25-.69-.71-.28-.46-.43-.87-.32-.94,.1-.06,.41,.25,.69,.71,.28,.45,.43,.87,.32,.94Z"/>
      </g>
      <g>
        <path class="cls-24" d="M162.49,96.54c-.36,.22-1.16-.41-1.78-1.42-.62-1-.83-2-.47-2.22,.36-.22,1.16,.41,1.78,1.42,.62,1,.83,2,.47,2.22Z"/>
        <path d="M162.06,94.38c.24,.32,.43,.66,.58,1.04,.07,.19,.12,.39,.14,.6,0,.11,.01,.22-.02,.33-.02,.11-.09,.25-.22,.33-.13,.07-.28,.07-.39,.04-.12-.03-.22-.08-.31-.13-.19-.11-.35-.24-.5-.38-.3-.28-.54-.61-.76-.95-.21-.34-.4-.71-.53-1.09-.06-.19-.11-.4-.14-.61-.01-.21-.04-.45,.14-.68,.02-.03,.05-.05,.08-.07,.02-.01,.03-.02,.05-.03l.04-.02c.08-.03,.14-.03,.21-.03,.13,.01,.23,.05,.33,.1,.19,.1,.34,.24,.49,.38,.27,.3,.51,.62,.69,.97-.25-.3-.51-.6-.81-.84-.15-.12-.3-.23-.47-.3-.08-.03-.16-.06-.23-.06-.03,0-.07,.01-.08,.02,0,0-.02,.01-.03,.02,0,0,0,0,0,0,0,0-.02,.02-.03,.03-.06,.09-.06,.29-.04,.46,.03,.18,.08,.36,.15,.53,.13,.35,.3,.69,.51,1.01,.2,.32,.43,.63,.69,.89,.13,.13,.27,.26,.42,.35,.14,.09,.32,.16,.4,.11,.09-.03,.14-.22,.14-.39,0-.18-.04-.37-.08-.55-.09-.37-.24-.73-.4-1.09Z"/>
        <path class="cls-2" d="M162.11,95.39c-.1,.06-.41-.25-.69-.71-.28-.46-.43-.87-.32-.94,.1-.06,.41,.25,.69,.71,.28,.45,.43,.87,.32,.94Z"/>
      </g>
      <path class="cls-12" d="M147.34,47.47c-.47,.53-1.12,.91-1.73,1.27-.62,.37-1.26,.72-1.94,.97-.25,.09-.62,.23-.88,.11-.88-.37,2.7-2.76,3.71-3.49,1.01-.73,2.1-1.84-.88-.37-2.98,1.48-4.57,1.62-2.33-.05,2.24-1.68,2.41-2.11-.07-.94-2.48,1.17-2.77,.29,.03-1.25,2.8-1.54,4.93-.75,4.89,1.38-.01,.69-.13,1.41-.51,2.01-.09,.13-.18,.25-.28,.37Z"/>
      <path class="cls-5" d="M186.19,15.65c-2.61,1.97-5.24,3.9-7.9,5.79-2.65,1.9-5.33,3.77-8.02,5.62-2.69,1.85-5.39,3.69-8.11,5.49-2.72,1.81-5.46,3.58-8.23,5.32,2.61-1.97,5.24-3.9,7.9-5.79,2.65-1.9,5.33-3.77,8.02-5.62,2.69-1.85,5.39-3.68,8.11-5.49,2.72-1.81,5.46-3.58,8.23-5.32Z"/>
      <path class="cls-12" d="M156.3,65.17s-2.93,1.32-4.05,2.42c-1.12,1.1,.56-3.65,4.05-2.42Z"/>
      <path class="cls-12" d="M204.54,34.73c.18,.35-.64,.98-1.09,1.24-.37,.21-1.41,.68-1.56,.39-.26-.49,.26-1.07,.54-1.33,.46-.42,1.21-.85,1.84-.59,.16,.07,.21,.18,.27,.29Z"/>
      <path class="cls-12" d="M228.42,65.24s-3.4,2.13-3.66,2.19,1.5-1.69,2.32-2.25c.82-.56,1.55-1.21,1.33,.07Z"/>
      <path class="cls-20" d="M187.55,16.84c-.68,.66-1.43,1.22-2.19,1.76-.77,.53-1.55,1.04-2.4,1.46,.68-.66,1.43-1.22,2.19-1.76,.77-.53,1.55-1.04,2.4-1.46Z"/>
      <path class="cls-20" d="M184.09,14.17c-.46,.5-.99,.91-1.53,1.28-.55,.37-1.12,.72-1.75,.96,.46-.5,.99-.91,1.53-1.28,.55-.37,1.12-.71,1.75-.96Z"/>
      <path class="cls-20" d="M182.26,13.12c-.24,.34-.54,.59-.86,.81-.33,.21-.67,.39-1.08,.47,.24-.34,.54-.59,.86-.81,.33-.21,.67-.39,1.08-.47Z"/>
    </g>
  </g>
</svg>