<?xml version="1.0" encoding="UTF-8"?>
<svg id="Layer_2" data-name="Layer 2" xmlns="http://www.w3.org/2000/svg" viewBox="0 0 1110.56 371.7">
  <defs>
    <style>
      .cls-1 {
        fill: #b6382c;
      }

      .cls-2 {
        fill: none;
      }

      .cls-3 {
        fill: #f2f2f2;
      }
    </style>
  </defs>
  <g id="Layer_1-2" data-name="Layer 1">
    <g>
      <path class="cls-3" d="M316.24,.02l-73.6,160.36c6.35,12.78,9.55,26.74,9.55,41.86,0,30.76-13.84,58.35-38.98,77.71-3.27,2.51-6.71,4.85-10.27,7.03h64.92l1.06-2.44,17.98-41.46,97.76-.63,19.22,44.53h83.67L355.67,.02h-39.43Zm-4.9,186.71l24.7-56.95,24.58,56.95h-49.28Z"/>
      <polygon class="cls-3" points="715.35 71.27 635.65 71.27 635.62 71.21 577.74 71.21 577.74 286.98 501.37 286.98 501.37 71.21 416.49 71.21 382.29 0 681.32 0 715.35 71.27"/>
      <path class="cls-3" d="M816.43,220.04c-6.5,19.77-13.84,42.09-14.27,66.94h-23.99l-48.17-72.39-48.03,72.39h-87.88l90.79-139.56-34.4-58.97h70L773.89,0h87.24l-86.52,147.55,43.71,66.73c-.43,1.32-.89,2.72-1.38,4.2l-.51,1.56Z"/>
    </g>
    <line class="cls-2" x1="594.09" y1="286.98" x2="591.88" y2="290.38"/>
    <path class="cls-3" d="M110.07,86.14c0,12.99,20.29,17.2,51.27,30.01,44.86,18.59,74.6,45.61,74.6,87.37,0,53.87-50.92,87.38-108.42,87.38-1.21,0-2.41-.02-46.46-.06l.04,.06H0l34.41-68.69,.08,.12c89.9,.09,91.37,.14,92.85,.14,16.2,0,32.04-5.79,32.04-17.37,0-14.56-29.37-27.37-57.5-39.65-36.32-15.44-67.47-38.95-67.47-81.59C34.41,34.91,81.58,0,136.06,0c1.63,0,37.65,.03,152.29,.09l-34.4,68.69c-114.41-.11-115.75-.18-117-.18-15.67,0-26.88,7.89-26.88,17.54Z"/>
    <g>
      <path class="cls-1" d="M859.49,214.12c-1.25,.94-1.56,.31-1.88,1.87-3.65,13.68-8.64,25.15-12.85,38.66-2.92,9.33-5.48,19.64-6.97,32.33-.78,6.61-1.28,13.86-1.39,21.96,1.88,2.18,4.68,5.93,3.75,8.73-.63,1.88-1.87,2.5-3.75,2.5-.13,0-.27-.02-.41-.02-.25,5.79,.21,11.59,1.58,17.21,.33,1.37-.05,3.32-1.36,3.32-.26,0-.56-.08-.9-.26-1.79-.93-.69-5.11-.33-11.68,.21-3.8,.04-6.08-.18-8.72-.96-.16-2-.44-3.07-.83,.17,7.73,.66,15.46,1.47,23.16,.21,2.02,0,4.72-1.98,5.18-.16,.03-.31,.05-.46,.05-1.17,0-2.26-1-2.66-2.15-.44-1.29-.23-2.71-.04-4.07,1.01-7.11,1.86-15.89,2.02-22.84-2.78-1.24-5.71-3.09-8.23-5.22,0,.07,.01,.14,.01,.21,.33,3.72,.65,7.44,.97,11.16,.06,.73,.12,1.51-.17,2.18-.25,.56-.83,1.02-1.41,1.02-.12,0-.24-.02-.36-.06-.61-.21-.91-.89-1.06-1.52-.83-3.54,1-7.23,.46-10.83-.62-4.16-4.18-7.18-6.14-10.91-.22-.41-.41-.86-.58-1.32-1.75-3.62-2.43-7.77-2.43-13.94,0-.77,.01-1.54,.02-2.31,.42-22.98,7.07-43.59,13.47-63.07,.29-.87,.57-1.75,.86-2.62,8.73-26.51,8.42-27.76,11.23-29,.62-.32,1.24-.32,2.18-.32,4.05,0,10.29,3.12,15.28,8.11,5.31,5.31,7.8,12.17,5.31,14.04Z"/>
      <path class="cls-1" d="M871.65,177.31c-.31,2.5-.62,4.06-4.05,4.06-4.37,0-8.74-4.06-11.86-7.18-9.67-10.29-7.17-15.59-4.36-24.95,3.43-10.92,1.24-10.29,3.74-14.03,.93-1.56,2.49-2.5,4.05-2.5,6.55,0,16.53,11.23,18.41,18.09,1.56,5.93-5.31,17.78-5.93,26.51Z"/>
      <path class="cls-1" d="M1106.37,196.52c-.77,.79-1.3,1.98-1.28,3.54l1.66,10.95c.1,.71,.14,1.44,.07,2.15-.12,1.02-.47,1.98-1.48,2.48-.35,.18-.73,.26-1.11,.26-1.02,0-2.03-.61-2.56-1.56-1.47-2.64-.17-5.3,.41-7.94,.46-2.1,.23-4.73-1.61-5.82-.54-.38-1.07-.57-1.55-.57-1.01,0-1.79,.86-1.96,2.68l1.43,38.05c.03,1.79-1.42,2.86-2.85,2.86-.98,0-1.96-.51-2.45-1.62l-.02-.07c-.64-1.49-.84-3.13-.58-4.73,1-6.11,1.02-12.21,1.82-18.32,.31-2.32,.52-5.04-2.02-6.31-.6-.31-1.25-.45-1.9-.45-.92,0-1.83,.27-2.63,.77-7.34,4.58-7.13,14.18-6.36,22.31,1.21,12.9,2.42,25.8,3.64,38.7,.18,2-1.4,3.24-2.99,3.24-1.03,0-2.06-.52-2.62-1.69l-.03-.07c-.73-1.52-1.07-3.18-1.01-4.86,.36-10.02,.72-20.03,1.08-30.05,.41-11.56,.4-24.29-5.75-33.7-20.67,15.03-42.43,36.41-54.23,50.1-4.68,5.3-3.12,3.12-5.92,11.85,0,.63-.32,.32,7.48,1.88,27.45,5.3,66.13,16.21,67.37,16.53,8.43,3.74,16.85,18.4,13.73,23.39-.62,.94-1.25,1.25-2.81,1.25-5.61,0-20.58-6.24-61.45-14.66-12.16-2.81-25.88-4.99-29.94-4.99-.62,0-1.25,.31-1.25,.31,0,0-18.09,53.34-16.84,57.7,.62,1.87,.31,2.5-.94,4.06-.93,1.56-2.49,2.18-4.67,2.18-7.18,0-19.03-9.36-20.59-16.22-1.3-5.4,6.25-28.8,11.21-43.78-1.75,.87-3.43,1.36-4.97,1.36-7.49,0-16.84-8.42-19.96-14.66-6.8-12.35-.75-58.34-1.54-58.34,0,0-.01,0-.02,0-.66,.92-4.82,7.3-10.85,16.36h.02l-.06,.06c-1.3,1.95-2.68,4.02-4.14,6.18-1.4,4.23-1.11,9.45-.77,14.44,.68,10.09,1.36,20.18,2.05,30.27,.18,2.71,.31,5.54,.08,8.16-.18,1.89-1.41,2.72-2.87,2.72-2.19,0-4.89-1.89-5.19-4.9-.05-.56-.08-1.12-.1-1.67-.08-4.09,.91-7.82,1.64-11.61,1.89-9.74,2.17-20.24,.83-30.99-17.15,25.28-40.93,58.74-50.82,64.56-2.18,1.25-4.68,1.87-6.86,1.87-.97,0-1.95-.1-2.92-.27-.42,3.36-.2,7.06,.04,10.65,.68,10.09,1.36,20.18,2.04,30.27,.19,2.71,.32,5.54,.08,8.15-.17,1.89-1.4,2.73-2.86,2.73-2.19,0-4.89-1.9-5.19-4.91-.05-.56-.09-1.11-.1-1.66-.08-4.1,.9-7.82,1.64-11.61,2.11-10.88,2.2-22.71,.29-34.79-7.33-2.88-14.04-9.48-16.42-14.47-3.12-5.92-1.87-9.67,.32-15.91,.18-.43,.35-.88,.51-1.37,1.34-3.95,2.34-9.89,4.59-19.2,2.32-9.56,5.97-22.68,12.67-40.87,.94-2.81,11.23-29.63,14.98-31.82,.62-.31,1.56-.62,2.8-.62,7.18,0,19.65,9.98,20.9,18.09,.31,2.81-.31,4.05-2.18,4.99-4.68,2.18-20.28,49.28-19.96,50.22t.01,0c1.12,0,59.89-88.31,62.99-92.34,4.37-5.61,6.55-9.67,11.23-9.67,3.74,.31,8.73,2.81,13.1,7.18,15.6,14.03,5.93,29.63,2.18,76.73-.46,6.75-.58,8.11-.35,8.11,.08,0,.2-.16,.35-.32,.93-.92,11.03-15.3,25.76-35.87,3.98-12.84,9.87-32.21,19.16-62.07,14.03-45.53,14.03-45.22,16.22-46.16,.62-.31,1.56-.62,2.49-.62,7.17,0,19.96,9.98,20.59,17.15,.31,1.25,0,1.87-.63,3.75-1.87,4.05-20.58,64.56-20.27,64.56,.01,.02,.03,.04,.07,.04,1.81,0,35.82-32.79,53.89-32.79,1.25,0,2.5,.31,3.43,.62,12.06,3.62,20.92,22.11,16.7,25.87-.73,1.68-1.8,3.23-3.12,4.57Z"/>
    </g>
  </g>
</svg>