<?xml version="1.0" encoding="UTF-8"?>
<svg id="Layer_2" data-name="Layer 2" xmlns="http://www.w3.org/2000/svg" viewBox="0 0 1204.38 438.64">
  <defs>
    <style>
      .cls-1, .cls-2 {
        fill: #fff;
      }

      .cls-2 {
        stroke: #000;
        stroke-miterlimit: 10;
        stroke-width: 1.89px;
      }
    </style>
  </defs>
  <g id="Layer_1-2" data-name="Layer 1">
    <polygon class="cls-2" points="637.26 4.25 540.69 4.25 540.69 19.31 551.99 19.31 615.17 227.01 558.02 422.66 545.46 422.66 545.46 437.05 637.26 437.05 637.26 422.66 623.87 422.66 654 294.79 680.44 422.66 667.22 422.66 667.22 437.05 761.87 437.05 761.87 422.66 748.73 422.66 691.49 227.01 748.73 19.31 763.79 19.31 763.79 4.25 666.22 4.25 666.22 19.31 680.44 19.31 654 156.38 623.04 19.31 637.26 19.31 637.26 4.25"/>
    <path class="cls-2" d="M175.67,144.16V79.77s-3.72-39.46-27.87-60.46C120.19-4.71,69.98,1.15,62.95,2.7S13.27,17.53,.94,68.85c0,54.6,.13,121,.13,121l103.31,77.95v79.71s.63,16.49-16.82,19.92c-17.7,0-18.66-20.04-18.66-20.04v-69.33H.94v69.33s-.38,46.49,33.26,75.27c21.97,17.74,42.43,14.39,52.59,14.39,75.82,0,88.49-62.3,88.87-89.16v-113.85l-106.78-81.72V79.23s3.1-10.38,17.66-10.38,17.82,10.38,17.82,10.38v64.94h71.3Z"/>
    <path class="cls-2" d="M357.76,422.66l-43.85-343.43V4.25h-93.05V79.23l-45.19,343.43h-14.06v14.64h94.64v-14.64h-15.06l4.52-47.78h38.91l5.77,47.78h-13.56v14.39l94.14,.25v-14.64h-13.22Zm-104.52-131.55l12.13-146.95,11.46,146.95h-23.6Z"/>
    <polygon class="cls-2" points="357.76 4.25 545.46 4.25 545.46 79.23 485.97 79.23 485.97 422.66 502.53 422.66 502.53 437.05 399.61 437.05 399.61 422.66 415.34 422.66 415.34 79.23 357.76 79.23 357.76 4.25"/>
    <g>
      <path class="cls-1" d="M1121.08,113.94c4.53-5.53,8.99-14.12,3.75-18.99-6.19-5.76-15.57,2.53-24.08,2.58,.9,1.56,1.48,3.11,1.61,4.55,.34,1.36,0,2.04-.68,4.09-2.04,4.43-22.48,70.52-22.14,70.52,.68,1.36,38.84-35.77,58.93-35.77,.43,0,.85,.04,1.27,.1,5.89-1.89,12.51-1.75,18.8-1.88,8.22-.17,17.31-1.36,22.71-7.57,5.39-6.21,2.98-18.62-5.23-19.23-2.43-.18-4.8,.68-7.08,1.52-17.15,6.35-34.3,12.7-51.45,19.05-5.31-4.78-.94-13.44,3.59-18.98Z"/>
      <path class="cls-1" d="M1204.07,313.63c-1.23-5.01-5.23-8.89-9.57-11.68-8.75-5.62-22.92-17.16-32.88-20.17s-18.13-10.03-24.35-18.37c-6.22-8.33-4.96-9.63,3.26-16,6.37-4.95,16.66-5.15,20.25-12.37,3.95-7.94-3.73-16.58-10.89-21.81-7.16-5.23-15.58-12.49-13.34-21.07,1.91-7.33,11.37-13.54,7.85-20.25,0-.01-.02-.02-.02-.04-27.37,12.97-64.77,48.6-82.22,68.86-5.11,5.79-3.41,3.41-6.47,12.94,0,.68-.34,.34,8.18,2.04,29.98,5.79,72.22,17.71,73.58,18.06,9.2,4.09,18.4,20.1,14.99,25.55-.68,1.02-1.36,1.36-3.07,1.36-6.13,0-22.48-6.81-67.11-16.01-13.29-3.07-28.28-5.45-32.7-5.45-.68,0-1.36,.34-1.36,.34,0,0-19.76,58.25-18.4,63.02,.68,2.04,.34,2.73-1.02,4.43-1.02,1.7-2.73,2.39-5.11,2.39-7.84,0-20.78-10.22-22.48-17.71-1.33-5.52,5.8-28.23,11.16-44.54-13.55,14.35-27.06,26.75-32.86,26.75-8.18,0-18.4-9.2-21.8-16.01-7.5-13.63,27.84-93.27,26.82-92.25-2.73,3.75-59.28,91.98-76.65,102.2-2.39,1.36-5.11,2.04-7.5,2.04-10.56,0-22.14-10.22-25.55-17.37-3.41-6.47-2.04-10.56,.34-17.37,3.41-8.18,8.6-42.64,23.93-84.2,1.02-3.07,14.01-45.55,18.1-47.94,.68-.34,1.7-.68,3.07-.68,7.84,0,21.46,10.9,22.82,19.76,.34,3.07-.34,4.43-2.39,5.45-5.11,2.38-28.4,84.1-28.06,85.13,.34,1.36,65.41-96.41,68.81-100.84,4.77-6.13,7.15-10.56,12.26-10.56,4.09,.34,9.55-2.09,14.32,2.68,30.95,5.98,21.09,34.42-7.24,122.56,6.19-9.8,16.18-23.65,29.27-39.07,3.59-8.08,8.97-27.31,29.4-92.98,15.33-49.74,15.33-49.4,17.71-50.42,.68-.34,1.7-.68,2.73-.68,2.67,0,6.06,1.27,9.38,3.25-.52-2.77-.39-5.69,.54-8.3,2.71-7.66,9.75-12.85,16.67-17.1,6.93-4.24,14.38-8.26,19-14.94,7.17-10.37,4.89-26.12-4.93-34.03-9.82-7.91-25.69-6.8-34.3,2.41-6.42,6.86-8.49,16.63-9.95,25.92-1.46,9.29-2.7,19.01-8,26.78-5.3,7.76-16.16,12.68-24.36,8.08,6.29-3.29,2.85-13.91-3.77-16.47-6.62-2.56-13.98-.37-21.05,.21-7.07,.58-15.74-1.74-17.58-8.59-1.69-6.24,3.29-12.13,5.05-18.35,2.55-8.97-2.66-19.46-11.35-22.85-8.69-3.39-19.63,.81-23.82,9.15-6.52,12.96,5.81,34.54-12.83,38.32-19.22,3.89-38.68,6.68-58.01,1.77-11.78-2.99-26.09-7.66-34.65,.98-12.04,12.15,2.92,34.42-5.27,49.44-4.61,8.46-15.79,11.76-25.16,9.48-9.37-2.27-17.06-8.99-23.11-16.49-6.11-7.56-10.96-16.1-17.41-23.37-6.45-7.27-15.06-13.39-24.76-13.88-9.71-.49-20.11,6.37-20.88,16.06-.75,9.52,7.24,17.31,14.99,22.88,10.72,7.7,22.36,14.13,34.59,19.11,8.98,3.66,18.56,6.72,25.63,13.35,7.07,6.64,10.65,18.3,4.94,26.13-9.51,13.05-31.33,3.4-45.68,10.82-13.31,6.88-13.08,29.74,.36,36.35,6.39,3.15,13.88,2.73,20.89,4.06,7,1.33,14.57,5.71,15.22,12.8,1.21,13.12-20.82,18.68-20.69,31.85,.09,9.32,11.08,14.12,20.24,15.86,2.34,.44,4.81,.94,7.23,1.57,25.34-103.37,42.61-131.99,43.96-169.46-6.13-8.44-4.43-12.01,.34-12.01,7.49,0,21.8,7.79,26.23,19.79,8.86,24.66-24.19,92.8-46.67,194.35-.28,1.13-.51,2.08-.71,2.88,6.46,3.14,15.97,2.39,21.44,7.59,8.28,7.86,1.46,21.55-5.55,30.57-10.63,13.68-21.26,27.36-31.89,41.04-5.76,7.42-11.71,15.22-13.38,24.47-1.68,9.24,2.47,20.27,11.42,23.11,7.54,2.39,15.91-1.82,20.77-8.05,4.87-6.23,7-14.11,9.01-21.75,3.72-14.11,7.45-28.22,11.17-42.33,1.89-7.17,4.04-14.77,9.56-19.73,5.52-4.96,15.58-5.54,19.51,.75,2.59,4.14,2.13,10.31,6.22,12.97,6.24,4.04,13.53-4.93,20.95-4.59,7.88,.36,11.16,11.19,8.04,18.44-3.11,7.25-9.86,12.17-14.77,18.34-6.49,8.14-9.72,19.7-5.42,29.19,4.3,9.48,17.66,14.55,25.91,8.19,11.82-9.12,3.8-28.26,7.99-42.59,4.52-15.47,26.63-22.26,39.06-11.99,7,5.78,11.89,15.95,20.97,16.24,15.5,.49,18.4-27.37,33.84-28.79,10.74-.98,17.03,11.48,20.57,21.67,3.54,10.19,11,22.39,21.53,20.07,9.47-2.08,12.18-14.97,8.79-24.05-3.39-9.08-10.57-16.32-14.2-25.31-3.63-8.99-1.68-21.85,7.6-24.66,4.34-1.32,9.04,0,13.55-.49,8.26-.88,14.87-7.79,17.88-15.52,3.01-7.74-4.25-3.59-4.19-11.89,20.78,11.29,48.92,9.91,69.7,21.19,3.57,1.94,7.6,3.94,11.51,2.87,4.98-1.35,7.48-7.49,6.25-12.5Z"/>
    </g>
  </g>
</svg>