<?xml version="1.0" encoding="UTF-8"?>
<svg id="Layer_2" data-name="Layer 2" xmlns="http://www.w3.org/2000/svg" viewBox="0 0 482.13 201.3">
  <defs>
    <style>
      .cls-1 {
        fill: #f2f2f2;
      }
    </style>
  </defs>
  <g id="Layer_1-2" data-name="Layer 1">
    <g>
      <path class="cls-1" d="M178.65,74.28c0-.67,.03-1.35,.01-2.02-.06-1.06,.42-1.47,1.5-1.61,2.37-.29,4.74-.69,6.99-1.61,1.49-.62,2.38-1.58,2.6-3.18,.14-1.06,.31-2.64,.5-3.69,.72-4.16,1.25-8.36,2.15-12.48,.56-2.56,.54-3.13-1.6-4.47-1.65-1.03-3.54-1.46-5.34-2.09-2.54-.91-2.59-1.03-2.67-3.69-.03-1.4,.3-13.59-.35-14.96-.19,1.97,.07,14.67-.29,16.88-1.31-.64-2.64-.69-2.82-2.34-.1-.97-.97-1.05-1.7-1.28-1.85-.59-3.78-.61-5.68-.86-.82-.1-1.23-.4-1.21-1.25,.05-1.94-.17-33.7,.4-35.63h-1.62c.09,1.93-.01,33.66-.06,35.58-.01,.81-.39,1.2-1.21,1.28-2.05,.22-4.1,.5-6.1,.75-.53-1.3-.13-13.21-.37-14.26-.36,2.71,.3,16.7-3.83,17.99V24c-.44,1.63-.42,14-.44,15.62-.03,2.28-.22,2.57-2.33,3.38-.89,.35-1.85,.52-2.74,.86-1.43,.54-2.89,1.06-4.07,2.12-1.01,.91-1.58,1.93-.76,3.29,.74,1.21,.51,2.7,1.01,3.99,1.33,3.44,2.04,7.03,1.82,10.71-.19,2.94,.75,4.29,2.73,5.1,1.62,.66,3.31,.99,5.01,1.3,3.4,.6,3.39,.62,3.39,4v114.25c0,4.2,.03,8.4-.01,12.59h17.1V74.28Z"/>
      <path class="cls-1" d="M68.12,196.17c-.21-.24-.13-.74-.14-1.12-.12-4.82,.15-9.64-.47-14.46-.42-3.32-.14-6.73-.06-10.09,.06-2.23,.17-4.42-1.03-6.43-.24-.42-.3-.96-.94-.83-.38,.07-.53,.42-.67,.81-.95,2.52-.99,2.52-2.88,.8-.36-.32-.71-.66-1.05-.99-1.65-1.56-3.69-2.86-2.96-5.74,.24-.96-1.39-.69-1.7-1.49-.15,.75-1.5,.61-1.49,1.48,.01,.38-.06,.78,0,1.16,.19,1.39-.44,2.36-1.47,3.23-1.1,.93-2.09,1.98-3.19,2.9-1.04,.88-1.65,.74-2.17-.46-.19-.43-.13-.97-.35-1.35-.31-.53-.99-.51-1.11,.01-.34,1.64-1.69,2.97-1.43,4.82,.17,1.19,.29,2.38,.2,3.59-.31,3.99,.27,7.96-.54,12.01-.53,2.66,.02,5.7,.07,8.57,.01,1.01,.25,2.08-.36,3.12-.89-.65-.52-1.49-.71-2.17-.12-.43-.46-.65-.82-.71-.53-.08-.93,.23-1.1,.73-.09,.25-.08,.57-.08,.84-.01,1.56-.95,1.9-2.29,1.86-1.2-.03-2.27,.02-2.38-1.71-.07-1.06-1.43-1.61-1.58-2.88-.06-.53-1.27-.49-1.37,.03-.23,1.28-1.69,1.84-1.7,3.15,0,1.21-.72,1.35-1.69,1.4-2.21,.12-2.41,.01-2.98-2.33-.15-.62-.34-1.11-1.04-1.08-.57,.02-.8,.46-.87,.98-.08,.61,.02,1.31-.58,1.68-.31,0-.42-.13-.43-.37-.19-4.59,.03-9.17-.47-13.78-.39-3.52-.07-7.11-.08-10.67-.01-2.2,.51-4.45-1.02-6.44-.24-.32-.14-1.03-.72-1.03-.68,.01-.82,.53-.9,1.19-.12,1.01-.8,2.24-1.8,1.28-2.36-2.26-6.14-3.77-5.04-8.14-.32-.09-.5-.17-.68-.19-2.36-.16-2.37-.16-2.5,2.12-.05,.79,.02,1.56-.67,2.16-1.38,1.2-2.75,2.41-4.01,3.74-1.03,1.09-1.71,.56-2.16-.39-.2-.42-.15-.94-.34-1.37-.08-.21-.45-.42-.67-.39-.23,.02-.58,.29-.62,.5-.44,1.97-1.46,3.71-1.24,5.96,.36,3.82-.01,7.69,.19,11.52,.06,1.23-.8,2.04-.71,3.26,.24,3.33,.2,6.7,.25,10.05,.01,.66,.17,1.47-.35,1.93-1.42,1.3-1.17,2.95-1.17,4.56v.24c18.67,.01,41.55,.02,69.36,.04,.07-1.79,.08-3.56-1.26-5.12Z"/>
      <path class="cls-1" d="M253.6,194.82c.02-1.89-.1-3.84,.79-5.65,.44-.88,.09-1.56-.95-1.93-1.08-.38-2.11-.93-3.12-1.45-.42-.21-1.19-.37-1.03-.94,.74-2.67-1.77-4.88-.16-7.73,1.25-2.22,.99-4.84-.3-7.03-.56-.94,.23-2.2-.54-3.16-2.64-3.23-4.04-7.16-6.14-10.69-.4-.68-.56-1.6-1.61-2.02-.99,1.84-1.94,3.6-2.89,5.36-1.54,2.85-3.68,5.53-4.44,8.56-.78,3.08-.22,6.5-.16,9.76,.03,1.74-.1,3.37-.96,4.94-.29,.53-.35,1.08-1.08,1.04-1.98-.12-3.94,.22-5.96-.51-5.75-2.08-7.02-2-12.74-.06-.28,.09-.51,.29-.79,.36-1.79,.45-3.62,.19-5.45,.17-.25,0-.65-.09-.65-.43,.03-1.69-2.14-2.36-.93-4.84,2.42-4.92,2.53-10.65-.16-15.43-2.3-4.07,.23-8.5-1.11-12.57-.62-1.91-.71-3.76-.59-5.65,.3-4.49-.56-8.72-2.45-12.77-.78-1.65-1.78-3.7-3.68-3.68-1.86,.02-2.9,2.06-3.64,3.72-1.76,3.96-2.79,8.09-2.45,12.48,.1,1.34,.37,2.82-.06,4.01-.99,2.8-.74,5.58-.65,8.42,.19,5.84-.61,11.66-.47,17.51,.03,1.7-.36,3.45-.21,5.16,.14,1.45-1.47,2.33-1.03,3.76,.45,1.47-.36,2.08-1.55,2.53-.72,.27-1.4,.65-2.12,.91-1.49,.52-2.04,1.35-1.09,2.81,.38,.59,.28,1.31,.3,1.98,.12,3.13,.15,6.27,.16,9.4h69.88c0-2.13,0-4.25,.02-6.38Z"/>
      <path class="cls-1" d="M452.04,201.2h5.86c-3.17-.73-6.33-1.56-9.52-2.19-1.35-.27-1.7-.89-1.69-2.14l.26-9.8c4.85-6.27,9.51-12.68,13.99-19.21,0,8.46,0,14.58,0,19h0c0,1.32,0,2.65,0,3.97h0c0,7.05,0,7.75,0,8.44,0,.64,.08,1.3-.13,1.92h3.86c0-.23,0-.49,0-.79,0-1.34-.01-2.7-.01-26.24,3.07,3.98,8.75,10.98,9.89,12.68,.64,.95,2.13,.49,2.13-.66,0-.23-.07-.46-.21-.66-1.98-2.89-8.55-11.06-11.81-15.32-.01-1.43-.01-2.95-.01-4.52,.31-1.15,.56-2.06,.58-2.2,.24-1.64,.64-2.01,2.26-1.83l10.41,13.86v-3.55c-3.44-5.28-9.72-14.21-12.86-18.3h17.12v-12.88h-4.66c-5.29-.05-10.57-.01-15.86-.02-4.05,0-8.09-.01-12.12-.05-2.74-.02-2.74-.03-2.79-2.64v-1.43c0-6.55,.01-13.08-.01-19.62,0-.91,.2-1.85-.65-2.67-1.67-1.63-3.32-3.19-5.84-3.24-.36,.54-.9,.65-1.49,.64-.66-.01-1.64,.1-1.56-.74,.08-.91,1.03-.32,1.61-.36-2.59-1.46-2.6-1.46-2.6-4.57-.01-2.24,0-4.49,0-6.73-.64,2.37-.91,4.74-.8,7.1,.12,2.09-.56,3.41-2.52,4.07,.02-.02,.03-.05,.06-.07-1.09,.34-2.17,.76-3.29,.97-2.08,.37-3.24,1.99-4.55,3.32-.83,.84-.22,2.21-.34,3.33-.03,.28,0,.57-.01,.86-.03,3.74,.51,3.26-4.01,3.32-4.66,.06-9.35,.07-14.01,.01-7.14-.09-7.13,.61-7.18-5-.02-3.39-2.44-5.66-6.14-5.81-.36-.78-1.17-.98-1.85-1.11-2.26-.45-2.76-1.83-2.61-3.94,.17-2.45,.03-4.92,.03-7.38-.21,0-.43,.01-.64,.01,0,2-.14,4.01,.02,6,.25,2.98-.35,5.25-3.81,5.74-.19,.02-.34,.35-.51,.57-4.2,.34-6.41,2.6-6.42,6.59-.05,12.69-.1,25.37-.15,38.06l.15,32.95c.02,1.32-.31,1.97-1.8,1.74-.31-.05-.61-.09-.93-.14-1.78-2.16-3.47-4.38-5.07-6.69-.79-1.13-12.19-23.08-12.19-39.74v-10.23c0-.67-.54-1.2-1.2-1.2h-1.5c-.15,0-.28,.03-.42,.08-.13-.05-.27-.08-.4-.08-.67,0-1.2,.53-1.2,1.2v14.34c-.2,.14-.36,.31-.46,.59l-17.27,32.15v-2.71l-.31-65.13c0-.67,.01-1.34-.01-2.02-.07-2.06-.08-2.06-2.12-2.14-3.64-.15-3.7-.15-3.76-3.9-.02-1.41-.35-2.19-1.93-2.02-.86,.09-1.72-.02-2.59,.02-.8,.03-1.42-.56-1.39-1.35,.02-.49,0-.96,0-1.45-.01-3.26,.24-3.04-3.19-3.04h-.57c-2.16-.07-2.2-.07-2.23-2.31-.05-2.5,.02-5-.02-7.5-.05-2.04-.13-2.06-2.14-2.14q-3.75-.15-3.76-3.94v-.58c-.03-2.68-.03-2.72-2.68-2.72-7.79-.02-15.58-.01-23.37-.01-.38,0-.76,.03-1.16,.02-.97-.02-1.38,.49-1.37,1.42,.01,.96-.01,1.92-.02,2.88q-.02,2.88-2.76,2.93c-.2,0-.38-.01-.58,0-3.05,.05-2.58,.03-2.67,4.29-.06,2.02,.03,4.06,.02,6.08-.01,1.12-.46,1.7-1.68,1.57-.19-.02-.38-.01-.58,0q-3.49,.09-3.61,3.76-.07,2.01-2.09,2.07-3.68,.12-3.77,3.62c-.01,.28-.02,.57-.01,.84,.03,.79-.58,1.43-1.37,1.42-.49,0-.96,.02-1.45,.02-3.07-.02-3.1-.24-3.08,3.22v2.88c0,28.71,0,57.41,0,86.12h193.18Zm-4.23-47.5h13.12v9.81l-13.87,18.72,.75-28.53Zm-6.7-41.34c.56,.03,.78,.46,.78,.99,0,.5-.19,.89-.72,1.07-1.5,.52-2.67-.11-3.42-2.08,1.31,0,2.34-.04,3.36,.01Zm-4.67,.01c.8,.64,.77,1.27,.12,2.37-.45-1.01-.47-1.62-.12-2.37Zm-3.63-1.83c.36,0,.73-.01,1.09,.03,.16,.02,.45,.18,.44,.24-.03,.24-.1,.58-.27,.69-.65,.41-1.34,.37-2.08,0,.3-.35,.56-.65,.82-.96Zm-.34,1.8c.37,.05,.74,.06,1.19,.1,.05,.76-.28,1.11-.59,1.43-.39,.39-.88,.8-1.42,.35-.22-.19-.25-.68-.26-1.03-.03-.73,.41-.95,1.08-.85Zm-2.14,0c.82-.08,.89,.48,.9,1.12-.08,.42-.05,.96-.71,.97-.85,.02-1.18-.45-1.12-1.25,.04-.59,.44-.79,.94-.84Zm-35.27,1.07c-.14,1.33-1.28,.93-2.16,1-.75,.05-1.25,.02-1.29-.94-.07-1.39,.83-1.18,1.72-1.11,.69,.13,1.88-.3,1.74,1.05Zm-5.11-2.52c1.27-.78,2.2,.42,3.32,.58-1.12,.07-2.31,.91-3.3-.32-.05-.06-.06-.24-.02-.26Zm-.53,1.7c.55-.11,.46,.42,.55,.73,0,.38,.05,.85-.37,.93-.54,.11-.51-.41-.55-.75-.04-.35-.06-.82,.36-.91Zm-1.97-.02c.37-.19,.62,.22,.64,.62,.02,.44,.05,.9-.35,1.12-.51,.06-.54-.24-.56-.5-.05-.45-.15-1.02,.27-1.24Zm-2.95-1.36c.91,.1,1.65-1.2,2.63-.31,.04,.04,.03,.2-.02,.26-.83,1.07-1.84,.53-2.81,.29-.08-.02-.15-.07-.23-.11,.15-.07,.29-.15,.43-.14Zm-1.53,1.14c1.19-.12,2.37-.19,3.58,.13-.82,1.77-2.53,2.49-3.97,1.84-.57-.26-.49-.71-.51-1.16-.02-.63,.41-.76,.89-.81Zm-74.04-27.47c-.36,.65-1.23,.37-1.88,.38-3.45,.02-6.9,.01-10.36,.01-3.36,0-6.71,.02-10.07,0-2.12-.02-2.12-.06-2.18-2-.08-2.69-.08-2.71,2.61-2.71,6.71-.01,13.43-.01,20.14,.01,.7,0,1.73-.35,1.93,.7,.23,1.2,.43,2.51-.19,3.63Zm43.93,106.06c-.5,.75-1.58,.98-3.51,.99-3.77,.01-7.51,.72-10.97,2.21-2.04,.88-2.92,.7-3.33-.69-.22-.76-.2-1.52-.24-2.28-.08-1.64,.19-3.25,.32-4.88v-.96l17.73-32.46v38.07Zm4.71-2.78c-.04-1.92,0-3.85-.01-5.77,0-.6,.01-1.21,.03-1.81v-8.86c-.05-.39-.09-.85,0-1.29v-8.39c3.78,8.79,9.51,22.14,10.28,23.24,1.12,1.61,2.29,3.19,3.5,4.73-2.4-.32-4.81-.56-7.25-.5-.1,0-.19-.03-.29-.02l-4.78,.73c-1.8,.17-1.46-1.08-1.48-2.07Z"/>
      <path class="cls-1" d="M97.17,201.3l.04-.08h23.74c-.13-11.62-.27-23.23-.38-34.85-.07-7.11-.1-14.24-.17-21.35-.02-2.27-.09-2.33-2.49-2.22-.3,.01-.56-.02-.86-.47,.09-6.32-.02-12.82-.57-19.19-1.08-.2-1.35,1.06-2.35,.23,0-3.09,.02-6.35-.01-9.61-.02-1.71-.07-1.74-2.04-1.61-.79,.05-1.23-.49-1.71-.93-2.09-1.89-4.11-3.86-6.29-5.63-1.35-1.09-2.19-2.76-2.01-4.49,.08-.8-.02-1.62,.01-2.42,.03-.79,.02-1.5-.68-2.07-1.02-.8-.88-17.82-.82-23.39,2.45-.91,4.9-1.3,7.35-1.69,.68-.12,1.26-.4,1.87-.68,.97-.45,1.76-1.05,1.18-2.17-.47-.93-.76-2.05-2.48-1.71-2.73,.52-5.54,.59-8.43,.87v4.84c-.1,5.74-.12,15.34-.08,19.63,.01,1.61-.17,3.12-1.5,4.16-.81,.64-.86,1.39-.79,2.29,.08,.95-.03,1.92,.05,2.88,.13,1.47-.38,2.53-1.53,3.49-2,1.65-3.83,3.52-5.83,5.17-1.04,.87-1.87,2.74-3.79,1.25-.34-.25-.6,.27-.75,.62-.32,.74-.24,1.52-.21,2.28,.14,2.66-.31,5.31-.05,7.97,.08,.91,.02,1.97-1.41,.84-.97-.76-1.1,.24-1.12,.88-.09,3.46,.01,6.93-.24,10.38-.19,2.72,.37,5.45-.09,8.1-.29,.1-.47,.22-.65,.21-2.13-.12-2.49-.14-2.57,1.3-.13,1.99-.15,3.99-.17,5.98-.15,15.07-.25,30.16-.38,45.23-.02,1.99-.06,3.98-.09,5.96,.03,0,.06,0,.09,0h18.22Z"/>
      <path class="cls-1" d="M149.03,201.2h7.93c0-.08,0-.13,0-.21-.01-.67,0-1.34,0-2.01,0-12.79,0-25.59-.01-38.38,0-2.64-.02-2.66-2.7-2.66-4.52-.01-9.05-.01-13.57-.01-3.55,.01-7.11,.05-10.67-.01-1.38-.02-1.94,.5-1.84,1.85,.06,.67,.01,1.35,.01,2.02,0,13.15,0,26.29-.01,39.44h20.87v-.02Z"/>
      <path class="cls-1" d="M56.17,156.13c-.03,.2,0,.36,.05,.49,.03-.13,.02-.29-.05-.49Z"/>
    </g>
  </g>
</svg>