<?xml version="1.0" encoding="UTF-8"?>
<svg id="Layer_2" data-name="Layer 2" xmlns="http://www.w3.org/2000/svg" viewBox="0 0 1259.98 327.62">
  <defs>
    <style>
      .cls-1 {
        fill: #fff;
      }

      .cls-2 {
        fill: #b6382d;
      }
    </style>
  </defs>
  <g id="Layer_1-2" data-name="Layer 1">
    <path class="cls-1" d="M185.36,136.05v-39.54s-3.95-24.23-29.56-37.12c-29.29-14.75-82.56-11.15-90.02-10.2C58.32,50.13,13.08,58.29,0,89.8,0,123.33,.13,164.1,.13,164.1l109.59,47.86v48.94s.67,10.12-17.84,12.23c-18.78,0-19.8-12.31-19.8-12.31v-42.57H0v42.57s-.4,28.54,35.29,46.22c23.3,10.89,45.01,8.84,55.79,8.84,80.43,0,93.88-38.25,94.28-54.75v-69.91l-113.27-50.18v-44.88s3.28-6.37,18.73-6.37,18.91,6.37,18.91,6.37v39.87h75.63Z"/>
    <path class="cls-1" d="M378.52,304.16l-46.52-206V53.18h-98.71v44.97l-47.94,206h-14.91v8.78h100.4v-8.78h-15.98l4.79-28.66h41.28l6.13,28.66h-14.38v8.63l99.87,.15v-8.78h-14.03Zm-110.88-78.91l12.87-88.14,12.16,88.14h-25.03Z"/>
    <polygon class="cls-1" points="577.64 64.48 577.64 98.16 514.53 98.16 514.53 304.16 532.1 304.16 532.1 312.8 422.91 312.8 422.91 304.16 439.6 304.16 439.6 98.16 378.53 98.16 378.53 53.19 568.58 53.18 568.58 64.48 577.64 64.48"/>
    <polygon class="cls-1" points="793.27 62.22 732.55 186.81 793.27 304.16 807.21 304.16 807.21 312.8 706.81 312.8 706.81 304.16 720.83 304.16 692.78 227.46 660.82 304.16 675.03 304.16 675.03 312.8 577.64 312.8 577.64 304.16 590.96 304.16 651.59 186.81 584.57 62.22 572.58 62.22 572.58 53.19 675.03 53.19 675.03 62.22 659.93 62.22 692.78 144.44 720.83 62.22 705.74 62.22 705.74 53.18 809.25 53.19 809.25 62.22 793.27 62.22"/>
    <g>
      <path class="cls-2" d="M919.34,76.12l2.1,.12c-.52,.7-.44,1.31-.76,1.98l.9,.5c.41-.06,.64,.12,.7,.52,.12,.82-.38,1.72-.7,2.39,.64,.12,1.43-.2,1.86-.06,.49,.55-.73,2.18-1.25,2.88,.12,.82-.18,1.69-.58,1.75l-.82,1.57,.26,1.83,.52-.7,.58-1.75c.15-.44,.52-.7,.73-.73,.03,.2-.29,.87-.23,1.28,.96,.9-2.01,3.4-1.05,4.31l-.61,1.54c.06,.41-.06,1.05-.18,1.69,.67-1.13,1.52-2.5,1.31-3.93l1.72,.38-.09,2.3,.99-.35,1.19,1.08-.59,3.2c-1.43,1.66-1.9,4.22-2.95,5.61l-.41,.06,.09,.61-.93,2.21c.26,1.83-1.66,2.94-1.34,5.18-.32,.67-1.28,4.13-1.69,4.19,.09,.61,.2,1.43,.11,2.27l.2-.03c.23,.18,.26,.38-.12,.64l-.41,.06c-.12,.64-.5,.9-.9,.96,.2,1.43-.44,2.77-.24,4.19l1.45,1.46c.2-.03,.41-.06,.44,.15,.06,.41-.26,1.08-.64,1.34,.09,.61-.03,1.25-.85,1.37l-.61,.09,.12,2.27-1.49,4.16-.73,.73c.17,1.22-.41,2.97-.85,4.28l.35,2.45-1.43,1.66-.53,2.15-1.08,1.19c.2,1.43-1.17,2.04-.93,3.67l-1.34,3.72c-1.43,.2-.15,3.35-1.98,3.61l-.61-5.73-1.28-.23-.61,1.54c-.21,1.49-.85,5.73-.65,7.16,.26,1.83,.03,1.66-2.01,1.95l-.12,.64c.46,.35,1.48,1.66,.26,1.83-.2,.03-1.19,.38-1.16,.58l.03,.2,3.08,1.23c.88-1.16,1.05-2.85,.85-4.28,.52-.7,.64-1.34,.53-2.15l.55-1.95c-.03-.2-.12-.82,.09-.84,.81-.12,1.72,1.83,1.8,2.45,.03,.2,.09,.61-.32,.67-.18,1.69-.76,4.89-2.01,6.31,.12,.82-.47,1.11-.35,1.92-.41,1.51-.99,3.26-1.84,4.63,.06,.41-.06,1.05-.47,1.11-.82,.12-.87-1.75-.93-2.16l-1.54,.84,.09,2.07-1.31,3.93-.2,.03-1.11,3.9c-.38,.26,.06,1.86,.08,2.07,.32-.67,1.31,.44,.73,.73-.2,.03-.61,.09-.55,.49,.06,.41,.76,.93,1.22,1.28,.09,.61-.73,3.64-1.14,3.7,.2,1.43,.23,1.63-1.19,1.83l.32,2.24c-1.11-.47-2.24-1.14-3-2.07,.06,.41,.12,.82-.03,1.25l1.51,1.86c-.26,1.08-1.09,8.47-3.12,8.76,.09,.61-.38,3.17-.99,3.26-.2,.03-.29-.58-.29-.58l-.84-.09-.5,.9,1.63,1.22c.32,2.24-.47,4.02-1.46,5.82,.06,.41,1.69,3.09,1.07,3.17-.61,.09-1.08-.26-1.54-.61,.2,1.43,.08,3.52-.59,4.66l-1.25-1.48,.32-2.13c-.23-.17-.67-.32-.7-.52-.06-.41,1.16-.58,1.37-.61-.17-1.22,.24-2.73,.67-4.04-.03-.2-.32-.79-.55-.96l-1.17,2.04-.99,.35,.4,2.85c-1.28,1.22-2.07,4.45-2.28,5.94,.12,.82-.64,1.34-.53,2.15l-.38,1.72,.2-.03c.12,.82-.64,1.34-.52,2.15,.09,.61,.17,1.22-.64,1.34,.17,1.22,.2,1.43-1.02,1.6l.32,2.24-1.08-.26-.82,3.03,.46,.35-.73,.73-.29,.87,.81,1.34,.03,1.66c-1.22,.17,.03,1.66-2.01,1.95l-.14-1.02-.58,.29c-.15,.44-.64,2.79-.85,2.82s-.26-.38-.26-.38c-1.22,.17-.55-.96-.2-1.43l-1.08-1.72,.61-1.54-1.51-.41c.2,1.43-1.11,2.44-.88,4.07-.99,1.8-1.75,3.78-2.54,5.56-.09,.84-.35,3.38-1.37,3.52,.03,.2,.84,1.54,.84,1.54,.2-.03,.12-.64,.12-.64,.67-2.59,2.62-4.95,2.45-7.63l1.02-.15c.81-.12,2.65-.38,2.79,.64,.26,1.83-.5,3.81-1.32,5.38,.14,1.02,.84,1.54,.99,2.56l-1.48-.21c.17,1.22,.2,2.88-.44,4.22l-1.22-1.28,.35-1.92c-.23-.18-.67-.32-.7-.52-.06-.41,.96-.55,1.16-.58l.73-3.64-.32-.79-.96-.9-.87,1.16v4.37c-1.08,1.19-1.93,4.01-2.14,5.5,.2,1.43-.44,2.77-.64,4.25-.9,.96-1.57,2.1-2.24,3.23l-.85,4.28c-.2,.03-.82,.12-.76,.52,.03,.2,.7,.52,.93,.7l-2.07,1.54-1.43,.2c-.23-1.63,.47-2.56-.35-5.36-.64,1.34-1.52,2.5-1.28,4.13-.9,.96-1.6,1.89-2.27,3.02-2.65,.38,.14,2.47-1.49,2.7l-.82,.12c.17,1.22-.61,1.54-.47,2.56l-1.25,1.43-1.05-1.52c-.41,.06-.64-.12-.7-.52-.23-1.63,.99-3.26,.73-5.09,0,0-.06-.41-.26-.38-.2,.03-.44,1.31-.61,1.54s-.35,.46-.32,.67c.09,.61,.38,1.19-.44,1.31l-.76,.52-2.01,.49-.38,1.72c-.58,.29-1.11,.99-1.46,1.45-.41,.06-.99,.35-.9,.96l.32,.79-1.83,.26c-.09-.61,.99-3.26-.03-3.11-.41,.06-.76,.52-.93,.75l-.06,2.5-.82,1.57c.17,1.22-.12,2.1-.82,3.03l.23,1.63c-.52,.7-.61,1.54-.5,2.36-.64-.12-1.4,.41-1.28,1.22l-.96,2.01-1.72-.38c.44-1.31-.08-3.52,.62-4.45-.09-.61,.06-1.05,.67-1.13,.61-.09,3.29-.26,1.31-1.02l.53-2.15-.82,.12,.67-1.13-.29-2.04,1.28-1.22-.26-1.83c.32-.67,.64-1.34,1.19-1.83l.38-1.72c-1.43,.2-.78-4.05-.64-4.48,.82-.12,.26-2.53,.21-2.94,.58-.29,.67-1.13,.58-1.74-.12-.82-.96-.9-1.07-1.72-1.84,.26,.11,3.73-1.52,3.96,.17,1.22-.67,2.59-1.6,3.35l.38,2.65c-3.61,2.38-2.57,3.9-3.62,8.2-1.43,.2-2.04,1.74-3.47,1.95l.32,2.24-.61,.09c-.82,.12-.87-.29-.99-1.11l.38-1.72c-.03-.2-.61-1.37-.81-1.34l.09,.61c-.73,.73-2.36,2.41-2.22,3.43-.55,.49-.61,1.54-.5,2.36l-1.31,1.02c.09,.61,.03,1.66-.53,2.15l.23,1.63-.73,.73c.17,1.22-.67,2.59-1.58,3.55-.64,1.34-1.58,3.55-2.65,4.74,.09,.61,.2,1.43-.35,1.92,.17,1.22-.44,2.76-1.14,3.7,.06,.41-.09,.84-.49,.9l-.64-.12,.32-2.13c.35-.46,.44-1.31,.35-1.92l.56-1.95c-.12-.82-.75-2.39,.47-2.56-.52-3.67,1.35-11,3.39-14.2-.2-1.43,.26-2.53,.06-3.96,.61-.09,.73-.73,.64-1.34-.26-1.83,.64-1.34,.47-2.56l.73-2.18c.58-.29,.7-.93,.61-1.54l-.35-.99,.94-6.58,.73-.73,.47-1.11c-.09-.61-.03-1.66,.32-2.12-.29-.58-.55-2.42,.47-2.56-.12-.82,1.34-5.18,1.96-5.27l.41-1.51c-.38-2.65,.85-4.28,.47-6.93l.5-.9c-.2-1.43,1.69-4.19,1.49-5.62,1.34-.81-.23-3.08,1.11-3.9-.09-.61,1.76-9.6,1.93-9.84-.29-.58-.46-1.8,.56-1.95,.61-3,3.03-6.46,2.6-9.51,.18-.23,.76-.52,.7-.93-.03-.2-.64-.12-.64-.12l.35-1.92,.76-.52c.67-1.13,.93-3.67,1.17-4.95-.32-.79-.23-1.63,.79-1.77l.41-1.51c.35-.46,.85-4.28,.76-4.89-.2-1.43,1.22-1.63,1.02-3.05l1.23-3.08c-.06-.41,1.43-6.02,1.43-6.02-.12-.82-.7-1.98,.53-2.15,.61-3,3.35-7.13,2.89-10.39,.17-.23,.73-.73,.7-.93-.06-.41-.47-.35-.67-.32l.35-1.92c.55-.49,1.08-1.19,1.4-1.86l.64-4.25c-.32-.79-.03-1.66,.99-1.8-.12-.82,.5-.9,.38-1.72,.17-.23,.96-4.92,.91-5.32-.2-1.43,1.2-1.83,.99-3.26l.58-1.75c-.15-1.02,1.05-1.4,.9-2.41,.61-.09,.96-.55,1.08-1.19q-.03-.2-.26-.38l.32-.67c.15-.44,.12-.64,.06-1.05,1.28-2.68,2.1-5.7,2.72-8.7-.06-.41,.91-3.87,1.11-3.9-.2-1.43,.47-2.56,.91-3.87l.73-.73c-.03-.21,.15-.44,.12-.64,.12-.64,.06-1.05-.03-1.66,.2-.03,.38-.26,.35-.47-.03-.2,.12-.64,.09-.84l.2-.03c-.03-.2,.15-.44,.32-.67l.35-1.92c.09-.84-.06-1.86-.11-2.27,.41-.06,1.02-.14,.93-.76-.09-.61-.12-.82,.7-.93l.58-1.74,.73-.73,1.05-2.85c-.12-.82,.64-1.34,.53-2.15l.79-1.77,.44-1.31c0-1.45,.21-2.94,.88-4.07,.64-2.79,.88-5.53,.88-6.99,.23,.18,.44,.15,.64,.12l.73-.73c.18-.23,.12-.64-.32-.79,.85-1.37,2.07-4.45,1.84-6.08,.55-.49,.87-1.16,.38-1.72,0-1.46,1.17-2.04,1.66-2.94,.55-.49,.29-.87,.03-1.25l1.37-3.52c.15-.44,.67-1.14,.55-1.95,1.72-2.53,1.61-6.26,3.76-8.64l-.41-1.4,1.75-3.78c-.12-.82,.76-4.89,1.64-6.05-.12-.82,.21-1.48,.93-2.21-.73-.73,0-1.46,.56-1.95l5.66-14.31c.87-1.16,.7-2.38,1.81-3.37-.09-.61,.2-1.49,.56-1.95l.61-1.54c.35-.47,1.14-.78,1.57-.64,.49,.55-1.4,6.23-2.1,7.16l.2-.03c.7,.53,.75,.93,.43,1.6,.03,3.11-1.32,6.84-1.7,10.01,.49,.56,.09,.61-.47,1.11,.06,.41-.09,.84,.32,.79-.12,.64-.96,2.01-.5,2.36l1.05-1.4c.35-.46,.49-.9,.03-1.25,.35-.47,.85-1.37,.96-2.01l1.11-3.9,1.08-1.19c.35-.46,.67-1.13,.21-1.48l.58-1.75c-.61-1.37,1.34-2.27,.73-3.64l2.33-2.62q1.19,1.08,.29,2.04c1.19,1.08-.82,1.57,.14,2.47-.49,.9-1.4,4.77-.91,5.33l-1.08,4.1c.96,.9,1.34,2.1,.26,3.29-.18,1.69-.7,3.84-1.75,5.24l.84,1.54-1.28,1.22,.32,2.24c-.5,.9-.18,1.69-.93,2.21-.15,.44,.2,1.43,.44,1.6,.26,.38,.64,.12,.61-.09-1.19-1.08,.73-2.18,1.28-2.68l-.43-3.06,.2-.03c.15-.44,.26-1.08-.2-1.43,1.08-1.19,1.08-2.65,2.19-3.64-1.63-1.22-.61-1.37,.64-2.79,.9-.96,.3-5.24,1.37-6.43,.38-.26,.82-.12,1.05,.06,1.16,.87,.43,3.06-.3,3.78-.64,2.8-.73,5.09-1.4,7.68,.47,.35,.09,.61-.26,1.08-.35,.46-.09,.84,.35,.99-.52,.7-1.02,1.6-.93,2.21l-.61,1.54c.73,.73,.64,1.57,.09,2.07,1.22-.17,4.19-1.22,5.38-.14,.73,.73,.87,1.75,.29,2.04,.03,.2-.29,.87-.06,1.05l.56-.49,2.36-2.41,.21-1.48c-.49-.56-.09-.61,.26-1.08,.15-.44-.09-.61-.32-.79,1.05-1.4,1.63-3.14,2.68-4.54,.15-1.89,1.11-3.9,2.63-4.94l-.35-.99c-.29-.58,.03-1.25,.58-1.75,.29-.87,.67-1.13,1.16-.58,.93,.7,1.42,1.25,.55,2.42-.52,.7-2.22,3.43-1.23,4.54-.06,1.05-.56,4.86-1.61,6.26,.7,.52,.35,.99-.03,1.25-.73,.73,1.19,2.53,1.45,2.91-.5,.9-3.01,8.12-2.08,8.82l-1.43,1.66c-.44,1.31-.9,2.41-1.14,3.7l.29,.58c1.43-.2,.93-3.67,2.57-3.9,.41-.06,.79-.32,1.37-.61l-1.51-.41,.55-.49c.55-.49,1.02-.14,1.48,.21,.32-.67,.67-1.13,.58-1.75,.35-.47,.21-1.48,.29-2.33-.61,.09-1.28-.23-1.78-.79,.55-.49,.88-1.16,.76-1.98Zm-86.57,211.83c.2-.03,.38-.26,.35-.47l-.84-.09c.03,.2,.29,.58,.49,.55Zm.58-1.75l.2-.03c-.06-.41-.29-.58-.7-.52,.03,.21,.09,.61,.49,.55Zm11.37-19.49c.09,.61,.49,.55,.9,.49l-1.05-1.51,.15,1.02Zm1.72-2.53c.41-.06,.35-.46,.32-.67s-.26-.38-.47-.35c-.2,.03-.17,.23-.38,.26,.03,.2,.32,.79,.52,.76Zm.79-6.14s-.82,.12-.79,.32c.06,.41,1.37,.85,1.8,.99l1.14-2.24-1.69-1.63-.47,2.56Zm.79-4.69c.32,.79,1.02,1.31,1.83,1.19,.26-1.08,.56-4.86,1.29-5.59l-1.6-1.02c-.58,1.74-1.17,3.49-1.52,5.41Zm2.65,27.48l.58-.29-.87-.29c.03,.2,.09,.61,.29,.58Zm.97-38.59l.41-.06c.82-.12,1.02-.14,.9-.96l-.55-.96-.85,1.37,.09,.61Zm2.67,32.05l.41-.06c-.06-.41-.49-.55-.9-.49,.03,.2,.09,.61,.49,.55Zm-.43-36.73c.18-.23,.35-.47,.32-.67l-.03-.2-.29,.87Zm5.16,24.63c-1.22,.17-1.69,1.28-1.52,2.5l.03,.2s-1.02,.15-.99,.35c.03,.2,1.69,.18,1.89,.15l1.08-1.19c-.61,.09-.93-.7-.99-1.11l.5-.9Zm.17-.23c1.02-1.6,1.6-3.35,2.19-5.09-.03-.2-.41-1.4-.61-1.37-.41,.06-.29,.87-.26,1.08,.15,1.02-.35,1.92-1.11,2.44,.14,1.02-.35,1.92-.21,2.94Zm7.55,16.6l.03,1.66c-1.22,.17,0,1.46-1.83,1.72-.23-1.63,1.02-3.06,.79-4.69l1.02,1.31Zm-.13-12.66c.41-.06,.35-.47,.32-.67l-.84-.09c.03,.2,.32,.79,.52,.76Zm.65-4.25l.67,1.78c.06-1.05,.47-2.56,1.69-2.73-.15-1.02,.35-1.92,.21-2.94-1.43,.2-.96,2.01-.82,3.03-.61,.09-1.4,.41-1.75,.87Zm7.91-23.36c.49,.55,.81,1.34,.93,2.16-.2,.03-.61,.09-.55,.49,.06,.41,.52,.76,.78,1.14l1.51,.41,.12-.64-1.13-.67c-.09-.61,.03-1.25,.61-1.54-.2-1.43-.2-2.88-1.02-4.22l-1.25,2.88Zm4.81-10.04l-.09-.61-.2,.03c.03,.21,.06,.41,.29,.58Zm1.84-3.17c-.41,.06-.58,.29-.73,.73l.61-.09c-.03-.2,.15-.44,.12-.64Zm-.49-2.01l.12,.81,.49,.55,1.43-1.66-.12-.82-.64-.12,.14,1.02-1.43,.2Zm1.84-3.17l.23,1.63c.55-.49,.44-1.31,.35-1.92l-.58,.29Zm2.34-5.53l-.82,.12c-.23,1.28-.44,2.76-1.25,2.88,.03,.2,.64,1.57,.84,1.54,.2-.03,.15-.44,.12-.64,.49-.9,1.25-2.88,1.11-3.9Zm2.83-4.97c.26-1.08,.7-2.39,.53-3.61,.29-.87,.53-2.15,1.05-2.85l-1.22,.17c.23,1.63-1.28,2.68-1.05,4.31l-.99,1.8c-.18,.23,.29,.58,.49,.55l1.19-.38Zm1.96-9.63l.09-3.75-1.05-.06c.03,.2-.17,.23-.15,.44l.14,1.02c.12,.82,.46,1.8,.96,2.36Zm-.52-5.12l.96-.55,.47-1.11-.06-.41-.76,.52-.61,1.54Zm2.21,5.3l-1.05,1.4c.12-.64-1.11-.47-1.02,.15l1.69,1.63,.82-.12-.06-1.86-.38-1.19Zm-1.49,7.07c-.15,.44-.12,.64-.06,1.05,.18-.23,.32-.67,.26-1.08l-.2,.03Zm2.58-18.45c.35-.47,.47-1.11,.35-1.92l.73-2.18-1.51-.41c.17,1.22,.67,3.23,.43,4.51Zm.63,7.39l-.79,1.78,.61-.09c.15-.44,.26-1.08,.18-1.69Zm1.64-14.78l1.08-2.65c-.12-.82,.53-5.06,1.08-5.56l1.1,.46c.09-.84,.15-1.89,.67-2.59l-1.05-.06-.9-.5v1.46c-.53,.7-.99,1.8-1.28,2.68,.12,.82,.03,1.66-.5,2.36-.47-.35-1.17,.58-.73,.73l-1.02,1.6-.32,2.13-.41,.06,.2,1.43,1.08,.26c-.23-.18-.06-.41,.18-.23l.29-.87c.23,.17,.52-.7,.52-.7Zm2.9-99.77l.2-.03-.49-2.01,1.63-1.69,.38-1.72-.84-.09-1.95,2.36c-1.25,1.42,.23,3.09-.32,3.58l1.4-.41Zm.26,86.85c.18-.23,.32-.67,.29-.87l-.41,.06,.12,.82Zm1.2-7.65c.03,.2,.44,.15,.64,.12l.29-.87c-.2,.03-.99,.35-.93,.76Zm.46,7.63l.03,1.66,.29,.58c.32-.67,.61-1.54,.53-2.15-.06-.41-.29-.58-.7-.52,.03,.2,.06,.41-.15,.44Zm5.9-21.42c-.09,.84-.58,1.74-.88,2.62l.2,1.43c1.37-.61,2.48-3.05,2.3-4.28,.41-.06,.81-.12,.76-.52-.09-.61-.38-1.19,.44-1.31l1.52-6.87c.61-.09,.99-.35,.93-.76-.12-.81-.14-1.02,.67-1.13l.73-2.18c-.09-.61-.11-2.27,.06-3.96,.03,.2-.15,.44-.32,.67l-.93,.75-.47-.35c-.12,.64-.26,1.08-.23,1.28-.64,1.34-1.72,2.53-1.49,4.16l-.55,1.95c-.55,.49-.44,1.31-.35,1.92,.26,1.83-1.93,4.01-1.67,5.85l-.73,.73Zm.65-5.7l.12,.82,.12-.64-.23-.17Zm.24-5.65l.03,.2c.09,.61,.35,.99,.96,.9l-.99-1.11Zm5.57-9.1l.58-.29-.41,.06c.03,.2-.17,.23-.17,.23Zm.55,2.42l-.52,.7c.23,.18,.44,.15,.26,.38,.15-.44,.29-.87,.26-1.08Zm1.52-3.96c-.29,.87-.38,1.72-.88,2.62,.41-.06,.84,.09,1.31,.44l.32-2.13c.17-.23,.52-.7,.5-.9-.06-.41-.85-.09-1.25-.03Zm-.87-3.2c.5-.9,.58-1.75,.88-2.62l-.76,.52c.12,.81,0,1.46-.12,2.09Zm2.33-4.07l.41-.06c.2-.03,.18-.23,.15-.44-.06-.41-.26-.38-.67-.32l-.2,.03c.06,.41,.09,.61,.32,.79Zm.99-3.26l.76-1.98-1.13-.67,.2,1.43c-.41,.06-.79,.32-.73,.73s.35,.99,.76,.93c.2-.03,.15-.44,.15-.44Zm-.46-3.26l.9-.96-.09-.61s-.09-.61-.29-.58l.09,.61-.67,1.13,.06,.41Z"/>
      <path class="cls-2" d="M1084.72,74.08c.61-.09,1.22-.17,1.31,.44,.12,.81-.41,1.51-.09,2.3-.85,1.37-1.81,3.38-1.78,5.03-.76,.52-.85,1.37-.73,2.18l.06,.41-1.51,1.05c-.18,1.69-.35,3.38-.76,4.89-.38,.26-.55,.49-.7,.93-.15,.44-.21,1.48-.59,1.74-.38,1.72-1.17,3.49-1.55,5.21,.61-.09,1.63-.23,1.72,.38,.12,.82-.58,1.75-.26,2.53l-1.58,3.55c-1.02,.15-1.2,3.29-1.05,4.31l.09,.61c-1.43,.2-2.18,2.18-2.01,3.4-1.19,.38-.88,2.62-.73,3.64-.41,.06-.58,.29-.52,.7,.09,.61-.06,1.05-.67,1.13,.06,.41-.32,.67-.73,.73l-1.05-.06c-.14-1.02,0-4.37,1.43-4.57l.76-1.98c-.09-.61,0-1.46,.35-1.92-.29-2.04,1.84-3.17,1.55-5.21l.73-.73-1.05-.06c-.55,.49-1.25,1.43-1.14,2.24,.29,2.04-1.63,3.14-1.34,5.18-1.98,2.15-2.36,6.78-4.46,9.57-.38,.26-.55,.49-.5,.9,.09,.61,.58,1.16,.84,1.54-.18,.23-.35,.46-.76,.52-.41,.06-.64-.12-.55,.5l.06,.41c-.35,.47-.87,1.16-.79,1.77,.06,.41,.87,.29,1.08,.26-.06-.41,.09-2.3,.7-2.39,.41-.06,.47,.35,.49,.55,.44,.15,1.13,.67,1.22,1.28,.09,.61-.5,.9-.85,1.37,.29,.58-.03,1.25-.61,1.54-.12,.64-1.11,.99-1.72,1.08-.41,.06-.64-.12-.7-.52-.09-.61,.2-1.48,.55-1.95-1.02,.15-1.78,.67-1.63,1.69l.03,.2c-1.25,1.42-1.98,3.61-2.57,5.35,.43,1.6-1.28,2.68-1.05,4.31-.81,.12-.67,1.13-.61,1.54,.09,.61,.03,1.66,.84,1.54,.82-.12,1.43-.2,1.57,.82-.55,.49-.64,1.34-.56,1.95l-1.4,1.86-.82,4.48c-.41,.06-.58,.29-.55,.49,.09,.61,.58,1.16-.44,1.31,.06,.41,.14,1.02-.47,1.11-.41,.06-1.08-.26-1.54-.61-.2,.03-.61,.09-.55,.49,.12,.82,2.24,1.14,2.53,3.18,.09,.61-.12,.64-.52,.7l-1.02,.15,.35,2.45c-.52,.7-1.6,1.89-2.21,1.98-.41,.06-.64-.12-.7-.52l-.64-.12-.56,1.95c.29,.58,.2,1.43-.32,2.13,.29,2.04-1.4,.41-1.57,2.09l-.26,2.53,3.03-.64,.03,1.66c-1.84,1.72-2.97,5.41-3.68,7.8,1.22-.17,1.11,.47,.35,.99,.26,1.83-1.23,3.08-.96,4.92-1.81,.46-1.87,2.97-1.66,4.39-.61,.09-1.19,.38-1.11,.99l.29,.58c-.64,1.34-1.05,2.85-.85,4.28l-.87,1.16-.32,2.12c-.61,.09-1.57,.64-1.49,1.25,.29,2.04-1.69,4.19-2.68,5.99l.2,2.88c-.44-.15-1.46,0-1.37,.61l.06,.41c.06,1.86-.79,4.68-1.37,6.43-.67-.32-.73,.73-.67,1.13l.84,.09c.26,.38,.52,.76,.58,1.16,.14,1.02-1.8,.46-1.63,1.69,.06,.41,.32,.79-.29,.87l-.61,1.54c.15,1.02-.67,1.13-.56,1.95l-.58,1.75c.12,.82-.88,2.62-.76,3.44,.26,1.83,1.25,2.94-.79,3.23l-.96,2.01-1.54,.84-.69-4.89c.35-.46,1.05-1.39-.17-1.22l-.41,.06-3.61,.93c-.52,.7-1.22,1.63-2.24,1.77l-1.31,1.02,2.56,.47c-.14-1.02,1.08-1.19,1.72-1.07l1.17-2.04,.41-.06c.41-.06,1.02-.14,1.11,.47,.12,.82-.58,1.75-.47,2.56-1.69,1.28-3.76,2.82-5.79,3.11-.61,.09-1.83,.26-1.95-.56-.2,.03-.82,.12-.87-.29-.03-.2,.55-.49,.73-.73-.03-.2-.09-.61-.49-.55-.61,.09-.96,.55-1.31,1.02l-1.72-.38-1.43,.2-.21,1.48-2.8,.81-.14-2.47c1.6-.43-.73-.73-1.16-.87l-1.4-1.05-1.95-.56c-.58-1.16-1.42-1.25-1.63-2.68l-1.95-.56-1.31,1.02c-3,.84-.44,2.76-2.07,3-.41,.06-.64-.12-.9-.5l-1.08-.26-.23-1.63c-1.37-.85-1.77-5.15-2.15-6.35l-.61,.09c-.35-2.44-1.16-2.33-1.6-3.93,.73-.73,.82-1.57-.61-1.37l-1.92-4.72c.03-1.25,.7-3.84-1.34-3.55-1.22,.17-1.86-1.4-2.01-2.42-.06-.41,.03-1.25,.41-1.51,.2-.03,.82-.12,.76-.52-.17-1.22-2.27-1.34-2.76-3.35l-2.09-10.3c-.06-.41,.06-1.05,.47-1.11l.2-.03c-1.08-.26-5.74-18.52-6.21-21.78-.09-.61-.43-3.06,.59-3.2,3.14,3.09,3.37,9.08,4.18,13.33-.4-2.85-2.34-16.51-2.98-18.08-.79,.32-1.16-.87-1.22-1.28-.95-6.73-2.75-13.54-3.47-20.09-1.78,3.58-3.3,7.54-5.05,11.32l.29,2.04c-.7,.93-1.14,2.24-1.4,3.32,.2,1.43-.67,1.14-1.66,1.48-.67,4.04-2.25,6.14-3.41,9.63,.35,.99-.58,1.75-1.4,1.86l-.76,1.98c-.76,.52-.58,1.74-.5,2.36,.09,.61,.41,1.4-.61,1.54-.82,1.57-5.49,14.08-5.31,15.3l.06,.41c-.84-.09-1.57,.64-1.46,1.45l.06,.41c-1.22,.17-1.84,3.17-1.69,4.19,.26,1.83-1.17,2.04-.99,3.26l-3.15,10.01c.2,1.43-1.14,2.24-.93,3.67l.03,.2-.94,3.67c-.41,.06-.61,.09-.55,.49,.09,.61,.14,1.02-.67,1.13l-1.34,.81-.21,2.94c-.61,.09-1.02,.14-.9,.96l.35,3.9-1.78,.67c-.55,.49-.61,1.54-.5,2.36l-1.49,1.25c.41,1.4-.03,2.71,.17,4.13l-1.95,3.81-1.34,.81-.2-1.43,.5-.9c-.26-1.83,1.11-3.9,1.26-5.79-.82,1.57-1.23,3.08-1.61,4.8,.12,.82-.47,1.11-.35,1.92l.03,.2c-.82,.12-1.37,.61-1.25,1.42l.06,.41c-1.02,.14-1.66,2.94-1.55,3.75,.14,1.02-.12,2.1-.85,2.82l-2.89,8.93c.17,1.22-.96,2.01-.79,3.23l.03,.21-.96,3.46c-.2,.03-.61,.09-.55,.49,.17,1.22-.7,.93-1.66,1.48l-.24,2.74c-.41,.06-.73,.73-.67,1.13l.26,3.29-1.6,.43c-.55,.49-.61,1.54-.53,2.15l-1.28,1.22c.38,1.19-.06,2.5,.11,3.73-.47,1.1-1.11,2.44-1.81,3.37l-1.14,.78-.2-1.42,.52-.7c-.29-2.04,1.37-3.52,1.11-5.35l-.06-.41,.61-1.54c.41-.06,.61-.09,.55-.49-.09-.61-.15-1.02,.67-1.14l.15-1.89-1.37-.85,.09-2.3c-.41,.06-.64-.12-.7-.52-.12-.82,.35-1.92,.67-2.59l-1.57-.82c.23,1.63-.85,2.82-.62,4.45-.35,.47-.44,1.31-.35,1.92l.06,.41c-.61,.09-.99,.35-.9,.96l.06,.41c-.17,.23-1.99,7.97-3.41,8.17-.41,.06-.52-.76-.55-.96,.7-.93-.38-2.65,.56-3.41l.79-1.77c.47,.35,.58-.29,.52-.7l-.96-.9c-.09-.61-.41-1.4-1.05-1.51-.47,1.1-.7,2.39-.73,3.64-.82,.12-2.16,3.84-1.98,5.06-.2,.03-.61,.09-.58,.29,.09,.61,.76,.93-.26,1.08l-.55,1.95-1.28,1.22c.09,.61-.03,1.25-.38,1.72-.06,1.05-.7,2.39-1.43,3.11,.2,1.43-1.17,2.04-.96,3.46l-1.63,3.14c.09,.61-.26,1.08-1.08,1.19l-.41,.06,.43,3.06c-2.24,.32-1.14,5.15-3.18,5.44-.41,.06-.7-.52-.75-.93l2.31-7.19c-.17-1.22,.03-2.71,.7-3.84,.2-.03,.38-.26,.35-.47-.14-1.02-.61-1.37,.79-1.77-.26-1.83,.18-3.14,.56-4.86,.58-.29,.73-.73,1.31-1.02-.09-.61-.03-1.66,.32-2.13l-1.22-1.28c1.4-.41,.03-1.25,1.25-1.42-.23-1.63,1.96-5.27,1.72-6.9l-.03-.2c.41-.06,.82-.12,.79-.32-.03-.2-.67-.32-.87-.29-.03-.2-.09-.61-.49-.55-1.02,.14-1.22,1.63-1.52,2.5-.85-.09-1.14,.79-1.05,1.4l.06,.41-1.46,2.91c.2-.03,1.19-.38,1.25,.03,.06,.41-.5,.9-.41,1.51-2.59,.79-2.53,1.19-3.03,3.55l.23,.18-.03,1.25c-1.43,.2-.03,2.71-1.87,2.97l-1.05-.06c-.58,.29-.67,1.14-.58,1.75l-1.08,1.19c.06,.41,.12,.81-.5,.9-.41,.06-.87-.29-1.11-.47-.09,.84-.32,3.58-1.34,3.72-.26,1.08-2.22,7.8-3.44,7.97-.2,.03-.26-.38-.29-.58l1.11-2.44,.27-3.99c-.35,1.92-1.02,4.51-2.28,5.94,.29,2.04-.06,3.96-2.07,4.45l-1.22-1.28c-.29,.87-3.21,8.15-3.09,8.96l.06,.41c-.61,.09-.99,.35-.9,.96l.06,.41-1.49,1.25c-.06,1.05-.09,2.3-.56,3.4l-.32-.79,.64-1.34-.23-.18c-.61,.09-1.93,4.02-2.25,4.68-.12-.82,.67-1.13,.35-1.92-.23-1.63,.85-4.28,1.46-5.82-.15-1.02-.08-3.52,1.11-3.9l-.29-3.49c-.14-1.02-.52-2.21,.41-2.97,.18-1.69,.5-5.27,1.55-6.66-.06-.41-.58-2.62,.24-2.73l.18-1.69c.41-.06,1.02-.15,.93-.76-.4-2.85,.88-5.53,.47-8.38l-.58-2.62,.38-.26c.82-.12,1.11,.47,.93-.75l1.43-4.57c.38-.26,.29-.87,.23-1.28l-.06-.41c.82-.12,1.31-1.02,1.19-1.83,1.37-3.52,2.48-7.42,3.85-10.94-.2-1.43,.61-3,1.28-4.13-.06-.41-.17-1.22,.44-1.31l.56-1.95-.26-1.83c.41-.06,1.46,0,1.37-.61-.26-1.83-1.95-3.46-.31-5.15l1.08-4.1c1.43-.2-.29-3.49,.94-3.67l.5-.9-.03-.2c.41-2.97,1.46-5.82,2.31-8.64,1.02-.14-.2-1.43,1.22-1.63l1.31-1.02c-.09-.61-.2-1.43,.15-1.89-.43-1.6,1.11-2.44,.88-4.07l1.4-3.32c-.41-1.4,.88-2.62,.67-4.04,1.43-.2-.03-3.11,2.01-3.4l-.03-1.66,1.31-1.02c-.09-.61,0-1.46-.08-2.07l1.02-.14,.35-.47c-.29-2.04-1.98-3.67-.4-5.76l1.23-4.54c1.63-.23-.14-3.93,1.08-4.1l3.24-10.85c.41-.06,.58-.29,.53-.7-.09-.61,.06-1.05,.67-1.14-.09-.61,.5-.9,1.11-.99l.41-.06c-.12-.81-.23-1.63,.09-2.3-.46-1.8,1.26-2.88,1.02-4.51l1.55-3.75c-.44-1.6,1.05-2.85,.82-4.48,1.63-.23-.05-3.32,2.19-3.64l.12-2.1c.41-.06,1.4-.41,1.31-1.02-.09-.61-.41-1.4,.41-1.51,.41-.06,.84,.09,.79-.32-.17-1.22,.64-1.34,.47-2.56,.79-1.77,1.98-3.61,2.13-5.5,.41-.06,.79-.32,.73-.73-.09-.61-.35-.99,.47-1.11l-.29-2.04c4.08-6.4,5.34-13.65,9.04-19.78-.17-1.22,.38-3.17,1.78-3.58l-.81-2.8c1.75-.87,1.66-.03,1.37-2.06,.41-.06,.79-.32,.73-.73-.06-.41-.12-.82,.5-.9l.38-1.72,.93-.76c.26-1.08,.29-2.33,.15-3.35l1.55-3.75c.55-.49,1.08-1.19,1.4-1.86-.12-.81,.7-.93,.59-1.74-.23-1.63,1.98-2.15,1.78-3.58l.41-1.51c-.29-2.04,1.02-4.51,2.01-6.32-.17-1.22,1.98-2.15,2.97-2.5l-.26-1.83c.41-.06,1.25,.03,1.14-.78l-.38-2.65,.73-.73,1.74,.58c.09,.61,0,1.45-.58,1.74l1.25,1.49c.35-.47,.47-1.11,.38-1.72l-.06-.41c.61-.09,1.66-.03,2.12,.32,.82-.12,1.22-.17,1.11-.99l-.09-.61c.46,.35,1.83,1.19,1.66-.03l-.06-.41,2.94-2.7-.49-2.01c.55-.49,.88-1.16,1.2-1.83-.09-.61,.29-.87,.9-.96,.82-.12,1.89,.15,2.77,.44,1.31-1.02,.06-2.5,2.3-2.82l.67-4.04,1.45,1.46c-.18,.23-.96,2.01-.15,1.89l.2-.03c.09,.61,.26,3.29,1.28,3.14,2.04-.29,1.02,1.31,1.83,1.2,.41-.06,.76-.52,.9-.96l1.54-.84c.7-.93,1.92-2.56,3.15-2.73,.41-.06,.7,.52,.76,.93,1.02-.14,1.6-.44,1.77,.79,.64,.12,.96,.9,1.02,1.31l4.71,1c.12,.82,.76,.93,1.57,.82l.2-.03c.09,.61,.23,1.63,.93,2.15,2.04-.29,2.39,.7,3.64,2.19l2.04,1.17c1.69,.18,2.12,6.14,2.26,7.16,.03,.2,.14,1.02-.26,1.08l-1.05-.06,.67,3.23c-.81,.12-.64,1.34-.58,1.74l.14,1.02c.79-.32,2.3-1.37,2.5,.06,.15,1.02,.32,2.24,1.42,2.71l.38,2.65-.61,1.54c.95,6.73,1.59,14.12,2.48,20.44,.12,.81,.73,.73,1.34,.64,1.05,2.97,1.91,6.17,2.38,9.43-2.27,1.57,2.52,11.91,2.9,14.56,.12,.82,.4,4.31,1.63,4.13,.61-.09,1.34-.81,1.72-1.08l-.64-1.57,.7-.93c-.2-1.43,.61-3,1.28-4.13,0-1.46-.43-3.06,1.37-3.52l-.46-3.26,.73-.73,.44-1.31c.58-.29,.7-.93,.61-1.54l.91-2.41c-.46-1.8,1.14-2.24,.88-4.07l-.03-.2,2.86-3.31c-.41-1.4,.12-2.1-.05-3.32l-.09-.61c.55-.49,.64-1.34,.56-1.95l1.69-1.28,1.05-4.31c-.32-.79,0-1.46,.79-1.77-.2-1.43-.23-1.63,1.19-1.83,.06-1.05,.27-3.99,1.69-4.19-.43-1.6,.82-3.03,.59-4.66l-.03-.2c1.25-1.42,1.95-3.81,3.47-4.86,.41-.06,.79-.32,.73-.73-.06-.41-.35-.99-.61-1.37,1.14-.79-.2-2.88,1.63-3.14l.2-.03c-.17-1.22,.47-4.01,1.87-4.42-.46-1.81,1.08-2.65,.85-4.28,.55-.49,.61-1.54,.5-2.36,.47-1.1,1.34-2.27,2.27-3.02l.7-2.39c.41-.06,.58-.29,.52-.7s-.14-1.02,.67-1.13l.82-1.57-.29-.58c.58-.29,.67-1.14,.58-1.75,1.19-1.83,1.37-3.52,2.77-5.38-.12-.82,.18-1.69,.7-2.39,.32-2.13,.56-4.86,2.66-6.2l.73-2.18c-.32-.79,.21-1.48,1.02-1.6l.99-1.8c-.4-2.85,3.12-7.3,3.45-10.88,.41-.06,1.25,.03,1.16-.58l-.35-.99c.82-.12,1.54-.84,1.43-1.66l1.81-3.37c.61-.09,5.71-9.54,6.06-10.01l.38-1.72,1.25-1.42c.18-.23,.23-1.28,.64-1.34,.2-.03,.44,.15,.47,.35l1.08-1.19c-.44-.15-.93-.7-.99-1.11-.06-.41,.32-.67,.73-.73l-.09-.61,1.11,.47c.2-.03,.41-.06,.38-.26-.06-.41-.47-.35-.7-.52,1.25-2.88,4.84-6.92,5.31-9.48,1.43-.2,.99-3.26,2.42-3.46l-.15,1.89-1.25,1.42-1.37,3.52c.12,.82-.47,1.11-.35,1.92l-1.43,1.66c-.59,1.75-.94,3.67-1.75,5.24l1.02-1.6,1.63,1.22-2.54,5.56c.29,3.49-1.64,6.05-2.02,9.22l2.51-2.85,1.05,1.51-.38,1.72-1.25,1.42c.38,1.19-.41,1.51-.26,2.53,.14,1.02-.76,4.89-1.37,4.98l-.61,.09-.09,2.3c-.35,.47-.41,1.51-.32,2.12-.61,.09-1.11,.99-1.22,1.63,.32,.79,0,1.45-.79,1.78,.38,1.19,1.28,1.69,2.21,2.39,.03,.21,.84,1.54,1.05,1.52s.12-.64,.12-.64c-.23-1.63,1.84-1.71,1.69-2.73-.17-1.22-.14-2.47-.32-3.7,.79-.32,1.57-.64,2.39-.75,.41-.06,.82-.12,.87,.29,.09,.61-.47,1.11-.85,1.37l.14,1.02-1.05,1.4,1.25,1.48c.2-.03,.82-.12,.87,.29,.23,1.63-1.2,3.29-1.81,4.83-.61,.09-1.02,.14-.9,.96l.09,.61-1.28,1.22c-.18,1.69-.62,4.45-1.64,6.05-.17,.23-.76,.52-.7,.93,.15,1.02,1.95,.56,2.97,.41l.2-.03,1.86-2.97-.2-2.88c.85-2.82,2.62-4.95,3.7-7.59,.58-.29,.7-.93,.61-1.54l.64-1.34c1.22-.17,1.52-2.5,1.58-3.55,.44-1.31,1.25-2.88,2.16-3.84l.41-.06c.2-.03,1.02-.14,1.08,.26,.09,.61-1.4,1.86-1.95,2.35-.67,2.59-1.31,5.38-3.12,7.3-.58,.29-.47,1.11-.41,1.51-.67,1.14-1.14,2.24-1.58,3.55l.44,1.6-.7,.93,2.59,.67c.47-1.11,1.37-2.06,2.33-2.62-.41-1.4,1.23-4.54,2.65-4.74,.2-.03,.47,.35,.49,.55-.82,.12-.7,.93-.41,1.51,.41-.06,.64,.12,.67,.32,.09,.61-.26,1.08-.41,1.51l-.67,4.05c-1.19,.38-1.78,2.12-2.04,3.2,.12,.81,.2,4.34-.82,4.48-.82,1.57-1.37,4.98-2.42,6.37,.41-.06,.29,.58,.12,.82Zm-191.83,220.11c.2-.03,.38-.26,.35-.47l-.84-.09c.03,.2,.29,.58,.49,.56Zm2.04-7.57c.2-.03,.35-.47,.32-.67l-.23-.17-.55,.49c.03,.2,.26,.38,.47,.35Zm1.25,2.94c-.35,.47-1.08,1.19-1.02,1.6s.47,.35,.67,.32c.9-.96,1.31-2.47,1.14-3.7-.03-.2-.09-.61-.29-.58q-.2,.03-.38,.26l-.12,2.1Zm4.23-12.66c.06,.41,.12,.82-.5,.9,.09,.61,.41,1.4-.41,1.51l-.41,.06c-.38,1.72-1.17,3.49-1.75,5.24,.03,.2,.15,1.02-.03,1.25l.96-.55c.23,.17,.76,.93,1.16,.87,.2-.03,.15-.44,.12-.64-1.51-.41,.35-4.83,.68-5.5-.09-.61,.29-.87,.2-1.48l1.11-2.44c-.03-.21-.32-.79-.52-.76-.41,.06-.09,.85-.06,1.05-.41,.06-.61,.09-.55,.49Zm1.52-2.5c.2-.03-.03-.2-.06-.41l.64-1.34-1.66,.03c.03,.2,.87,1.75,1.08,1.72Zm2.78,15.2l.03,.2,.61-.09,.7,1.98-.58,.29c-.15,.44-.9,2.42-1.31,2.47-.2,.03-.26-.38-.29-.58-.17-1.22,.76-1.98,.32-3.58l.55-.49-1.22-1.28c.44,.15,1.11,.47,1.19,1.08Zm1.34,2.1l.2-.03-.17,.23-.03-.2Zm.7-30.24c.03,.2-.17,.23-.15,.44,0,0,.18-.23,.15-.44Zm.73-2.18l.41-.06c.2-.03,.38-.26,.58-.29l-.47-.35-.52,.7Zm4.71,9.73c.2-.03,.38-.26,.58-.29-.06-.41-.26-.38-.67-.32l-.2,.03c.03,.2,.09,.61,.29,.58Zm.61-1.54c.2-.03,.15-.44,.12-.64l-.64-.12c.03,.2,.12,.82,.52,.76Zm3.4,6.38c.2-.03,.18-.23,.15-.44l-.41,.06,.26,.38Zm12.6-22.57l-.5,.9c-.15,1.89-.88,4.07-1.67,5.85-1.4,.41-.88,2.62-.73,3.64-.52,.7-1.43,1.66-1.28,2.68,.06,.41,.47,.35,.87,.29l.2-.03,.47-1.11c.61-.09,1.6-.44,1.49-1.25l1.4-.41-.2-1.43c.61-.09,.76-.52,.67-1.14l-.06-.41,.58-1.75-.67-1.78c.2-.03,.38-.26,.35-.47-.09-.61-.14-1.02,.67-1.13-.14-1.02,.09-2.3,.61-3l-.67-.32-.61,.09c.06,.41-.52,.7-.93,.76Zm1.06,16.27c.2-.03,.38-.26,.35-.47l-.84-.09c.03,.2,.29,.58,.49,.55Zm.61-1.54l-.06-.41-.64-.12c.03,.2,.29,.58,.7,.52Zm-.61-1.37c.41-.06,1.02-.14,.96-.55-.06-.41-.73-.73-.96-.9v1.46Zm1.58-5.01c.03,.2,.23,.18,.23,.18,.2-.03,.61-.09,.55-.49l-.03-.2c-.2,.03-.79,.32-.76,.52Zm.96-.55c.2-.03,.38-.26,.35-.47,0,0-.26-.38-.47-.35-.2,.03-.15,.44-.12,.64l.03,.2,.2-.03Zm7.25-32.42l-.44,1.31c.87-1.16,1.54-2.3,2.22-3.43-.32-.79-.03-1.66,.5-2.36l-1.34-.64c-.32,.67-1.05,4.31-.94,5.12Zm7.09-21.79c.64,1.57-.79,1.77-.59,3.2l.03,.2c.03,.2-2.27,4.48-2.22,4.89,.09,.61,.55,.96,1.16,.87l.79-.32c-.43-1.6,.76-1.98,.53-3.61l1.25-1.42,.55-1.95,.2-.03c-.2-1.43-.52-2.21,.82-3.03l.35-1.92-.84-.09-2.04,3.2Zm2.14,13.62l-.55,.49c.03,.2,.47,.35,.67,.32,.2-.03,.18-.23,.15-.44l-.26-.38Zm.18-1.69l-.35,.47,.67,.32q.2-.03,.17-.23l-.03-.2-.47-.35Zm11.84-49.9c.26,1.83-3.33,7.33-4.55,8.96l.29,2.04,5.07-6.75c-.44-1.6,.96-2.01,.76-3.43,.38-.26,.73-.73,.64-1.34-.03-.2-.44-.15-.64-.12-.26-.38-.52-.76-.93-.7-.2,.03-.41,.06-.38,.26,.44,.15,.14,1.02-.26,1.08Zm3.6,4.89c.41-.06,.35-.46,.32-.67l-.84-.09c.03,.2,.32,.79,.52,.76Zm3.25-22.5c.67,1.78-.93,2.21-.73,3.64l.03,.2c-.7,.93-1.92,2.56-1.75,3.78l-.79,1.78c.29,.58,.75,.93,1.37,.84l.79-.32c-.46-1.81,.9-2.42,.67-4.05l1.43-1.66c-.12-.82,.64-1.34,.53-2.15,1.22-.17,1.31-2.47,1.17-3.49l.99-1.8-1.51-.41-2.19,3.64Zm-2.11,12.98c.06,.41,.14,1.02,.75,.93l.2-.03-1.02-1.31,.06,.41Zm11.59-94.15c-.82,.12-1.25-.03-1.37-.85l-.17-1.22,1.54,2.07Zm1.61,74.4l.2-.03c.41-.06,.35-.47,.29-.87l-.5,.9Zm18.87,75.9c.82-.12,.67-1.14,.61-1.54-.23-1.63-.84-3-1.07-4.63l-1.54-.61c.35,2.44,1.28,4.6,2,6.78Zm9.13-108.56l-1.22-1.28c.32,.79,.2,1.43,1.22,1.28Zm1.63,24.71c.03,.2,.06,.41,.26,.38,.41-.06,.5-.9,.47-1.11l-1.33-5.01c.23,1.63,.17,4.13,.61,5.73Zm3.34,7.43c.41-.06,.35-.46,.32-.67-.03-.2-.26-.38-.47-.35-.2,.03-.17,.23-.38,.26,.03,.21,.32,.79,.52,.76Zm2.29,7.37l.41-.06c-.06-.41-.49-.55-.9-.5,.03,.2,.09,.61,.49,.55Zm4.55,81.88c-.26-.38-1.25-1.49-1.05-.06,.09,.61,.58,1.16,1.22,1.28,.82-.12,2.21-1.98,2.56-2.44,.58-.29,1.34-.81,1.25-1.42l.41-.06-.44-.15-1.05-.06-.99,1.8c-.82,.12-1.4,.41-1.92,1.1Zm1.46-2.91c.2-.03,.12-.64,.12-.64,.2-.03,.99-.35,.99-.35-.03-.2-1.69-.18-1.89-.15,.03,.2,.58,1.16,.79,1.13Zm-.46-3.26l1.8-.46c-.09-.61,0-1.46,.55-1.95l-2.01,.49c.29,.58,.2,1.43-.35,1.92Zm6.32-.9l-.52,.7,2.65-.38c.2-.03,.61-.09,.58-.29-.06-.41-1.37-.85-1.8-.99,.29,.58-.5,.9-.9,.96Zm.88-4.07c.06,.41,.29,.58,.7,.52l.41-.06-1.22-1.28,.12,.82Zm6.85-8.87c-.61,.09-1.63,.23-1.52,1.05l.09,.61c-.64-.12-1.14,6.61-.97,7.83,.03,.2,.12,.81,.52,.76,.2-.03,.82-1.57,1.14-.78l.06,.41c.2-.03,1.02-.15,.99-.35-.06-.41-.32-.79-.55-.96-.09-.61,.06-1.05,.67-1.13l.2-.03c.15-.44,.67-4.04,.65-4.25l-1.43,.2c-.17-1.22,.53-2.15,.15-3.35Zm1.08-5.56c.41-.06,.35-.47,.32-.67l-.85-.09c.03,.2,.32,.79,.52,.76Zm.69,7.8c.41-.06,.35-.46,.32-.67l-.84-.09c.03,.2,.32,.79,.52,.76Zm-.11-2.27c.06,.41,.29,.58,.7,.52,.2-.03,.15-.44,.12-.64l2.5,.06-.52-5.12,1.14-2.24c.82-.12,1.37-.61,1.25-1.42l-.06-.41c.5-.9,1.2-3.29,1.93-4.01l-.15-1.02c1.83-.26-.03-1.66,1.6-1.89-.15,.44-.09,2.3,.72,2.18l.2-.03c.09-.84-.55-2.42,.41-2.97l-.29-2.04c-.99,.35-1.49,1.25-2.5,1.39l-1.63,3.14c.17,1.22-.5,2.36-.32,3.58-1.63,.23-2.86,6.22-3.15,7.1-1.19,.38-1.43,1.66-1.26,2.88l.09,.61c-.2,.03-.82,.12-.79,.32Zm11.03-27.76c-.14-1.02,.64-1.34,.26-2.53l-1.66,2.94,.23,1.63-2.16,2.38c.41,1.4,1.63-.23,2.1,1.57l1.48,.21c-.29-.58-.23-1.63,.58-1.75-1.45-2.91,1.31-2.47,1.23-3.08-.12-.81-1.37-.84-1.98-.76l-.09-.61Zm-.24-19.3c.2-.03,.35-.47,.32-.67l-1.05-.06c.06,.41,.32,.79,.73,.73Zm1.5,9.14l.09,.61c-.38,.26-1.28,1.22-1.22,1.63,.06,.41,.47,.35,.67,.32,1.02-.15,2.39-.76,2.21-1.98l-.09-.61c.44-1.31,.88-2.62,1.55-3.75,.61-.09,.76-.52,.67-1.13l-.09-.61c.41-.06,.99-.35,.93-.76-.06-.41-.55-.96-.96-.9-.2,.03-.15,.44-.12,.64l.03,.2c-1.22,.17-.26,2.53-1.9,2.76-.29-2.04-2.07,1.54-1.78,3.58Zm3.35,1.6l.41-.06c-.06-.41-.49-.55-.9-.49,.03,.2,.09,.61,.49,.55Zm.61-1.54c.2-.03,.58-.29,.76-.52-.03-.2-.46-.35-.67-.32-.2,.03-.61,.09-.79,.32,.03,.2,.29,.58,.7,.52Zm1.88-13.15c.03,.2,.09,.61,.49,.55l.47-2.56c.73-.73,.99-1.8,1.26-2.88l-.17-1.22c-.06-.41-.17-1.22,.44-1.31,.09-.84,.18-1.69,.06-2.5,0,0-.09-.61-.29-.58l-.38,.26c-.41,2.97-2.31,7.19-1.87,10.24Zm4.27,5.21c.41-.06,.64,.12,.87,.29l-1.28,2.68c-.09-.61-.2-2.88,.41-2.97Zm.42-14.61c.03,.2,.15,1.02,.55,.96,.41-.06,.73-2.18,.88-2.62,.67-1.13,1.72-2.53,1.52-3.96-.03-.2-.32-.79-.52-.76-.61,.09-.64,2.79-.59,3.2l-1.84,3.17Zm6.82-6.16l.44,.15c.2,1.43-1.4,1.86-1.17,3.49-1.6,.43-.67,2.59-2.07,3,.23-1.28,1.17-6.4,2.8-6.63Zm.1-44.71c.2-.03,.35-.46,.32-.67l-.82,.12,.49,.55Zm.79-1.77c-.06-.41-.29-.58-.7-.52l-.2,.03q.29,.58,.9,.5Zm1.65,38.01c.06,.41-.15,.44-.55,.49-.61,.09-1.08-.26-1.16-.87-.06-.41,.32-.67,.73-.73,.23,.17,.93,.7,.99,1.11Zm-.39-43.8c.82-.12,.35-1.92,1.17-2.04l.2-.03-.29-.58-.96-.9c-.82,.12-1.34,.81-1.22,1.63,.06,.41,.7,1.98,1.1,1.92Zm-.43-36.73q-.03-.2-.23-.17,.03,.2,.26,.38l-.03-.21Zm.21,77.72c.09,.61,.58,1.16,1.22,1.28l-1.19,.38-.32-2.24c.82-.12,1.57-.64,2.13-1.13l.2-.03q.2-.03,.23,.18c.06,.41-.79,1.78-1.14,2.24l-1.13-.67Zm-.12-80.01l.2-.03c.41-.06,.35-.47,.32-.67,.2-.03,.61-.09,.58-.29-.03-.2-.26-.38-.47-.35l-.64,1.34Zm5.5-28.63l.2-.03-.06-.41c-.03-.2-.23-.18-.44-.15l-.41,.06c.03,.2,.49,.55,.7,.52Zm.44-1.31l-.03-.2c-.03-.2-.12-.82-.32-.79-.2,.03-.17,.23-.38,.26,.03,.21,.32,.79,.73,.73Zm.01,14.76l-.44,1.31c.87-1.16,1.95-2.35,1.72-3.99l-.64,1.34c-.38,.26-.93,.76-.64,1.34Zm.14-18.1c.17,1.22-.52,.7-.38,1.72l1.11-.99c.41-.06,.55-.49,.5-.9-.03-.2-.14-1.02-.35-.99-.2,.03-.12,.64-.12,.64l-.76,.52Zm.53,46.28c.06,.41,.17,1.22,.03,1.66,.03,.2,.52,.76,.73,.73,.2-.03-.03-1.66,1.2-1.83l.2-.03-.03-.2s-1.02,.14-1.05-.06c-.03-.2,.53-.7,.44-1.31l-.41,.06-1.11,.99Zm.18-32.45c.09,.61,.7,.52,1.11,.47-.32-.79,0-1.46,.82-1.57l.32-.67-.29-2.04c-.32,.67-2.04,3.2-1.95,3.81Zm3.02,68.17l1.08,.26-.44-1.6-1.08-.26,.44,1.6Zm1.76-11.06l.32-.67-.41,.06,.09,.61Zm.97-41.5l.41-.06c-.06-.41-.46-.35-.67-.32l-.41,.06c.06,.41,.46,.35,.67,.32Zm-.19,39.73l.58-.29,.47-1.1c-.03-.2-.35-.99-.55-.96-.41,.06,0,1.46,.03,1.66l-.52,.7Zm2.19-65.17c.09,.61-.44,1.31-.35,1.92-.41,.06-1.25-.03-1.34-.64-.06-.41,.09-.84,.23-1.28,.2-.03,1.43-.2,1.46,0Zm.36,20.11c.41-.06,1.22-.17,1.31,.44,.06,.41-.52,.7-.93,.76-.2,.03-1.02,.14-1.08-.26-.06-.41,.32-.67,.49-.9l.2-.03Zm2.09,33.79l.18-.23-.32-.79-.46-.35c.06,.41,.35,.99,.61,1.37Zm1-10.54l.41-.06c-.06-.41-.29-.58-.7-.52,.03,.2,.09,.61,.29,.58Zm.35-1.92c.03,.2,.46,.35,.7,.52l.64-1.34c-.03-.2-.38-1.19-.78-1.14s0,1.46,.03,1.66c-.2,.03-.61,.09-.58,.29Zm3.91-10.53c.09,.61,.32,.79,.73,.73l-.81-1.34,.09,.61Z"/>
      <path class="cls-2" d="M1218.71,205.37l.2-.03,.41,1.4c1.8,.99,3.46,2.42,5.27,3.41l-.5,.9c2.24,1.14,3.72,1.34,5.82,2.92l1.51,.41,.43,1.6,3.73,1.34c1.6-.43,3.29,1.2,4.27,2.3l-.06,1.05,3.46,.96,.58,1.16c3.99,.26,3.4,2.01,7.51,3.09,.2-.03,1.46,0,1.48,.2,.03,.21-1.72,1.08-1.92,1.11-1.69-.18-3.4-.56-5.04-.33l-.93-.7c-.44-.15-4.02-.47-4.28-.85-1.69-.18-3.7-1.14-4.89-2.22l-3.17-.38c-.67-.32-6.92-3.38-7.33-3.33l-.15,.44,1.07,1.72,.2-.03c-.17,.23-.55,.49-.55,.49-1.16-.87-2.56-1.92-4.07-2.33l.81,1.34,1.54,.61,.99,1.11,2.82,.85c1.22-.17,2.04,1.17,3.06,1.02l.41-.06c2.97,1.86,8.06,2.6,10.62,4.52,.96-.55,1.66-.03,2.01,.96h1.46c2.65,1.08,4.98,1.37,7.3,3.12-1.05-.06-2.15-.52-2.85-1.05l-2.3-.09,.23,.17c.32,.79-.82,.12-1.05-.06-.99,.35-2.04,.29-2.8,.81l-6.46-.12c.03,.2,.55,.96-.06,1.05-.41,.06-.87-.29-1.31-.44-.17,.23-.41,.06-.44-.15-.03-.2-.09-.61,.09-.84-.17,.23-.38,.26-.47-.35l-.73,.73,.12,.82c1.4,1.05,4.01,1.92,5.88,1.87l1.16,.88c.58-.29,1.46,0,1.74,.58,.79-.32,1.83-.26,2.53,.26h1.46s1.34,.64,1.34,.64c1.81-.46,1.19,1.08,4.16,.03l.87,.29c1.17-.58,.52,.76,1.54,.61l1.19-.38,1.6,1.02c.38-.26,1.63-.23,1.72,.38,.06,.41-1.83,.26-2.24,.32l-2.33,1.16-1.89-.15c-.23-.17-5.41-.06-6,.23,0,0-.06-.41-.26-.38-.41,.06-.55,.49-.87-.29-2.85,.4-5.5-.67-8.33-.07-.03-.2-.09-.61-.49-.55-.2,.03-.52,.7-.82,.12-2.42-.9-4.77-1.4-7.16-2.1-.82,.12-1.89-.15-2.59-.67-2.04,.29-3.64-.73-5.41-1.52-1.8,.46-5.03-1.78-6.17-2.45-.58,.29-1.86,.06-2.5-.06-.58,.29-1.43,.2-1.75-.58-2.94-.21-5.06-3.44-8.12-3.01l-.41,.06c.15-.44-.87-.29-1.08-.26-.06-.41-.32-.79-.73-.73s-.82,.12-.9-.5c-1.95-.56-3.32-1.4-4.94-2.63-.38,.26-3.67-2.39-5.15-2.6l-.2,.03-1.4-1.05c-1.22,.17-8.9-5.6-9.92-5.45-1.69-1.63-4.65-3.5-7.01-4-.06-.41-.29-.58-.49-.55-.82,.12-1.22,.17-1.34-.64-2.01-.96-3.66-2.39-5.32-3.82-1.63,.23-2.27-2.8-4.1-2.54-.43-3.06-5.7-2.1-6.08-4.75-1.72-1.84-3.23-3.7-4.74-5.56-.61,.09-1.25-.03-1.34-.64l-.06-.41c-1.8-.99-3.46-2.42-4.71-3.91l-.46-1.8-1.28-.23c-1.8-2.45-2.65-3.99-5.58-5.65-.61,.09-1.08-.26-1.13-.67l.09-.84c-1.43,.2-1.66-2.88-2.88-2.71l-1.45-1.46,.7-.93c-2.36,.96-1.95-2.01-2.15-3.44-1.02,.15-1.54-.61-2.56-.47,.2,1.43-1.08,2.65-.88,4.07,.17,1.22-1.83,1.72-1.69,2.73,.03,.2,.26,.38,.49,.55l-1.78,3.58c-1.11,.99,.4,2.85-.93,3.67l-.61,1.54c.12,.82-.47,1.11-.35,1.92l-.61,1.54c.26,1.83-1.34,2.27-1.11,3.9,.09,.61,0,1.46-.58,1.75,.2,1.43-.47,2.56-.24,4.19l-.73,.73c-.93,2.21-1.63,4.6-2.13,6.96,1.49,.2,.38,2.65-.29,3.78l-.64,2.79c.32,.79-.2,1.48-.56,1.95,.17,1.22-.38,1.72-1.08,2.65l.79,1.14-.81,.12c-.93,2.21-1.23,3.08-.88,5.53-1.13,.79-3.47,9.22-3.45,10.88,1.83-.26-.29,3.78-.62,4.45,.06,.41,.12,.81-.29,.87-.61,.09-1.08-.26-1.54-.61-.67,1.13-1.72,2.53-1.52,3.96-.41,.06-.58,.29-.52,.7,.06,.41,.12,.82-.5,.9l-1.02,.14-.73-.73c1.02-.14,1.25-2.88,1.34-3.72l.41-.06c-.03-.2-1.51-.41-1.72-.38l-1.17,2.04c.2,1.43-.61,3-1.29,4.13-.2,.03-.61,.09-.55,.49,.06,.41,.55,.96-.26,1.08-.35,.46-.87,1.16-1.28,1.22-.41,.06-.46-.35-.49-.55-.2-1.43,.44-2.77,.24-4.19,.41-.06,1.4-.41,1.31-1.02,.61-.09,.73-.73,.64-1.34l-.12-.82c.61-.09,.96-.55,.87-1.16l-.06-.41,.96-2.01-.06-1.86,1.17-2.04-2.12-.32c-.44,1.31-1.08,2.65-1.31,3.93,1.22-.17,.55,.96,.2,1.42l-.38,1.72-1.51,1.05-1.14,3.7c.32,.79-.18,1.69-1.19,1.83l-1.31,1.02c-.03,1.25-.26,2.53,.11,3.73l-1.63,.23c-.32-2.24-1.28,1.22-1.43,1.66-.2,.03-.61,.09-.55,.49,.09,.61,.35,.99-.47,1.1l-.61,1.54-1.6,.44,.56-1.95c-.15-1.02-.29-3.49,1.14-3.7-.17-1.22-.98-4.02,.09-5.21-.35-2.44-.05-6.23,.47-8.38-1.02,.14-.12-.81,.26-1.08,.12-.64,.93-3.67,.88-4.07-.14-1.02-.26-1.83-.58-2.62-.23-.18-.73-.73-1.13-.67-.2,.03-.12,.64-.09,.85,1.83-.26,.32,.79-.5,.9-.41,.06-1.02,.14-1.11-.47-.12-.82,.76-1.98,1.28-2.68-.03-.2-.14-1.02-.55-.96s-.85,1.37-.99,1.8c-.73,.73-1.81,1.92-1.63,3.14l-1.96,6.72c-.41,.06-.79,.32-.73,.73,.06,.41,.12,.82-.5,.9,.17,1.22-.82,4.48-2.45,4.71,.09-.84,.62-5.91-.4-5.76-1.63,.23-1.14,3.7-1,4.71-1.14,.79-.47,2.56-.32,3.58l-.73,.73-.61,1.54c.09,.61-.03,1.25-.38,1.72l-1.78,3.58c.23,1.63-1.28,2.68-1,4.71-1.14,2.24-1.81,4.83-2.07,7.36l-1.34-.64s-.09-.61-.29-.58c-.2,.03-.64,1.34-.61,1.54-1.83,.26-.18,1.69-1.81,1.92-.32-.79-.84-1.54-.96-2.36-.17-1.22,.32-2.13,.09-3.76l.7-.93,.35-1.92c-.09-.61-1.13-3.58,.29-3.78,.61-3,1.03-5.97,1.23-8.91,.32-.67,.41-1.51,.32-2.12-1.77-.79-.38-2.65-.49-3.46l.47-1.11c-.2-1.43-.41-2.85-.4-4.31,.41-.06,.58-.29,.52-.7-.06-.41-.55-.96-1.02-1.31-.17-1.22,1.08-2.65,.91-3.87l1.51-1.05,.58-1.75c-.29-2.04,.06-3.96-.2-5.79l-.84-1.54c-.09-.61,.29-.87,.9-.96l.41-.06,1.16-.58c.03-2.71,.64-2.79,.15-6.26,.38-.26,.32-.67,.47-1.11l.2-.03,.26-1.08-.99-1.11c-.17-1.22,1.05-2.85,.88-4.07l1.51-1.05,.58-1.75c-.32-2.24,.24-4.19-.02-6.03-1.22,.17-1.6-2.47-.17-2.68,3.26-.46,2.27-4.48,1.9-7.13l.7-.93c-.12-.82,.23-1.28,.85-1.37l.2-.03c-.46-1.81,.15-4.8,.73-6.55l.55-.49-1.63,.23c-.76,.52-1.52,1.05-2.24,1.77-.67-.32-3.44,2.15-4.02,2.44-1.08-.26-1.11,.99-1.92,1.1l-.64-.12-.41,1.51c-1.4,.41-2.94,1.25-4.08,2.03-1.48-.21-1.31,1.02-2.33,1.16-.81,.12-2.97,1.04-3.17,1.07l-.93,.75c-1.51-.41-.38,1.72-1.49,1.25-.17,.23-.73,.73-1.14,.79l-.2,.03-1.34,.81-.64,1.34c-1.25-.03-3.61-.53-4.4,1.25-1.25,1.43-2.82,2.06-4.08,3.49-.64-.12-1.46,0-2.13-.32,.5-.9,1.78-2.12,2.24-3.23l1.8-.46-.17-1.22c.93,.7,.55-.49,1.17-.58l.41-.06,.79-1.78c1.46-1.45,3.41-2.35,4.4-4.16-.67-.32-.49-.55,.12-.64,1.14-.78,2.45-1.8,3.32-2.96-.84-.09,.09-.84,.5-.9,1.11,.47,2.56-2.44,3.09-3.14,0,0,.64,.12,.61-.09-.03-.2-.26-.38-.49-.55l1.16-.58,1.34,.64c.15-.44,.06-1.05,0-1.46l-.09-.61,.82-.12c.41-.06,.64,.12,.49,.55l.61-.09-.49-.55,1.57-.64,.44-1.31c.44,.15,.64,.12,.58-.29l-.32-.79c1.08,.26,2.01,.96,2.42-.55l-.29-.58c-.44-.15-.87-.29-1.28-.23-.61,.09-1.98,2.15-2.33,2.62l-1.4,.41c-.17,.23-.15,.44-.55,.49-.2,.03-.47-.35-.49-.55l-1.28,1.22c-.03-.2-.35-.99-.55-.96-.41,.06-.38,.26-.55,.5,.49,.55,1.02,1.31-.29,.87-.15,.44-.5,.9-1.11,.99,.41-.06,.79-.32,.73-.73l-.47-.35-1.02-1.31,.26-1.08,.84,.09c.12-.64,.76-.52,.87-1.16l1.11-.99c.61-1.54,2.13-1.13,2.59-2.24,.99-.35,1.72-1.07,2.45-1.8,.26-1.08-.06-1.86,.21-2.94,1.66-.03,1.81-.46,2.68-1.63l1.8-.46,1.08-1.19c-1.98,.7-3.93,1.6-5.39,3.05l-1.19,.38-.87,1.16-.84-1.54,.73-.73c-.03-.2-.32-.79-.52-.76-.2,.03-.35,.46-.35,.46-.61,.09-5.53,3.49-5.88,3.95-1.46,0-3,.84-4.11,1.83l.03-1.25,.9-.96s.67,.32,.61-.09c-.03-.2-.49-.55-.9-.49l-1.22,1.63-.61,.09c-.64-.12-1.17,.58-1.08,1.19l1.05,.06c-.17,.23-.29,.87-.7,.93l-2.56-.47-.7-.53,1.16-.58c2.1-2.79,5.62-5.79,8.24-7.82l1.6-.44c.9-.96,1.92-2.56,3.32-2.96,3.61-3.84,5.77-6.22,11.1-8.23,.52-.7,1.46-1.45,2.24-1.77,.29-.87,1.46-1.45,2.27-1.57,.47-1.11,1.78-.67,2.18-2.18l2.24-1.77,.23,.17,.85-1.37c1.43-.2,2.33-1.16,3.76-1.36,.7-.93,1.6-1.89,2.62-2.03l.56-1.95c-.06-.41,.12-.64,.52-.7,1.63-.23,.87-1.16,.67-2.59l.7-.93c-.09-.61-.26-1.83,.5-2.36-.12-.82,1.9-7.13,2.07-7.36l.24-2.74,.87-1.16c-.12-.82,.21-1.48,1.02-1.6l.2-.03c.09-.85-.55-6.78,.88-6.99,1.64-6.05,4.53-13.53,3.6-20.05l1.48-1.25,.96-2.01c.41-.06,.56-.49,.5-.9l-.41-1.4c.87,.29,1.43-.2,1.31-1.02l-.84-1.54c.55-.49,.87-1.16,1.19-1.83-.15-1.02,.73-.73,.58-1.75,.52-.7,.38-1.72,.29-2.33l1.31-1.02,.58-1.75,1.43-1.66-.08-2.07,.99-1.8c-.23-1.63,2.19-2.18,1.95-3.81,.9-.96-.05-3.32,1.14-3.69l.61-1.54,1.13,.67,.7-.93,.09-.84-.7,.93c-.41,.06-.61,.09-.67-.32-.15-1.02,.93-2.21,1.25-2.88-.06-.41-.09-.61,.32-.67,.61-.09,1.02-.15,.9-.96l.59-1.75,1.37-.61,2.3,.09q-.2-1.43,1.22-1.63l.67-2.59,1.49-1.25c-.17-1.22,.88-2.62,1.81-3.37-.26-1.83,1.02-1.6,1.66-2.94l4.19,1.69-.43-3.06,2.41,.91c.15,1.02-.67,1.13-.53,2.15l1.77,.79,1.46-1.45c-.23-1.63,.7-2.39,1.81-3.37-.03-.2-.12-.82,.29-.87,.41-.06,.87,.29,1.34,.64,.09,.61,.38,1.19,1.02,1.31-1.22,.17-.24,2.74,.05,3.32l1.43-.2,.7,.52c2.24-.32,3.67,2.39,5.3,2.16,.2-.03,.17-.23,.15-.44l3.55,1.58c-.24,2.74-.85,5.73-.45,8.59,.17,1.22,2.27,1.34,3.32,1.4-.67,1.13-.85,2.82-.88,4.07-.55,.49-.61,1.54-.53,2.15-.61,.09-.73,.73-.64,1.34l.09,.61c-.93,2.21-1.02,4.51-1.32,6.84,1.43-.2,.35,.99,0,1.46l-1.46,4.36c.29,.58-.5,.9-.9,.96l-.53,2.15,1.05,1.52c.29,2.04-2.42,3.46-2.19,5.09,.49,.55,.81,1.34,.9,1.95-.2,.03-.61,.09-.58,.29,.06,.41,.7,.52,.9,.5,.41-.06,.58-.29,.52-.7,2.33-1.16,4.43-2.5,6.49-4.04,.41-.06,.99-.35,.93-.76l-.03-.2c.61-.09,1.4-.41,1.51-1.05,.2-.03,1.22-.17,1.14-.79l1.75-.87c.7-.93,1.92-2.56,3.15-2.73,1.34-.81,2.51-4.31,4.14-4.54,.41-.06,.64,.12,.7,.53,.23,.17,.73,.73,1.13,.67,.41-.06,.32-.67,.29-.87,1.02-.14,1.51-1.05,2.74-1.22,1.46-2.91,4.34-4.57,5.83-7.27l1.83-.26c.18-.23,.29-.87,.5-.9s.32,.79,.32,.79c.17-.23,7.75-5.47,8.56-5.58l2.83-2.06c-.03-.2,.29-.87,.5-.9s.32,.79,.32,.79q1.63-.23,1.4-1.86c1.02-.15,.5-.9,1.51-1.05l1.66,1.43,5.07-3.84c-.09-.61,.7-.93,1.11-.99,.61-.09,2.42-2.01,2.83-2.06l1.43-1.66c2.39-.75,17.36-8.07,19.22-9.59,.32-.67,1.31-1.02,2.13-1.13,0,0,11.07-5.52,12.87-7.44,.61-.09,1.43-.2,1.86-.06,.06,.41-.9,.96-1.31,1.02,.26,1.83-1.72,2.53-3.15,2.73l-.7,.93c-1.02,.14-.5,.9-1.52,1.05l-2.85,1.86c-1.63,.23-3.73,3.02-3.73,3.02l-2.48,1.6c-1.83,.26-1.28,2.68-2.71,2.88-.23-1.63-1.83,1.72-2.01,1.95l-2.97,2.5c.2,1.43-1.81,1.92-1.69,2.73,.03,.2,.26,.38,.49,.55-.18,.23-.5,.9-.9,.96-.41,.06-.49-.55-.52-.76-.41,.06-.58,.29-.52,.7,.06,.41,.32,.79,.55,.96l-.38,1.72-1.02,.14-.5,.9-1.34,.81-.82,.12-.5,.9c-.82,.12-3,.84-2.85,1.86-1.19,.38-6.9,2.64-6.64,4.48,.06,.41,.47,.35,.67,.32,1.83-.26,6-3.14,7.49-4.39,.18-.23,.29-.87,.5-.9,.2-.03,.32,.79,.32,.79,.29,.58,1.13,.67,1.75,.58l1.22-.17v-1.46c.41-.06,1.43-.2,1.34-.81,.87,.29,1.66-.03,1.51-1.05l3.06-.43c-.14-1.02,7.54-3.98,8.56-4.13,.41-.06,.82-.12,.9,.5,.06,.41-.26,1.08-.41,1.51l-2.85,.41-.99,1.8-2.48,1.6c-.18,.23-.35,.46-.55,.49-.82,.12-1.13-.67-.9,.96l-.93,2.21-1.72,1.08c.09,.61-.29,.87-.7,.93-3.26,.46-.35,1.92-2.59,2.24l-.41,.06c-.32,.67-.41,1.51-.32,2.12,1.02-.15,.93,.7,2.15,.53,.82-.12,1.4-.41,1.92-1.11,.2-.03,1.22-.17,1.28,.23,.03,.2-.35,.47-.55,.5,.12,.81,1.34,.64,1.95,.55l1.02-.15c.55-.49,1.28-1.22,1.6-1.89l2.04-.29,2.01-1.95c.82-.12,1.11-.99,1.92-1.1-.29,2.33-.24,2.74-2.8,3.72,.23,1.63-6.58,4.88-6.53,5.29,.2,1.43-1.28,2.68-2.51,2.85l-5.07,5.29c-2.45,.35-5.48,3.89-7.92,4.24,.12,.82-5.39,4.51-6,4.59l-1.2,1.83c-1.83,.26-.84-.09-1.72,1.08-1.02,.14-1.54-.61-2.56-.47l-1.75-.58s-.61,.09-.58,.29c.06,.41,3.06,1.02,3.49,1.17,.09,.61-.23,1.28-.85,1.37-.35,.47-2.92,4.36-3.53,4.45-.2,.03-.26-.38-.29-.58-.49-.55-1.54-.61-2.36-.5-.64,1.34-3,2.3-2.94,2.7,.2,1.43-.9,.96-2.07,1.54l-1.4,1.86c.06,.41-.15,.44-.55,.49-.41,.06-1.89-.15-1.78,.67l-.38,1.72c1.02-.14,.09,.61-.29,.87l-1.42-1.25-.09,.84c.06,.41,.49,.55,.9,.5l.52,2.21,1.14-.79c.61-.09,1.19-.38,1.31-1.02,.61-.09,1.4-.41,1.52-1.05,.58-.29,1.16-.58,1.78-.67,.41-.06,.84,.09,.93,.7l-1.05,1.4c-.41,.06-1.22,.17-1.34,.81-1.02,.15-1.92,1.1-2.62,2.04-1.02,.14-1.92,1.1-2.42,2l-1.92,1.1c-.5,.9-2.88,1.66-3.67,1.97,0,0-.61,.09-.58,.29,.06,.41,.73,.73,1.16,.87-1.51,1.05-3.2,2.33-5.01,2.79,.03,.2,.06,.41-.15,.44-.41,.06-.87-.29-1.11-.47l-1.34,.81c1.92,3.26-2.47,1.6-2.13,4.04-1.14,.79-1.95,2.36-2.19,3.64l-.61,.09c-.61,.09-.67-.32-.75-.93-.23-.17-.67-.32-1.08-.26-.41,.06-.58,.29-.52,.7-.41,.06-2.42,2-3.84,2.21l-.41,1.51c1.22-.17,.96,.9,.17,1.22l-3.29,1.71c1.05,2.97,2.56,6.29,4.56,8.71,.81-.12,1.28,.24,1.4,1.05l.06,.41c2.59,2.13,5.09,5.1,6.57,8.21l1.8,.99c.06,.41,.17,1.22,.81,1.34,.14,1.02,1.1,1.92,2.03,2.62,.09,.61,.38,1.19,1.02,1.31,.64,1.57,2.73,3.15,2.96,4.78,.55,.96,1.48,1.66,2.38,2.16l1.66,2.88c1.02-.14,2.18,2.19,2.5,2.97,1.02-.14,1.54,.61,2.36,.5-.12,.64-.09,2.3,.93,2.15l.29,2.04c.99,1.11,2.41,2.36,3.75,3,.09,.61,.41,1.4,1.05,1.52,.06,.41,.41,1.4,1.02,1.31l-.7,.93c2.33,.29,8.61,6.47,11.02,7.37l.55,.96,2.21,.93,.76,.93,1.37,.85c.32,.79,1.05,1.51,1.74,2.04l.87,.29c1.86,1.4,2.79,3.55,5.21,4.46,.58-.29,1.43-.2,1.89,.15,.09,.61,.41,1.4,1.22,1.28Zm-167.76-30.88c-.61,.09-1.46,0-1.54-.61l-.03-.2,1.57,.82Zm4.24,9.38l-.82,.12,1.57-2.09-.76,1.98Zm1.64-14.78c.03,.2,.47,.35,.49,.55l.58-.29c.18-.23,.32-.67,.29-.87l-.03-.2c-.41,.06-.52,.7-.7,.93,0,0-.67-.32-.64-.12Zm6.51,7.81l.26,.38c.35-.46,1.16-.58,1.66-.03l-.17-1.22-1.14,.79s-.64-.12-.61,.09Zm3.41-2.35c.03,.2,.06,.41,.26,.38,.2-.03,.38-.26,.38-.26l-.67-.32,.03,.2Zm2.38,93c.06,.41,.35,.99,.96,.9l-1.02-1.31,.06,.41Zm5.69-103.5l.76-.52-.99-1.11c-.15,.44-.5,.9-.87,1.16l1.11,.47Zm1.92-2.56c-.2,.03-.58,.29-.55,.49,.03,.2,.26,.38,.26,.38l.35-.46-.06-.41Zm15.01,91.21l-.2-1.43-1.63,.23c.2,1.43,.41,1.4,1.83,1.2Zm.12-2.1c.41-.06,.35-.47,.32-.67s-.26-.38-.47-.35-.17,.23-.38,.26c.03,.2,.32,.79,.52,.76Zm-.38-26.14c.09,.61,.9,.49,1.31,.44-.14-1.02,.61-1.54,.47-2.56l-1.42-1.25c.17,1.22-.53,2.15-.35,3.38Zm1.23-5.99l.46,1.81,.41-.06,.64-4.25c-.26-.38-.7-.52-1.13-.67,.17,1.22-.56,1.95-.38,3.17Zm4.04-19.9c-.09,.84,1.14,.67,1.54,.61-.14-1.02,.61-1.54,.47-2.56l-1.42-1.25-.59,3.2Zm1.43-6.02l.46,1.8,1.31-1.02c-.14-1.02,.61-1.54,.47-2.56-.12-.82-1.05-1.51-1.89-1.6,.17,1.22-.53,2.15-.35,3.38Zm3.6-17.14c.41-.06,.35-.46,.32-.67l-.84-.09c.03,.2,.32,.79,.52,.76Zm.23,4.54c.03,.2,.9,1.95,1.1,1.92l-.06-.41c-.09-.61-.46-1.8,.56-1.95l-.2-1.43-.93-.7c.15,1.02-.61,1.54-.47,2.56Zm.88,53.09c.41-.06,.35-.47,.32-.67l-.84-.09c.03,.2,.32,.79,.52,.76Zm.17,8.5c.06,.41,.29,.58,.7,.52l-.84-1.54,.14,1.02Zm1.41-10.59l-.06-.41-1.02-1.31c.03,.2,.87,1.75,1.08,1.72Zm2.95,14.96l-.82,.12c-1.22,.17-1.49-.21-1.66-1.43,1.02-.14,2.3,.09,2.47,1.31Zm-1.57-5.18c.09,.61,.35,.99,.96,.9l-1.02-1.31,.06,.41Zm1.67-13.13l.84,.09-.23-1.63-.87-.29,.26,1.83Zm.24-4.19c.06,.41,.32,.79,.73,.73,.2-.03,.17-.23,.15-.44l-.67-.32-.2,.03Zm.6-16.3c.23,.17,.64,.12,.84,.09l-.03-.2-.44-.15-.41,.06,.03,.2Zm.97,15.66l.06,.41c.52-.7,1.81-1.92,1.66-2.94-.03-.2-.26-.38-.46-.35l-.2,.03,.03,1.66c-.61,.09-1.19,.38-1.08,1.19Zm1.09-17.2l-.06-.41-1.05-1.52c.03,.21,.9,1.95,1.1,1.92Zm-.81,20.69c.06,.41,.49,.55,.9,.49l-1.02-1.31,.12,.82Zm4.04-24.27l.84,.09-.23-1.63-.87-.29,.26,1.83Zm-.19-13.07c.06,.41,.32,.79,.73,.73-.03-.2-.58-1.16-.79-1.14l.06,.41Zm1.15,9.61c.2-.03,.18-.23,.15-.44-.06-.41-.26-.38-.67-.32l-.2,.03c.06,.41,.32,.79,.73,.73Zm.7-.93l.61-.09c.82-.12,.73-.73,.64-1.34,.35-.47,.87-1.16,.79-1.77-.03-.2-.26-.38-.47-.35l-2.01,.49,.43,3.06Zm.43,3.06c.06,.41,.49,.55,.9,.5l-1.02-1.31,.12,.82Zm.4-22.09c.2-.03,.38-.26,.35-.46s-.26-.38-.46-.35c0,0-.18,.23-.38,.26,.03,.2,.29,.58,.49,.55Zm.5-2.36c.41-.06,.35-.47,.32-.67l-.85-.09c.03,.2,.32,.79,.52,.76Zm1.07,4.63c.03,.21,.67,.32,.87,.29-.15-1.02,.99-.35,1.46,0,1.63-.23,.18-3.14,1.81-3.37l.96-3.46c.55-.49,1.25-1.42-.17-1.22l-.29-2.04,.58-1.75c-.03-.2-.14-1.02-.55-.96s-.29,.87-.26,1.08c-.35,.47-.47,1.1-.38,1.72,.29,2.04-3.7,6.14-3.24,9.4,0,0-.81,.12-.79,.32Zm1.89,4.51c.41-.06,.35-.46,.32-.67l-.84-.09c.03,.2,.32,.79,.52,.76Zm2.61-129.66c.41-.06,.35-.47,.32-.67s-.26-.38-.47-.35-.17,.23-.38,.26c.03,.2,.32,.79,.52,.76Zm2.04,111.13l-1.66,.03c.12,.82,1.28,.24,1.66-.03Zm9.86,10.87c.41-.06,.35-.47,.32-.67l-.84-.09c.03,.2,.32,.79,.52,.76Zm3.93,4.22l-1.05-1.51c-1.02,.14-.23-1.63-1.45-1.46l.84,1.54,1.66,1.43Zm.93,.7c-.2,.03-.82,.12-.76,.52,.06,.41,.73,.73,.96,.9,.41-.06,.82-.12,.9,.5,.09,.61,.12,.82,.93,.7l-2.03-2.62Zm1.95-83.01c.2-.03,.18-.23,.15-.44-.06-.41-.26-.38-.67-.32l-.2,.03c.06,.41,.32,.79,.73,.73Zm.61-1.54c.21-.03,.18-.23,.15-.44-.06-.41-.26-.38-.67-.32l-.2,.03c.06,.41,.32,.79,.73,.73Zm3.58-4.04l-1.22,.17-.76,3.43c.03,.2,.09,.61,.29,.58,.41-.06,3.03-3.55,3.38-4.01-.03-.2-.29-2.04-.7-1.98-.61,.09-.85,1.37-.99,1.8Zm-1.23,68.98c.2-.03,.17-.23,.15-.44-.03-.2-.26-.38-.46-.35l-.2,.03c.03,.2,.12,.82,.52,.76Zm.77-72.24c.03,.2,.23,.17,.44,.15,.82-.12,1.51,.41,1.92,.35,.2-.03,0-1.46-.03-1.66,.52-.7,1.2-1.83,1.08-2.65-.03-.2-.23-.17-.44-.15l-1.22-1.28c-.41,.06-.99,.35-.93,.75l.44,1.6c-.52,.7-1.4,1.86-1.26,2.88Zm2.7,7.31c.03,.2,.67,.32,.87,.29l.61-1.54-.32-.79c-.61,.09-.44,1.31-.38,1.72-.2,.03-.82,.12-.79,.32Zm.85-4.28c-.03-.2-.32-.79-.73-.73l.03,.2q.09,.61,.7,.52Zm2.18-28.58c.09,.61,.35,.99,.96,.9l-1.02-1.31,.06,.41Zm-.03,29.11c.03,.2,.09,.61,.29,.58,.2-.03,.15-.44,.12-.64,.61-.09,.96-.55,.88-1.16-.03-.2-.09-.61-.29-.58-.2,.03-.09,.84-.09,.84-.41,.06-.99,.35-.9,.96Zm8.44,56.59c.03,.2,.12,.82,.52,.76,.41-.06,.73-.73,.9-.96l-1.02-1.31-1.05-.06-.52-.76-1.72-.38c.17-.23,1.19-1.83,.18-1.69-.58-1.17-1.59-5.39-3.63-5.1-.41,.06-.52,.7-.47,1.11l.93,.7c.06,.41-.15,.44-.35,.46-.61,.09-1.22,.17-1.11,.99,.2,1.43,1.07,3.17,2.7,2.94-.09,.84,.41,1.4,1.22,1.28,.09,.61,.93,.7,1.54,.61l.82-.12,1.05,1.51Zm-1.7-19.3c.41-.06,.35-.47,.32-.67s-.26-.38-.46-.35c-.2,.03-.18,.23-.38,.26,.03,.2,.32,.79,.52,.76Zm8.3-8.87c-.41,.06-.49-.55-.52-.76l-1.66,.03-.99,1.8c-.49-.55-1.4-1.05-1.22,.17l-2.13,1.13-1.34,2.27c.12,.82,1.34,.64,1.75,.58-.03-.2-.12-.82,.29-.87,.41-.06,.46,.35,.52,.76,2.45-.35,8.62-5.17,9.87-6.6,.2-.03,1.02-.14,.99-.35-.06-.41-1.98-.76-2.41-.91-1.14,.79-1.72,2.53-3.15,2.73Zm-6.43-33.59c.41-.06,.35-.47,.32-.67l-.84-.09c.03,.2,.32,.79,.52,.76Zm2.29,61.62c.41-.06,.35-.46,.32-.67-.03-.2-.26-.38-.47-.35-.2,.03-.17,.23-.38,.26,.03,.2,.32,.79,.52,.76Zm1.02,1.31c.41-.06,.35-.47,.32-.67l-.84-.09c.03,.2,.32,.79,.52,.76Zm1.42,1.25l.44,.15,.2-.03-.67-.32s-.82,.12-.79,.32l.81-.12Zm.88,20.87c.41-.06,.35-.46,.32-.67l-.84-.09c.03,.2,.32,.79,.52,.76Zm.46-18.77c.41-.06,.35-.47,.32-.67l-.84-.09c.03,.2,.32,.79,.52,.76Zm1.67,20.55l.2-.03c-.06-.41-.26-.38-.67-.32l-.2,.03c.06,.41,.26,.38,.67,.32Zm.75,3.84l1.98,.76c1.25,1.49,5.32,5.27,7.77,4.93,.41-.06,.58-.29,.52-.7l-2.59-.67-.93-2.16c.03,.2-.15,1.89-.56,1.95l-.09-.61c-.09-.61-.41-1.4-1.08-1.72l.7-.93-.76,.52c-.46-.35-3.61-1.98-3.69-2.59-.03-.21,.17-.23,.38-.26-.03-.2-.32-.79-.32-.79-.2,.03-.09,.84-.09,.84-1.22,.17-1.46,0-1.25,1.43Zm.72-21.3l.2-.03c-.06-.41-.49-.55-.9-.5,.06,.41,.29,.58,.7,.53Zm1.66-2.94c-.03-.2,.18-.23,.38-.26-.03-.2-.12-.82,.29-.87,.61-.09,1.63,2.68,1.66,2.88-.47-.35-2.24-1.14-2.33-1.75Zm.5-37.49c.09,.61,.32,.79,.93,.7l-1.05-1.52,.12,.82Zm1.89-2.76c-.35,.46-.7,.93-.64,1.34,.06,.41,.67,.32,.87,.29l3.06-.43,2.83-2.06c-.03-.2-.12-.82,.29-.87,.61-.09,.46,1.8,.87,1.75s.5-.9,.67-1.13l2.62-2.04c-.2,.03-1.28-.23-1.28-.23-.03-.2,.58-.29,.58-.29l-1.45-1.46c-1.02,.15-.9,.96-1.92,1.1-1.43,1.66-4.28,3.52-6.49,4.04Zm-.01,70.26c.09,.61,.49,.55,.9,.49l-1.02-1.31,.12,.82Zm3.43-25.64c-.32,.67-.18,1.69,.84,1.54,.96,.9,5.23,4.66,5.49,6.5,.03,.2,.06,.41-.35,.47l-1.86,.05c-1.02-1.31-1.68-3.09-2.12-4.69-.9-.5-2.3-1.54-2.47-2.77-.76-.93-1.89-1.6-2.09-3.03,1.43-.2,1.45,1.46,2.56,1.92Zm-2.13-47.3c.12,.82,.73,.73,1.54,.61l-.61-1.37-1.13-.67,.2,1.43Zm.99,89.04c.09,.61,.52,.76,.93,.7l.79-.32c.73,.73,1.51,1.86,1.86,2.86l.85-1.37c-.93-.7-1.45-1.46-2.18-2.18l-3.29-1.2,1.05,1.52Zm11.55-114.93c-2.62,.58-1.19,1.83-2.83,2.06-2.13,1.13-4.34,3.11-5.27,5.32l2.74-1.22,1.75-2.33c2.04-.29,1.81-1.92,3.23-2.12-.26-.38-.2-1.43,.38-1.72Zm-5.08,106.32l2.27-.11-1.6-1.02c-.09-.61-.73-.73-1.13-.67l-.99,.35,1.46,1.46Zm3.37-20.23l-1.13-2.13,.81-.12c1.02-.14,.9,.5,1.02,1.31l1.86,1.4c1.22-.17,1.25,1.49,2.47,1.31l.2,1.43-1.69-.18-.99-1.11c-.03-.21-.09-.61-.49-.55-.41,.06-.73,.73-.9,.96-.12-.82,.06-2.5-1.16-2.33Zm2.85-86.88c.41-.06,.35-.47,.32-.67l-.84-.09c.03,.2,.32,.79,.52,.76Zm1.44,14.55c.41-.06,.79-.32,.96-.55-.03-.2-.26-.38-.46-.35-.41,.06-.82,.12-.99,.35,.03,.2,.29,.58,.49,.55Zm-.45-16.36c.03,.2,.12,.81,.52,.76,1.22-.17,1.22-1.63,3.06-1.89-.23-.18-.76-.93-.96-.9-.41,.06-.29,.87-.26,1.08-1.02,.15-1.54,.84-2.36,.96Zm.28,95.79l-.26-1.83,1.28,.23c.7,.52,1.42,1.25,1.54,2.07,.2-.03,.82-.12,.87,.29,.12,.82-.85,1.37-1.46,1.45-.15-1.02-.55-2.42-1.98-2.21Zm.62-93.84l.2-.03c-.06-.41-.26-.38-.67-.32l-.2,.03c.06,.41,.26,.38,.67,.32Zm6.47,17.79c.09,.61-.44,1.31-1.05,1.4-.5,.9-.99,1.8-1.75,2.33l-1.63,.23c-.61,.09-1.22,.17-1.31-.44l-.12-.81,2.24-.32,.82-1.57c.81-.12,1.31-1.02,1.4-1.86l1.4,1.05Zm-5.1-18.4c.41-.06,.35-.47,.32-.67l-.84-.09c.03,.2,.32,.79,.52,.76Zm1.51-1.05c.2-.03,.15-.44,.12-.64l-.64-.12c.03,.2,.12,.81,.52,.76Zm2.78,100.22c-1.02,.15-1.13-.67-1.25-1.49,1.02-.15,2.33,.29,2.47,1.31l-1.22,.17Zm-.53-103.44c.41-.06,.35-.47,.32-.67s-.26-.38-.46-.35c-.2,.03-.18,.23-.38,.26,.03,.2,.32,.79,.52,.76Zm1.23,17.49c.2-.03,.18-.23,.18-.23-.03-.21-.26-.38-.47-.35l-.2,.03c.03,.2,.29,.58,.49,.55Zm1.02-1.6c.41-.06,.35-.47,.32-.67l-.84-.09c.03,.2,.32,.79,.52,.76Zm1.36,88.77l-.9,.96-.96-2.36,1.86,1.4Zm5.47-87.46l-.38,1.72-1.25,1.42c-1.43,.2-2.82,.61-3.99,1.19-.23-1.63,1.95-2.36,3.09-3.14l1.19-1.83c.41-.06,1.25,.03,1.34,.64Zm-5.25-19.42c.03,.2,.06,.41,.26,.38s.12-.64,.12-.64c1.02-.14,1.98-.7,2.47-1.6,.61-.09,1.6-.43,1.72-1.07-.03-.2-.32-.79-.52-.76-.2,.03-.12,.64-.09,.84-.61,.09-3.99,2.64-3.96,2.85Zm1.52-2.5l.29-.87c1.02-.14,1.54-.84,2.56-.99,.17-.23,.15-.44,.12-.64-.09-.61-1.13-.67-1.57-.82l-1.52,2.5,.12,.82Zm2.23,130.02l-.09-.61-.64-.12c.03,.2,.32,.79,.73,.73Zm.42-11.7c-.26-.38-.67-.32-1.08-.26,.23,.17,.67,.32,1.08,.26Zm.5-2.36l-.06-.41c-.03-.2-.06-.41,.15-.44,.61-.09,1.66,1.43,1.92,1.8l-2.01-.96Zm.86,14.85s-.03-.2-.23-.18c-.2,.03-.38,.26-.55,.49l.79-.32Zm.17-133.69c-.06-.41-.32-.79-.73-.73,.09,.61,.12,.82,.73,.73Zm.03,1.66c.2-.03,.15-.44,.12-.64l-.64-.12c.03,.2,.12,.82,.52,.76Zm1.28-2.68c.2-.03,.17-.23,.15-.44-.06-.41-.26-.38-.67-.32l-.2,.03c.06,.41,.32,.79,.73,.73Zm-.26,137.44c2.06,1.37,4.25,2.1,6.63,2.8l1.6-.43-1.72-.38c-.17,.23-.64-.12-.47-.35l-.78-1.14-.2,.03-.06,1.05c-.87-.29-1.8-.99-2.12-1.78l-1.95-.55c-.03-.2-.32-.79-.52-.76l.12,.82-.52,.7Zm1.01-16.36c1.43-.2,2.01,.96,2.76,1.9,2.04,1.17,3.84,2.16,4.97,4.28l-1.6,.43c-.38-1.19-1.16-2.33-1.92-3.26-.76,.52-2.04-1.17-2.33-1.75l-2.09-1.57,.2-.03Zm.36-122.07c.2-.03,.17-.23,.15-.44-.03-.2-.06-.41-.26-.38-.2,.03-.38,.26-.38,.26,.03,.2,.29,.58,.49,.55Zm2.27,139.16l.17-.23c-.23-.17-.06-.41-.29-.58l.12,.82Zm1.48,3.12l-1.13-.67c.32,.79,.12,.82,1.13,.67Zm.32-142.85l.49-.9c.2-.03,1.02-.14,.96-.55s-.67-.32-.87-.29c-.61,.09-.47,1.1-.58,1.74Zm5.24-5.53l-.93,.76c-.41,.06-2.24,.32-2.18,.73,.12,.82,2.01,.96,2.41,.9-.26-1.83,2.88-1.66,2.83-2.06-.06-.41-1.19-1.08-1.63-1.22l-.5,.9Zm-2.9,158.4l.79,1.14,1.4-.41,.79,1.13,1.13,.67,1.02-.15c-.87-.29-2.62-.88-2.79-2.1l-2.36-.5,.03,.2Zm2.38-22.79c.18-.23,.58-.29,.79-.32,.41-.06,.73,.73,.76,.93,1.25,.03,2.79,.64,3.72,1.34l.35,.99-1.25-.03-.75-.93-1.11,.99c-.84-1.54-1.1-1.92-2.5-2.97Zm1.93,16.56l1.6-.43-1.28-.23c-.03-.2-.29-.58-.7-.53-.2,.03-.76,.52-.93,.76l1.31,.44Zm2,9.69c.41-.06,.35-.46,.32-.67l-.03-.2-.79,.32c.03,.2,.29,.58,.49,.55Zm.87-171.2l.2-.03c-.06-.41-.26-.38-.67-.32l-.2,.03c.06,.41,.26,.38,.67,.32Zm.57,150.62l-.38-1.19,1.05,.06,1.42,1.25c.2-.03,.61-.09,.64,.12,.06,.41-.7,.93-.87,1.16-.32-.79-1.05-1.52-1.86-1.4Zm1.37,22.88c.2-.03,.18-.23,.15-.44l-.35-.99-1.11-.47c.49,.55,.99,1.11,1.31,1.89Zm3.99-174.14l.12,.82c-.99,.35-2.18,.73-3.14,1.28-.2-1.43,2.01-1.95,3.03-2.1Zm-1.95,172.39c-.03-.2-.26-.38-.47-.35l-.2,.03c.03,.2,.46,.35,.67,.32Zm-.44,2.77l1.57-.64-1.72-.38,.14,1.02Zm.88-2.62c.47,.35,.73,.73,1.02,1.31l.96-.55-.2,.03-1.77-.79Zm1.33-18.48c-.41,.06-.7-.52-.75-.93,.82-.12,1.86-.06,2.36,.5l-1.6,.43Zm.86,11.93l.2-.03-.03-.2-.18,.23Zm2.05-11.93c.03,.2-.32,.67-.5,.9l-.81-1.34,1.31,.44Zm.7,22.56c-.23-.18-.49-.56-.7-.53-.2,.03-.17,.23-.17,.23,.26,.38,.47,.35,.87,.29Zm2.39,.7l.12-.64-1.16-.88c-.2,.03-.76,.52-.73,.73l.79-.32,.99,1.11Zm.64-2.79c.23,.17,.26,.38,.67,.32l-.67-.32Zm3.84,2.16l.2-.03,.26,.38,.64,.12-.76-.93c-.2,.03-.18,.23-.35,.47Zm8.87,2.48l1.8,.99c-1.25-.03-2.71-.03-3.99-.27l-.75-.93,2.94,.21Zm1.05-2.85q.03,.21,.23,.18c.2-.03,.38-.26,.35-.47l-.58,.29Z"/>
    </g>
  </g>
</svg>