<?xml version="1.0" encoding="UTF-8"?>
<svg id="Layer_2" data-name="Layer 2" xmlns="http://www.w3.org/2000/svg" viewBox="0 0 1145.21 368.03">
  <defs>
    <style>
      .cls-1 {
        fill: #b6382c;
      }

      .cls-2 {
        fill: none;
      }

      .cls-3 {
        fill: #f2f2f2;
      }
    </style>
  </defs>
  <g id="Layer_1-2" data-name="Layer 1">
    <g>
      <path class="cls-3" d="M355.67,.02h-39.43l-73.6,160.36c6.35,12.78,9.55,26.74,9.55,41.86,0,30.76-13.84,58.35-38.98,77.71-3.27,2.51-6.71,4.85-10.27,7.03h64.92l1.06-2.44,17.98-41.46,97.76-.63,19.22,44.53h83.67L355.67,.02Zm-44.33,186.71l24.7-56.95,24.58,56.95h-49.28Z"/>
      <polygon class="cls-3" points="715.35 71.27 635.65 71.27 635.62 71.21 577.74 71.21 577.74 286.98 501.37 286.98 501.37 71.21 416.49 71.21 382.29 0 681.32 0 715.35 71.27"/>
      <path class="cls-3" d="M818.23,214.56l22.21,34.13c-2.57,10.79-4.4,22.26-4.63,34.44v.06c-.01,.81-.02,1.62-.02,2.43,0,.46,0,.91,.01,1.36h-57.63l-48.17-72.39-48.03,72.39h-87.88l90.79-139.56-34.4-58.97h70L773.89,0h87.24l-86.52,147.55,43.62,67.01Z"/>
      <path class="cls-3" d="M818.32,214.28c-.03,.09-.06,.19-.09,.28l-43.62-67.01,43.71,66.73Z"/>
    </g>
    <line class="cls-2" x1="594.09" y1="286.98" x2="591.88" y2="290.38"/>
    <path class="cls-3" d="M110.07,86.14c0,12.99,20.29,17.2,51.27,30.01,44.86,18.59,74.6,45.61,74.6,87.37,0,53.87-50.92,87.38-108.42,87.38-1.21,0-2.41-.02-46.46-.06l.04,.06H0l34.41-68.69,.08,.12c89.9,.09,91.37,.14,92.85,.14,16.2,0,32.04-5.79,32.04-17.37,0-14.56-29.37-27.37-57.5-39.65-36.32-15.44-67.47-38.95-67.47-81.59C34.41,34.91,81.58,0,136.06,0c1.63,0,37.65,.03,152.29,.09l-34.4,68.69c-114.41-.11-115.75-.18-117-.18-15.67,0-26.88,7.89-26.88,17.54Z"/>
    <g>
      <path class="cls-1" d="M894.14,210.46c-1.25,.93-1.56,.3-1.88,1.86-3.65,13.68-8.64,25.16-12.85,38.67-2.92,9.32-5.48,19.63-6.97,32.32-.07,.56-.13,1.12-.19,1.68h0c-1.25,4.04-2.12,8.46-1.01,13.56-.1,2.17-.16,4.41-.19,6.72,1.88,2.19,4.68,5.94,3.75,8.73-.63,1.88-1.87,2.5-3.75,2.5-.13,0-.27-.01-.41-.01-.25,5.78,.21,11.59,1.58,17.2,.33,1.37-.05,3.32-1.36,3.32-.26,0-.56-.08-.9-.26-1.79-.93-.69-5.11-.33-11.67,.21-3.81,.04-6.09-.18-8.72-.96-.17-2-.45-3.07-.84,.17,7.73,.66,15.47,1.47,23.16,.21,2.03,0,4.72-1.98,5.18-.16,.03-.31,.05-.46,.05-1.17,0-2.26-1-2.66-2.15-.44-1.28-.23-2.71-.04-4.07,1.01-7.1,1.86-15.89,2.02-22.83-2.78-1.25-5.71-3.1-8.23-5.23,0,.08,.01,.14,.01,.22,.33,3.71,.65,7.43,.97,11.15,.06,.74,.12,1.51-.17,2.18-.25,.56-.83,1.03-1.41,1.03-.12,0-.24-.03-.36-.07-.61-.21-.91-.89-1.06-1.52-.83-3.53,1-7.23,.46-10.83-.62-4.16-4.18-7.18-6.14-10.91-.22-.4-.41-.86-.58-1.32-1.62-3.35-2.32-7.15-2.42-12.58-.01-.44-.01-.9-.01-1.36,0-.76,.01-1.53,.02-2.31,.14-7.85,1.01-15.41,2.35-22.75,2.58-14.16,6.91-27.48,11.12-40.32,.29-.87,.57-1.75,.86-2.62,8.73-26.51,8.42-27.76,11.23-29,.62-.32,1.24-.32,2.18-.32,4.05,0,10.29,3.12,15.28,8.11,5.31,5.32,7.8,12.18,5.31,14.05Z"/>
      <path class="cls-1" d="M906.3,173.64c-.31,2.5-.62,4.07-4.05,4.07-4.37,0-8.74-4.07-11.86-7.19-9.67-10.28-7.17-15.59-4.36-24.95,3.43-10.92,1.24-10.29,3.74-14.02,.93-1.56,2.49-2.5,4.05-2.5,6.55,0,16.53,11.22,18.41,18.08,1.56,5.93-5.31,17.78-5.93,26.51Z"/>
      <path class="cls-1" d="M1141.02,192.86c-.77,.78-1.3,1.98-1.28,3.53l1.66,10.96c.1,.7,.14,1.43,.07,2.14-.12,1.02-.47,1.99-1.48,2.49-.35,.17-.73,.26-1.11,.26-1.02,0-2.03-.62-2.56-1.57-1.47-2.64-.17-5.3,.41-7.93,.46-2.11,.23-4.74-1.61-5.83-.54-.38-1.07-.56-1.55-.56-1.01,0-1.79,.86-1.96,2.67l1.43,38.06c.03,1.78-1.42,2.85-2.85,2.85-.98,0-1.96-.51-2.45-1.62l-.02-.07c-.64-1.49-.84-3.13-.58-4.73,1-6.11,1.02-12.21,1.82-18.32,.31-2.32,.52-5.04-2.02-6.31-.6-.3-1.25-.45-1.9-.45-.92,0-1.83,.28-2.63,.78-7.34,4.57-7.13,14.17-6.36,22.3,1.21,12.9,2.42,25.8,3.64,38.71,.18,2-1.4,3.24-2.99,3.24-1.03,0-2.06-.53-2.62-1.7l-.03-.07c-.73-1.52-1.07-3.18-1.01-4.85,.36-10.03,.72-20.04,1.08-30.06,.41-11.55,.4-24.29-5.75-33.69-20.67,15.02-42.43,36.4-54.23,50.09-4.68,5.31-3.12,3.12-5.92,11.85,0,.63-.32,.33,7.48,1.88,27.45,5.31,66.13,16.21,67.37,16.53,8.43,3.74,16.85,18.41,13.73,23.4-.62,.93-1.25,1.25-2.81,1.25-5.61,0-20.58-6.24-61.45-14.67-12.16-2.81-25.88-4.99-29.94-4.99-.62,0-1.25,.31-1.25,.31,0,0-18.09,53.35-16.84,57.7,.62,1.87,.31,2.5-.94,4.06-.93,1.56-2.49,2.18-4.67,2.18-7.18,0-19.03-9.36-20.59-16.21-1.3-5.41,6.25-28.81,11.21-43.79-1.75,.87-3.43,1.36-4.97,1.36-7.49,0-16.84-8.42-19.96-14.66-6.8-12.35-.75-58.34-1.54-58.34,0,0-.01,0-.02,.01-.66,.93-4.82,7.31-10.85,16.36h.02l-.06,.07c-1.3,1.94-2.68,4.01-4.14,6.17-1.4,4.23-1.11,9.46-.77,14.45,.68,10.08,1.36,20.17,2.05,30.26,.18,2.72,.31,5.54,.08,8.16-.18,1.89-1.41,2.72-2.87,2.72-2.19,0-4.89-1.88-5.19-4.89-.05-.57-.08-1.12-.1-1.68-.08-4.08,.91-7.81,1.64-11.61,1.89-9.74,2.17-20.24,.83-30.98-17.15,25.28-40.93,58.73-50.82,64.55-2.18,1.25-4.68,1.87-6.86,1.87-.97,0-1.95-.1-2.92-.26-.42,3.36-.2,7.05,.04,10.64,.68,10.1,1.36,20.18,2.04,30.27,.19,2.71,.32,5.54,.08,8.15-.17,1.89-1.4,2.73-2.86,2.73-2.19,0-4.89-1.9-5.19-4.91-.05-.56-.09-1.11-.1-1.65-.08-4.11,.9-7.83,1.64-11.61,2.11-10.88,2.2-22.72,.29-34.8-7.33-2.88-14.04-9.47-16.42-14.46-.58-1.1-1.01-2.13-1.3-3.11-1.1-3.59-.48-6.57,.79-10.41,.26-.76,.53-1.56,.83-2.4,.18-.43,.35-.88,.51-1.37,1.34-3.95,2.34-9.89,4.59-19.2,2.32-9.56,5.97-22.68,12.67-40.87,.94-2.81,11.23-29.63,14.98-31.82,.62-.31,1.56-.62,2.8-.62,7.18,0,19.65,9.98,20.9,18.09,.31,2.82-.31,4.05-2.18,4.99-4.68,2.18-20.28,49.28-19.96,50.23h.01c1.12,0,59.89-88.31,62.99-92.34,4.37-5.61,6.55-9.67,11.23-9.67,3.74,.31,8.73,2.81,13.1,7.18,15.6,14.03,5.93,29.63,2.18,76.73-.46,6.75-.58,8.11-.35,8.11,.08,0,.2-.15,.35-.32,.93-.92,11.03-15.3,25.76-35.87,3.98-12.83,9.87-32.2,19.16-62.07,14.03-45.53,14.03-45.22,16.22-46.16,.62-.31,1.56-.62,2.49-.62,7.17,0,19.96,9.98,20.59,17.15,.31,1.25,0,1.87-.63,3.75-1.87,4.05-20.58,64.56-20.27,64.56,.01,.02,.03,.05,.07,.05,1.81,0,35.82-32.8,53.89-32.8,1.25,0,2.5,.31,3.43,.62,12.06,3.62,20.92,22.11,16.7,25.87-.73,1.69-1.8,3.23-3.12,4.58Z"/>
    </g>
  </g>
</svg>