<?xml version="1.0" encoding="UTF-8"?>
<svg id="Layer_2" data-name="Layer 2" xmlns="http://www.w3.org/2000/svg" viewBox="0 0 118.21 67.28">
  <defs>
    <style>
      .cls-1 {
        fill: #fff;
      }
    </style>
  </defs>
  <g id="Layer_1-2" data-name="Layer 1">
    <g>
      <path d="M118.21,9.05h0c0-.05,0-.1,0-.16,0-.26-.07-.52-.17-.76,0-.02-.01-.04-.02-.07-.03-.11-.07-.2-.12-.31-.07-.14-.16-.24-.25-.32-.15-.15-.31-.27-.45-.37-.56-.4-1.14-.72-1.79-1.07-1.12-.6-2.31-1.18-3.66-1.78-2.25-1-4.39-1.88-6.5-2.67,0-.05,0-.09-.01-.14-.03-.19-.08-.38-.15-.55h.18s-.27-.18-.27-.18c0,0,0,0,0,0-.17-.3-.44-.52-.73-.6-.11-.03-.23-.05-.35-.05-.17,0-.36,.03-.55,.1-.22,.08-.43,.19-.66,.36-.39,.28-.73,.64-.97,1.04-.1,.16-.18,.33-.26,.51-.3,.63-.46,1.34-.45,2.07,0,.09,0,.17,0,.25-.64-1.02-1.28-2.04-1.92-3.07l-.24-.38-.29,.18-2.43,1.52-.14-.22h0s0,0,0,0l-.07,.19-.1,.23-.32,.2,.14,.23-.84,1.97,.1,.18c.12,.21,.24,.42,.37,.63l-.65,.46-.34,.24c-.05-.08-.11-.17-.18-.25-.07-.08-.15-.15-.23-.21-.04-.03-.1-.07-.19-.1-.04-.01-.09-.03-.15-.03h-.02s-.03,0-.03,0c-.04,0-.18,0-.29,.1,0,0-.02,.01-.02,.02-.03-.05-.06-.1-.09-.14v-.02s-.02-.01-.02-.01c-.04-.04-.14-.15-.33-.17h-.05s-.05,0-.05,0c-.07,.01-.12,.04-.16,.06l-.07,.04-.11,.06c-.16,.09-.31,.18-.44,.27-.13,.09-.27,.19-.41,.3l-.1,.08s-.02,.01-.05,.04h-.01s-.01,.03-.01,.03c-.06,.07-.09,.16-.1,.25,0,.09,.01,.16,.03,.21v.02c.03,.07,.07,.13,.11,.19h0s-.04,.04-.04,.04c-.02,.02-.04,.03-.05,.05h-.01c-.07,.09-.11,.19-.12,.3-.02,.18,.04,.31,.07,.39l.02,.04c.07,.14,.16,.28,.28,.41l-.13,.09c-.39,.26-.78,.53-1.17,.79-.7,.48-1.43,.97-2.15,1.45l-3.34,2.22c-1.94,1.29-3.99,2.69-6.62,4.53l-1.65,1.14-1.11,.78c-.29-.17-.62-.3-.97-.37-.24-.05-.5-.08-.75-.08-.83,0-1.71,.27-2.45,.77-.15,.1-.29,.19-.44,.29-.27,.18-.54,.35-.81,.52l-.51,.32-.76-1.21s-.02-.04-.03-.06v-.02s-.08-.12-.16-.2c-.29-.25-.67-.39-1.09-.39-.08,0-.16,0-.23,.01-.25,.03-.51,.11-.78,.23l-.15-.25c.15-.09,.29-.17,.42-.26,.27-.16,.54-.33,.81-.5,.13-.08,.26-.16,.39-.24l.02,.04,.05-.08,.36-.23-.11-.18,.14-.23c.14-.23,.27-.47,.37-.72,.13-.29,.22-.54,.28-.78v-.02s.24-.43,.24-.43h-.49s0,.01,0,.01c-.31-.08-.61-.09-.84-.1-.04,0-.08,0-.13,0-.08,0-.19,0-.3,.02-.09,.01-.17,.03-.26,.04-.05,0-.09,.02-.14,.02l-.27,.04-.12-.18-.45,.3c-.36,.24-.73,.48-1.1,.71-.39,.24-.81,.48-1.24,.72l-.33,.19c-.31,.17-.62,.35-.93,.53-.37,.22-.77,.47-1.23,.77l-.38,.25,.13,.21-.11,.15s-.06,.07-.08,.11c-.05,.07-.1,.14-.15,.2-.09,.13-.15,.26-.21,.38-.1,.21-.22,.48-.3,.79h0s-.24,.44-.24,.44h0s.49,0,.49,0h.02c.24,.06,.5,.09,.82,.11,.12,0,.25,.01,.37,.01,.15,0,.3,0,.44-.02l.4-.03v.02s.06-.03,.06-.03l.39-.03-.09-.13c.35-.18,.73-.39,1.21-.66,.17-.09,.34-.19,.51-.29l.16,.26c-.25,.17-.48,.36-.67,.61-.02,.03-.03,.05-.05,.08-.3,.33-.54,.7-.69,1.11-.12,.31-.17,.64-.16,.95-.05,.47,.02,.98,.34,1.5l.05,.08c-.34,.2-.68,.39-1.02,.59-.32,.19-.64,.38-.96,.57-.17,.1-.35,.21-.52,.31l-.3,.19c-.38,.23-.78,.48-1.16,.72l-1.37,.86c-.15-.1-.31-.2-.48-.3h-.01s-.08-.04-.08-.04h-.07c-.44-.04-.88-.08-1.31-.11-.22-.02-.44-.04-.65-.06-.48-.04-.96-.09-1.43-.14l-.53-.05-1.97-.2-2.97-.28,.1,.16-3.03,1.87-2.78,1.74c-.68,.43-1.37,.85-2.05,1.28-1.15,.72-2.34,1.47-3.51,2.19l-2.79,1.72-2.8,1.7c-1.16,.71-2.36,1.43-3.51,2.12-.7,.42-1.41,.84-2.11,1.27l-.39,.23,.05,.09c-.08,.12-.14,.25-.18,.41-.07,.25-.07,.49-.07,.67,.01,.44,.09,.86,.17,1.17,.18,.78,.46,1.52,.7,2.15,.13,.33,.27,.65,.41,.97l-.49,.31-2.16,1.34c-.79,.48-1.51,.91-2.18,1.31l-2.36,1.39h0c-.21,.17-.56,.48-.78,.98-.32,.72-.75,1.13-1.94,1.2-.13-.01-.26-.03-.38-.04l-.38-.04-1.78,1.11-.03-.06-.26,.24-.55,.34,.07,.11c-.65,.6-1.38,1.28-2.11,1.97-.75,.71-1.49,1.44-2.21,2.14,0,0-.6,.59-.82,.8-.55,.54-1.13,1.11-1.7,1.65-.66,.64-1.35,1.27-2.01,1.89l-.36,.33-2.17,1.28-1.11,.65-.71,.42h0c-.05,.04-.11,.07-.2,.15-.23,.23-.28,.59-.13,.86,.12,.25,.39,.42,.68,.42,.03,0,.07,0,.1,0,.11-.01,.22-.06,.34-.13l.69-.41,3.25-1.96c.9-.32,2.01-.71,3.06-1.09,1.05-.38,2.11-.77,3.1-1.14,1.16-.43,2.17-.81,3.1-1.16,.9-.34,1.84-.71,2.81-1.09l.02,.04,.26-.15,.38-.15-.03-.05c.99-.57,2.07-1.19,3.37-1.96,.79-.46,1.6-.94,2.37-1.4,.43-.26,.86-.52,1.3-.77,1.24-.74,2.47-1.48,3.65-2.21,.64-.39,1.28-.78,1.91-1.18,.21,.25,.42,.5,.64,.73,.6,.65,1.13,1.15,1.66,1.56,.28,.21,.61,.46,.99,.64,.17,.08,.38,.17,.6,.22,.09,.02,.17,.03,.26,.03l.11,.17,6.07-3.69c1.43-.86,2.88-1.75,4.28-2.61l4.13-2.53,2.79-1.73c1.35-.83,2.71-1.68,4.03-2.51,.51-.32,1.56-.97,1.56-.97l.28-.19-.03-.05s.03-.04,.05-.06l.02,.03,.05-.11c.16-.22,.28-.48,.36-.79,.14-.3,.27-.59,.4-.89,.09-.21,.19-.41,.28-.63l.79-1.81c.17-.4,.34-.79,.51-1.19,.09-.21,.18-.42,.27-.63l.81-1.92v-.11c0-.18-.03-.36-.05-.56,.37-.22,.77-.46,1.17-.68l1.55-.88c.59-.35,1.07-.64,1.52-.93,.32-.2,.65-.41,1.05-.67l.35,.58c.6,.99,1.39,2.04,2.61,2.33,.18,.04,.34,.07,.48,.09,.29,.04,.48,.07,.76,.25,.78,.5,1.41,1.58,1.93,2.45,.12,.2,.22,.38,.33,.54,1.09,1.76,2.2,3.57,3.48,5.69,.41,.68,.81,1.35,1.21,2.02,.61,1.03,1.25,2.09,1.9,3.16,.37,.6,.74,1.21,1.12,1.83,.53,.88,1.07,1.76,1.6,2.61l.3,.48c.31,.5,.63,1.01,.93,1.52v.49s.49-.28,.49-.28h.02s0,0,0,0h0s.89-.52,1.34-.8c.43-.28,.65-.65,.8-1.12,.02-.03,.03-.07,.05-.1,.07-.16,.14-.33,.2-.49,.03-.08,.06-.16,.09-.24,.01-.04,.03-.07,.04-.11,.07-.16,.15-.37,.15-.62l.12-.06-.14-.23s-.01-.08-.03-.11c-.04-.12-.09-.23-.14-.32-.07-.13-.14-.24-.21-.36-.03-.04-.05-.09-.08-.13l-1-1.67c.57-.33,1.14-.67,1.72-1.01l.1,.18c.03,.06,.07,.12,.11,.18,.22,.34,.55,.62,.94,.81,.34,.17,.72,.27,1.14,.3,.07,0,.14,0,.22,0,.66,0,1.33-.18,1.94-.52,.11-.06,.22-.13,.32-.19,.04-.03,1.36-.85,1.36-.85,1.01-.63,2.09-1.32,3.29-2.1,1.31-.84,2.32-1.48,3.29-2.06,.57-.34,1.17-.68,1.68-.97l.84-.48c.38-.21,.66-.4,.89-.61,.6-.53,1-1.21,1.15-1.91,.08-.41,.07-.82-.03-1.2-.05-.2-.14-.39-.25-.58l-.11-.18c.64-.4,1.28-.79,1.9-1.18l.13-.08,1.21,1.97c.77,1.26,1.56,1.45,1.96,1.45,.12,0,.2-.02,.23-.03h.05s.48-.31,.48-.31l.05,.02-.02-.03,2.91-1.78-.05,.14,.66-.45,.13,.21,.24-.47,.04-.03c.08-.06,.16-.11,.25-.17,.15-.11,.29-.2,.43-.3,.21-.13,.44-.26,.7-.41,.27-.14,.52-.28,.75-.41l.22-.13c.17-.1,.34-.2,.51-.3l.13-.08,.05-.15c.1-.29,.19-.57,.28-.91,.03-.11,.06-.21,.09-.32l.04-.14c.02-.09,.04-.17,.06-.26l.31-.18-.17-.29,.21-.6h0s0,0,0,0l-.41,.25c-.3-.5-.59-1-.88-1.48v-.05c.07-.11,.12-.23,.15-.36,.03-.14,.04-.29,0-.43-.03-.14-.08-.25-.14-.35-.16-.32-.35-.64-.54-.96-.17-.28-.34-.56-.52-.82l-.06-.09c-.05-.09-.13-.21-.25-.31-.11-.1-.25-.17-.39-.21-.09-.03-.19-.04-.28-.04-.05,0-.1,0-.14,.01-.44-.74-.87-1.46-1.3-2.16-1.35-2.25-2.74-4.53-4.09-6.74l-.23-.37c.05-.09,.09-.19,.11-.29,.03-.14,.04-.29,0-.43-.03-.15-.1-.28-.14-.35-.16-.32-.34-.63-.54-.96-.17-.28-.35-.56-.52-.83l-.05-.08c-.05-.09-.13-.21-.25-.31-.11-.1-.25-.17-.39-.21-.09-.03-.19-.04-.28-.04-.03,0-.06,0-.09,0-.37-.6-.74-1.2-1.11-1.79-.46-.74-.91-1.48-1.37-2.21-.2-.63-.3-1.2-.3-1.73,0-.71,.16-1.48,.44-2.27,.12-.33,.26-.68,.46-1.11,.05-.12,.11-.24,.17-.37,.4,.31,.8,.61,1.18,.91,.62,.47,1.26,.96,1.88,1.46,.57,.44,1.13,.89,1.75,1.39h.02c.57,.48,1.15,.95,1.74,1.41l.06,.04c.27,.21,.56,.44,.85,.64h.02c.15,.12,.31,.23,.48,.33l.48,.29c.33,.2,.68,.38,1.02,.55,.43,.2,.79,.34,1.14,.43,.28,.07,.53,.1,.76,.1,.21,0,.41-.03,.6-.08,.24-.07,.47-.19,.66-.35,.16-.14,.31-.31,.45-.53,.23-.35,.36-.75,.37-1.14h0Zm-44.11,16.47c.14-.08,.28-.16,.43-.24,.24-.14,.47-.3,.67-.47,.46-.38,.81-.82,1.05-1.31,.28-.54,.4-1.14,.37-1.72,0-.07-.01-.15-.03-.22l2.51-1.67c.58-.39,1.15-.78,1.73-1.16,1.5-1.01,3.05-2.05,4.57-3.09l3.14-2.14,3.13-2.16c.28-.19,.57-.4,.87-.6,.11,.08,.25,.13,.38,.13,.12,0,.23-.03,.32-.1,.23-.16,.48-.3,.74-.45l.1-.06c.3-.17,.58-.35,.88-.55,.25-.17,.5-.34,.73-.51l.26-.18s.09-.07,.13-.12c.14-.18,.18-.41,.11-.63,0-.02-.02-.04-.03-.06,.09-.07,.19-.13,.29-.2,.11,.18,.22,.37,.33,.55l.33,.56c.8,1.36,1.63,2.71,2.25,3.74l2.03,3.35-.04,.02c-.09-.12-.17-.25-.26-.37-.56-.76-1.11-1.43-1.66-2.03-.34-.36-.65-.67-.95-.94-.2-.17-.37-.31-.55-.44l-.03-.02c-.19-.13-.41-.27-.73-.35-.04,0-.11-.02-.19-.02-.06,0-.13,0-.18,.02-.09,.02-.18,.07-.21,.09l-.04,.02-.32,.19-.55,.34-3.28,2.02-4.36,2.72-2.18,1.36-2.19,1.35c-2.96,1.83-5.96,3.63-8.79,5.32l-.38,.23,.1,.17c-.02,.05-.04,.11-.05,.18-.02,.13-.02,.26-.01,.35,.02,.21,.06,.4,.1,.55,.09,.34,.21,.68,.32,.96,.24,.61,.51,1.2,.79,1.8,.28,.58,.54,1.12,.8,1.62-.2,.14-.4,.27-.58,.41-.41-.67-.81-1.32-1.21-1.97-.66-1.07-1.33-2.16-1.99-3.21l-.14-.22c.37-.22,.79-.47,1.21-.7,.08-.04,.15-.09,.23-.13Zm35.25,7.26c-.03,.16-.14,.3-.34,.42-.14,.09-.28,.13-.39,.13-.15,0-.27-.08-.36-.17l1.06-.66s.01,0,.02-.01c.03,.09,.04,.19,.02,.28Zm-6.1-13.52s.02-.01,.03-.02c.22,.35,.44,.71,.66,1.06,.51,.82,1.03,1.64,1.54,2.46,.32,.51,.64,1.03,.97,1.54l-1.25,.77c.01-.1,.01-.2,.01-.32,0-.21-.04-.43-.09-.7-.08-.39-.19-.8-.35-1.29-.26-.79-.59-1.61-.99-2.43-.17-.36-.36-.72-.54-1.07Zm-19.46,25.32c-2.12-3.52-4.08-6.75-5.92-9.77,.07-.04,.15-.08,.22-.12,.1-.05,.21-.11,.32-.18,.45,.68,.92,1.32,1.4,1.91,.49,.6,.9,1.07,1.31,1.48l.05,.05c.22,.22,.44,.44,.69,.64,.13,.11,.28,.22,.44,.32,.07,.04,.16,.09,.27,.12l.18,.3,5.91-3.59c1.88-1.14,3.72-2.27,5.43-3.33,2.11-1.3,3.83-2.36,5.42-3.35,.9-.55,1.8-1.12,2.69-1.68-.02,.06-.04,.11-.05,.17-.14,.64,.19,1.25,.3,1.42l.02,.03,2.28,3.72-.13,.08c-.64,.39-1.28,.77-1.92,1.16-.3-.37-.72-.65-1.2-.79-.29-.09-.61-.14-.93-.14-.23,0-.46,.02-.7,.07-.51,.1-1,.3-1.46,.59-1.9,1.21-3.37,2.12-4.77,2.97-.95,.57-1.93,1.15-2.88,1.7-.66,.38-1.32,.77-1.97,1.16l-1.21,.73c-.47,.29-.87,.65-1.18,1.07-.35,.47-.57,.99-.64,1.51-.07,.47,0,.94,.18,1.35l-.91,.57-.82,.52-.42-.7Z"/>
      <g>
        <path class="cls-1" d="M17.36,59.84l-1.55-2.53-1.55-2.53-5.26,4.96-4.33,4.08-4.05,2.48c-.12,.07-.16,.23-.09,.36,.07,.12,.23,.16,.36,.09l4.02-2.46,5.64-2.01,6.81-2.43Z"/>
        <path d="M.66,66.74l4.17-2.38,3.93-1.44c-.47-.08,.05-.31,.98-.79,1.18-.61,6.01-2.72,5.1-2.34-.91,.37-6.38,2.72-5.72,2.1,.65-.62,4.96-3.77,3.94-3.15s-6.15,4.24-5.69,3.59c.45-.65,6.09-4.93,6.82-5.46,.73-.53,3.1,2.86,3.1,2.86v-.02s-3.01-4.91-3.01-4.91l-5.26,4.96-4.37,4.11-4.03,2.57s.04,.29,.06,.31Z"/>
        <path d="M17.33,59.83l-.8-1.22c-.27-.41-.54-.83-.8-1.25l-.8-1.25-.79-1.26,.24,.03c-.79,.76-1.59,1.52-2.39,2.27-.8,.75-1.62,1.49-2.43,2.23-.81,.74-1.63,1.47-2.44,2.22-.81,.75-1.6,1.51-2.39,2.27h0s0,0,0,0l-2.17,1.38-1.08,.69-.54,.34-.14,.09s-.11,.07-.1,.07c-.03,.03-.04,.09-.01,.12,.02,.04,.07,.06,.11,.05,.02,0,.14-.08,.22-.13l.54-.34,1.09-.68,2.18-1.36h.02s.02-.02,.02-.02c1.04-.37,2.07-.75,3.11-1.11,1.04-.37,2.08-.72,3.12-1.08,1.04-.36,2.08-.71,3.13-1.06,1.04-.35,2.08-.69,3.12-1.02Zm.04,.03c-1.02,.41-2.05,.8-3.08,1.19-1.03,.39-2.06,.78-3.09,1.16-1.03,.38-2.07,.77-3.1,1.14-1.03,.38-2.07,.74-3.11,1.11l.04-.02-2.2,1.32-1.1,.66-.55,.33-.14,.08s-.12,.08-.21,.08c-.17,.03-.35-.07-.43-.22-.08-.15-.05-.35,.07-.47,.08-.08,.11-.08,.16-.11l.14-.08,.55-.33,1.11-.65,2.21-1.3h-.01c.8-.74,1.61-1.49,2.4-2.25,.79-.76,1.57-1.53,2.36-2.3,.78-.77,1.57-1.54,2.37-2.29,.8-.76,1.6-1.5,2.41-2.25l.14-.13,.1,.16,.76,1.28,.75,1.28c.25,.43,.5,.85,.74,1.28l.74,1.31h-.02Z"/>
      </g>
      <g>
        <g>
          <path class="cls-1" d="M117.47,7.97s.81,.93-.11,2.14-2.63,.31-4.35-.74c-1.72-1.05-9.19-7.02-9.19-7.02l13.66,5.62Z"/>
          <path d="M116.84,10.54c-2.63,.08-5.91-2.97-5.91-2.97,5.69,4.23,6.46,1.82,6.46,1.82,0,0-1.58-.32-2.49-.82-.58-.32-2.71-2.04-4.59-3.54l-5.85-2.41s-.08,.1-.12,.16c1.74,1.38,7.22,5.71,8.66,6.59,1.44,.88,2.88,1.65,3.85,1.16,0,0,0,0,0,0Z"/>
          <path d="M117.48,7.84c.23,.3,.37,.68,.38,1.06,.02,.39-.11,.78-.32,1.11-.1,.16-.22,.32-.38,.45-.15,.13-.34,.23-.53,.29-.4,.12-.81,.07-1.18-.02-.38-.09-.73-.24-1.08-.4-.34-.16-.67-.34-1-.54l-.48-.29c-.16-.1-.32-.21-.47-.32-.31-.22-.6-.45-.9-.68-.59-.46-1.17-.93-1.75-1.41-.58-.47-1.16-.94-1.76-1.39-1.17-.93-2.37-1.81-3.55-2.74l-.73-.58,.88,.32c1.08,.4,2.16,.81,3.24,1.21,1.08,.4,2.15,.82,3.23,1.25,1.07,.43,2.14,.87,3.2,1.3,1.06,.45,2.13,.89,3.18,1.36h0s0,0,0,0Zm-.03,.03c-1.09-.36-2.18-.75-3.26-1.14-1.08-.4-2.17-.79-3.25-1.2-1.08-.41-2.15-.82-3.22-1.25-1.07-.43-2.14-.85-3.21-1.29l.15-.26c1.14,.96,2.27,1.94,3.44,2.87,.58,.47,1.17,.93,1.77,1.37,.6,.44,1.21,.88,1.82,1.31,.3,.21,.61,.42,.92,.63,.31,.21,.62,.39,.94,.58,.64,.37,1.29,.74,1.98,.94,.34,.1,.7,.14,1.03,.06,.33-.08,.61-.3,.81-.6,.2-.29,.34-.64,.35-1,.01-.36-.08-.73-.27-1.04Z"/>
        </g>
        <g>
          <path class="cls-1" d="M104.12,1.5s-.44,.1-.31,.85c0,0,9.38,6.83,11.14,7.32,1.96,.54,3.13-.41,2.51-1.69-.62-1.28-13.35-6.48-13.35-6.48Z"/>
          <path d="M117.27,9.43s-.06,0-.1,.02c-.75,.27-1.43,.32-4.2-1.3-2.77-1.63-7.94-5.15-7.68-5.54,.3-.44,10.72,4.37,10.72,4.37,0,0-.09-.08-.25-.2-3.61-1.99-11.65-5.27-11.65-5.27,0,0-.44,.1-.31,.85,0,0,9.38,6.83,11.14,7.32,1.05,.29,1.87,.15,2.32-.24Z"/>
          <path d="M104.12,1.52c-.07,.03-.13,.08-.17,.14-.05,.06-.07,.14-.09,.21-.03,.15-.02,.31,.02,.47l-.03-.04c2.25,1.48,4.49,2.98,6.68,4.53,1.1,.77,2.2,1.55,3.36,2.23,.29,.17,.59,.33,.89,.47,.3,.13,.63,.22,.95,.26,.33,.03,.66,.02,.96-.09,.3-.1,.57-.3,.71-.57,.14-.27,.14-.59,.03-.88-.02-.07-.06-.15-.09-.21-.03-.06-.08-.1-.13-.16-.11-.1-.25-.2-.38-.29-.55-.36-1.14-.68-1.74-.98-.6-.3-1.2-.6-1.81-.88l-1.83-.85-7.33-3.36Zm0-.04c2.53,.92,5.03,1.94,7.49,3.03,1.23,.55,2.45,1.14,3.64,1.77,.6,.32,1.19,.65,1.75,1.05,.14,.1,.28,.21,.41,.34,.06,.06,.13,.14,.18,.23,.04,.09,.07,.17,.1,.26,.11,.35,.09,.75-.1,1.08-.19,.33-.51,.54-.85,.64-.34,.1-.7,.1-1.04,.05-.34-.05-.67-.14-.99-.28-.31-.14-.6-.32-.89-.48-1.16-.68-2.31-1.38-3.45-2.1-1.14-.71-2.25-1.48-3.35-2.26-.55-.39-1.1-.78-1.64-1.18-.54-.4-1.08-.8-1.62-1.21l-.02-.02v-.02c-.02-.17-.03-.34,.02-.51,.05-.17,.17-.32,.34-.37h0s0,0,0,0Z"/>
        </g>
      </g>
      <g>
        <path class="cls-1" d="M103.88,10.74s-.04-.06-.05-.09c.07,.15,.15,.3,.23,.45-.03-.1-.09-.22-.17-.36Zm.32-10.19c-.57-.25-1.3,.32-1.7,.77-.71,.78-1,1.93-1,2.97,0,.81,.17,1.54,.42,2.25,.27,.76,.64,1.49,1.01,2.24-.58-1.56-.93-3.49-.5-5.52,.52-2.43,1.43-2.7,1.77-2.72Z"/>
        <g>
          <g>
            <path class="cls-1" d="M101.93,6.55c-.25-.71-.42-1.45-.42-2.25,0-1.04,.29-2.19,1-2.97,.51-.57,1.63-1.38,2.16-.35,.5,.98-.15,2.18-.56,3.08-.47,1-.86,2.06-.92,3.18-.06,1.3,.42,2.51,.93,3.68,.16,.37,.36,.75,.46,1.14-.57-.92-1-1.93-1.48-2.9-.43-.88-.87-1.72-1.18-2.6Z"/>
            <path d="M103.11,9.14c.1,.21,.2,.42,.3,.63,.1-.02,.16-.09,.17-.22-.09-.26-.17-.53-.23-.8-.04-.09-.09-.18-.14-.29-1.48-2.73-.13-6.91,.7-7.09,.7-.15,.59,1.43,.54,1.95,.34-.76,.61-1.62,.23-2.36-.53-1.03-1.65-.22-2.16,.35-.71,.78-1,1.93-1,2.97,0,.81,.17,1.54,.42,2.25,.31,.88,.76,1.72,1.18,2.6Z"/>
            <path d="M101.91,6.55c-.27-.78-.47-1.59-.49-2.43-.01-.83,.14-1.7,.6-2.44,.22-.37,.53-.69,.88-.94,.18-.13,.37-.24,.58-.31,.21-.07,.45-.11,.69-.05,.24,.07,.42,.25,.53,.44,.11,.19,.18,.4,.21,.62,.05,.43-.03,.85-.16,1.25-.13,.4-.3,.77-.48,1.15-.17,.37-.33,.75-.47,1.14-.28,.77-.45,1.57-.46,2.38,0,.8,.2,1.59,.49,2.34,.14,.38,.31,.75,.47,1.13,.16,.37,.36,.74,.47,1.17l.35,1.33-.71-1.17c-.27-.44-.51-.9-.72-1.37-.21-.47-.41-.94-.6-1.41l-.61-1.4c-.2-.47-.4-.94-.57-1.42Zm.04-.01c.17,.48,.39,.94,.62,1.39l.73,1.34c.24,.45,.48,.9,.71,1.35,.24,.45,.47,.89,.74,1.31l-.36,.16c-.11-.37-.29-.73-.46-1.12-.17-.38-.32-.76-.46-1.16-.28-.79-.49-1.63-.44-2.48,.03-.85,.29-1.66,.61-2.43,.16-.38,.34-.76,.52-1.13,.18-.37,.36-.74,.47-1.13,.12-.39,.19-.8,.11-1.19-.08-.37-.3-.77-.63-.84-.17-.04-.35,0-.52,.08-.17,.08-.34,.18-.49,.3-.31,.24-.58,.53-.79,.86-.42,.66-.65,1.46-.71,2.27-.03,.41-.01,.82,.05,1.22,.06,.41,.17,.8,.3,1.19Z"/>
          </g>
          <path class="cls-1" d="M104.2,.55c-.57-.25-1.3,.32-1.7,.77-.71,.78-1,1.93-1,2.97,0,.81,.17,1.54,.42,2.25,.27,.76,.64,1.49,1.01,2.24-.58-1.56-.93-3.49-.5-5.52,.52-2.43,1.43-2.7,1.77-2.72Z"/>
          <path d="M101.52,4.72c.01,.17,.03,.34,.06,.51,.07,.4,.14,.86,.31,1.22,0-.05-.02-.11-.03-.16-.66-3.06,.65-4.55,.65-4.55-1.07,3.11-.12,5.24-.12,5.24,0,0,.01-.02,.02-.03-.21-1.14-.25-2.39,.02-3.68,.52-2.43,1.43-2.7,1.77-2.72-.19-.12-.44-.07-.67,.01-.34,.13-.68,.4-.92,.64,0,0,0,0,0,0-.04,.04-.07,.07-.1,.11-.81,.9-1.08,2.2-.98,3.4Z"/>
          <path d="M104.11,.54c-.16-.04-.33,0-.48,.06-.18,.08-.35,.19-.51,.31-.32,.25-.59,.55-.79,.89-.42,.68-.6,1.48-.66,2.28-.06,.81,.04,1.64,.31,2.41,.27,.78,.68,1.51,1.07,2.23l-.22,.1c-.3-.7-.51-1.44-.64-2.2-.13-.76-.17-1.53-.1-2.3,.04-.38,.1-.77,.19-1.14,.09-.37,.2-.74,.35-1.1,.15-.36,.33-.7,.58-1.01,.12-.15,.27-.28,.44-.39,.14-.09,.3-.14,.46-.16Zm.1,.03c-.37,.06-.65,.33-.85,.63-.21,.3-.35,.64-.46,.99-.22,.7-.36,1.44-.42,2.17-.05,.74-.04,1.48,.06,2.21,.1,.73,.28,1.46,.51,2.17l-.22,.1c-.34-.76-.68-1.52-.96-2.3-.28-.78-.5-1.61-.5-2.46,0-.85,.22-1.72,.71-2.44,.24-.36,.56-.66,.92-.89,.18-.12,.37-.21,.59-.27,.2-.06,.45-.07,.63,.06l.04,.03h-.05Z"/>
        </g>
      </g>
      <g>
        <path class="cls-1" d="M113.49,34.99l-4.29,2.63s-.83,.21-1.71-1.23c-.91-1.49-4.65-7.6-4.65-7.6,0,0-.62-.95,.43-1.59,1.21-.74,4.51,7.62,4.51,7.62l5.46-.25,.26,.43Z"/>
        <path d="M102.73,28.81c-.08-.14-.37-.65-.25-1.17,.07-.3,.25-.55,.56-.74,.11-.07,.23-.08,.37-.03,1.37,.45,4.11,7.08,4.43,7.85l5.39-.34,.39,.65-4.4,2.69s-.91,.21-1.81-1.27l-4.65-7.6s0-.01-.02-.03Zm1.94-.22c-.51-.83-.98-1.42-1.32-1.54-.08-.03-.15-.02-.21,.01-.26,.16-.42,.37-.48,.62-.11,.51,.24,1.06,.25,1.06l4.65,7.61c.77,1.26,1.49,1.2,1.59,1.19l4.2-2.57-.23-.39-5.41,.34-.03-.06c-.7-1.72-1.95-4.53-3.01-6.27Z"/>
      </g>
      <path d="M109.45,31.97s.73,.94-.26,1.54c-.97,.6-1.44-.45-1.44-.45,0,0,.13,1.84,1.53,1.17,1.4-.67,1.61-1.17,1.61-1.17l-.44-.78-.36-.89-.64,.58Z"/>
      <path class="cls-1" d="M103.26,27.2c-.39,.24-.55,.52-.59,.78,.04,.12,.09,.2,.09,.2,0,0,3.74,6.11,4.65,7.6,.88,1.44,1.71,1.23,1.71,1.23l4.03-2.47-5.98-9.76v-.02s-2.7,1.7-3.91,2.44Zm6.75,4.78c.36,.59,.17,1.36-.41,1.72-.59,.36-1.36,.17-1.72-.41-.36-.59-.17-1.36,.41-1.72,.59-.36,1.36-.18,1.72,.41Z"/>
      <path class="cls-1" d="M103.26,27.2c-.39,.24-.55,.52-.59,.78,.04,.12,.09,.2,.09,.2,0,0,3.74,6.11,4.65,7.6,.88,1.44,1.71,1.23,1.71,1.23l4.03-2.47-5.98-9.76v-.02s-2.7,1.7-3.91,2.44Zm6.75,4.78c.36,.59,.17,1.36-.41,1.72-.59,.36-1.36,.17-1.72-.41-.36-.59-.17-1.36,.41-1.72,.59-.36,1.36-.18,1.72,.41Z"/>
      <path d="M108.68,36.88c-.39-.23-.65-.6-.94-1.05-1.59-2.45-4.92-7.98-4.5-7.94,.51,.05,5.31,7.41,4.57,6.2-.74-1.21-3.49-5.83-3.02-5.97,.36-.11,2.5,2.8,3.2,3.7,.01-.01,.02-.03,.04-.04-.73-1.16-2.96-4.54-2.15-4.06,.4,.24,1.74,2.01,2.94,3.66,.11-.01,.22,0,.33,0-1.34-2.16-2.81-4.68-2.37-4.92,.66-.37,6.18,7.87,6.18,7.87l-.14-.37-5.81-9.48s-2.5,1.53-3.7,2.27c-1.05,.64-.53,1.42-.53,1.42,.12,.2,.24,.39,.36,.59,.3,.49,.61,.99,.91,1.48,.39,.65,.79,1.29,1.18,1.93,.39,.65,.8,1.29,1.19,1.94,.38,.63,.76,1.26,1.18,1.87,.13,.19,.25,.38,.42,.54,.27,.25,.54,.33,.87,.46-.04-.05-.12-.08-.17-.11Zm1.4-3.73c.72,1,1.13,1.57,.78,1-.17-.28-.43-.68-.73-1.16-.02,.05-.03,.11-.06,.16Z"/>
      <g>
        <g>
          <rect class="cls-1" x="65.08" y="18.64" width=".94" height="2.78" transform="translate(-.82 37.16) rotate(-31.46)"/>
          <path d="M64.48,19.19l.86,1.41s0-.04-.01-.06c-.14-.49-.3-.97-.1-1.08,.21-.11,.74,.62,.74,.62,0,0,.01-.09,.03-.2l-.73-1.2c-.22,.05-.57,.19-.8,.5Z"/>
          <path d="M65.84,21.59l-1.55-2.54,.97-.59,1.55,2.54-.97,.59Zm-1.29-2.47l1.35,2.21,.64-.39-1.35-2.21-.64,.39Z"/>
        </g>
        <g>
          <rect class="cls-1" x="60.82" y="18.26" width="7.37" height=".24" transform="translate(-.12 36.35) rotate(-31.45)"/>
          <path d="M61.39,20.54l-.22-.37,6.45-3.94,.22,.37-6.45,3.94Zm.04-.3l.03,.04,6.12-3.75-.03-.04-6.12,3.75Z"/>
        </g>
        <g>
          <rect class="cls-1" x="61.63" y="17.37" width="5.77" height="2.08" transform="translate(-.13 36.37) rotate(-31.46)"/>
          <path d="M64.74,19.49s-.07-.02-.14,0c-.75,.28,2.31-1.77,1.78-1.44-.54,.33-3.44,2.09-3.16,1.77,.28-.32,1.81-1.35,1.1-.95s-1.76,.8-1.52,.5c.24-.3,2.73-1.74,2.73-1.74,0,0-2.81,1.59-3.07,1.53-.26-.06,2.01-1.39,3.13-2.08,1.13-.69,1.84,.68,1.84,.68,0,0-.01-.07-.03-.18l-.96-1.57-4.93,3.01,1.08,1.77,2.14-1.31Z"/>
          <path d="M62.58,20.81c-.2-.28-.4-.56-.59-.85-.19-.29-.39-.57-.57-.87l-.06-.09,.1-.06c.4-.26,.81-.52,1.22-.76,.41-.25,.84-.48,1.26-.71,.42-.23,.84-.47,1.25-.73,.41-.25,.81-.52,1.21-.78l.06-.04,.04,.07c.39,.58,.76,1.15,1.13,1.74l.07,.11-.12,.07c-.41,.26-.81,.52-1.22,.77-.41,.25-.82,.5-1.24,.74-.42,.24-.83,.49-1.25,.72-.42,.23-.84,.47-1.27,.69h-.01s0,0,0,0Zm.02-.03c.39-.28,.78-.55,1.18-.81,.4-.27,.81-.53,1.21-.79,.4-.26,.81-.52,1.22-.77,.41-.25,.83-.49,1.24-.74l-.04,.19c-.35-.59-.7-1.2-1.03-1.8l.11,.03c-.42,.24-.84,.47-1.25,.72-.41,.25-.82,.51-1.21,.78-.4,.27-.8,.54-1.21,.8-.41,.25-.82,.5-1.24,.74l.04-.15c.18,.3,.34,.6,.51,.9,.17,.3,.33,.6,.48,.9Z"/>
        </g>
        <g>
          <polygon class="cls-1" points="60.51 20.84 60.88 20.16 61.24 19.49 61.64 20.15 62.04 20.8 61.28 20.82 60.51 20.84"/>
          <path d="M61.86,20.69s.06-.03,.07-.07l-.69-1.13-.36,.67-.37,.67h.03c.11-.11,.38-.37,.61-.59,.3-.28,.7,.44,.7,.44Z"/>
          <path d="M60.5,20.83c.06-.26,.16-.49,.27-.72,.06-.11,.11-.23,.19-.33,.07-.11,.15-.21,.23-.31l.07-.1,.04,.09c.1,.24,.25,.45,.41,.64,.08,.1,.16,.2,.24,.3l.22,.31,.14,.2-.26,.02c-.25,.02-.51,.02-.76,0-.26-.01-.51-.04-.77-.1h-.02s0-.02,0-.02Zm.05-.02c.24-.06,.48-.1,.72-.13,.25-.03,.51-.04,.76-.03l-.12,.22-.18-.34c-.06-.11-.11-.23-.16-.35-.1-.24-.22-.46-.39-.66h.11c-.05,.12-.09,.24-.14,.36-.05,.12-.11,.23-.18,.34-.13,.21-.27,.41-.44,.59Z"/>
        </g>
        <g>
          <polygon class="cls-1" points="68.52 15.94 67.76 15.96 66.99 15.98 67.39 16.63 67.79 17.28 68.16 16.61 68.52 15.94"/>
          <path d="M67.76,15.96l-.76,.02,.52,.84c.15,.15,.27,.26,.27,.26,0,0-.37-.52-.31-.72,.07-.2,1.05-.42,1.05-.42l-.77,.02Z"/>
          <path d="M68.48,15.96c-.24,.07-.48,.1-.72,.12-.13,0-.25,.02-.38,0-.13,0-.26-.03-.38-.04l.05-.1c.1,.24,.25,.45,.41,.65,.08,.1,.16,.2,.24,.3l.22,.31h-.25c.11-.22,.24-.45,.38-.66,.13-.2,.28-.4,.44-.59Zm.05-.02c-.07,.25-.16,.49-.26,.73-.1,.23-.22,.46-.35,.68l-.14,.22-.11-.21-.18-.34c-.06-.11-.11-.23-.16-.35-.1-.24-.22-.46-.39-.66l-.07-.08,.12-.02c.13-.02,.25-.05,.38-.06,.13-.02,.25-.02,.38-.01,.25,0,.51,.02,.77,.09h.02s0,.02,0,.02Z"/>
        </g>
      </g>
      <g>
        <path class="cls-1" d="M108.06,16.65c-.3,.18-.68,.09-.87-.21l-1.22-1.99c-.18-.3-.09-.68,.21-.87h0c.3-.18,.68-.09,.87,.21l1.22,1.99c.18,.3,.09,.68-.21,.86h0Z"/>
        <path d="M107.89,16.72c.06-.02,.12-.04,.17-.07,0,0,.08-.05,.04-.02-.04-.09-.11-.2-.18-.34-1.19-2.04-1.43-2.59-1.1-2.11,.31,.46,1.31,2.15,1.24,1.91-.07-.24-1.31-2.34-1.19-2.2,.4,.5,1.3,1.87,1.3,1.87v-.18s-1.1-1.79-1.1-1.79c-.18-.3-.57-.39-.87-.21-.04,.02-.07,.05-.1,.08,.02,.79,1.25,2.48,1.8,3.05Z"/>
        <path d="M108.06,16.65c-.15,.1-.35,.12-.53,.08-.09-.02-.18-.06-.25-.12-.08-.06-.14-.14-.18-.21-.21-.29-.4-.6-.58-.91-.18-.31-.34-.63-.52-.94-.1-.15-.17-.34-.14-.53,.03-.19,.13-.36,.3-.47,.16-.11,.37-.15,.57-.09,.1,.03,.19,.08,.26,.14,.08,.06,.14,.16,.18,.23,.19,.3,.39,.6,.57,.91,.18,.31,.37,.62,.53,.94,.04,.08,.09,.17,.11,.26,.02,.09,.02,.19,0,.28-.04,.18-.16,.34-.31,.44Zm0-.02c.15-.09,.25-.26,.27-.43,0-.09,0-.17-.03-.25-.03-.08-.07-.14-.13-.22-.21-.29-.4-.59-.59-.9-.19-.3-.37-.61-.55-.92-.05-.08-.08-.14-.14-.2-.06-.05-.12-.1-.2-.12-.15-.05-.32-.05-.47,.04-.14,.08-.26,.23-.29,.39-.02,.08-.01,.17,0,.25,.02,.08,.07,.16,.11,.23,.19,.3,.4,.59,.6,.89,.2,.3,.38,.61,.55,.93,.04,.08,.08,.15,.14,.21,.06,.06,.13,.11,.21,.14,.16,.06,.35,.05,.51-.05Z"/>
      </g>
      <g>
        <path class="cls-1" d="M115.86,29.41c-.3,.18-.68,.09-.86-.21l-1.22-1.99c-.18-.3-.09-.68,.21-.87h0c.3-.18,.68-.09,.87,.21l1.22,1.99c.18,.3,.09,.68-.21,.86h0Z"/>
        <path d="M115.69,29.48c.06-.02,.12-.04,.17-.07,0,0,.08-.05,.04-.02-.04-.09-.11-.2-.18-.34-1.19-2.04-1.43-2.59-1.1-2.11,.31,.46,1.31,2.15,1.24,1.91-.07-.24-1.31-2.34-1.19-2.2,.4,.5,1.3,1.87,1.3,1.87v-.18s-1.1-1.79-1.1-1.79c-.18-.3-.57-.39-.87-.21-.04,.02-.07,.05-.1,.08,.02,.79,1.25,2.48,1.8,3.05Z"/>
        <path d="M115.87,29.42c-.15,.1-.35,.12-.53,.08-.09-.02-.18-.06-.25-.12-.08-.06-.14-.14-.18-.21-.21-.29-.4-.6-.58-.91-.18-.31-.34-.63-.52-.94-.1-.15-.17-.34-.14-.53,.03-.19,.13-.36,.3-.47,.16-.11,.37-.15,.57-.09,.1,.03,.19,.08,.26,.14,.08,.06,.14,.16,.18,.23,.19,.3,.39,.6,.57,.91,.18,.31,.37,.62,.53,.94,.04,.08,.09,.17,.11,.26,.02,.09,.02,.19,0,.28-.04,.18-.16,.34-.31,.44Zm0-.02c.15-.09,.25-.26,.27-.43,0-.09,0-.17-.03-.25-.03-.08-.07-.14-.13-.22-.21-.29-.4-.59-.59-.9-.19-.3-.37-.61-.55-.92-.05-.08-.08-.14-.14-.2-.06-.05-.12-.1-.2-.12-.15-.05-.32-.05-.47,.04-.14,.08-.26,.23-.29,.39-.02,.08-.01,.17,0,.25,.02,.08,.07,.16,.11,.23,.19,.3,.4,.59,.6,.89,.2,.3,.38,.61,.55,.93,.04,.08,.08,.15,.14,.21,.06,.06,.13,.11,.21,.14,.16,.06,.35,.05,.51-.05Z"/>
      </g>
      <g>
        <polygon class="cls-1" points="114.4 33.07 113.55 35.01 116.41 33.26 117.02 31.48 114.4 33.07"/>
        <path class="cls-1" d="M116.33,33.19l.12-.04,.57-1.67-2.63,1.59-.84,1.94,.14-.09s.04-.08,.06-.13c.65-1.41,1.36-1.87,2.11-2.33,.74-.46,.46,.73,.46,.73Z"/>
        <path d="M114.3,33.32c-.05,.15-.09,.3-.15,.44-.05,.14-.1,.29-.16,.43-.11,.29-.23,.57-.37,.85l-.11-.09c.25-.13,.5-.26,.74-.4,.24-.14,.47-.3,.7-.45,.23-.16,.46-.32,.7-.47,.24-.15,.47-.3,.71-.45l-.04,.05c.1-.3,.21-.59,.33-.88,.05-.15,.12-.29,.18-.44,.06-.14,.12-.29,.19-.43h.02c-.04,.16-.07,.31-.11,.46-.04,.15-.08,.3-.13,.45-.09,.3-.18,.6-.28,.9v.03s-.04,.02-.04,.02c-.24,.15-.48,.28-.72,.43-.24,.14-.49,.27-.73,.41-.25,.13-.49,.27-.73,.42-.24,.15-.46,.32-.69,.48l-.19,.13,.08-.22c.11-.29,.24-.57,.37-.85,.06-.14,.14-.28,.21-.41,.07-.14,.14-.27,.22-.41h.02Z"/>
      </g>
      <g>
        <polygon class="cls-1" points="96.07 3.12 95.27 5.21 113.5 35.01 114.7 32.54 96.07 3.12"/>
        <path d="M112.19,32.61s-1.02-1.58-1.05-1.62l2.36,4.02,1.18-2.43c-.03-.08-.05-.13-.05-.15l-.05-.08c-.44-.61-3.61-4.77-3.61-4.77,0,0,2.01,3.33,2.08,3.71,.06,.38-4.29-7.04-5.34-8.46-.85-1.15,4.54,7.1,4.56,8,.02,1.08-4.74-7.2-6.48-9.95-1.74-2.75,.48,1.47,3.29,6,2.89,4.67,4.81,7.98,3.11,5.74Z"/>
        <path d="M98.86,9.64c1.02,1.05,14.62,23.53,8.08,12.37-6.34-10.83-8.59-14.28-6.85-11.52,1.74,2.75,12.14,19.13,12.14,19.13,0,0-1.01-1.98-2.5-4.9L96.07,3.12l-.8,2.09,11.82,19.32c-3.12-5.35-9.21-15.9-8.23-14.9Z"/>
        <path d="M96.08,3.16l-.77,2.01v-.06c.78,1.23,1.55,2.46,2.32,3.69,.78,1.23,1.54,2.47,2.31,3.71l2.29,3.72c.75,1.25,1.51,2.49,2.26,3.73,1.5,2.5,2.97,5.01,4.49,7.49,1.51,2.49,3.04,4.96,4.59,7.43h-.18s1.2-2.41,1.2-2.41v.13c-1.57-2.44-3.14-4.88-4.7-7.32l-2.34-3.67-2.32-3.68c-1.56-2.45-3.08-4.92-4.61-7.38l-2.28-3.7-2.25-3.68Zm0-.08l2.41,3.67,2.37,3.65c1.57,2.44,3.15,4.87,4.7,7.33l2.33,3.67,2.32,3.68c1.54,2.46,3.08,4.92,4.61,7.38l.04,.06-.03,.06-1.25,2.39-.08,.16-.09-.15c-1.49-2.5-2.99-4.99-4.52-7.47-1.52-2.48-3.09-4.94-4.63-7.4-.77-1.23-1.53-2.48-2.3-3.71l-2.26-3.73c-.76-1.24-1.51-2.49-2.25-3.74-.75-1.25-1.49-2.5-2.23-3.75l-.02-.03v-.03s.89-2.05,.89-2.05Z"/>
      </g>
      <g>
        <path class="cls-1" d="M112.33,34.72c.26-.16,.13-.46,.02-.66-.07-.13-.17-.25-.26-.38-.12-.16-.23-.33-.34-.5-.32-.49-.66-.97-1-1.45-.7-1-1.39-2.01-2.16-2.97-.09-.11-.44-.65-.62-.62-.21,.04,.84,1.9,1.83,3.58,.08,.07,.15,.16,.21,.26,.07,.11,.12,.23,.15,.35,.63,1.06,1.16,1.95,1.2,2.08,.15,.41,.09,.79-.76-.19-.19-.22-.43-.51-.67-.82-.09,.12-.2,.22-.33,.3-.08,.05-.16,.09-.25,.12,.05,.23-.04,.2-.21,.05-.43,.07-.88-.09-1.17-.44,.1,.31,.29,.73,.57,1.28,1.14,2.18-.8-.18-1.84-1.47s-2.07-2.39,.15,.93c.53,.79,1.19,1.95,1.94,2.32,.45,.22,.98-.17,1.35-.4,.66-.41,1.36-.84,2.18-1.34Z"/>
        <path d="M102.67,28.22c-.03-.05-.19-.34-.11-.71,.07-.32,.3-.6,.68-.83l3.78-2.32,6.25,10.21-4.14,2.53s-.91,.21-1.81-1.27l-4.65-7.6s0,0,0,0Zm4.29-3.6l-3.62,2.22c-.33,.2-.53,.44-.6,.71-.07,.32,.09,.58,.09,.58l4.65,7.6c.78,1.27,1.49,1.2,1.59,1.19l3.94-2.41-6.06-9.89Z"/>
      </g>
      <g>
        <polygon class="cls-1" points="84.17 47.34 83.48 46.21 111.33 29.25 112.05 29.63 112.06 30.14 84.17 47.34"/>
        <path d="M84.27,47.28l.52-.32c-.35-.88,1.13-1.74,1.13-1.74,0,0,20.7-12.61,23.09-14.07,2.4-1.47,2.8-.8,2.8-.8,.03-.02,.25-.2,.28-.22l-.05-.43-.42-.32-.35-.13-27.79,16.96,.5,.82c.1,.1,.19,.18,.29,.24Z"/>
        <path d="M84.16,47.37l-.73-1.13-.03-.04,.04-.03,1.76-1.12,1.76-1.11,1.76-1.11,1.77-1.1,3.55-2.19c1.19-.72,2.37-1.45,3.57-2.15,2.39-1.42,4.78-2.83,7.16-4.28l3.56-2.16c.59-.36,1.18-.74,1.78-1.09,.3-.18,.6-.35,.91-.52,.08-.04,.15-.08,.24-.12,.11-.04,.22-.05,.32-.02,.2,.05,.36,.19,.47,.34,.06,.08,.1,.17,.13,.27,.03,.1,.03,.22-.01,.33-.02,.06-.06,.11-.1,.15-.05,.04-.08,.06-.12,.09l-.21,.15c-.28,.2-.57,.4-.86,.6-.57,.4-1.18,.75-1.77,1.11l-3.54,2.2c-2.36,1.47-4.73,2.93-7.1,4.37-4.74,2.89-9.51,5.75-14.31,8.55h-.02Zm.01-.04c4.67-3,9.38-5.94,14.11-8.84l3.55-2.18,3.56-2.16c1.18-.73,2.37-1.45,3.57-2.16,.6-.36,1.2-.7,1.78-1.08,.29-.19,.58-.38,.87-.57l.21-.15c.08-.06,.12-.08,.14-.13,.05-.1,0-.26-.09-.38-.09-.12-.21-.23-.35-.26-.06-.02-.14-.01-.19,0-.07,.03-.15,.08-.23,.11-.31,.16-.61,.33-.91,.5-.6,.34-1.2,.7-1.8,1.06-1.19,.72-2.39,1.42-3.57,2.14-2.37,1.45-4.71,2.94-7.07,4.42-1.17,.74-2.36,1.46-3.54,2.2l-3.56,2.16-1.78,1.08-1.79,1.07-1.79,1.07-1.8,1.05,.02-.07,.65,1.13Z"/>
      </g>
      <g>
        <path class="cls-1" d="M57.81,40.75l3.02-7.31s-.01-1.65-.97-3.21l.07,.11c-.95-1.56-2.42-2.32-2.42-2.32l-7.88-.64,8.18,13.37Z"/>
        <path d="M59.86,30.23s.02,.04,.03,.05c.01,.02,.02,.03,.03,.05l-.07-.11Zm-1.9,9.98c.71-2.28-.27-5.99-2.53-8.96s-1.12-2.54,1.31-2.32c2.56,.24,3.99,4.71,3.99,4.71,0,0,.08-1.82-.84-3.36-.95-1.52-2.38-2.27-2.38-2.27l-7.88-.64,8,13.07c.16,0,.28-.07,.33-.24Z"/>
        <path d="M57.81,40.7c.22-.61,.45-1.21,.67-1.82l.72-1.84c.24-.61,.49-1.22,.73-1.84l.75-1.83v.07c-.02-.26-.05-.54-.1-.81-.04-.27-.1-.54-.18-.81-.15-.53-.35-1.05-.63-1.53l.21-.13,.06,.11-.2,.12c-.28-.48-.63-.92-1.02-1.31-.2-.2-.41-.38-.63-.55-.22-.17-.45-.33-.69-.47h.02c-.66-.05-1.31-.1-1.97-.15-.66-.05-1.31-.09-1.97-.13l-1.97-.12-1.97-.13,.15-.25,2.07,3.32,1.03,1.67,1.01,1.68,1.99,3.37,.98,1.69c.32,.56,.64,1.11,.95,1.67Zm-.01,.05c-.36-.54-.72-1.09-1.08-1.64l-1.06-1.65-2.09-3.31-1.03-1.66-1.02-1.67-2.02-3.36-.17-.28,.32,.03,1.97,.19,1.97,.2c.66,.06,1.31,.13,1.97,.19,.66,.06,1.31,.12,1.97,.17h.01s.01,0,.01,0c.25,.14,.49,.3,.72,.46,.23,.17,.45,.35,.66,.54,.42,.38,.8,.82,1.11,1.3l-.2,.12-.07-.11,.21-.13c.31,.49,.55,1.01,.73,1.56,.09,.28,.16,.56,.21,.84,.05,.29,.09,.57,.1,.87v.03s-.01,.03-.01,.03l-.76,1.82c-.26,.61-.51,1.21-.78,1.82l-.79,1.81c-.27,.6-.54,1.2-.82,1.8v.03s-.03-.03-.03-.03Z"/>
      </g>
      <g>
        <polygon class="cls-1" points="84.84 30 104.51 17.97 104.32 17.2 103.64 16.13 103.13 15.71 83.46 27.75 84.84 30"/>
        <path d="M104.5,17.9s-.55-1.27-1.21-1.6c-.51-.25-1.54,.53-1.24,1.18,.25,.56,.67,1.53,.67,1.53l-1.43-2.18,1.85-1.12s1.32,.95,1.37,2.19Z"/>
        <path d="M84.85,29.88c.25,.02,.49-.1,.71-.2,.23-.11,.44-.25,.66-.39,.42-.28,.83-.59,1.23-.9,.1-.08,.2-.16,.31-.23,.1-.08,.22-.14,.32-.21l.64-.41,1.29-.82c1.71-1.11,3.44-2.18,5.18-3.23,1.74-1.05,3.51-2.07,5.26-3.11,.88-.52,1.78-1,2.64-1.54,.43-.27,.86-.55,1.27-.84,.02-.02,.06-.04,.08-.05,.01,0,.04-.02,.03-.02,0,0,0,0,0,0,0,0,0,.01,0,.01,0,0,0,0,0,0,0-.04,0-.1-.02-.16-.03-.12-.08-.23-.12-.35-.09-.24-.2-.46-.33-.67-.13-.21-.29-.41-.46-.59-.08-.09-.18-.17-.27-.25-.04-.04-.1-.08-.13-.09,0,0,0,0,.03,0,.03,0,.04-.02,.03,0h-.01s-.04,.03-.04,.03l-.08,.05-1.29,.82-2.59,1.62-5.19,3.22-2.61,1.59-1.3,.79-1.31,.78c-.87,.52-1.76,1.03-2.64,1.54l-2.64,1.54v-.06s.67,1.12,.67,1.12c.06,.09,.11,.18,.17,.28l.15,.29c.05,.1,.1,.19,.16,.28,.03,.05,.06,.09,.09,.13,.03,.04,.08,.05,.14,.06Zm0,.04c-.05,0-.12-.02-.16-.07-.04-.04-.07-.09-.1-.13-.06-.09-.11-.19-.16-.28l-.15-.29-.17-.28-.69-1.1-.02-.03,.03-.02,2.57-1.65c.86-.55,1.71-1.11,2.57-1.65l1.29-.82,1.3-.8,2.6-1.6,5.23-3.16,2.62-1.56,1.32-.78,.08-.05,.04-.02h.01s.01-.02,.05-.02c.04,0,.06,0,.07,0,.09,.04,.13,.08,.19,.13,.1,.09,.19,.17,.28,.27,.17,.19,.33,.4,.46,.63,.13,.22,.24,.47,.33,.7,.05,.12,.09,.24,.12,.37,.01,.07,.03,.13,.02,.22,0,.01,0,.03-.01,.04,0,0-.01,.02-.02,.03,0,0,0,0-.01,.01-.03,.02-.03,.02-.05,.03-.03,.02-.05,.03-.08,.05-.42,.29-.85,.57-1.28,.83-.87,.52-1.76,1.03-2.63,1.56-1.73,1.08-3.43,2.19-5.16,3.26-1.73,1.08-3.47,2.13-5.24,3.15l-1.32,.77-.66,.38c-.11,.07-.22,.13-.32,.19-.1,.07-.21,.14-.31,.22-.42,.29-.83,.6-1.26,.87-.22,.14-.43,.27-.66,.38-.11,.06-.23,.11-.35,.15-.12,.04-.25,.07-.38,.06Z"/>
      </g>
      <g>
        <path class="cls-1" d="M57.34,41.47c1.33-1,.58-4.76-1.72-8.53-2.3-3.77-5.31-6.14-6.81-5.42h0s-.1,.05-.1,.05c0,0,0,0,0,0,0,0,0,0,0,0l-22.28,13.63,8.54,13.96,22.38-13.69h0Z"/>
        <path class="cls-1" d="M48.89,32.68s-10.57,6.41-10.99,6.72,6.19-2.63,9.42-4.32c3.22-1.7-6.49,4.86-8.87,6.48-2.38,1.62,5.65-2.24,9.79-4.44,4.13-2.2,5.13-1.65,.41,1.02s-12.65,8.18-8.77,6.19,13.7-6.7,10.5-4.27c-11.34,8.62-.86,2.85,1.45,1.65,2.31-1.19-.5,2.08,2.11,.65,2.61-1.43,2.77-3.8,1.3-6.11-1.47-2.31-3.65-5.24-6.34-3.59Z"/>
        <path d="M39.27,45.13c.15-.07,.24-.12,.24-.12,0,0-.09,.04-.24,.12Zm.96,5.41c4.52-3.1,15.31-9.7,5.89-4.49-9.43,5.21-11.01,2.98-10.6,1.84,.35-.96,2.95-2.35,3.75-2.76-1,.5-4.8,2.35-4.29,1.4,.58-1.1,16.01-10.24,16.01-10.24,0,0-10.86,5.76-14.48,7.31-3.62,1.55,.14-1.71,2.12-2.92s6.37-3.82,4.57-3.02c-1.8,.8-11.72,5.92-9.27,3.9,2.45-2.02,14.02-8.8,12.9-8.34-1.12,.46-15.82,8.87-16.07,8.21s9.2-6.66,13.93-9.55c4.72-2.89,7.16-1.43,9.65,1.18,2.19,2.31,3.41,6.02,3.66,6.85,.1-1.68-.75-4.33-2.37-6.98-2.3-3.77-5.31-6.14-6.81-5.42h0s-.1,.05-.1,.05c0,0,0,0,0,0,0,0,0,0,0,0l-22.28,13.63,8.54,13.96,1.78-1.09c.5-1.01,1.5-2.17,3.49-3.54Z"/>
        <path d="M57.33,41.45c.3-.24,.46-.6,.54-.97,.08-.37,.09-.75,.06-1.13-.05-.76-.24-1.5-.47-2.23-.47-1.45-1.15-2.83-1.96-4.12-.81-1.29-1.73-2.52-2.82-3.57-.54-.53-1.13-1.01-1.78-1.39-.32-.18-.66-.34-1.01-.43-.35-.09-.71-.1-1.01,.05l-.14,.07-.08-.13h0s.23,.05,.23,.05l-2.8,1.7-2.81,1.69c-1.87,1.13-3.76,2.24-5.62,3.37l-2.8,1.7-2.79,1.72c-1.86,1.14-3.71,2.31-5.57,3.46l.04-.15,4.28,6.89,4.25,6.91-.27-.07,5.62-3.39c1.87-1.13,3.75-2.25,5.63-3.37l2.82-1.68,2.83-1.67c1.88-1.12,3.77-2.22,5.66-3.32v.03s-.02-.02-.02-.02h.01Zm.04,0h0s-.02,.02-.02,.02c-1.86,1.16-3.71,2.32-5.57,3.47l-2.79,1.73-2.8,1.72c-1.87,1.14-3.73,2.29-5.6,3.42l-5.61,3.4-.17,.1-.1-.17-4.2-6.94-4.17-6.96-.06-.1,.09-.06c1.87-1.13,3.75-2.25,5.62-3.38l2.8-1.7,2.79-1.72c1.86-1.15,3.71-2.32,5.56-3.47l2.78-1.74,2.79-1.72,.14-.09,.09,.14h0s-.22-.06-.22-.06c.4-.19,.85-.18,1.24-.08,.39,.1,.76,.27,1.1,.47,.68,.4,1.28,.91,1.83,1.45,1.1,1.09,2.04,2.33,2.83,3.65,.79,1.32,1.46,2.73,1.9,4.2,.22,.74,.38,1.5,.41,2.27,.01,.39,0,.78-.1,1.16-.09,.37-.27,.74-.58,.97Z"/>
      </g>
      <g>
        <path class="cls-1" d="M104.7,25.37c.52-.4-.52-3.66-2.65-7.15-2.13-3.49-4.56-5.9-5.15-5.62v-.02s-21.75,13.3-21.75,13.3l7.83,12.8,21.74-13.3v-.02Z"/>
        <path d="M94.83,15.19c.71,.67,1.34,1.38,1.94,2.11,.6,.74,1.17,1.51,1.69,2.3,1.04,1.59,1.92,3.29,2.55,5.07-.72-1.75-1.67-3.39-2.78-4.91-.56-.76-1.15-1.49-1.78-2.18-.63-.69-1.29-1.37-1.99-1.96l.37-.43Z"/>
        <path d="M93.21,15.97c.71,.67,1.34,1.38,1.94,2.11,.6,.74,1.17,1.51,1.69,2.3,1.04,1.59,1.92,3.29,2.55,5.07-.72-1.75-1.67-3.39-2.78-4.91-.56-.76-1.15-1.49-1.78-2.18-.63-.69-1.29-1.37-1.99-1.96l.37-.43Z"/>
        <path d="M91.29,16.81c.71,.67,1.34,1.38,1.94,2.11,.6,.74,1.17,1.51,1.69,2.3,1.04,1.59,1.92,3.29,2.55,5.07-.72-1.75-1.67-3.39-2.78-4.91-.56-.76-1.15-1.49-1.78-2.18-.63-.69-1.29-1.37-1.99-1.96l.37-.43Z"/>
        <path d="M90.02,17.91c.58,.55,1.1,1.13,1.61,1.73,.5,.6,.98,1.22,1.43,1.86,.9,1.28,1.69,2.63,2.34,4.05-.73-1.37-1.6-2.67-2.57-3.88-.48-.6-.99-1.19-1.52-1.75-.53-.56-1.09-1.1-1.66-1.59l.37-.43Z"/>
        <path d="M88.05,18.85c.71,.67,1.34,1.38,1.94,2.11,.6,.74,1.17,1.5,1.69,2.3,1.04,1.59,1.92,3.29,2.55,5.07-.72-1.75-1.67-3.39-2.78-4.91-.56-.76-1.15-1.49-1.78-2.18-.63-.69-1.29-1.37-1.99-1.96l.37-.43Z"/>
        <path d="M86.53,20.16c.71,.67,1.34,1.38,1.94,2.11,.6,.74,1.17,1.51,1.69,2.3,1.04,1.59,1.92,3.29,2.55,5.07-.72-1.75-1.67-3.39-2.78-4.91-.56-.76-1.15-1.49-1.78-2.18-.63-.69-1.29-1.37-1.99-1.96l.37-.43Z"/>
        <path d="M84.3,21.31c.71,.67,1.34,1.38,1.94,2.11,.6,.74,1.17,1.51,1.69,2.3,1.04,1.59,1.92,3.29,2.55,5.07-.72-1.75-1.67-3.39-2.78-4.91-.56-.76-1.15-1.49-1.78-2.18-.63-.69-1.29-1.37-1.99-1.96l.37-.43Z"/>
        <path d="M82.65,22.32c.4,.39,.76,.78,1.11,1.19,.35,.41,.69,.83,1.02,1.25,.65,.86,1.26,1.75,1.8,2.67-.62-.87-1.3-1.7-2.02-2.49-.36-.39-.73-.78-1.11-1.15-.38-.37-.78-.73-1.18-1.06l.37-.43Z"/>
        <path d="M80.56,23.43c.71,.67,1.34,1.38,1.94,2.11,.6,.74,1.17,1.51,1.69,2.3,1.04,1.59,1.92,3.29,2.55,5.07-.72-1.75-1.67-3.39-2.78-4.91-.56-.76-1.15-1.49-1.78-2.18-.63-.69-1.29-1.37-1.99-1.96l.37-.43Z"/>
        <path d="M78.56,24.76c.61,.58,1.16,1.19,1.69,1.82,.53,.63,1.03,1.29,1.5,1.96,.94,1.35,1.75,2.78,2.4,4.29-.73-1.46-1.63-2.84-2.63-4.12-.5-.64-1.03-1.26-1.59-1.85-.55-.59-1.14-1.17-1.74-1.68l.37-.43Z"/>
        <path d="M87.19,34.8c1.92-1.23,3.97-2.25,5.92-3.48,2.43-1.53,4.13-2.59,6.22-3.98,.67-.45,1.31-.89,2.03-1.58-1.96,1.5-4.35,2.87-6.48,4.11-1.81,1.06-4.16,2.31-6.03,3.26-3.21,1.63-5.19,2.36-6.95-.62-.68-1.15-1.03-2.43-1.52-3.67-.65-1.67-1.8-3.63,.24-4.89,1.2-.74,2.36-1.52,3.57-2.23,2.97-1.75,5.94-3.5,8.95-5.18,1.04-.58,2.09-1.16,3.14-1.74,2.52-1.4,7.97,8.05,8.54,10.33,0-.05,.02-.1,.02-.16l-.09-.78c-.29-1.33-1.23-3.6-2.69-5.98-2.13-3.49-4.56-5.9-5.15-5.62v-.02c-1.77,1.07-3.52,2.14-5.27,3.22-3.32,2.03-6.65,4.07-9.97,6.1-2.17,1.33-4.34,2.65-6.51,3.98,.95,1.54,1.89,3.09,2.84,4.64,1.31,2.13,2.61,4.27,3.92,6.4,.36,.59,.72,1.18,1.08,1.76,1.47-.91,2.94-1.82,4.42-2.7-1.59,.49-1.37-.44-.28-1.14,.02-.01,.05-.03,.07-.04Z"/>
        <path d="M104.69,25.36c.08-.07,.1-.17,.12-.28,.01-.1,0-.21,0-.31-.02-.21-.06-.42-.1-.63-.1-.41-.23-.82-.37-1.22-.29-.8-.65-1.58-1.03-2.34-.77-1.52-1.68-2.97-2.7-4.33-.51-.68-1.05-1.34-1.63-1.96-.29-.31-.59-.61-.91-.88-.16-.14-.32-.27-.49-.38-.17-.11-.35-.22-.51-.26-.04,0-.07,0-.08,0,0,0-.07,.04-.1,.05l-.27,.17-.55,.33-1.1,.67-2.2,1.33-4.41,2.63-2.21,1.31-2.2,1.33c-2.93,1.77-5.84,3.58-8.75,5.39l.04-.15,3.94,6.33,3.92,6.34-.27-.07,5.45-3.3c1.82-1.1,3.64-2.19,5.46-3.28,1.82-1.09,3.65-2.18,5.48-3.26,1.83-1.09,3.66-2.15,5.49-3.23v.03s-.02-.03-.02-.03h.01Zm.04,0h0s.01,.02,.01,.02h-.02c-1.8,1.14-3.59,2.27-5.4,3.39-1.8,1.12-3.61,2.24-5.42,3.35-1.81,1.12-3.62,2.23-5.43,3.33l-5.45,3.31-.17,.1-.1-.17-3.87-6.37-3.84-6.39-.06-.09,.09-.05c2.94-1.76,5.88-3.52,8.79-5.32l2.19-1.35,2.18-1.36,4.36-2.72,2.19-1.35,1.09-.67,.55-.33,.27-.17,.04-.02,.04-.02s.07-.04,.11-.05c.09-.02,.17-.01,.23,0,.26,.06,.44,.19,.63,.32,.18,.13,.35,.27,.52,.41,.33,.29,.63,.6,.93,.91,.59,.63,1.13,1.3,1.64,2,1.02,1.39,1.9,2.87,2.65,4.42,.37,.77,.7,1.57,.97,2.39,.13,.41,.25,.82,.33,1.25,.04,.21,.07,.43,.08,.64,0,.11,0,.22-.02,.33-.02,.1-.05,.21-.13,.28Z"/>
      </g>
      <g>
        <path class="cls-1" d="M82.93,38.7c-.56,.34-2.77-2.23-4.92-5.75-2.15-3.52-3.44-6.65-2.88-7,.56-.34,2.77,2.23,4.92,5.75,2.15,3.52,3.44,6.65,2.88,7Z"/>
        <path d="M82.6,38.67s-.09-.08-.16-.13c-1.29-1-2.42-3.44-2.46-4.95-.02-.99-.58-2.23-1.37-2.9-1.07-.91-1.63-.28-2.25-2.02-.62-1.74,.33-.73,2.34,1.81,2.02,2.55,4.25,7.34,4.25,7.34,0,0,.01,0,.03,0-.28-1.23-1.38-3.58-2.94-6.13-2.15-3.52-4.36-6.09-4.92-5.75-.56,.34,.73,3.48,2.88,7,1.86,3.03,3.75,5.36,4.6,5.73Z"/>
        <path d="M82.94,38.71c-.08,.05-.17,.04-.25,.02-.08-.02-.15-.06-.22-.1-.14-.08-.27-.18-.4-.28-.25-.2-.48-.44-.71-.66-.45-.46-.87-.95-1.28-1.46-.82-1-1.55-2.08-2.2-3.19-.65-1.12-1.24-2.27-1.79-3.44-.27-.58-.55-1.17-.78-1.78-.11-.3-.22-.61-.31-.93-.04-.16-.08-.32-.09-.49,0-.09,0-.17,0-.26,.02-.09,.05-.2,.16-.27,.11-.07,.23-.05,.32-.03,.09,.02,.17,.06,.25,.1,.15,.08,.29,.18,.41,.29,.26,.21,.49,.44,.72,.67,.45,.47,.86,.97,1.26,1.49,.79,1.03,1.52,2.1,2.19,3.21,.67,1.11,1.29,2.25,1.81,3.43,.26,.59,.5,1.19,.71,1.81,.1,.31,.2,.62,.27,.93,.03,.16,.06,.32,.07,.48,0,.08,0,.16-.01,.25-.02,.08-.05,.17-.13,.22h0Zm-.02-.03c.06-.04,.09-.12,.11-.19,.01-.08,.01-.16,0-.24-.01-.16-.04-.32-.08-.47-.08-.31-.19-.61-.31-.91-.25-.59-.53-1.17-.84-1.74-.61-1.13-1.25-2.24-1.93-3.33-.67-1.09-1.37-2.17-2.13-3.2-.38-.51-.77-1.02-1.19-1.5-.21-.24-.43-.47-.66-.68-.12-.1-.24-.2-.36-.28-.12-.08-.28-.14-.34-.1-.07,.03-.1,.21-.09,.35,0,.15,.03,.31,.06,.46,.06,.31,.16,.62,.27,.92,.22,.6,.48,1.19,.77,1.77,.29,.58,.6,1.14,.93,1.69,.33,.55,.67,1.1,1.02,1.64,.69,1.08,1.39,2.16,2.12,3.22,.37,.53,.75,1.04,1.17,1.53,.21,.25,.43,.48,.67,.69,.12,.11,.25,.2,.38,.29,.07,.04,.14,.08,.21,.1,.07,.02,.15,.03,.22,0h0Z"/>
      </g>
      <g>
        <rect class="cls-1" x="105" y="-.27" width="3.11" height="35.11" transform="translate(6.64 58.15) rotate(-31.46)"/>
        <path d="M107.6,20.91c-1.69-2.89-6.26-10.41-8.25-14.48-.01-.04-.09-.17-.11-.21-1.45-3,2.72,3.9,4.42,6.63,1.7,2.72,11.46,18.44,2.86,4.26-8.18-13.49-5.41-10.42-4.75-9.39,4.05,5.8,10.16,15.44,13,20.01L98.73,1.5l-2.66,1.63,17.36,28.38c.38,.57,.79,1.07,.79,1.07,0,0-4.14-7.43-6.62-11.66Z"/>
        <path d="M110.09,20.27s5.93,9.76,5.71,10.12c-.22,.36-11.08-16.97-11.13-17.05-.05-.08,8.52,13.93,9.04,15.01,.52,1.09-4.63-6.54-5.68-8.26-1.05-1.72,4.4,7.67,4.93,8.97,.53,1.3-2.23-3.24-2.4-3.51-.16-.27,3.38,6.2,3.45,6.74,0,.05,.01,.12,.02,.2l.36,.58,2.66-1.63-6.43-10.51-.53-.66Z"/>
        <path d="M114.38,33.08c-.79-1.23-1.57-2.47-2.36-3.7l-2.33-3.72-2.31-3.73-1.15-1.87-1.14-1.88c-.76-1.25-1.51-2.5-2.26-3.76l-2.25-3.77-2.27-3.75-2.31-3.73-.04-.06,.06-.04,2.64-1.65,.09-.05,.06,.09c1.56,2.48,3.1,4.96,4.64,7.45,1.53,2.49,3.08,4.97,4.6,7.48,1.52,2.5,3.05,4.99,4.55,7.5,1.51,2.51,3.01,5.02,4.5,7.54l.04,.06-.06,.04-2.7,1.59v-.02Zm.01-.04l2.61-1.66-.02,.1c-1.56-2.47-3.12-4.95-4.66-7.44-1.55-2.48-3.08-4.98-4.61-7.47-1.54-2.49-3.04-5-4.56-7.5-1.52-2.5-3.02-5.01-4.52-7.52l.14,.03-2.67,1.6,.02-.1,2.28,3.75,2.31,3.73,2.33,3.72c.78,1.24,1.56,2.48,2.32,3.73l1.15,1.87,1.14,1.88,2.27,3.75,2.25,3.77c.74,1.25,1.48,2.51,2.22,3.77Z"/>
      </g>
      <g>
        <polygon class="cls-1" points="72.56 23.79 71.71 22.65 96.89 5.42 97.18 5.59 97.57 6.21 97.63 6.62 72.56 23.79"/>
        <path d="M97.57,6.3l-.27-.61-.4-.27s-22.12,15.14-22.15,15.15c.04-.02,.8,.75,.93,.79,.63,.19,.65-.52,.92-.95,.45-.72,1.42-1.47,2.16-1.92,.54-.33,9.42-6.2,14.18-9.63,3.13-2.26,4.28-2.71,4.63-2.56Z"/>
        <path d="M72.55,23.82l-.88-1.14-.03-.04,.05-.03c1.08-.78,2.18-1.55,3.27-2.32l1.64-1.15,1.65-1.14c2.19-1.53,4.39-3.04,6.62-4.52l3.34-2.22c1.11-.74,2.21-1.5,3.32-2.24l3.29-2.28,1.64-1.15,.2-.14,.1-.07,.05-.04,.03-.02s0,0,.02-.01h.01s.03-.01,.04-.01h.02c.1,.02,.12,.05,.16,.08,.04,.03,.07,.06,.1,.09,.07,.06,.12,.12,.18,.19,.11,.13,.22,.28,.29,.45,.08,.17,.11,.36,.1,.54v.06s-.05,.04-.05,.04c-2.07,1.46-4.15,2.9-6.24,4.35l-3.13,2.16-3.14,2.14c-2.09,1.43-4.2,2.84-6.3,4.26l-3.17,2.11-3.19,2.1Zm0-.05l3.08-2.2,3.11-2.19c2.08-1.45,4.15-2.91,6.24-4.34l3.13-2.15,3.15-2.13c2.1-1.42,4.2-2.84,6.31-4.25l-.05,.1c.03-.31-.11-.59-.31-.84-.05-.06-.1-.12-.16-.18-.03-.03-.06-.05-.08-.08-.02-.02-.07-.04-.05-.04,0,0,0,0,0,0,0,0,.02,0,.03,0,0,0,0,0,0,0,.02-.01,0,0,0,0l-.03,.02-.05,.03-.1,.07-.21,.14-1.67,1.12-3.32,2.25c-1.1,.76-2.2,1.52-3.29,2.29l-3.27,2.31c-2.18,1.54-4.39,3.05-6.6,4.54l-1.66,1.12-1.67,1.11c-1.11,.74-2.22,1.48-3.34,2.21v-.07s.82,1.15,.82,1.15Z"/>
      </g>
      <g>
        <path class="cls-1" d="M93.05,10.48c-.11,.08-.27,.03-.36-.09h0c-.09-.13-.06-.29,.05-.37l2.67-1.81c.11-.08,.27-.03,.36,.09h0c.09,.13,.06,.29-.05,.37l-2.67,1.81Z"/>
        <path d="M93.05,10.48l.36-.24s-.05,.01-.07,.03c-.4,.23-.54,.15-.46-.03,.08-.19,1.65-1.22,2.29-1.65s.52,.04,.52,.04l.12-.07c.02-.08,.01-.17-.04-.25-.09-.13-.25-.17-.36-.09l-2.67,1.81c-.11,.08-.13,.24-.05,.37,.09,.13,.25,.17,.36,.09Z"/>
        <path d="M93.06,10.49c-.15,.11-.37,0-.43-.18-.03-.08-.03-.19,.04-.27,.01-.02,.03-.04,.05-.05l.05-.04,.1-.08c.26-.21,.54-.4,.83-.58,.29-.18,.58-.34,.86-.53,.28-.19,.55-.38,.83-.59,.08-.06,.2-.07,.3-.02,.1,.05,.17,.12,.2,.23,.03,.1,.02,.22-.05,.31-.02,.02-.04,.04-.06,.06l-.05,.04-.1,.07c-.28,.19-.55,.39-.83,.58-.28,.19-.56,.37-.86,.54-.29,.17-.59,.33-.87,.52Zm-.01-.02c.28-.19,.54-.4,.81-.61,.26-.21,.54-.41,.82-.6,.28-.19,.56-.37,.84-.56l.11-.07,.05-.03s.02-.01,.03-.03c.04-.04,.05-.1,.04-.16-.03-.12-.18-.23-.3-.16-.28,.17-.57,.36-.85,.55-.28,.19-.54,.41-.81,.61-.27,.2-.55,.38-.85,.55l-.11,.06s-.07,.04-.1,.06c-.05,.05-.07,.13-.05,.21,.01,.08,.07,.15,.14,.18,.07,.04,.16,.04,.23,0Z"/>
      </g>
      <g>
        <path class="cls-1" d="M72.4,26.09c-1.65,1.01-3.63,.79-4.42-.49h0c-.79-1.29-.08-3.15,1.57-4.16l1.79-1.09c1.66-1.01,3.63-.79,4.42,.49h0c.79,1.29,.08,3.15-1.57,4.16l-1.79,1.09Z"/>
        <path d="M74.19,25c.31-.19,.59-.42,.84-.66,.01-.1-.09-.08-.36,.14-.91,.74-2.65,1.57-2.62,.79,.04-.78,3.67-2.74,2.63-2.18-1.04,.56-3.21,1.5-3.18,1.17s2.54-2,1.88-1.59-2.57,1.17-2.37,.58c.2-.58,3.57-2.29,2.06-1.55-1.5,.73-2.72,.92-2.63,.49,.08-.44,1.84-2.11,3.84-1.35,2,.77,1.02,2.94,1.02,2.94,.09-.05,.19-.1,.3-.17,.56-.91,.66-1.96,.16-2.77-.79-1.29-2.77-1.51-4.42-.49l-1.79,1.09c-.26,.16-.49,.34-.7,.53,.16,.32,.34,.63,.43,.86,.34,.79,1.74,3.12,2.28,3.64,0,0,.01,.01,.02,.02,.27-.1,.55-.23,.81-.39l1.79-1.09Z"/>
        <path d="M72.41,26.11c-.43,.26-.89,.46-1.38,.59-.49,.12-1.01,.16-1.52,.08-.51-.08-1.02-.31-1.39-.71-.38-.38-.59-.91-.62-1.44-.02-.53,.12-1.05,.36-1.5,.24-.46,.57-.85,.94-1.19,.19-.17,.39-.32,.6-.46l.63-.4c.42-.26,.83-.54,1.25-.81,.84-.56,1.91-.86,2.95-.65,.51,.11,1.02,.35,1.4,.74,.38,.39,.6,.92,.64,1.46,.03,.54-.09,1.07-.33,1.54-.23,.47-.57,.87-.97,1.2-.2,.16-.41,.31-.62,.44-.22,.13-.44,.24-.66,.36-.44,.24-.86,.49-1.29,.75Zm-.02-.03c.42-.26,.84-.53,1.26-.81,.2-.14,.42-.28,.62-.42,.2-.14,.38-.3,.55-.48,.34-.35,.61-.75,.81-1.18,.19-.43,.3-.9,.26-1.35-.03-.45-.22-.89-.53-1.22-.31-.34-.73-.56-1.19-.66-.92-.21-1.92,0-2.77,.48-.43,.25-.87,.49-1.29,.75-.21,.13-.43,.25-.64,.39-.21,.13-.4,.29-.58,.46-.36,.34-.64,.75-.83,1.19-.19,.44-.28,.93-.23,1.39,.04,.46,.24,.9,.55,1.24,.31,.34,.73,.58,1.2,.7,.93,.25,1.98,.06,2.83-.46Z"/>
      </g>
      <g>
        <path class="cls-1" d="M92.09,8.63c-.08,.05-.27-.09-.43-.33h0c-.16-.23-.22-.47-.14-.52l1.91-1.29c.08-.05,.27,.09,.43,.33h0c.16,.23,.22,.47,.14,.52l-1.91,1.29Z"/>
        <path d="M91.66,8.31c.16,.23,.35,.38,.43,.33l.63-.43s-.08,0-.18,.07c-.55,.43-.78-.04-.79-.22-.01-.25,1.01-.78,1.43-1.07s.76,.27,.76,.27h.09c0-.1-.06-.27-.18-.44-.16-.23-.35-.38-.43-.33l-1.91,1.29c-.08,.05-.02,.29,.14,.52Z"/>
        <path d="M92.1,8.64h0c-.08,.04-.15-.02-.21-.06-.06-.04-.11-.09-.16-.15-.1-.11-.19-.23-.26-.36-.03-.07-.07-.14-.06-.24,0-.03,.01-.06,.04-.09,0,0,.01-.01,.02-.02h.01s.02-.02,.02-.02l.09-.06c.12-.08,.24-.16,.36-.24,.25-.15,.5-.29,.74-.44,.24-.16,.47-.33,.7-.5,.02-.02,.06-.03,.09-.02,.03,0,.05,0,.07,.02,.04,.02,.07,.04,.11,.06,.06,.05,.12,.1,.17,.15,.1,.11,.19,.24,.25,.38,.03,.08,.06,.15,.05,.26,0,.03-.01,.06-.04,.1,0,0-.02,.02-.03,.02h-.01s-.02,.02-.02,.02l-.09,.06c-.12,.08-.24,.16-.36,.24-.24,.16-.48,.31-.74,.45-.25,.14-.51,.28-.74,.44h0Zm0-.02c.24-.16,.46-.35,.68-.53,.22-.19,.46-.35,.69-.52,.12-.08,.24-.16,.36-.24,.05-.04,.15-.09,.12-.08,0-.03,0-.1-.03-.16-.05-.12-.11-.24-.2-.35-.04-.05-.09-.1-.13-.15-.04-.04-.12-.08-.13-.07-.25,.15-.49,.3-.73,.47-.23,.17-.46,.35-.69,.52-.12,.09-.23,.17-.35,.25l-.09,.06h-.02s-.01,.02-.01,.02c0,0,0,0,0,0,0,0,0,0,0,0,0,.04,0,.11,.02,.18,.04,.13,.1,.26,.19,.37,.04,.06,.09,.11,.14,.16,.05,.04,.12,.09,.18,.06Z"/>
      </g>
      <g>
        <path class="cls-1" d="M91.92,7.5s-.16-.06-.25-.19h0c-.09-.14-.13-.28-.09-.31l1.09-.74s.16,.06,.25,.2h0c.09,.14,.13,.28,.09,.31l-1.09,.74Z"/>
        <path d="M91.92,7.5h.01s-.02-.03-.04-.04c-.23-.15-.19-.35-.11-.39,.08-.04,.52-.32,.79-.52,.27-.2,.41,.18,.41,.18l.03-.08c-.02-.05-.05-.12-.09-.18-.09-.14-.21-.23-.25-.2l-1.09,.74s0,.17,.09,.31c.09,.14,.21,.23,.25,.19Z"/>
        <path d="M91.67,7.31c-.06-.06-.11-.12-.15-.21,0-.02-.01-.05-.01-.08,0-.02,0-.04,.02-.06,.02-.02,.02-.02,.03-.03l.09-.08c.12-.1,.25-.19,.38-.29,.13-.09,.27-.17,.41-.25l.11-.06,.05-.03s.03-.02,.08-.03c.08,0,.1,.05,.13,.08,.03,.03,.05,.07,.07,.11-.03-.02-.07-.05-.1-.07-.03-.02-.08-.03-.08-.02,0,0-.01,.02-.03,.03l-.05,.04-.09,.08c-.12,.1-.25,.19-.38,.29-.13,.09-.27,.17-.41,.25l-.11,.06s0,0-.02,0c0,0,0,.02,0,.04,0,.07,.03,.15,.06,.22Z"/>
        <path d="M92.95,6.49c.06,.06,.11,.12,.13,.22,0,.01,0,.03,0,.05,0,.02-.03,.04-.04,.04l-.05,.04-.09,.08c-.12,.1-.25,.19-.38,.29-.13,.09-.27,.17-.41,.25l-.11,.06-.06,.03h0s-.01,0-.02,0c-.01,0-.02,0-.03,0-.02,0-.03,0-.04-.02-.08-.06-.12-.13-.15-.2,.06,.05,.13,.1,.19,.12,.02,0,.02,0,.01,0,0,0,.03-.02,.04-.04l.09-.08c.12-.1,.25-.19,.38-.28,.13-.09,.27-.17,.41-.25l.11-.06,.05-.03s0,0,0,0c0,0,0,0,0,0,.01-.06-.01-.14-.03-.22Z"/>
      </g>
      <g>
        <path class="cls-1" d="M78.41,30.83l-2.98,1.82,1.38,2.25,2.98-1.82s-.27-1.02-.46-1.31c-.17-.28-.92-.94-.92-.94Z"/>
        <path d="M79.75,33.04s-.62-1.42-1.2-1.49c-.58-.07-1.86,.91-1.88,1.26-.02,.35,.6,1.73,.6,1.73l-1.47-2.15,2.62-1.56s1.43,1.21,1.33,2.2Z"/>
        <path d="M76.8,34.9c.31-.27,.64-.51,.97-.74,.33-.23,.67-.45,1.03-.64,.18-.1,.36-.18,.55-.27l.27-.14,.13-.07s-.03,.03-.02,.03c0,0,0,0,0,0,0,0,0-.02,0-.03,0-.02,0-.05,0-.07-.04-.19-.1-.39-.18-.57-.08-.18-.19-.35-.3-.51-.12-.16-.25-.31-.39-.44-.14-.13-.29-.28-.43-.39-.02-.01-.03-.03-.05-.03,0,0-.01,0-.01,0,0,0,0,0,.02,0,0,0,.02,0,.04,0,0,0,.08-.02,.08-.02l-.13,.08-.25,.17c-.17,.11-.34,.22-.52,.32-.7,.41-1.41,.79-2.17,1.11l-.02-.03c.63-.53,1.29-.99,1.98-1.42,.17-.11,.34-.21,.52-.31l.26-.15,.13-.08s.08-.03,.1-.03c.02,0,.05,0,.06,0,.03,0,.04,.01,.05,.02,.02,.01,.04,.02,.05,.03,.03,.02,.05,.04,.07,.06,.16,.15,.3,.3,.43,.46,.14,.17,.24,.35,.34,.53,.19,.37,.31,.77,.42,1.16l.02,.08s0,.03,0,.05c0,0,0,.02,0,.03,0,0-.02,.06-.04,.06l-.12,.09-.24,.18c-.16,.12-.32,.25-.49,.36-.33,.23-.69,.43-1.04,.62-.36,.19-.72,.38-1.1,.52l-.02-.03Z"/>
      </g>
      <g>
        <path class="cls-1" d="M91.39,46.47c-1.42,.87-3.12,.69-3.79-.4l-.76-1.24c-.67-1.09-.06-2.68,1.37-3.55l10.79-6.6c1.42-.87,3.12-.69,3.79,.4l.76,1.24c.67,1.09,.06,2.68-1.37,3.55l-10.79,6.6Z"/>
        <path d="M100.22,34.17c.32-.08,.65-.12,.98-.09,.33,.02,.66,.11,.96,.27,.3,.16,.56,.4,.74,.69l.53,.82,.26,.41c.09,.15,.16,.32,.21,.49,.09,.34,.09,.7,.02,1.04-.14,.68-.54,1.28-1.04,1.73-.25,.23-.54,.41-.82,.57l-.84,.48c-.56,.32-1.13,.64-1.68,.98-1.11,.67-2.21,1.36-3.3,2.07-1.09,.71-2.18,1.41-3.28,2.09l-.82,.52-.41,.26c-.14,.09-.27,.17-.42,.26-.59,.33-1.28,.51-1.98,.47-.35-.02-.69-.11-1.01-.26-.32-.15-.6-.39-.8-.69-.05-.08-.09-.15-.13-.22l-.12-.21-.25-.42-.25-.42c-.08-.14-.17-.3-.22-.47-.11-.33-.12-.69-.07-1.03,.06-.34,.18-.65,.35-.94,.34-.58,.85-1.03,1.43-1.34l.02,.03c-.54,.36-.99,.83-1.28,1.4-.29,.56-.39,1.22-.18,1.78,.05,.14,.12,.26,.21,.4l.26,.41,.26,.41,.13,.21c.04,.07,.09,.14,.13,.19,.34,.48,.94,.73,1.54,.76,.6,.04,1.22-.13,1.76-.41,.13-.07,.27-.16,.41-.24l.42-.25,.83-.5c1.11-.67,2.23-1.32,3.36-1.97,1.12-.65,2.24-1.31,3.34-1.99,.55-.34,1.09-.7,1.64-1.05l.82-.53c.28-.17,.52-.35,.75-.57,.45-.43,.79-.97,.92-1.56,.06-.3,.07-.6,0-.89-.04-.14-.09-.28-.16-.41l-.25-.42-.49-.84c-.15-.27-.37-.49-.63-.65-.26-.16-.57-.26-.88-.31-.31-.05-.64-.04-.96,0v-.04Z"/>
      </g>
      <g>
        <path class="cls-1" d="M91.03,45.88c-1.42,.87-3.12,.69-3.79-.4l-.76-1.24c-.67-1.09-.06-2.68,1.37-3.55l10.79-6.6c1.42-.87,3.12-.69,3.79,.4l.76,1.24c.67,1.09,.06,2.68-1.37,3.55l-10.79,6.6Z"/>
        <path d="M99.89,40.44s-7.4,4.09-6.92,3.24c.48-.85,7.22-5.19,7.22-5.19,0,0-11.67,7.14-11.52,6.22,.1-.58,2.54-2.42,4.62-3.61-2.24,1.29-5.09,3.06-4.83,2.36,.28-.75,4.49-3.41,7.07-4.87-2.16,1.22-5.42,3.28-7.12,3.79-2.59,.79,3.62-3.21,7.41-5.53s5.08-2.81,6.48-1.25c.97,1.08,.52,2.67,.52,2.67,.04,0,.07-.01,.11-.02,.57-.82,.7-1.78,.25-2.52l-.76-1.24c-.67-1.09-2.36-1.27-3.79-.4l-10.79,6.6c-1.42,.87-2.03,2.46-1.37,3.55l.76,1.24c.67,1.09,2.36,1.27,3.79,.4l8.82-5.39s.05-.05,.05-.05Z"/>
        <path d="M91.04,45.89c-.4,.25-.85,.42-1.31,.51-.46,.09-.95,.08-1.41-.05-.46-.13-.89-.42-1.15-.84l-.76-1.18c-.28-.41-.38-.94-.31-1.44,.07-.5,.28-.96,.57-1.35,.29-.4,.66-.73,1.08-.98l1.21-.73c1.61-.96,3.24-1.89,4.85-2.86,1.61-.97,3.2-1.97,4.78-2.97,.41-.26,.86-.45,1.34-.54,.48-.09,.98-.09,1.46,.06,.48,.14,.92,.45,1.19,.89l.74,1.2c.28,.43,.37,.98,.29,1.47-.07,.5-.29,.97-.58,1.37-.29,.4-.67,.74-1.09,.99l-1.2,.74c-1.61,.97-3.21,1.94-4.84,2.87-1.63,.94-3.26,1.87-4.86,2.85Zm-.02-.03c1.6-.98,3.17-2.01,4.75-3.03,1.57-1.03,3.17-2.02,4.76-3l1.2-.73c.38-.23,.72-.54,.98-.89,.27-.35,.46-.76,.53-1.19,.07-.43,0-.87-.23-1.23l-.73-1.21c-.22-.37-.58-.64-1-.78-.84-.28-1.82-.09-2.6,.37-1.62,.95-3.23,1.91-4.82,2.9-1.59,.99-3.17,2.02-4.75,3.02l-1.19,.74c-.38,.24-.72,.54-.99,.9-.27,.36-.47,.77-.54,1.2-.07,.43-.02,.89,.21,1.27l.7,1.22c.22,.39,.6,.68,1.04,.83,.43,.15,.91,.17,1.37,.1,.46-.08,.9-.25,1.3-.49Z"/>
      </g>
      <g>
        <path class="cls-1" d="M34.94,55.18c-1,.61-3.72-2.02-6.08-5.87-2.36-3.85-3.46-7.47-2.46-8.09,1-.61,3.72,2.02,6.08,5.87,2.36,3.85,3.46,7.47,2.46,8.09Z"/>
        <path d="M34.45,55.26s-.03-.02-.05-.03c-1.74-.97-2.69-2.84-2.78-3.12-.11-.32,.8-.65,.87-1.02,.03-.48-.24-1.19-.5-1.74-.47-.97-1.11-2.11-1.82-2.93-.19-.22-1.04-1.15-1.45-.96-.54,.26-.88-.3-1.14-1.14-.42-1.34,.96-.64,.96-.64,3.19,2,6.06,7.88,6.4,8.56-.45-1.44-1.3-3.26-2.45-5.14-2.36-3.85-5.08-6.48-6.08-5.87-1,.61,.1,4.23,2.46,8.09,2.04,3.33,4.35,5.75,5.59,5.94Z"/>
        <path d="M34.95,55.2c-.16,.1-.37,.11-.55,.07-.18-.03-.36-.11-.52-.19-.33-.16-.63-.38-.93-.61-.58-.46-1.11-.98-1.61-1.52-1-1.09-1.86-2.3-2.62-3.57-.74-1.27-1.39-2.61-1.93-3.97-.27-.69-.52-1.38-.69-2.1-.08-.36-.15-.73-.16-1.1,0-.19,0-.38,.06-.57,.05-.19,.15-.38,.34-.51,.03-.02,.09-.05,.14-.07,.05-.02,.1-.03,.16-.04,.1-.01,.21,0,.31,.01,.2,.03,.38,.11,.55,.19,.34,.17,.65,.39,.94,.62,.58,.47,1.1,1,1.59,1.56,.98,1.11,1.84,2.32,2.61,3.58,.76,1.26,1.45,2.58,1.95,3.97,.25,.69,.48,1.4,.62,2.13,.07,.36,.12,.73,.12,1.1,0,.18-.02,.37-.07,.55-.05,.18-.15,.35-.32,.45Zm-.02-.03c.15-.09,.24-.26,.29-.43,.05-.17,.06-.36,.06-.54-.01-.36-.07-.73-.16-1.08-.18-.71-.45-1.39-.74-2.06-.6-1.33-1.3-2.62-2.06-3.86-.77-1.24-1.59-2.45-2.53-3.56-.47-.55-.97-1.09-1.51-1.56-.27-.23-.56-.45-.87-.62-.15-.08-.31-.15-.48-.19-.16-.04-.32-.03-.46,.05-.12,.07-.22,.22-.26,.38-.05,.16-.07,.34-.07,.52,0,.36,.05,.72,.12,1.08,.15,.71,.39,1.41,.67,2.08,.28,.68,.61,1.33,.96,1.97,.35,.64,.73,1.27,1.12,1.88,.78,1.23,1.62,2.43,2.53,3.57,.46,.57,.95,1.11,1.5,1.6,.27,.24,.57,.46,.89,.64,.16,.09,.33,.16,.51,.19,.18,.04,.36,.03,.52-.06Z"/>
      </g>
      <g>
        <path d="M20.01,51.07s-.52,.28-.81,.91c-.44,.97-1.07,1.47-2.91,1.4,0,0,1.86,1.04,3.04-.07,1.18-1.11,.68-2.25,.68-2.25Z"/>
        <g>
          <path class="cls-1" d="M17.35,59.85l-3.12-5.1,2.08-1.27s1.14,.09,1.32,.1c1.61,.08,2.09-.93,2.45-2.41l8.69-5.32s1.03,1.24,1.74,2.4c.62,1.02,1.11,2.05,1.38,2.69l-14.55,8.9Z"/>
          <path d="M27.82,50.52c.69-.25,1.41-.5,2.13-.64,1.25-.25-.2,1.01-.49,1.23-.75,.56-1.52,1.08-2.3,1.61-.33,.22-.66,.43-.97,.67-.97,.7,3.45-1.96,4.05-2.3,.55-.3,1.31-.08,1.45-.04,0,0,0,.01,0,.01,0,0,.01,0,.02,0l.18-.11c-.27-.64-.64-1.72-1.26-2.74-.71-1.16-1.86-2.36-1.86-2.36l-8.69,5.32c-.36,1.48-.85,2.49-2.45,2.41-.19,0-1.32-.1-1.32-.1l-2.08,1.27,3.12,5.1s-.18-1.06-1.04-2.74-.33-2.17,1.49-2.18c1.82,0,2.63-1.22,3.22-2.25,.59-1.02,5.38-3.68,7.29-4.63,.25-.12,.54-.18,.82-.14,.74,.1-.54,1.33-.69,1.48-.88,.88-2.04,1.52-3.09,2.16-1.34,.81-2.67,1.62-4,2.44-.25,.15-.5,.3-.74,.45,.81-.47,1.63-.94,2.45-1.41,1.29-.74,2.58-1.47,3.89-2.16,.09-.05,.43-.19,.87-.35Z"/>
          <path d="M17.33,59.86c-.55-.83-1.09-1.67-1.63-2.51-.53-.84-1.07-1.68-1.6-2.52l-.08-.12,.13-.08,2.07-1.29,.05-.03h.06c.42,.05,.86,.11,1.27,.14,.41,.02,.82-.04,1.16-.24,.34-.19,.59-.52,.78-.88,.19-.37,.31-.77,.42-1.19v-.05s.06-.02,.06-.02l2.2-1.29c.73-.43,1.46-.87,2.18-1.31l2.17-1.34,2.15-1.36,.07-.04,.06,.06c.37,.35,.71,.73,1.04,1.11,.33,.39,.63,.8,.91,1.23,.55,.86,.96,1.8,1.27,2.78l.04,.13-.12,.07c-1.21,.75-2.41,1.5-3.63,2.24-1.21,.74-2.43,1.48-3.65,2.21-1.22,.72-2.44,1.46-3.67,2.18-1.23,.72-2.45,1.44-3.69,2.14h-.02s0,0,0,0Zm.02-.04c1.18-.78,2.37-1.54,3.57-2.3,1.2-.77,2.4-1.52,3.61-2.27,1.2-.76,2.41-1.5,3.62-2.24,1.21-.74,2.43-1.47,3.65-2.21l-.08,.21c-.29-.95-.68-1.87-1.19-2.72-.26-.42-.55-.83-.85-1.22-.31-.39-.63-.77-.98-1.13h.13s-2.19,1.31-2.19,1.31l-2.18,1.32c-.72,.44-1.45,.89-2.16,1.35l-2.15,1.37,.06-.08c-.1,.42-.21,.85-.4,1.26-.18,.4-.47,.8-.88,1.04-.41,.25-.89,.31-1.33,.29-.23-.01-.44-.04-.66-.06l-.64-.08,.11-.02-2.09,1.26,.05-.2c.51,.85,1.01,1.72,1.52,2.57,.5,.85,.99,1.71,1.48,2.57Z"/>
        </g>
      </g>
      <g>
        <path d="M83.92,52.92s0,.27,0,.27c0,0,.88-.51,1.33-.8,.45-.29,.62-.71,.74-1.28,.13-.57-.35-.93-.78-.4-.43,.54-1.29,2.12-1.3,2.2Z"/>
        <path d="M83.92,53.18s-.01-.02-.02-.04c-.41-.69-.84-1.37-1.26-2.05-.9-1.46-1.82-2.98-2.72-4.44-1.07-1.75-2.05-3.42-3.11-5.18-1.17-1.93-2.29-3.78-3.49-5.7-.57-.91-1.33-2.44-2.36-3.1-.5-.32-.81-.26-1.35-.39-1.11-.27-1.83-1.26-2.4-2.18-1.15-1.88-2.3-3.76-3.45-5.64-.89-1.45,.4-2.73,.4-2.73,0,0,3.22,3.62,3.93,4.4,.7,.79,4.93,4.53,8.11,9.73,3.18,5.19,7.71,12.33,7.71,12.33l.88,2.8s-.19,1.8-.88,2.19Z"/>
        <path class="cls-1" d="M84.01,52.82s-.01-.02-.02-.04c-.41-.69-.84-1.37-1.26-2.05-.9-1.46-1.82-2.98-2.72-4.44-1.07-1.75-2.05-3.42-3.11-5.18-1.17-1.93-2.29-3.78-3.49-5.7-.57-.91-1.33-2.44-2.36-3.1-.5-.32-.81-.26-1.35-.39-1.11-.27-1.83-1.26-2.4-2.18-1.15-1.88-2.3-3.76-3.45-5.64-.89-1.45,.4-2.73,.4-2.73,0,0,3.22,3.62,3.93,4.4s4.93,4.53,8.11,9.73c3.18,5.19,7.71,12.33,7.71,12.33l.88,2.8s-.19,1.8-.88,2.19Z"/>
        <path d="M84.12,50.52s-2.94-4.9-4.32-7.15c-1.38-2.25-3.98-6.14-1.94-2.77,2.04,3.37,4.72,7.71,4.4,7.68-.32-.03-4.12-6.61-4.62-7.41-.49-.81,2.85,5.42,4.49,8.1s1.71,3.57,2,1.55Z"/>
        <path d="M84.01,52.83s0,0-.01,0c0,0-.02-.01-.02-.01v-.02s-.03-.03-.03-.03l-.04-.06-.08-.13-.16-.26-.32-.52-.64-1.03c-.43-.68-.85-1.37-1.28-2.05-.86-1.37-1.73-2.72-2.58-4.1-1.69-2.75-3.36-5.5-5.04-8.25l-.63-1.04c-.21-.35-.4-.7-.61-1.04-.21-.34-.42-.68-.67-.99-.24-.31-.51-.6-.83-.83-.16-.11-.32-.21-.5-.27-.18-.06-.38-.08-.58-.12-.4-.06-.81-.21-1.15-.44-.69-.46-1.17-1.15-1.59-1.84-.83-1.38-1.68-2.75-2.53-4.13l-.63-1.03-.32-.51c-.11-.18-.2-.37-.25-.57-.11-.41-.07-.85,.08-1.24,.15-.39,.37-.74,.67-1.05l.08-.08,.08,.09,2.73,3.11,.68,.78c.23,.26,.45,.52,.69,.76,.49,.48,.99,.96,1.47,1.45,1.94,1.97,3.77,4.06,5.35,6.34,.39,.57,.77,1.15,1.13,1.74l1.08,1.76c.72,1.17,1.45,2.35,2.17,3.52l4.31,7.06h0s0,.01,0,.01l.42,1.4,.43,1.4h0s0,.01,0,.01c-.05,.4-.13,.8-.26,1.18-.06,.19-.14,.38-.24,.56-.1,.18-.22,.35-.4,.45h0Zm-.01-.03c.17-.1,.29-.27,.38-.44,.09-.17,.17-.36,.23-.55,.12-.38,.2-.78,.24-1.17h0s-.45-1.38-.45-1.38l-.46-1.39h0c-1.51-2.3-3.03-4.6-4.5-6.93-.75-1.16-1.48-2.33-2.2-3.5-.73-1.17-1.42-2.36-2.21-3.48-1.56-2.25-3.35-4.36-5.27-6.32l-1.45-1.47c-.25-.25-.47-.52-.69-.78l-.67-.79-2.67-3.16h.15c-.27,.28-.5,.61-.64,.97-.14,.36-.19,.76-.09,1.13,.08,.38,.33,.7,.53,1.05l.63,1.03c.84,1.38,1.67,2.76,2.52,4.13,.42,.68,.9,1.35,1.56,1.78,.33,.21,.7,.34,1.1,.39,.2,.03,.4,.05,.61,.11,.2,.06,.4,.17,.57,.28,.34,.24,.63,.54,.89,.86,.26,.32,.49,.66,.71,1,.22,.34,.42,.69,.63,1.03l.65,1.02c.85,1.37,1.71,2.74,2.53,4.12,.83,1.39,1.65,2.77,2.45,4.17,.81,1.39,1.64,2.78,2.46,4.17,.41,.7,.83,1.38,1.25,2.07l.63,1.03,.61,1.02h0Z"/>
      </g>
      <g>
        <path class="cls-1" d="M64.28,22.24l4.73,7.73s.39,.78,2.27,.55c0,0,.95-.14,1.54,.83,.66,1.07,11.88,19.36,11.88,19.36l1.69-.9-18.28-29.87s-.67-.71-1.93,.02c-1.23,.71-2.5,1.32-1.91,2.29Z"/>
        <path d="M74.2,30.81c2.35,3.52,9.29,14.35,11.06,17.11l-17.13-28.01s-.67-.71-1.93,.02c-1.23,.71-2.5,1.32-1.91,2.29l4.73,7.73s.39,.78,2.27,.55c0,0,1-.05,1.54,.83l9.09,14.86c-3.09-5.4-8.6-15.36-9.49-16.3-.66-.69-2.34,.16-3-.77-.63-.89-5.18-7.35-3.2-6.01,1.35,.91,2.13,.36,2.06-1.09-.06-1.22,3.21,4.73,5.91,8.78Z"/>
        <path d="M64.3,22.23l2.39,3.85,2.42,3.83h0s.01,0,.01,0c.03,.05,.09,.12,.15,.16,.06,.05,.13,.09,.21,.13,.15,.07,.31,.12,.48,.16,.34,.06,.69,.06,1.04,.03,.09,0,.18-.02,.26-.03,.1-.01,.2-.01,.3,0,.2,.02,.39,.07,.57,.15,.36,.16,.66,.45,.85,.78l1.14,1.84,1.12,1.85,1.12,1.85,1.11,1.86,2.22,3.72,2.24,3.71,2.27,3.69,.28,.46,.14,.23c.06,.1,.06,.11,.14,.11,.15,0,.31-.1,.46-.18,.15-.09,.3-.19,.46-.29,.16-.09,.3-.19,.46-.28,.03-.02,.06-.05,.07-.06,0-.02,0-.02,0-.06-.02-.07-.06-.15-.1-.23-.08-.15-.18-.3-.28-.46l-.29-.46-2.3-3.67c-3.05-4.9-6.08-9.82-9.08-14.75-.76-1.23-1.49-2.47-2.24-3.71-.75-1.24-1.48-2.48-2.21-3.72l-1.1-1.86-.54-.92c-.25-.23-.62-.32-.96-.29-.35,.03-.68,.18-.99,.36-.31,.18-.63,.35-.94,.54-.3,.19-.61,.4-.83,.68-.11,.14-.19,.3-.2,.48,0,.18,.05,.35,.14,.5Zm-.03,.02c-.1-.15-.16-.34-.16-.52,0-.19,.09-.36,.2-.51,.23-.29,.53-.5,.83-.7,.31-.19,.62-.37,.93-.55,.31-.19,.65-.35,1.02-.39,.37-.05,.76,.03,1.06,.29,.04,.04,.07,.09,.09,.13,.02,.04,.05,.07,.07,.11l.14,.23,.29,.46,1.16,1.83c.77,1.22,1.55,2.44,2.31,3.66,.76,1.22,1.53,2.45,2.28,3.68,3.03,4.92,6.02,9.85,9,14.8l2.22,3.72,.28,.46c.09,.15,.19,.31,.28,.47,.04,.08,.08,.17,.11,.27,.02,.04,.02,.14-.02,.2-.04,.06-.08,.1-.13,.12-.16,.09-.31,.19-.47,.28-.15,.09-.3,.19-.46,.28-.16,.08-.33,.18-.54,.19-.05,0-.12-.01-.18-.06-.06-.06-.06-.09-.09-.13l-.14-.23-.28-.46-2.25-3.7-2.28-3.68-2.3-3.67-1.15-1.83-1.14-1.84-1.14-1.84-1.12-1.85c-.17-.3-.41-.54-.71-.67-.15-.07-.31-.11-.47-.13-.08,0-.16,0-.24,0-.09,.01-.18,.02-.28,.02-.37,.02-.74,.01-1.11-.07-.18-.04-.37-.1-.54-.19-.17-.1-.33-.2-.45-.4h0s-2.31-3.89-2.31-3.89l-2.34-3.88Z"/>
      </g>
      <g>
        <path class="cls-1" d="M67.41,22.88c-.4,.24-.99,.01-1.32-.52-.33-.53-.27-1.16,.13-1.41,.4-.24,.99-.01,1.32,.52,.33,.53,.27,1.16-.13,1.41Z"/>
        <path d="M67.56,21.5c.14,.21,.23,.46,.24,.72,0,.26-.1,.55-.34,.71-.24,.17-.55,.15-.8,.05-.25-.11-.46-.3-.61-.52-.15-.22-.24-.48-.25-.76,0-.27,.07-.56,.29-.75,.22-.19,.53-.2,.78-.11,.25,.1,.45,.27,.59,.49-.17-.19-.38-.34-.62-.4-.23-.07-.49-.03-.65,.13-.16,.16-.23,.4-.21,.63,.01,.23,.1,.46,.23,.66,.13,.2,.31,.36,.52,.46,.21,.1,.46,.11,.65,0,.2-.11,.31-.35,.32-.59,.02-.24-.04-.49-.15-.72Z"/>
      </g>
      <path class="cls-1" d="M84.77,50.85s-.02,.02-.03,.04c-.16,.21-.22,.48-.32,.72-.15,.36-.27,.72-.41,1.09-.1,.26,.56-.23,.63-.28,.23-.14,.46-.28,.69-.42,.18-.11,.31-.18,.4-.38,.1-.2,.17-.46,.25-.67,.08-.21,.17-.42,.26-.64,.05-.14,.16-.35,.13-.49-.06-.05-.46,.25-.51,.29-.19,.13-.38,.26-.58,.38-.18,.11-.37,.2-.51,.36Z"/>
      <path d="M85.7,51.55h.08c.08-.19,.15-.41,.22-.6,.08-.21,.17-.42,.26-.64,.05-.14,.16-.35,.13-.49-.06-.05-.46,.25-.51,.29-.19,.13-.38,.26-.58,.38-.18,.11-.37,.2-.51,.36,0,.01-.02,.02-.03,.04-.16,.21-.22,.48-.32,.72-.12,.31-.24,.62-.35,.93,0,.1,.01,.18,.02,.22,.01,0,.02,0,.03-.01,.15-.3,.93-1.81,1.4-2.05,.52-.26,.18,.86,.18,.86Z"/>
      <path d="M84.78,50.85c-.16,.2-.23,.44-.3,.68-.08,.24-.13,.48-.19,.72-.03,.12-.07,.25-.11,.37l-.04,.09-.02,.04s0,.01-.01-.02c-.03-.03-.04-.02-.03-.02,0,0,.02,0,.03,0,.03,0,.05-.02,.08-.03,.22-.11,.43-.26,.65-.38,.21-.14,.42-.28,.62-.43,.1-.07,.18-.16,.22-.26,.05-.11,.09-.23,.14-.35l.24-.71c.04-.12,.09-.24,.12-.35,.03-.11,.04-.23,.03-.32h0s0,0,0,0c0,.03,.02,.05,.04,.07,.01,0,.02,0,.03,.01,0,0,.01,0,.02,0,0,0,.01,0,.01,0,0,0,0,0-.01,0-.01,0-.03,.01-.04,.02-.03,.02-.06,.04-.09,.06l-.19,.12c-.13,.08-.27,.16-.4,.23-.14,.07-.27,.15-.41,.22-.14,.07-.27,.15-.37,.26Zm-.01-.01c.1-.12,.23-.21,.36-.29s.25-.18,.37-.27c.12-.09,.25-.19,.37-.28,.06-.05,.12-.09,.19-.14,.03-.02,.07-.04,.1-.07,.02-.01,.04-.02,.06-.03,.01,0,.02-.01,.04-.02,0,0,.02,0,.04,0,0,0,.02,0,.02,0,0,0,.02,0,.03,.01,.03,.02,.05,.05,.05,.08h0c.06,.3-.08,.55-.16,.77-.09,.23-.17,.47-.28,.71-.05,.12-.11,.23-.17,.34-.06,.12-.18,.22-.29,.28-.22,.13-.43,.27-.64,.41-.11,.07-.21,.14-.31,.22-.1,.08-.2,.16-.31,.23-.03,.02-.06,.03-.09,.05-.02,0-.04,.01-.06,.02-.02,0-.07,.02-.12-.04-.03-.06-.01-.08-.01-.11v-.05s.04-.09,.04-.09l.11-.36c.07-.24,.16-.49,.27-.71,.11-.23,.21-.46,.37-.66Z"/>
      <g>
        <path class="cls-1" d="M66.19,26.49c.82,1.34,.58,2.52,.58,2.52l-6.03,3.69s-.06-1.11-.81-2.33l-.02-.03c-.75-1.23-1.59-1.85-1.59-1.85l5.91-3.63s1.16,.32,1.98,1.67l-.02-.04Z"/>
        <path d="M66.19,26.49s0,.01,.01,.02c0,0,0,.01,.01,.02l-.02-.04Zm-5.03,5.38c.52-.6,4.07-2.66,1.78-1.42-2.29,1.23-2.98,.08-2.91-.68,.05-.53,3.3-2.2,3.81-2.61,.48-.39-4.12,2.24-4.45,1.84-.29-.36,.83-1.04,2.79-2.23,1.95-1.19,2.33-.98,2.33-.98,1.43,.26,2.29,2.75,2.29,2.75h0c0-.46-.11-1.21-.6-2.02-.82-1.32-1.97-1.65-1.97-1.65l-5.91,3.63s.84,.62,1.59,1.85l.02,.03c.75,1.23,.81,2.33,.81,2.33l.06-.04c.05-.26,.15-.55,.36-.79Zm2.79-4.53s.02,0,.02,0c0,0,0,0-.02,0Z"/>
        <path d="M66.2,26.48c.26,.36,.45,.77,.58,1.2,.06,.22,.1,.44,.13,.66,.02,.23,.03,.45,0,.69v.05s-.06,.04-.06,.04c-.5,.32-.99,.64-1.49,.96-.5,.32-1,.62-1.51,.92l-1.54,.88c-.52,.29-1.02,.59-1.53,.9l-.08,.05v-.09c-.04-.41-.14-.81-.28-1.2-.14-.39-.33-.76-.55-1.1-.23-.34-.48-.67-.75-.98-.26-.31-.55-.62-.85-.88l-.18-.15,.2-.12,1.45-.92c.48-.31,.97-.6,1.46-.9,.49-.29,.98-.59,1.48-.88,.49-.29,.99-.58,1.49-.86l.06-.03,.05,.02c.23,.08,.42,.19,.62,.31,.19,.12,.37,.26,.53,.42,.17,.15,.31,.32,.45,.5,.13,.18,.26,.36,.36,.56l-.04,.02-.02-.04,.03-.02Zm0,0l.03,.04-.04,.02c-.25-.36-.55-.68-.89-.95-.17-.13-.35-.25-.53-.36-.18-.1-.39-.19-.58-.24l.11-.02c-.48,.31-.96,.63-1.44,.93-.48,.31-.97,.61-1.45,.92-.49,.3-.98,.6-1.47,.89l-1.48,.88,.02-.28c.32,.3,.59,.62,.85,.96,.26,.34,.49,.69,.7,1.06,.21,.37,.38,.76,.5,1.16,.13,.4,.22,.81,.26,1.24l-.09-.05c.5-.31,1-.63,1.49-.96l1.48-.99c.5-.32,1-.64,1.5-.94,.5-.31,1.01-.61,1.52-.91l-.06,.09c.04-.19,.05-.41,.04-.62,0-.21-.03-.43-.07-.64-.08-.42-.23-.83-.43-1.22l.03-.02Z"/>
      </g>
      <path class="cls-1" d="M67.39,21.85c-.07,.04-.2-.03-.29-.18-.09-.14-.1-.29-.03-.34,.07-.04,.2,.03,.29,.18s.1,.29,.03,.34Z"/>
      <g>
        <path class="cls-1" d="M74.85,36.22c-.21,.13-.72-.33-1.14-1.02-.42-.69-.6-1.35-.39-1.48,.21-.13,.72,.33,1.14,1.02,.42,.69,.6,1.35,.39,1.48Z"/>
        <path d="M74.49,34.79c.15,.21,.28,.44,.38,.68,.05,.12,.09,.25,.12,.38,.01,.07,.02,.14,.02,.21,0,.07-.02,.16-.1,.22-.03,.03-.09,.04-.13,.04-.04,0-.08,0-.12-.02-.07-.02-.13-.06-.19-.1-.11-.08-.21-.17-.31-.26-.18-.19-.34-.41-.48-.63-.14-.22-.26-.46-.36-.7-.05-.12-.09-.25-.12-.38-.03-.13-.05-.27,0-.43,.01-.04,.04-.08,.08-.11,.01,0,.02-.01,.03-.02,0,0,.01,0,.03-.01,.03,0,.05-.01,.07-.01,.09,0,.15,.03,.22,.07,.12,.07,.22,.16,.31,.26,.18,.2,.33,.41,.45,.64-.16-.2-.33-.4-.52-.57-.09-.08-.19-.16-.3-.22-.05-.03-.11-.04-.15-.04-.01,0-.02,0-.02,0,0,0-.01,0-.02,0,0,0,0,0,0,0-.01,.01-.02,.03-.03,.05-.02,.1,0,.22,.03,.34,.03,.12,.07,.24,.12,.35,.1,.23,.22,.46,.35,.67,.13,.21,.28,.42,.45,.61,.08,.09,.17,.18,.27,.25,.09,.07,.22,.13,.27,.09,.03-.01,.05-.06,.05-.12,0-.06,0-.12,0-.18-.01-.12-.05-.25-.09-.37-.07-.24-.18-.48-.29-.71Z"/>
        <path class="cls-1" d="M74.49,35.33c-.05,.03-.21-.13-.35-.36-.14-.23-.21-.45-.16-.48,.05-.03,.21,.13,.35,.36,.14,.23,.21,.44,.16,.48Z"/>
      </g>
      <g>
        <path class="cls-1" d="M82.6,48.94c-.18,.11-.59-.21-.9-.72-.31-.51-.42-1.02-.23-1.13,.18-.11,.59,.21,.9,.72s.42,1.02,.23,1.13Z"/>
        <path d="M82.39,47.84c.12,.16,.22,.34,.29,.53,.03,.1,.06,.2,.07,.3,0,.05,0,.11,0,.17-.01,.06-.05,.13-.11,.16-.07,.04-.14,.03-.2,.02-.06-.01-.11-.04-.16-.07-.09-.06-.18-.12-.25-.19-.15-.14-.27-.31-.38-.48-.11-.18-.2-.36-.26-.56-.03-.1-.06-.2-.07-.31,0-.11-.02-.23,.07-.34,.01-.01,.03-.03,.04-.04,0,0,.01,0,.03-.02h.02s.07-.03,.11-.02c.06,0,.12,.03,.17,.05,.1,.05,.17,.12,.25,.19,.14,.15,.26,.32,.35,.49-.13-.15-.26-.31-.41-.43-.07-.06-.15-.12-.24-.15-.04-.02-.08-.03-.12-.03-.02,0-.04,0-.04,0,0,0,0,0-.01,0,0,0,0,0,0,0,0,0,0,0-.01,.02-.03,.05-.03,.14-.02,.23,.01,.09,.04,.18,.07,.27,.06,.18,.15,.35,.26,.51,.1,.16,.22,.32,.35,.46,.07,.07,.14,.13,.21,.18,.07,.05,.16,.08,.21,.06,.05-.01,.07-.11,.07-.2,0-.09-.02-.19-.04-.28-.04-.19-.12-.37-.2-.56Z"/>
        <path class="cls-1" d="M82.41,48.35c-.05,.03-.21-.13-.35-.36-.14-.23-.21-.45-.16-.48,.05-.03,.21,.13,.35,.36,.14,.23,.21,.44,.16,.48Z"/>
      </g>
    </g>
  </g>
</svg>